<?xml version="1.0" encoding="UTF-8" standalone="no"?>
<!DOCTYPE svg  PUBLIC '-//W3C//DTD SVG 1.1//EN'  'http://www.w3.org/Graphics/SVG/1.1/DTD/svg11.dtd'>
<svg xmlns="http://www.w3.org/2000/svg">
<defs>
<font id="AvantGardeBQ-Bold" horiz-adv-x="646">
<font-face underline-position="-75" font-weight="700" descent="-200" panose-1="0 0 0 0 0 0 0 0 0 0" units-per-em="1000" unicode-range="U+0020-2212" bbox="-175 -278 1134 942" x-height="540" underline-thickness="50" font-family="AvantGardeBQ" ascent="800" cap-height="706"/>
<missing-glyph horiz-adv-x="1000"/>
<glyph glyph-name=".notdef" horiz-adv-x="1000"/>
<glyph glyph-name=".null" horiz-adv-x="0"/>
<glyph glyph-name="nonmarkingreturn" horiz-adv-x="333"/>
<glyph glyph-name="space" horiz-adv-x="313" unicode=" "/>
<glyph glyph-name="exclam" horiz-adv-x="313" unicode="!" d="M260 162v-162h-166v162h166zM260 706v-473h-166v473h166z"/>
<glyph glyph-name="quotedbl" horiz-adv-x="396" unicode='&quot;' d="M111 408h-32l-54 250q-2 10 -2 23q0 9 1 14q4 26 25.5 40t48.5 14q24 0 42.5 -12.5t23.5 -35.5q1 -10 0 -31zM319 408h-31l-55 250q-2 24 -2 25q0 8 1 12q4 26 25.5 40t48.5 14q30 0 46 -15t20 -33q1 -4 1 -13q0 -13 -1 -18z"/>
<glyph glyph-name="numbersign" horiz-adv-x="667" unicode="#" d="M377 310l14 95h-100l-13 -95h99zM459 0h-126l27 186h-99l-26 -186h-124l25 186h-94v124h112l13 95h-100v124h117l25 177h124l-25 -177h100l24 177h125l-24 -177h91v-124h-109l-12 -95h98v-124h-116z"/>
<glyph glyph-name="dollar" horiz-adv-x="542" unicode="$" d="M197 869h148v-151q42 -15 68.5 -30.5t50.5 -44.5q7 -9 13 -18.5t10.5 -19t7.5 -17.5t5.5 -18t3.5 -16t2 -15.5t1 -13t0.5 -12t0.5 -9.5h-166q0 47 -29 61q-12 7 -30 7q-23 0 -38.5 -15t-14.5 -38q0 -18 9 -31.5t19.5 -20t28.5 -15.5q12 -6 35 -15.5t36.5 -15.5t32 -16 t33.5 -21q91 -60 91 -159q0 -54 -18 -95q-20 -47 -53.5 -76.5t-61.5 -41.5q-14 -7 -32 -12v-152h-148v147q-41 10 -71 28q-54 33 -78 88q-19 44 -23 124h171q1 -6 1 -17q6 -50 32 -67q16 -11 36 -11q27 1 43.5 19t16.5 44q0 33 -28 55q-7 6 -20.5 12.5t-24.5 11t-27 11 t-21 8.5q-85 37 -124 87q-21 24 -32 52q-12 33 -12 69q0 73 44 129q20 25 48 45q20 13 64 31v155z"/>
<glyph glyph-name="percent" horiz-adv-x="1167" unicode="%" d="M738 57q-67 67 -67 164q0 46 19 92q28 63 85.5 101t127.5 38q83 0 148 -53q39 -32 61 -80t22 -99q0 -50 -22 -96q-28 -62 -85 -98.5t-125 -36.5q-95 0 -164 68zM818 137q32 -35 85 -35q50 0 85 35t35 85t-35.5 85t-85.5 35q-49 0 -84 -35.5t-35 -85.5q0 -49 35 -84z M92 323q-68 68 -68 164q0 46 19 91q28 64 85.5 102t127.5 38q83 0 148 -54q39 -32 61 -79.5t22 -98.5q0 -50 -22 -96q-28 -62 -85 -98.5t-125 -36.5q-96 0 -163 68zM171 402q35 -35 85 -35q50 1 85 36t35 85t-35.5 85t-85.5 35q-50 -1 -84.5 -36t-34.5 -85q0 -49 35 -85z M740 706h109l-425 -706h-108z"/>
<glyph glyph-name="ampersand" horiz-adv-x="667" unicode="&amp;" d="M351 181l-100 100l-5 -3l-6 -4.5t-7.5 -5t-8.5 -6.5t-7.5 -8t-7.5 -10t-5.5 -11t-4 -13t-1.5 -15q0 -15 6 -26q18 -38 66 -38q36 0 81 40zM280 472q38 38 38 69q0 17 -10.5 29.5t-27.5 12.5t-27 -13t-10 -31q2 -32 37 -67zM375 383l76 -77q22 42 26 50q5 11 25 58h167 q-36 -84 -55 -126q-16 -32 -50 -96l92 -94l-111 -111l-81 80q-55 -45 -95 -60q-49 -19 -109 -19q-51 0 -93 14.5t-67.5 38.5t-41 46.5t-23.5 44.5q-9 33 -9 58q1 84 68 148q25 22 56 45q-62 74 -62 150q0 80 54.5 132.5t135.5 52.5h2q83 0 137 -55q47 -47 47 -112 q0 -25 -8 -57q-17 -56 -81 -111z"/>
<glyph glyph-name="quotesingle" horiz-adv-x="208" unicode="&apos;" d="M121 408h-32l-54 250q-2 6 -2 22q0 10 1 15q5 26 26 40t48 14q25 0 44 -13t23 -37v-9q0 -14 -1 -20z"/>
<glyph glyph-name="parenleft" horiz-adv-x="417" unicode="(" d="M405 836l-1 -203q-39 -28 -60 -46q-109 -96 -109 -242q2 -147 100 -238q27 -24 72 -53l-1 -205q-105 43 -161 90q-64 51 -109 119q-86 135 -86 281q0 129 59.5 244t164.5 188q52 35 131 65z"/>
<glyph glyph-name="parenright" horiz-adv-x="417" unicode=")" d="M14 -149v203q48 34 61 46q108 96 108 243q0 66 -26 129.5t-74 108.5q-24 23 -71 52v205q100 -40 162 -89q63 -50 108 -120q86 -128 86 -280q0 -130 -59 -245t-165 -187q-53 -36 -130 -66z"/>
<glyph glyph-name="asterisk" horiz-adv-x="333" unicode="*" d="M139 711l32 -71l40 68l66 -38l-47 -73l85 5v-83l-87 1l43 -82l-76 -37l-34 79l-41 -75l-68 42l50 73l-81 -1v81l86 -2l-42 78z"/>
<glyph glyph-name="plus" horiz-adv-x="667" unicode="+" d="M398 0h-128v228h-228v127h228v227h128v-227h227v-127h-227v-228z"/>
<glyph glyph-name="comma" horiz-adv-x="271" unicode="," d="M53 167h165v-180q-1 -26 -2 -40t-8 -33t-20 -35q-34 -40 -98 -40h-8h-29v82h9q33 0 46 13.5t13 43.5q0 14 -1 22h-67v167z"/>
<glyph glyph-name="hyphen" horiz-adv-x="313" unicode="-" d="M44 352h244v-165h-244v165z"/>
<glyph glyph-name="period" horiz-adv-x="271" unicode="." d="M53 167h166v-167h-166v167z"/>
<glyph glyph-name="slash" horiz-adv-x="437" unicode="/" d="M381 883h121l-443 -1046h-121z"/>
<glyph glyph-name="zero" horiz-adv-x="812" unicode="0" d="M145 92q-51 51 -79.5 119.5t-28.5 141.5q0 67 25 132t70 115q52 58 124.5 90t149.5 32q135 0 240 -89q61 -52 95 -126.5t34 -154.5q0 -137 -92 -243q-52 -59 -125.5 -92t-152.5 -33q-72 0 -140.5 28.5t-119.5 79.5zM267 212q58 -58 139 -58q71 0 126 46q72 58 72 153 q0 71 -45 125q-60 72 -153 72q-40 0 -81 -18q-53 -23 -85 -72.5t-32 -107.5q0 -81 59 -140z"/>
<glyph glyph-name="one" horiz-adv-x="562" unicode="1" d="M377 706v-706h-177v571h-81v135h258z"/>
<glyph glyph-name="two" horiz-adv-x="562" unicode="2" d="M299 164h233v-164h-499v132q67 61 134 125q33 30 57 55q61 63 85.5 100t24.5 77q0 16 -5 31q-7 19 -22.5 31t-36.5 12t-37 -13q-14 -12 -21.5 -32.5t-8.5 -33t-2 -39.5l-175 1v10q0 102 52 169q73 94 210 94q85 0 146 -40q91 -62 91 -171q0 -47 -13 -80 q-11 -30 -36.5 -66.5t-40 -52.5t-51.5 -55q-14 -15 -42.5 -45t-42.5 -45z"/>
<glyph glyph-name="three" horiz-adv-x="562" unicode="3" d="M28 212h177q3 -22 6 -30q18 -43 67 -43q30 0 49.5 21t19.5 52q0 40 -29 59q-18 13 -68 15h-47v135h26q31 1 50.5 8t31.5 29q11 20 11 48q0 26 -12 44t-37 18q-38 0 -50 -38q-3 -10 -3 -28h-173q5 55 17.5 89.5t46.5 66.5q27 27 61 42q25 9 43 13q26 7 62 7q38 0 87 -15 q58 -21 93.5 -69t35.5 -108q0 -74 -54 -124q-10 -10 -32 -25q12 -6 34 -18q55 -32 76 -84q13 -36 13 -68q-3 -99 -81 -165q-69 -58 -171 -58q-81 1 -144 34.5t-90 104.5q-11 29 -16 87z"/>
<glyph glyph-name="four" horiz-adv-x="562" unicode="4" d="M319 462l-112 -195l108 1q0 62 1 93q2 68 3 101zM311 706h178v-439h58v-145h-57v-122h-175v122h-294v136z"/>
<glyph glyph-name="five" horiz-adv-x="562" unicode="5" d="M492 706v-143h-256l-15 -94q59 21 99 21q48 0 92 -20q67 -29 103 -89t36 -134q0 -50 -17 -96q-10 -26 -27 -51.5t-46 -53t-76.5 -44.5t-106.5 -17q-141 0 -214 91q-20 24 -38 60q-11 23 -20 55h186q0 -4 14 -18q25 -25 66 -25q22 0 39 7q25 11 41 36t16 54 q-1 40 -28.5 67t-67.5 27q-48 0 -80 -41q-11 -19 -13 -25l-146 38l63 395h396z"/>
<glyph glyph-name="six" horiz-adv-x="562" unicode="6" d="M93 467l151 239h220l-164 -216q2 0 12.5 1t18.5 1q30 0 58 -8q73 -22 117 -89.5t44 -145.5q-1 -109 -79 -187t-187 -78q-82 0 -150 47q-115 81 -115 227q0 58 17.5 102.5t56.5 106.5zM219 184q27 -27 66 -27q38 0 65 27.5t27 65.5q0 39 -27 65.5t-66 26.5t-65.5 -27 t-26.5 -66t27 -65z"/>
<glyph glyph-name="seven" horiz-adv-x="562" unicode="7" d="M50 706h464v-144l-247 -562h-191l257 550h-283v156z"/>
<glyph glyph-name="eight" horiz-adv-x="562" unicode="8" d="M222 163q25 -24 59 -24t58.5 24.5t24.5 58.5q0 35 -24.5 59t-58.5 24q-35 0 -59.5 -24.5t-24.5 -58.5q3 -37 25 -59zM235 461q19 -19 45 -19q27 0 45.5 19t18.5 46q0 26 -19 44.5t-45 18.5q-27 0 -45.5 -19t-18.5 -45t19 -45zM431 387q25 -13 41 -26q40 -33 54.5 -76 t13.5 -74q0 -111 -102 -183q-66 -44 -160 -44q-56 0 -104 17q-68 25 -110.5 82t-42.5 127q0 100 82 158q4 3 26 16q-16 12 -24 18.5t-21.5 23t-20 39t-6.5 51.5q0 48 20 83q22 46 73.5 82.5t136.5 36.5q78 0 132 -39q36 -26 59 -66.5t23 -84.5q0 -63 -37 -109 q-10 -12 -33 -32z"/>
<glyph glyph-name="nine" horiz-adv-x="562" unicode="9" d="M471 237l-156 -237h-219l168 215q-12 -2 -33 -2q-33 0 -56 7q-73 22 -117 89.5t-44 146.5q1 109 79 186.5t187 77.5q83 0 150 -47q115 -79 115 -227q0 -58 -17.5 -102t-56.5 -107zM345 520q-27 27 -66 27q-38 0 -65 -27.5t-27 -65.5q0 -39 27 -65.5t66 -26.5t65.5 27 t26.5 66t-27 65z"/>
<glyph glyph-name="colon" horiz-adv-x="313" unicode=":" d="M96 166h165v-166h-165v166zM261 422v-168h-165v168h165z"/>
<glyph glyph-name="semicolon" horiz-adv-x="313" unicode=";" d="M95 167h165v-180q0 -73 -30 -108q-34 -40 -98 -40h-8h-29v82h9q33 0 46 13.5t13 43.5q0 14 -1 22h-67v167zM261 421v-168h-166v168h166z"/>
<glyph glyph-name="less" horiz-adv-x="667" unicode="&lt;" d="M667 -3l-667 292v124l667 296v-139l-490 -219l490 -216v-138z"/>
<glyph glyph-name="equal" horiz-adv-x="667" unicode="=" d="M667 333h-667v126h667v-126zM667 123h-667v128h667v-128z"/>
<glyph glyph-name="greater" horiz-adv-x="667" unicode="&gt;" d="M0 -3v138l489 216l-489 219v139l667 -296v-124z"/>
<glyph glyph-name="question" horiz-adv-x="583" unicode="?" d="M209 160h169v-160h-169v160zM377 210h-172q4 56 21 87t79 90q21 20 33.5 33.5t25 37t12.5 45.5q-1 25 -15.5 41t-39.5 16q-21 0 -38 -12q-27 -22 -27 -82h-176q0 30 1 45q8 73 53 125q25 28 51 44q60 38 138 38h8q83 0 141 -39q91 -62 91 -168q0 -95 -89 -177 q-8 -8 -28.5 -25.5t-30.5 -27.5q-27 -27 -38 -71z"/>
<glyph glyph-name="at" horiz-adv-x="896" unicode="@" d="M517 387q-16 47 -61 47q-30 0 -50 -20q-32 -26 -50.5 -76t-18.5 -95q0 -55 31 -77q17 -10 33 -10q42 0 80 53q18 26 30 65t12 72q0 22 -6 41zM556 463l10 40h90l-33 -159q-28 -135 -28 -162q0 -31 20 -31q11 0 27 12q22 16 44 51q57 91 57 204q0 74 -33 125 q-59 90 -191 90q-78 0 -153 -38q-99 -51 -157.5 -149t-58.5 -209q0 -128 81 -203q85 -79 223 -79q141 0 266 94q34 26 60 52l46 -62q-78 -70 -135 -102q-110 -61 -234 -61q-73 0 -145.5 23.5t-126.5 67.5q-116 97 -116 271q0 195 133.5 335t327.5 140q116 0 196 -64 q101 -81 101 -228q0 -25 -3 -49q-18 -156 -109 -246q-59 -59 -126 -59q-53 0 -77 34q-7 9 -14 34q-26 -29 -44 -42q-38 -26 -81 -26q-32 0 -65 15q-74 42 -74 154q0 92 46 173q67 114 171 114q50 0 81 -30q16 -13 24 -30z"/>
<glyph glyph-name="A" horiz-adv-x="729" unicode="A" d="M358 467l-70 -222h144zM436 710l286 -710h-208l-34 99h-239l-33 -99h-202l283 710h147z"/>
<glyph glyph-name="B" horiz-adv-x="583" unicode="B" d="M230 300v-147h55q24 0 39 4q50 14 50 71q0 21 -10 39q-18 31 -76 33h-58zM230 560v-126h58q14 0 27 4q38 13 38 60q0 48 -40 59q-7 2 -27 3h-56zM55 706h261q51 0 84.5 -7.5t61.5 -35.5q54 -51 54 -139q0 -79 -59 -125q-16 -12 -23 -15q37 -17 57 -32q59 -44 59 -131 q0 -111 -82 -174q-26 -21 -59.5 -31.5t-58 -12.5t-67.5 -3h-228v706z"/>
<glyph glyph-name="C" horiz-adv-x="792" unicode="C" d="M762 442h-196q-3 6 -17 27q-53 70 -142 70q-41 0 -76 -16q-51 -22 -81 -68t-30 -102q1 -38 14 -69q7 -16 18.5 -32.5t31.5 -36.5t52.5 -33t70.5 -13q31 0 61 10q45 16 77 54q9 11 22 33h196q-17 -53 -35 -87q-31 -58 -79.5 -100t-83.5 -58t-68 -24q-37 -10 -88 -10 q-63 0 -117.5 17t-92.5 45.5t-60.5 51.5t-39.5 48q-61 88 -61 199q0 67 19.5 125.5t51.5 97.5t58.5 62.5t53.5 39.5q82 48 184 48q130 0 233 -84q88 -72 124 -195z"/>
<glyph glyph-name="D" horiz-adv-x="729" unicode="D" d="M238 547v-385h102q53 2 75 11q31 13 52 40.5t28.5 58t10 48t2.5 30.5q0 26 -5 49q-21 105 -104 136q-31 12 -90 12h-71zM58 706h278h21q68 0 115 -15q78 -25 131.5 -91.5t72.5 -151.5q10 -38 10 -90q0 -153 -89 -256q-51 -58 -113 -81q-51 -19 -156 -21h-270v706z"/>
<glyph glyph-name="E" horiz-adv-x="500" unicode="E" d="M457 706v-157h-215v-106h215v-166h-214v-116h216v-161h-403v706h401z"/>
<glyph glyph-name="F" horiz-adv-x="500" unicode="F" d="M465 706v-159h-230v-113h229v-165h-229v-269h-179v706h409z"/>
<glyph glyph-name="G" horiz-adv-x="812" unicode="G" d="M752 470h-204q-20 25 -21 26q-47 44 -121 44q-39 0 -74 -15q-51 -22 -82.5 -69t-31.5 -103q0 -66 41 -117q61 -71 147 -71q75 0 129 51q4 4 21 30h-196v150h416q-4 -91 -20.5 -152t-63.5 -119q-52 -66 -128.5 -102t-161.5 -36q-126 0 -225 80q-138 110 -138 286 q0 183 150 296q95 71 215 71q61 0 114 -16.5t90 -44t59.5 -50t39.5 -47.5q22 -34 45 -92z"/>
<glyph glyph-name="H" horiz-adv-x="688" unicode="H" d="M633 706v-706h-179v266h-216v-266h-181v706h181v-268h215v268h180z"/>
<glyph glyph-name="I" horiz-adv-x="292" unicode="I" d="M56 706h180v-706h-180v706z"/>
<glyph glyph-name="J" horiz-adv-x="542" unicode="J" d="M306 706h180v-467q-2 -79 -15 -114q-24 -66 -86.5 -102.5t-135.5 -36.5q-62 0 -112 25q-29 16 -50 34q-35 29 -53 71q-14 35 -19 112h190l-1 -2v-3.5v-5.5q0 -67 53 -67q23 0 36 19q13 17 13 54v483z"/>
<glyph glyph-name="K" d="M54 706h180v-312l208 312h205l-239 -356l232 -350h-219l-187 294v-294h-180v706z" unicode="K"/>
<glyph glyph-name="L" horiz-adv-x="479" unicode="L" d="M55 706h182v-541h212v-165h-394v706z"/>
<glyph glyph-name="M" horiz-adv-x="875" unicode="M" d="M55 706h237q45 -132 87 -264q12 -36 32.5 -103t24.5 -81q24 84 54 181q9 28 26 79.5t24 74.5q7 20 37 113h240v-706h-169v285q0 65 4 191q-38 -124 -58 -186q-23 -70 -53 -157q-7 -22 -22 -66.5t-23 -66.5h-130l-75 223q-22 68 -34 105q-26 84 -44 143q0 -32 1.5 -96 t2.5 -97v-278h-162v706z"/>
<glyph glyph-name="N" horiz-adv-x="708" unicode="N" d="M478 317v389h177v-706h-158l-266 386v-386h-176v706h157q126 -178 182 -263q13 -19 27 -40l31 -46.5t26 -39.5z"/>
<glyph glyph-name="O" horiz-adv-x="812" unicode="O" d="M275 222q53 -55 132 -55q80 0 136 59q51 54 51 128q0 32 -12 66q-21 54 -69 87.5t-106 33.5q-76 0 -131 -54q-56 -54 -56 -133q0 -77 55 -132zM147 95q-51 51 -79.5 120t-28.5 140q0 134 88 239q52 60 126.5 94.5t153.5 34.5q136 -1 239 -88q61 -52 95 -126.5t34 -154.5 q0 -132 -87 -237q-52 -61 -126.5 -95.5t-154.5 -34.5q-72 0 -140.5 28.5t-119.5 79.5z"/>
<glyph glyph-name="P" horiz-adv-x="583" unicode="P" d="M241 547v-159h54q27 0 42 5q19 5 35 23t16 51q0 59 -50 75q-14 5 -41 5h-56zM57 706h234q83 0 125 -13q74 -22 113.5 -83t39.5 -141q0 -79 -40 -142.5t-112 -88.5q-37 -12 -109 -13h-68v-225h-183v706z"/>
<glyph glyph-name="Q" horiz-adv-x="812" unicode="Q" d="M457 176q-22 26 -34 37q-54 51 -122 51q-23 0 -51 -11q21 -28 30 -36q50 -50 120 -50q26 0 57 9zM222 384q52 23 99 23q54 0 104 -24q16 -8 34 -20t31.5 -23t28.5 -24.5t23.5 -22t17.5 -18.5l10 -10q23 52 23 90q0 69 -45 122q-57 64 -142 64q-41 0 -77.5 -18t-53 -35 t-27.5 -35q-16 -26 -26 -69zM797 125l-1 -148h-27q-70 0 -117 22q-28 14 -56 39q-29 -15 -43.5 -22t-56 -18t-84.5 -11q-145 0 -250 94q-58 51 -90.5 124t-32.5 150q0 138 94 245q52 58 124.5 90.5t150.5 32.5q50 0 117 -20t128 -75q57 -51 89.5 -124.5t32.5 -148.5 q0 -83 -37 -159q-5 -11 -24 -44q30 -25 83 -27z"/>
<glyph glyph-name="R" horiz-adv-x="604" unicode="R" d="M235 549v-195h57q1 0 10 0.5t20 2t20 4.5q23 7 43.5 30.5t20.5 65.5q0 31 -14 53q-15 24 -37.5 31t-59.5 8h-60zM56 706h262q61 0 101 -8.5t77 -37.5q89 -68 89 -195q-1 -73 -30.5 -120.5t-65.5 -72.5q-24 -15 -63 -31l171 -241h-218l-144 227v-227h-179v706z"/>
<glyph glyph-name="S" horiz-adv-x="542" unicode="S" d="M511 502h-167q0 18 -3 30q-4 18 -19.5 28t-34.5 10q-25 0 -40.5 -15t-15.5 -40q0 -19 10 -31q3 -5 7 -9t10 -8t10 -6.5t13.5 -7t14 -6.5t18 -7.5t19.5 -8.5q76 -33 116 -67q20 -17 32 -34q35 -47 35 -111q0 -115 -93 -185q-66 -48 -153 -48q-94 0 -148 42t-74 94 q-14 39 -16 111h171q0 -66 33 -85q16 -8 34 -8q27 0 43.5 16.5t17.5 43.5q0 8 -2 15.5t-4.5 13.5t-7.5 12t-8.5 10t-11.5 9t-11.5 7.5t-13 7t-12.5 6t-13.5 5.5t-12.5 5q-48 20 -76 36q-114 64 -114 183q0 86 63 147q69 68 175 68q40 0 79 -12q30 -10 55 -26.5t40.5 -36 t24.5 -34.5t15 -29q11 -28 15 -85z"/>
<glyph glyph-name="T" horiz-adv-x="500" unicode="T" d="M481 706v-159h-141v-547h-179v548h-138v158h458z"/>
<glyph glyph-name="U" d="M57 706h180v-448q2 -64 36 -87q20 -13 48 -13q20 0 36 7t25.5 18t14.5 20t7 18q3 12 3 41v444h180v-401q0 -84 -10 -128q-20 -87 -95 -143q-68 -48 -164 -48q-58 0 -104.5 15.5t-74 42t-43.5 52.5t-25 54q-13 43 -14 129v427z" unicode="U"/>
<glyph glyph-name="V" horiz-adv-x="750" unicode="V" d="M-3 706h195l162 -424q5 -13 15 -41t15 -41q6 18 13 38.5t15.5 45.5t13.5 39q31 84 74 197q46 124 68 186h183l-274 -706h-198z"/>
<glyph glyph-name="W" horiz-adv-x="938" unicode="W" d="M398 706h156l75 -272q16 -58 37 -148q13 71 30 145l63 275h178l-183 -706h-172l-74 278q-20 74 -32 125l-108 -403h-166l-201 706h196l66 -277q5 -23 15.5 -69.5t15.5 -69.5q9 44 29 130z"/>
<glyph glyph-name="X" horiz-adv-x="708" unicode="X" d="M510 706h197l-231 -354l226 -352h-215l-138 219l-139 -219h-200l243 371l-214 335h208l132 -205z"/>
<glyph glyph-name="Y" horiz-adv-x="604" unicode="Y" d="M1 706h198l84 -202q13 -33 23 -61q16 40 38 92l72 171h187l-209 -443v-263h-181v260z"/>
<glyph glyph-name="Z" horiz-adv-x="521" unicode="Z" d="M28 706h461v-145l-236 -402h238v-159h-463v123l253 425h-253v158z"/>
<glyph glyph-name="bracketleft" horiz-adv-x="396" unicode="[" d="M95 140v366q0 91 6 132q16 112 99 171q26 18 59 30.5t57 17.5t65 11v-166q-44 -2 -66 -14q-38 -22 -38 -80v-8v-513q2 -56 26 -77q20 -19 77 -23v-165q-48 5 -80 13q-141 39 -185 153q-18 49 -20 152z"/>
<glyph glyph-name="backslash" horiz-adv-x="354" unicode="\" d="M230 -18l-228 724h128l228 -724h-128z"/>
<glyph glyph-name="bracketright" horiz-adv-x="396" unicode="]" d="M301 550v-366q0 -91 -6 -132q-16 -113 -98 -170q-26 -19 -59 -31.5t-57 -17.5t-66 -11v166q48 4 66 15q38 21 38 79v8v513q0 55 -25 78q-22 18 -78 22l1 165q55 -5 79 -13q19 -5 38.5 -13t49.5 -25t56 -47t41 -68q20 -52 20 -152z"/>
<glyph glyph-name="asciicircum" horiz-adv-x="729" unicode="^" d="M615 311h-138l-110 231l-116 -231h-137l203 395h104z"/>
<glyph glyph-name="underscore" horiz-adv-x="500" unicode="_" d="M510 -240h-520v127h520v-127z"/>
<glyph glyph-name="grave" horiz-adv-x="313" unicode="`" d="M-76 824l271 -148l-59 -112l-282 122z"/>
<glyph glyph-name="a" d="M228 183q36 -36 86 -36q51 1 86.5 36.5t35.5 86.5q-1 51 -36.5 86.5t-86.5 35.5q-50 0 -86 -36.5t-36 -86.5q0 -51 37 -86zM427 507v33h163v-540h-157v43q-22 -16 -34 -23.5t-45 -19t-70 -11.5q-88 0 -159 65q-95 86 -95 216q0 97 59 177q80 104 204 104q69 0 134 -44z " unicode="a"/>
<glyph glyph-name="b" d="M417 183q36 34 36 86q0 50 -35.5 86t-85.5 36h-2q-51 0 -86 -35.5t-35 -86.5t36 -86.5t86 -35.5t86 36zM211 42v-42h-157v706h163v-200q65 44 134 44q55 0 104 -23q73 -34 116 -105.5t43 -153.5q0 -46 -14 -90q-20 -61 -66 -110.5t-105 -68.5q-30 -11 -70 -11 q-36 0 -69.5 11.5t-45 19t-33.5 23.5z" unicode="b"/>
<glyph glyph-name="c" horiz-adv-x="604" unicode="c" d="M585 341h-175q-4 8 -15 19q-32 32 -82 32q-26 0 -50 -11q-24 -9 -48 -36.5t-24 -71.5q0 -52 35.5 -87.5t87.5 -35.5q60 0 100 56h172q-12 -46 -34 -84q-12 -19 -29.5 -38t-47 -42t-72.5 -37.5t-92 -14.5q-58 0 -111 23q-77 33 -123.5 104.5t-46.5 154.5q0 49 17 97 q31 82 103.5 133t162.5 51q72 0 136 -35t102 -97q19 -29 34 -80z"/>
<glyph glyph-name="d" d="M228 182q37 -35 86 -35q51 0 86.5 36t35.5 86t-35.5 86t-84.5 36h-2q-51 0 -86.5 -36t-35.5 -86q0 -49 36 -87zM428 506v200h162v-706h-156l-1 42q-71 -54 -148 -54q-89 0 -160 65q-94 88 -94 216q0 99 59 177q36 49 90 76.5t114 27.5q67 0 134 -44z" unicode="d"/>
<glyph glyph-name="e" horiz-adv-x="625" unicode="e" d="M588 215h-403q12 -23 19 -33q39 -53 110 -53q42 0 70 19q9 5 21 17h167q-26 -60 -65 -98q-79 -79 -193 -79q-104 0 -182 64q-47 39 -74.5 97t-27.5 120q0 101 65 179q40 48 97.5 75t119.5 27q102 0 180 -67q46 -39 73 -95.5t27 -116.5q0 -18 -4 -56zM193 333h241 q-40 73 -121 73q-43 0 -78 -25q-16 -10 -24 -21q-9 -9 -18 -27z"/>
<glyph glyph-name="f" horiz-adv-x="313" unicode="f" d="M301 721v-109q-4 0 -9.5 0.5t-7.5 0.5q-7 0 -15 -2q-37 -8 -37 -55v-14h69v-127h-69v-415h-160v415h-60v127h62v27q5 68 43 107q24 25 59 35t95 10h30z"/>
<glyph glyph-name="g" d="M226 185q36 -36 87 -36q50 0 86 36t36 87q-1 51 -36.5 86.5t-86.5 35.5q-51 -1 -86.5 -36.5t-35.5 -86.5q0 -50 36 -86zM433 498v43h157v-455q0 -48 -2 -76.5t-14 -68t-35 -67.5q-31 -37 -87.5 -65.5t-137.5 -28.5t-136.5 27t-85.5 63q-24 29 -35 63q-5 12 -10 41l182 -1 q5 -15 10 -22q24 -33 79 -33q36 0 64.5 17t39.5 49q6 16 9 54q-68 -48 -138 -48q-85 0 -156 58q-106 86 -106 226q0 80 42 150q36 59 91.5 93.5t121.5 34.5q73 0 147 -54z" unicode="g"/>
<glyph glyph-name="h" horiz-adv-x="604" unicode="h" d="M56 706h162v-212q17 17 25 23q45 35 110 35q109 0 164 -94q20 -36 25.5 -74.5t5.5 -95.5v-11v-277h-162v316q0 1 -0.5 8t-1 12t-2 13.5t-5 15t-9 14.5t-13.5 14q-21 16 -48 16t-50.5 -15.5t-32.5 -41.5q-4 -12 -6 -41v-311h-162v706z"/>
<glyph glyph-name="i" horiz-adv-x="271" unicode="i" d="M55 540h163v-540h-163v540zM55 706h163v-123h-163v123z"/>
<glyph glyph-name="j" horiz-adv-x="271" unicode="j" d="M55 542h163v-499q-1 -76 -8 -111.5t-30 -64.5q-17 -22 -43 -35q-43 -22 -128 -22h-32v128h10q31 0 43 7t18 19.5t6 21.5l1 9v547zM55 706h164v-122h-164v122z"/>
<glyph glyph-name="k" horiz-adv-x="562" unicode="k" d="M214 706v-410l153 244h191l-179 -264l176 -276h-201l-139 232v-232h-162v706h161z"/>
<glyph glyph-name="l" horiz-adv-x="271" unicode="l" d="M55 706h163v-706h-163v706z"/>
<glyph glyph-name="m" horiz-adv-x="938" unicode="m" d="M879 309v-309h-162v308q0 64 -33 86q-20 12 -45 12q-47 0 -72 -35q-18 -25 -18 -79v-292h-160v301q0 28 -4 41q-13 56 -77 56q-28 0 -50.5 -15t-31.5 -42q-5 -13 -6 -47v-294h-162v540h144v-65q19 25 23 29q45 47 127 47q71 0 117 -42q15 -14 35 -43q31 39 66 58 q48 28 115 28q43 0 75 -12q20 -7 38.5 -19t41 -41t31.5 -68q8 -33 8 -103z"/>
<glyph glyph-name="n" horiz-adv-x="604" unicode="n" d="M550 296v-296h-162v303q-2 66 -30 88q-19 15 -49 15q-65 0 -85 -56q-6 -21 -6 -49v-301h-161v542h163v-49q51 57 133 57q35 0 67 -11q44 -15 75.5 -49.5t43.5 -79.5q11 -38 11 -114z"/>
<glyph glyph-name="o" horiz-adv-x="625" unicode="o" d="M112 72q-82 82 -82 199q0 109 75 190q34 37 79 59t73.5 27t54.5 5q94 0 174 -61q50 -40 78.5 -98.5t28.5 -122.5q0 -101 -65 -178q-48 -59 -109 -81t-108 -22q-116 0 -199 83zM227 185q39 -35 86 -35q50 0 85.5 35.5t35.5 85.5q-1 51 -36.5 86t-85.5 35t-85 -36t-35 -86 q0 -49 35 -85z"/>
<glyph glyph-name="p" d="M416 358q-36 36 -86 36q-51 -1 -86.5 -36.5t-35.5 -86.5q0 -50 36 -86t86 -36q51 0 86.5 36t35.5 87q0 50 -36 86zM216 35v-201h-162v706h156l1 -42q71 54 148 54q90 0 160 -64q94 -91 94 -217q0 -98 -59 -176q-36 -49 -90 -77t-114 -28q-65 0 -134 45z" unicode="p"/>
<glyph glyph-name="q" d="M227 358q-36 -38 -36 -87q0 -50 36.5 -86t86.5 -36q51 0 86.5 36t35.5 87q-1 51 -36.5 86.5t-86.5 35.5q-50 0 -86 -36zM434 498v42h156v-706h-162v200q-1 -1 -9.5 -6t-11.5 -7t-12.5 -7t-16 -7.5t-17 -6t-20 -5.5t-22 -3.5t-25.5 -1.5q-56 0 -104 23q-74 34 -116.5 105 t-42.5 154q0 47 14 90q19 61 65 110.5t105 68.5q33 11 70 11q36 0 70 -11.5t45.5 -19t33.5 -23.5z" unicode="q"/>
<glyph glyph-name="r" horiz-adv-x="375" unicode="r" d="M53 539h152v-75q15 20 28 33q44 44 112 44h11v-152q-18 2 -27 2h-7q-8 0 -21.5 -1.5t-37.5 -11.5t-35 -27q-11 -16 -12 -50v-301h-163v539z"/>
<glyph glyph-name="s" horiz-adv-x="479" unicode="s" d="M439 381h-155q-4 34 -22 45q-9 6 -21 6q-17 0 -28 -12t-11 -29q0 -22 18 -35q12 -8 65 -23q76 -18 112 -45q58 -41 58 -118q0 -66 -44 -113q-62 -69 -173 -69q-92 0 -152 51q-29 24 -43 52q-12 22 -20 71h164q0 -1 1 -6.5t2.5 -10t4 -10.5t7.5 -11t11 -8q12 -7 25 -7 q24 1 34.5 15.5t10.5 27.5t-9 26q-4 4 -9 7.5t-9 6t-12.5 5t-14 4t-18 4.5t-19.5 5q-77 20 -112 53q-42 42 -42 107q0 46 18 77q26 50 77.5 76.5t111.5 26.5q81 0 125.5 -36t59.5 -81q4 -11 9 -52z"/>
<glyph glyph-name="t" horiz-adv-x="313" unicode="t" d="M73 706h163v-165h69v-126h-70v-415h-164v416h-58v126h60v164z"/>
<glyph glyph-name="u" horiz-adv-x="604" unicode="u" d="M56 541h162v-306q0 -29 4 -41q6 -28 26 -44t49 -16q45 0 70 35q19 27 19 69v10v293h163v-541h-161l-1 49q-16 -17 -28 -27t-40 -20.5t-63 -10.5q-32 0 -59 8q-47 14 -81 49.5t-48 83.5q-12 39 -12 119v290z"/>
<glyph glyph-name="v" horiz-adv-x="583" unicode="v" d="M12 540h177l102 -340l111 340h170l-202 -540h-163z"/>
<glyph glyph-name="w" horiz-adv-x="833" unicode="w" d="M11 541h163l79 -313q7 31 13 53q8 28 13 42l69 218h138l84 -302q10 42 24 84l70 218h160l-180 -541h-154l-82 284l-99 -284h-148z"/>
<glyph glyph-name="x" horiz-adv-x="625" unicode="x" d="M40 540h175l89 -140l96 140h200l-180 -246l197 -294h-186l-108 166l-115 -166h-199l204 284z"/>
<glyph glyph-name="y" horiz-adv-x="604" unicode="y" d="M12 540h182l112 -311l116 311h171l-281 -705h-167l74 190z"/>
<glyph glyph-name="z" horiz-adv-x="500" unicode="z" d="M44 540h408v-123l-196 -280h199v-137h-408v107l221 297h-224v136z"/>
<glyph glyph-name="braceleft" horiz-adv-x="354" unicode="{" d="M112 414v177q3 106 77 139q8 4 16 6.5t14.5 4.5t18 3t17 1.5t21 1t22 1t27 0.5h29.5v-8q-16 -3 -35 -9q-52 -15 -67 -69q-5 -18 -7 -90v-95v-32.5t-0.5 -29.5t-1 -24t-1.5 -23.5t-2.5 -18.5t-4 -19t-6.5 -15.5t-9 -16.5q-23 -33 -80 -49q49 -13 73 -41q22 -25 27.5 -57 t5.5 -104v-15v-107v-25q0 -60 20 -92q5 -7 9.5 -13t11.5 -10.5t10.5 -7.5t13.5 -6.5t12.5 -4.5t15.5 -4.5t15 -4.5v-7h-46q-34 1 -52.5 2.5t-46.5 9.5t-48 23q-7 6 -13.5 13t-11 13t-8.5 16t-6 15.5t-4 17.5t-3 16.5t-1.5 18.5t-1 17.5t-0.5 18.5v17v126v36q0 65 -24 98 q-11 17 -29 27q-12 8 -25 11v7q19 5 32 13q20 13 31 38t13 44.5t2 49.5v16z"/>
<glyph glyph-name="bar" horiz-adv-x="229" unicode="|" d="M178 -250h-127v998h127v-998z"/>
<glyph glyph-name="braceright" horiz-adv-x="354" unicode="}" d="M242 83v-175q-4 -109 -80 -142q-38 -16 -137 -16h-25v7q65 14 88 47q4 5 6.5 9.5t5 11t3.5 10t2.5 11.5t2 11.5t0.5 14.5t0.5 15t0.5 18.5v20.5v95v32q0 61 5 92t22 55q24 34 78 48q-48 13 -72 41q-23 26 -28.5 57.5t-5.5 103.5v15v108v23q0 67 -23 99q-10 14 -26 23.5 t-25 12t-34 9.5v8q7 0 22.5 -0.5t23.5 -0.5q101 0 147 -34q7 -6 13.5 -13t11 -13.5t8.5 -16.5t6 -15.5t4 -17.5t3 -16.5t1.5 -18.5t1 -17t0.5 -18v-17v-127v-36q0 -65 24 -98q10 -15 29 -27q10 -6 25 -10v-8q-18 -3 -32 -13q-46 -30 -46 -137v-11z"/>
<glyph glyph-name="asciitilde" horiz-adv-x="729" unicode="~" d="M366 230l-31 15q-50 23 -73 23q-22 -2 -37 -8q-10 -5 -21.5 -15t-18 -17t-27.5 -31l-55 104q38 52 74 72q38 22 82 22q41 0 103 -31l36 -16q44 -22 76 -22q47 0 100 61l52 -105q-20 -22 -45 -41q-59 -42 -111 -42q-40 0 -104 31z"/>
<glyph glyph-name="exclamdown" horiz-adv-x="313" unicode="¡" d="M53 477h166v-477h-166v477zM52 710h167v-163h-167v163z"/>
<glyph glyph-name="sterling" horiz-adv-x="667" unicode="£" d="M576 492h-164q0 16 -6 34q-17 44 -70 44q-35 0 -58 -20q-28 -26 -28 -66q1 -39 33 -80h167v-130h-87q29 -38 29 -70q0 -23 -9 -37t-30 -29h56q14 0 21 1q39 3 56 35q11 19 11 41q-1 15 -11 33h152q12 -36 12 -69q0 -86 -80 -141q-35 -24 -71 -30.5t-91 -7.5h-327v139h57 q48 0 66 23q10 15 10 31q0 11 -3.5 22.5t-9.5 21.5t-11 17.5t-10.5 13.5t-5.5 7h-138v129h61q-25 53 -25 92q0 82 67 148q76 75 197 75q46 0 88 -13q113 -39 146 -160q6 -29 6 -54z"/>
<glyph glyph-name="currency" horiz-adv-x="667" unicode="¤" d="M497 340q0 38 -15 70q-19 43 -60 69t-89 26q-26 0 -54 -10q-51 -18 -80 -59.5t-29 -96.5q0 -37 12 -65q19 -46 61.5 -73t91.5 -27q35 0 70 16q43 21 67.5 61t24.5 89zM579 187l81 -82l-96 -95l-81 82q-73 -42 -150 -42q-82 0 -151 44l-81 -82l-95 95l82 82q-14 21 -18 29 q-25 51 -25 120q0 84 42 152l-80 80l95 95l80 -80q9 6 27 16q57 27 125 27q80 0 150 -43l81 81l96 -96l-81 -80q2 -3 4 -6.5t3.5 -6.5l3.5 -7t4 -7q27 -56 27 -125q0 -78 -43 -151z"/>
<glyph glyph-name="brokenbar" horiz-adv-x="229" unicode="¦" d="M51 308v381h127v-381h-127zM51 190h127v-381h-127v381z"/>
<glyph glyph-name="section" horiz-adv-x="521" unicode="§" d="M219 228q20 -18 46 -18q27 0 46 19t19 46t-19.5 46t-45.5 19q-27 0 -46 -19t-19 -46q0 -25 19 -47zM469 532h-137q0 17 -4 29q-13 31 -48 31q-22 -1 -37 -13.5t-15 -34.5q0 -20 15 -35q5 -5 10 -8.5t13.5 -7t14 -5.5t19.5 -6.5t23 -7.5q45 -17 73 -34.5t51 -50.5 q35 -48 35 -108q-2 -74 -45 -116q-5 -5 -29 -25q18 -15 27.5 -25.5t22.5 -39t13 -62.5q0 -47 -20 -85q-29 -53 -83.5 -80t-118.5 -27q-18 0 -38 3t-52.5 13t-60 36.5t-41.5 65.5q-10 29 -14 90h147q1 -21 5 -31q14 -39 56 -39q24 0 40.5 14t16.5 39q0 16 -7 28 q-7 10 -21 17.5t-23.5 11t-41.5 13.5q-46 17 -64 27q-104 53 -104 169q0 32 8 58t25.5 46t24.5 27t26 21l-17 17q-36 42 -36 94q0 62 43 112q58 68 157 68q77 -1 120 -35t59 -77q9 -24 12 -77z"/>
<glyph glyph-name="dieresis" horiz-adv-x="313" unicode="¨" d="M75 737h160v-163h-160v163zM-132 736h156v-162h-156v162z"/>
<glyph glyph-name="copyright" horiz-adv-x="833" unicode="©" d="M620 519l-87 -84q-49 49 -108 49h-2q-34 0 -60 -12q-32 -16 -48.5 -48t-16.5 -70q1 -59 35.5 -94t92.5 -35q62 1 107 46l87 -81q-78 -84 -195 -84q-61 0 -109 20q-68 28 -104.5 90t-36.5 138q0 61 21 108q10 23 25.5 44t42.5 45t68.5 38.5t92.5 14.5q115 0 195 -85z M741 352q0 109 -63 195q-15 20 -34.5 39t-51.5 41.5t-77.5 36t-96.5 13.5q-108 0 -192 -62q-20 -15 -39.5 -34.5t-42.5 -52t-37 -78t-14 -97.5q0 -65 24 -123q37 -91 119.5 -146t181.5 -55q54 0 109 19q97 34 155 117.5t59 186.5zM688 122q-43 -51 -102 -81.5t-96.5 -37 t-72.5 -6.5q-122 0 -218 73q-138 108 -138 284q0 130 81 228q109 127 276 127q85 0 160 -37t126 -106q69 -93 69 -210q0 -135 -85 -234z"/>
<glyph glyph-name="logicalnot" horiz-adv-x="667" unicode="¬" d="M539 227h-539v127h667v-354h-128v227z"/>
<glyph glyph-name="registered" horiz-adv-x="833" unicode="®" d="M741 352q0 109 -63 195q-15 20 -34.5 39t-51.5 41.5t-77.5 36t-96.5 13.5q-108 0 -192 -62q-20 -15 -39.5 -34.5t-42.5 -52t-37 -78t-14 -97.5q0 -65 24 -123q37 -91 119.5 -146t181.5 -55q54 0 109 19q97 34 155 117.5t59 186.5zM688 122q-43 -51 -102 -81.5t-96.5 -37 t-72.5 -6.5q-122 0 -218 73q-138 108 -138 284q0 130 81 228q109 127 276 127q85 0 160 -37t126 -106q69 -93 69 -210q0 -135 -85 -234zM360 407h49q38 0 53 3.5t24 20.5q7 11 7 26q0 12 -6 23q-13 22 -58 22h-69v-95zM612 128l-126 1q-6 14 -11 30.5t-6.5 27t-5 31.5 t-4.5 30q-9 49 -21 59q-13 11 -59 13h-19v-192h-110v458h164q27 0 40 -1q52 -2 78.5 -13.5t44.5 -34.5q25 -32 25 -74q0 -13 -3 -25.5t-6.5 -21t-10.5 -17t-11.5 -13.5t-13.5 -11t-12.5 -8t-12.5 -7l-9 -4q10 -6 15 -10q28 -21 34 -71q0 -1 3.5 -20l7 -38t11.5 -44.5 t18 -44.5z"/>
<glyph glyph-name="degree" horiz-adv-x="354" unicode="°" d="M177 630q-23 0 -39 -16t-16 -39t16.5 -39.5t39.5 -16.5t39 16.5t16 39.5t-16.5 39t-39.5 16zM177 745q39 0 71 -15q47 -20 74 -63t27 -94q0 -41 -15 -71q-20 -46 -63 -74t-94 -28q-63 0 -112 42q-60 51 -60 131q0 72 50 122t122 50z"/>
<glyph glyph-name="plusminus" horiz-adv-x="667" unicode="±" d="M625 0h-583v127h583v-127zM398 162h-128v209h-228v127h228v208h128v-208h227v-127h-227v-209z"/>
<glyph glyph-name="acute" horiz-adv-x="313" unicode="´" d="M176 822l72 -137l-282 -124l-57 110z"/>
<glyph glyph-name="mu" horiz-adv-x="562" unicode="µ" d="M501 144l35 2q15 -42 15 -73q0 -53 -34 -73q-16 -11 -38 -11q-15 0 -33 7q-42 16 -55 68q-55 -79 -149 -79q-65 0 -107 49q-1 -8 -1 -31q0 -62 26 -115q10 -20 24.5 -41.5t21 -34.5t6.5 -27q0 -10 -4 -20q-15 -27 -46 -27q-28 0 -50 22q-42 48 -42 193q0 102 12 174 q-23 115 -23 248q0 56 25 80q15 15 35 15q34 0 51 -46q3 -21 3 -32q0 -48 -31 -271q32 -75 90 -75q29 0 55 23q34 29 48 82t14 148q0 5 -0.5 24t-0.5 31q0 70 14 93t43 23q19 0 36 -13q26 -21 26 -91q0 -40 -5 -88q-10 -103 -45 -170q11 -48 46 -48q39 0 39 61q0 15 -1 23z "/>
<glyph glyph-name="paragraph" horiz-adv-x="667" unicode="¶" d="M558 706v-78h-36v-795h-84v795h-117v-795h-85v459q-41 11 -66 26q-88 57 -88 173q0 47 14 84.5t36 60.5t42.5 36.5t41.5 20.5q37 13 92 13h250z"/>
<glyph glyph-name="periodcentered" horiz-adv-x="187" unicode="·" d="M91 201q-35 1 -60.5 26t-25.5 60q0 19 7 36q8 20 28.5 38t55.5 18q38 0 62.5 -25.5t24.5 -63.5q0 -21 -9 -39q-8 -17 -29 -33.5t-52 -16.5h-2z"/>
<glyph glyph-name="cedilla" horiz-adv-x="313" unicode="¸" d="M128 48l-32 -81q26 -3 40 -8q30 -11 47 -35t20.5 -41t3.5 -33q0 -26 -10 -50q-11 -28 -39.5 -53t-78.5 -25q-47 0 -76 22.5t-41 47.5q-9 20 -13 57l95 -1q0 -7 3 -13q8 -19 30 -19q13 0 22.5 9.5t9.5 22.5q0 15 -9 25t-24 10q-14 0 -29 -15l-78 34l57 145z"/>
<glyph glyph-name="questiondown" horiz-adv-x="583" unicode="¿" d="M375 546h-169v160h169v-160zM208 496l173 -1q-5 -56 -21.5 -87t-79.5 -90q-70 -63 -70 -115q0 -25 15 -41t40 -16q23 0 37 12q26 20 28 82h176q0 -15 -2 -45q-5 -69 -53 -125q-25 -28 -50 -44q-61 -39 -147 -39q-80 0 -140 39q-92 62 -92 169q0 94 89 177q7 6 19 16.5 t22 19.5t18 17q30 29 38 71z"/>
<glyph glyph-name="Agrave" horiz-adv-x="729" unicode="À" d="M230 933l253 -100l-38 -107l-263 75zM358 467l-70 -222h144zM436 710l286 -710h-208l-34 99h-239l-33 -99h-202l283 710h147z"/>
<glyph glyph-name="Aacute" horiz-adv-x="729" unicode="Á" d="M497 932l48 -131l-262 -76l-39 106zM358 467l-70 -222h144zM436 710l286 -710h-208l-34 99h-239l-33 -99h-202l283 710h147z"/>
<glyph glyph-name="Acircumflex" horiz-adv-x="729" unicode="Â" d="M471 909l116 -159h-187l-35 70l-34 -71h-182l109 160h213zM358 467l-70 -222h144zM436 710l286 -710h-208l-34 99h-239l-33 -99h-202l283 710h147z"/>
<glyph glyph-name="Atilde" horiz-adv-x="729" unicode="Ã" d="M496 906l83 -119q-58 -37 -120 -37q-39 0 -76 10q-1 0 -10.5 2.5t-20 5t-25.5 4.5t-27 2q-31 0 -76 -24l-75 110q38 24 64 34t59 10q35 0 79 -12l9 -2q10 -3 19 -5t22 -4t23 -2q29 1 72 27zM358 467l-70 -222h144zM436 710l286 -710h-208l-34 99h-239l-33 -99h-202 l283 710h147z"/>
<glyph glyph-name="Adieresis" horiz-adv-x="729" unicode="Ä" d="M358 467l-70 -222h144zM436 710l286 -710h-208l-34 99h-239l-33 -99h-202l283 710h147zM391 903h157v-162h-157v162zM180 903h159v-163h-159v163z"/>
<glyph glyph-name="Aring" horiz-adv-x="729" unicode="Å" d="M341 814q10 -10 23 -10q14 0 23.5 10t9.5 23t-9.5 23t-23.5 10q-13 0 -23 -10t-10 -23t10 -23zM289 762q-30 30 -30 75q0 43 31 74t75 31q43 0 74 -31t31 -75t-31 -74.5t-75 -30.5t-75 31zM358 467l-70 -222h144zM436 710l286 -710h-208l-34 99h-239l-33 -99h-202 l283 710h147z"/>
<glyph glyph-name="AE" horiz-adv-x="958" unicode="Æ" d="M404 274h113v180q-25 -45 -54 -90q-19 -30 -59 -90zM501 706h417v-150h-222v-125h222v-152h-223v-129h222v-150h-404v137h-210l-91 -137h-203z"/>
<glyph glyph-name="Ccedilla" horiz-adv-x="792" unicode="Ç" d="M437 -12l-8 -21l9 -1q9 -2 20.5 -4.5t19.5 -6.5q28 -12 45 -41.5t17 -62.5q0 -53 -37.5 -91t-92.5 -38q-36 0 -68.5 20t-46.5 51q-8 19 -13 56l94 -1q1 -7 5 -15q9 -17 29 -17q12 0 22.5 9.5t10.5 22.5q0 14 -10 24.5t-23 10.5h-1q-14 0 -29 -15l-79 34l36 91 q-114 21 -195 105q-104 109 -104 256q0 79 28 140t59 97q51 61 125 95.5t155 34.5q131 0 235 -86q42 -33 74 -83q27 -41 48 -110h-196q-9 18 -19 29q-18 23 -54.5 45.5t-87.5 22.5q-34 0 -69 -14q-53 -22 -84.5 -69t-31.5 -104q0 -64 43 -116q13 -15 30 -28q45 -39 112 -39 q80 0 135 58q12 13 27 39h196q-29 -89 -73 -144q-96 -118 -253 -134z"/>
<glyph glyph-name="Egrave" horiz-adv-x="500" unicode="È" d="M115 933l254 -100l-38 -107l-263 75zM457 706v-157h-215v-106h215v-166h-214v-116h216v-161h-403v706h401z"/>
<glyph glyph-name="Eacute" horiz-adv-x="500" unicode="É" d="M382 932l48 -131l-262 -76l-39 106zM457 706v-157h-215v-106h215v-166h-214v-116h216v-161h-403v706h401z"/>
<glyph glyph-name="Ecircumflex" horiz-adv-x="500" unicode="Ê" d="M357 909l115 -159h-186l-36 70l-34 -71h-181l108 160h214zM457 706v-157h-215v-106h215v-166h-214v-116h216v-161h-403v706h401z"/>
<glyph glyph-name="Edieresis" horiz-adv-x="500" unicode="Ë" d="M275 908h157v-163h-157v163zM63 908h161v-163h-161v163zM457 706v-157h-215v-106h215v-166h-214v-116h216v-161h-403v706h401z"/>
<glyph glyph-name="Igrave" horiz-adv-x="292" unicode="Ì" d="M11 933l253 -100l-37 -107l-263 75zM56 706h180v-706h-180v706z"/>
<glyph glyph-name="Iacute" horiz-adv-x="292" unicode="Í" d="M278 932l48 -131l-262 -76l-39 106zM56 706h180v-706h-180v706z"/>
<glyph glyph-name="Icircumflex" horiz-adv-x="292" unicode="Î" d="M253 909l115 -159h-187l-35 70l-34 -71h-182l109 160h214zM56 706h180v-706h-180v706z"/>
<glyph glyph-name="Idieresis" horiz-adv-x="292" unicode="Ï" d="M171 908h156v-163h-156v163zM-41 908h160v-163h-160v163zM56 706h180v-706h-180v706z"/>
<glyph glyph-name="Ntilde" horiz-adv-x="708" unicode="Ñ" d="M486 906l82 -119q-58 -37 -120 -37q-38 0 -76 10l-10 2q-9 3 -19.5 5.5t-25.5 4.5t-28 2q-30 0 -75 -24l-75 110q67 44 122 44q36 0 80 -12q52 -13 72 -13q30 1 73 27zM478 317v389h177v-706h-158l-266 386v-386h-176v706h157q126 -178 182 -263q13 -19 27 -40l31 -46.5 t26 -39.5z"/>
<glyph glyph-name="Ograve" horiz-adv-x="812" unicode="Ò" d="M271 933l254 -100l-38 -107l-263 75zM275 222q53 -55 132 -55q80 0 136 59q51 54 51 128q0 32 -12 66q-21 54 -69 87.5t-106 33.5q-76 0 -131 -54q-56 -54 -56 -133q0 -77 55 -132zM147 95q-51 51 -79.5 120t-28.5 140q0 134 88 239q52 60 126.5 94.5t153.5 34.5 q136 -1 239 -88q61 -52 95 -126.5t34 -154.5q0 -132 -87 -237q-52 -61 -126.5 -95.5t-154.5 -34.5q-72 0 -140.5 28.5t-119.5 79.5z"/>
<glyph glyph-name="Oacute" horiz-adv-x="812" unicode="Ó" d="M539 932l47 -131l-262 -76l-38 106zM275 222q53 -55 132 -55q80 0 136 59q51 54 51 128q0 32 -12 66q-21 54 -69 87.5t-106 33.5q-76 0 -131 -54q-56 -54 -56 -133q0 -77 55 -132zM147 95q-51 51 -79.5 120t-28.5 140q0 134 88 239q52 60 126.5 94.5t153.5 34.5 q136 -1 239 -88q61 -52 95 -126.5t34 -154.5q0 -132 -87 -237q-52 -61 -126.5 -95.5t-154.5 -34.5q-72 0 -140.5 28.5t-119.5 79.5z"/>
<glyph glyph-name="Ocircumflex" horiz-adv-x="812" unicode="Ô" d="M513 909l115 -159h-186l-35 70l-35 -71h-181l109 160h213zM275 222q53 -55 132 -55q80 0 136 59q51 54 51 128q0 32 -12 66q-21 54 -69 87.5t-106 33.5q-76 0 -131 -54q-56 -54 -56 -133q0 -77 55 -132zM147 95q-51 51 -79.5 120t-28.5 140q0 134 88 239 q52 60 126.5 94.5t153.5 34.5q136 -1 239 -88q61 -52 95 -126.5t34 -154.5q0 -132 -87 -237q-52 -61 -126.5 -95.5t-154.5 -34.5q-72 0 -140.5 28.5t-119.5 79.5z"/>
<glyph glyph-name="Otilde" horiz-adv-x="812" unicode="Õ" d="M538 906l82 -119q-58 -37 -120 -37q-38 0 -76 10l-10 2q-9 3 -19.5 5.5t-25.5 4.5t-28 2q-30 0 -75 -24l-75 110q67 44 122 44q36 0 80 -12l9 -2q9 -3 18.5 -5t22.5 -4t22 -2q30 1 73 27zM275 222q53 -55 132 -55q80 0 136 59q51 54 51 128q0 32 -12 66q-21 54 -69 87.5 t-106 33.5q-76 0 -131 -54q-56 -54 -56 -133q0 -77 55 -132zM147 95q-51 51 -79.5 120t-28.5 140q0 134 88 239q52 60 126.5 94.5t153.5 34.5q136 -1 239 -88q61 -52 95 -126.5t34 -154.5q0 -132 -87 -237q-52 -61 -126.5 -95.5t-154.5 -34.5q-72 0 -140.5 28.5t-119.5 79.5 z"/>
<glyph glyph-name="Odieresis" horiz-adv-x="812" unicode="Ö" d="M275 222q53 -55 132 -55q80 0 136 59q51 54 51 128q0 32 -12 66q-21 54 -69 87.5t-106 33.5q-76 0 -131 -54q-56 -54 -56 -133q0 -77 55 -132zM147 95q-51 51 -79.5 120t-28.5 140q0 134 88 239q52 60 126.5 94.5t153.5 34.5q136 -1 239 -88q61 -52 95 -126.5t34 -154.5 q0 -132 -87 -237q-52 -61 -126.5 -95.5t-154.5 -34.5q-72 0 -140.5 28.5t-119.5 79.5zM432 908h157v-163h-157v163zM221 907h160v-162h-160v162z"/>
<glyph glyph-name="multiply" horiz-adv-x="667" unicode="×" d="M516 19l-183 182l-182 -182l-90 91l182 181l-182 183l90 88l182 -181l183 181l89 -88l-181 -183l181 -181z"/>
<glyph glyph-name="Oslash" horiz-adv-x="812" unicode="Ø" d="M566 685l61 79l116 -88l-59 -79q30 -40 43 -62q48 -85 48 -182q0 -142 -101 -251q-107 -115 -274 -115q-75 0 -152 36l-61 -79l-116 89l59 79q-30 39 -38 53q-53 86 -53 190q0 129 81 230q17 21 38 40.5t56.5 43.5t85 39t103.5 15q62 0 123 -21q14 -5 40 -17zM569 445 l-206 -272q18 -5 37 -5q100 0 155 74q38 50 38 113q0 42 -24 90zM245 263l206 271q-24 6 -43 6q-38 0 -66 -11q-55 -21 -88 -69.5t-33 -107.5q0 -46 24 -89z"/>
<glyph glyph-name="Ugrave" d="M188 933l254 -100l-38 -107l-263 75zM57 706h180v-448q2 -64 36 -87q20 -13 48 -13q20 0 36 7t25.5 18t14.5 20t7 18q3 12 3 41v444h180v-401q0 -84 -10 -128q-20 -87 -95 -143q-68 -48 -164 -48q-58 0 -104.5 15.5t-74 42t-43.5 52.5t-25 54q-13 43 -14 129v427z" unicode="Ù"/>
<glyph glyph-name="Uacute" d="M455 932l48 -131l-262 -76l-39 106zM57 706h180v-448q2 -64 36 -87q20 -13 48 -13q20 0 36 7t25.5 18t14.5 20t7 18q3 12 3 41v444h180v-401q0 -84 -10 -128q-20 -87 -95 -143q-68 -48 -164 -48q-58 0 -104.5 15.5t-74 42t-43.5 52.5t-25 54q-13 43 -14 129v427z" unicode="Ú"/>
<glyph glyph-name="Ucircumflex" d="M430 909l115 -159h-186l-36 70l-34 -71h-182l109 160h214zM57 706h180v-448q2 -64 36 -87q20 -13 48 -13q20 0 36 7t25.5 18t14.5 20t7 18q3 12 3 41v444h180v-401q0 -84 -10 -128q-20 -87 -95 -143q-68 -48 -164 -48q-58 0 -104.5 15.5t-74 42t-43.5 52.5t-25 54 q-13 43 -14 129v427z" unicode="Û"/>
<glyph glyph-name="Udieresis" d="M57 706h180v-448q2 -64 36 -87q20 -13 48 -13q20 0 36 7t25.5 18t14.5 20t7 18q3 12 3 41v444h180v-401q0 -84 -10 -128q-20 -87 -95 -143q-68 -48 -164 -48q-58 0 -104.5 15.5t-74 42t-43.5 52.5t-25 54q-13 43 -14 129v427zM348 909h157v-163h-157v163zM137 908h160 v-162h-160v162z" unicode="Ü"/>
<glyph glyph-name="germandbls" horiz-adv-x="688" unicode="ß" d="M219 445v-249h132q4 -18 10 -28q19 -34 64 -34q34 0 55.5 21t21.5 55q0 55 -50 76q-33 16 -101 16h-68v129h16q55 0 77 27q17 17 17 46q0 34 -23 52t-57 18q-35 0 -58 -18q-23 -19 -29.5 -45t-6.5 -66zM218 109v-109h-164v414q1 51 4 79.5t16.5 66.5t38.5 68 q79 91 220 91q134 0 197 -92q30 -44 30 -97q0 -64 -43 -107q-9 -9 -26 -20q1 0 11 -0.5t22 -2.5t23 -5q57 -17 89.5 -67t32.5 -112q0 -109 -89 -175q-37 -28 -76 -39q-33 -11 -86 -11q-109 0 -164 61q-16 16 -36 57z"/>
<glyph glyph-name="agrave" d="M195 824l271 -148l-59 -112l-282 122zM228 183q36 -36 86 -36q51 1 86.5 36.5t35.5 86.5q-1 51 -36.5 86.5t-86.5 35.5q-50 0 -86 -36.5t-36 -86.5q0 -51 37 -86zM427 507v33h163v-540h-157v43q-22 -16 -34 -23.5t-45 -19t-70 -11.5q-88 0 -159 65q-95 86 -95 216 q0 97 59 177q80 104 204 104q69 0 134 -44z" unicode="à"/>
<glyph glyph-name="aacute" d="M447 822l71 -137l-281 -124l-57 110zM228 183q36 -36 86 -36q51 1 86.5 36.5t35.5 86.5q-1 51 -36.5 86.5t-86.5 35.5q-50 0 -86 -36.5t-36 -86.5q0 -51 37 -86zM427 507v33h163v-540h-157v43q-22 -16 -34 -23.5t-45 -19t-70 -11.5q-88 0 -159 65q-95 86 -95 216 q0 97 59 177q80 104 204 104q69 0 134 -44z" unicode="á"/>
<glyph glyph-name="acircumflex" d="M397 758l153 -183h-183l-52 68l-49 -66h-170l157 181h144zM228 183q36 -36 86 -36q51 1 86.5 36.5t35.5 86.5q-1 51 -36.5 86.5t-86.5 35.5q-50 0 -86 -36.5t-36 -86.5q0 -51 37 -86zM427 507v33h163v-540h-157v43q-22 -16 -34 -23.5t-45 -19t-70 -11.5q-88 0 -159 65 q-95 86 -95 216q0 97 59 177q80 104 204 104q69 0 134 -44z" unicode="â"/>
<glyph glyph-name="atilde" d="M455 733l82 -119q-58 -37 -120 -37q-38 0 -76 10l-10 3q-10 2 -20 4.5t-25.5 4.5t-27.5 2q-34 0 -75 -24l-75 110q67 44 122 44q32 0 80 -12q52 -13 72 -13q29 0 73 27zM228 183q36 -36 86 -36q51 1 86.5 36.5t35.5 86.5q-1 51 -36.5 86.5t-86.5 35.5q-50 0 -86 -36.5 t-36 -86.5q0 -51 37 -86zM427 507v33h163v-540h-157v43q-22 -16 -34 -23.5t-45 -19t-70 -11.5q-88 0 -159 65q-95 86 -95 216q0 97 59 177q80 104 204 104q69 0 134 -44z" unicode="ã"/>
<glyph glyph-name="adieresis" d="M228 183q36 -36 86 -36q51 1 86.5 36.5t35.5 86.5q-1 51 -36.5 86.5t-86.5 35.5q-50 0 -86 -36.5t-36 -86.5q0 -51 37 -86zM427 507v33h163v-540h-157v43q-22 -16 -34 -23.5t-45 -19t-70 -11.5q-88 0 -159 65q-95 86 -95 216q0 97 59 177q80 104 204 104q69 0 134 -44z M328 739v-163h-156v163h156zM379 739h160v-162h-159z" unicode="ä"/>
<glyph glyph-name="aring" d="M228 183q36 -36 86 -36q51 1 86.5 36.5t35.5 86.5q-1 51 -36.5 86.5t-86.5 35.5q-50 0 -86 -36.5t-36 -86.5q0 -51 37 -86zM427 507v33h163v-540h-157v43q-22 -16 -34 -23.5t-45 -19t-70 -11.5q-88 0 -159 65q-95 86 -95 216q0 97 59 177q80 104 204 104q69 0 134 -44z M330 680q10 -9 23 -9q14 0 23.5 9.5t9.5 23.5t-10 23.5t-23 9.5q-14 0 -23.5 -10t-9.5 -23q0 -14 10 -24zM263 614q-37 37 -37 90q0 52 37 89.5t90 37.5q53 -1 90 -38t37 -90t-37.5 -90t-90.5 -37q-51 0 -89 38z" unicode="å"/>
<glyph glyph-name="ae" horiz-adv-x="1021" unicode="æ" d="M225 181q35 -35 86 -35q50 0 86 36t36 86q-1 51 -37 86.5t-86 35.5t-86 -36t-36 -86q0 -51 37 -87zM985 216l-402 -1q12 -24 18 -32q40 -53 111 -53q44 0 70 18q11 8 21 17h167q-15 -34 -30 -56q-17 -24 -40 -47t-74 -48t-109 -25q-65 0 -136 43v-32h-151l-1 42 q-18 -14 -28 -21q-53 -33 -120 -33q-82 0 -149 56q-103 90 -103 222q0 100 60 179q81 104 204 104q33 0 62 -9t39.5 -15.5t31.5 -20.5v33h154v-32q1 1 10 6t12 7t13 7t16 7.5t17 6.5t20.5 5.5t22 3t25.5 1.5q103 0 183 -74q42 -39 66.5 -93t24.5 -111q0 -25 -5 -55zM589 332 h242q-42 72 -119 72h-2q-45 0 -79 -24q-11 -8 -24 -21q-6 -6 -18 -27z"/>
<glyph glyph-name="ccedilla" horiz-adv-x="604" unicode="ç" d="M348 -9l-9 -24l9 -1q10 -2 21 -4.5t19 -6.5q28 -12 45 -41.5t17 -62.5q0 -53 -37.5 -91t-92.5 -38q-35 0 -67.5 20t-47.5 51q-8 19 -13 56l95 -1q2 -10 4 -15q9 -17 29 -17q13 0 23 9.5t10 22.5q0 14 -10 24.5t-23 10.5h-1q-14 0 -29 -15l-78 34l37 94q-57 15 -101 46 q-56 40 -86.5 99.5t-30.5 129.5q0 75 31 129.5t66 83.5q79 69 185 69q117 0 202 -85q14 -14 34 -44q20 -31 37 -83l-176 1l-6 8q-5 7 -10 12q-33 30 -83 30q-39 0 -72 -25q-48 -35 -48 -95q0 -50 35.5 -86t84.5 -36q51 0 86 35q7 6 17 21h173q-23 -60 -39.5 -88t-41.5 -52 q-65 -60 -158 -75z"/>
<glyph glyph-name="egrave" horiz-adv-x="625" unicode="è" d="M185 824l270 -148l-59 -112l-282 122zM588 215h-403q12 -23 19 -33q39 -53 110 -53q42 0 70 19q9 5 21 17h167q-26 -60 -65 -98q-79 -79 -193 -79q-104 0 -182 64q-47 39 -74.5 97t-27.5 120q0 101 65 179q40 48 97.5 75t119.5 27q102 0 180 -67q46 -39 73 -95.5 t27 -116.5q0 -18 -4 -56zM193 333h241q-40 73 -121 73q-43 0 -78 -25q-16 -10 -24 -21q-9 -9 -18 -27z"/>
<glyph glyph-name="eacute" horiz-adv-x="625" unicode="é" d="M437 822l71 -137l-281 -124l-58 110zM588 215h-403q12 -23 19 -33q39 -53 110 -53q42 0 70 19q9 5 21 17h167q-26 -60 -65 -98q-79 -79 -193 -79q-104 0 -182 64q-47 39 -74.5 97t-27.5 120q0 101 65 179q40 48 97.5 75t119.5 27q102 0 180 -67q46 -39 73 -95.5 t27 -116.5q0 -18 -4 -56zM193 333h241q-40 73 -121 73q-43 0 -78 -25q-16 -10 -24 -21q-9 -9 -18 -27z"/>
<glyph glyph-name="ecircumflex" horiz-adv-x="625" unicode="ê" d="M386 758l153 -183h-183l-51 68l-50 -66h-169l156 181h144zM588 215h-403q12 -23 19 -33q39 -53 110 -53q42 0 70 19q9 5 21 17h167q-26 -60 -65 -98q-79 -79 -193 -79q-104 0 -182 64q-47 39 -74.5 97t-27.5 120q0 101 65 179q40 48 97.5 75t119.5 27q102 0 180 -67 q46 -39 73 -95.5t27 -116.5q0 -18 -4 -56zM193 333h241q-40 73 -121 73q-43 0 -78 -25q-16 -10 -24 -21q-9 -9 -18 -27z"/>
<glyph glyph-name="edieresis" horiz-adv-x="625" unicode="ë" d="M335 737h161v-163h-161v163zM128 736h157v-162h-157v162zM588 215h-403q12 -23 19 -33q39 -53 110 -53q42 0 70 19q9 5 21 17h167q-26 -60 -65 -98q-79 -79 -193 -79q-104 0 -182 64q-47 39 -74.5 97t-27.5 120q0 101 65 179q40 48 97.5 75t119.5 27q102 0 180 -67 q46 -39 73 -95.5t27 -116.5q0 -18 -4 -56zM193 333h241q-40 73 -121 73q-43 0 -78 -25q-16 -10 -24 -21q-9 -9 -18 -27z"/>
<glyph glyph-name="igrave" horiz-adv-x="271" unicode="ì" d="M8 824l270 -148l-59 -112l-282 122zM55 540h163v-540h-163v540z"/>
<glyph glyph-name="iacute" horiz-adv-x="271" unicode="í" d="M260 822l71 -137l-281 -124l-58 110zM55 540h163v-540h-163v540z"/>
<glyph glyph-name="icircumflex" horiz-adv-x="271" unicode="î" d="M209 758l153 -183h-183l-51 68l-50 -66h-169l156 181h144zM55 540h163v-540h-163v540z"/>
<glyph glyph-name="idieresis" horiz-adv-x="271" unicode="ï" d="M158 737h161v-163h-161v163zM-49 736h156v-162h-156v162zM55 540h163v-540h-163v540z"/>
<glyph glyph-name="ntilde" horiz-adv-x="604" unicode="ñ" d="M434 733l82 -119q-58 -37 -120 -37q-38 0 -76 10l-10 3q-9 2 -19.5 4.5t-25.5 4.5t-28 2q-34 0 -75 -24l-75 110q67 44 122 44q32 0 80 -12q52 -13 72 -13q29 0 73 27zM550 296v-296h-162v303q-2 66 -30 88q-19 15 -49 15q-65 0 -85 -56q-6 -21 -6 -49v-301h-161v542h163 v-49q51 57 133 57q35 0 67 -11q44 -15 75.5 -49.5t43.5 -79.5q11 -38 11 -114z"/>
<glyph glyph-name="ograve" horiz-adv-x="625" unicode="ò" d="M185 824l270 -148l-59 -112l-282 122zM112 72q-82 82 -82 199q0 109 75 190q34 37 79 59t73.5 27t54.5 5q94 0 174 -61q50 -40 78.5 -98.5t28.5 -122.5q0 -101 -65 -178q-48 -59 -109 -81t-108 -22q-116 0 -199 83zM227 185q39 -35 86 -35q50 0 85.5 35.5t35.5 85.5 q-1 51 -36.5 86t-85.5 35t-85 -36t-35 -86q0 -49 35 -85z"/>
<glyph glyph-name="oacute" horiz-adv-x="625" unicode="ó" d="M437 822l71 -137l-281 -124l-58 110zM112 72q-82 82 -82 199q0 109 75 190q34 37 79 59t73.5 27t54.5 5q94 0 174 -61q50 -40 78.5 -98.5t28.5 -122.5q0 -101 -65 -178q-48 -59 -109 -81t-108 -22q-116 0 -199 83zM227 185q39 -35 86 -35q50 0 85.5 35.5t35.5 85.5 q-1 51 -36.5 86t-85.5 35t-85 -36t-35 -86q0 -49 35 -85z"/>
<glyph glyph-name="ocircumflex" horiz-adv-x="625" unicode="ô" d="M386 758l153 -183h-183l-51 68l-50 -66h-169l156 181h144zM112 72q-82 82 -82 199q0 109 75 190q34 37 79 59t73.5 27t54.5 5q94 0 174 -61q50 -40 78.5 -98.5t28.5 -122.5q0 -101 -65 -178q-48 -59 -109 -81t-108 -22q-116 0 -199 83zM227 185q39 -35 86 -35 q50 0 85.5 35.5t35.5 85.5q-1 51 -36.5 86t-85.5 35t-85 -36t-35 -86q0 -49 35 -85z"/>
<glyph glyph-name="otilde" horiz-adv-x="625" unicode="õ" d="M444 733l83 -119q-58 -37 -120 -37q-39 0 -77 10l-10 3q-9 2 -19.5 4.5t-25.5 4.5t-28 2q-30 0 -75 -24l-75 110q67 44 123 44q35 0 79 -12l9 -3q10 -2 19 -4t22 -4t23 -2q28 0 72 27zM112 72q-82 82 -82 199q0 109 75 190q34 37 79 59t73.5 27t54.5 5q94 0 174 -61 q50 -40 78.5 -98.5t28.5 -122.5q0 -101 -65 -178q-48 -59 -109 -81t-108 -22q-116 0 -199 83zM227 185q39 -35 86 -35q50 0 85.5 35.5t35.5 85.5q-1 51 -36.5 86t-85.5 35t-85 -36t-35 -86q0 -49 35 -85z"/>
<glyph glyph-name="odieresis" horiz-adv-x="625" unicode="ö" d="M112 72q-82 82 -82 199q0 109 75 190q34 37 79 59t73.5 27t54.5 5q94 0 174 -61q50 -40 78.5 -98.5t28.5 -122.5q0 -101 -65 -178q-48 -59 -109 -81t-108 -22q-116 0 -199 83zM227 185q39 -35 86 -35q50 0 85.5 35.5t35.5 85.5q-1 51 -36.5 86t-85.5 35t-85 -36t-35 -86 q0 -49 35 -85zM285 739v-163h-157v163h157zM336 739h160v-162h-160v162z"/>
<glyph glyph-name="divide" horiz-adv-x="667" unicode="÷" d="M667 227h-667v127h667v-127zM414 468q-1 -33 -24 -56t-57 -23q-33 0 -56.5 22.5t-23.5 55.5q0 19 6 35q20 46 74 48q34 -1 57.5 -24.5t23.5 -57.5zM414 110q-1 -33 -23.5 -56t-55.5 -23h-2q-33 0 -56.5 22t-23.5 55q0 35 23 59t57 24t57.5 -23.5t23.5 -57.5z"/>
<glyph glyph-name="oslash" horiz-adv-x="625" unicode="ø" d="M472 591l102 -75l-47 -64q19 -25 30 -43q36 -63 36 -138q0 -106 -71 -186q-84 -95 -211 -95q-44 0 -110 22l-49 -64l-100 75l46 64q-20 27 -25 36q-43 68 -43 147q0 58 23 112q34 77 104 123.5t154 46.5h2q55 0 111 -24zM425 314l-122 -164q30 0 51 7q35 12 57 44t22 69 q0 16 -8 44zM201 227l123 164q-34 0 -55 -7q-35 -13 -56.5 -44.5t-21.5 -68.5q0 -19 10 -44z"/>
<glyph glyph-name="ugrave" horiz-adv-x="604" unicode="ù" d="M174 824l271 -148l-59 -112l-282 122zM56 541h162v-306q0 -29 4 -41q6 -28 26 -44t49 -16q45 0 70 35q19 27 19 69v10v293h163v-541h-161l-1 49q-16 -17 -28 -27t-40 -20.5t-63 -10.5q-32 0 -59 8q-47 14 -81 49.5t-48 83.5q-12 39 -12 119v290z"/>
<glyph glyph-name="uacute" horiz-adv-x="604" unicode="ú" d="M426 822l72 -137l-282 -124l-57 110zM56 541h162v-306q0 -29 4 -41q6 -28 26 -44t49 -16q45 0 70 35q19 27 19 69v10v293h163v-541h-161l-1 49q-16 -17 -28 -27t-40 -20.5t-63 -10.5q-32 0 -59 8q-47 14 -81 49.5t-48 83.5q-12 39 -12 119v290z"/>
<glyph glyph-name="ucircumflex" horiz-adv-x="604" unicode="û" d="M376 758l153 -183h-183l-52 68l-49 -66h-170l157 181h144zM56 541h162v-306q0 -29 4 -41q6 -28 26 -44t49 -16q45 0 70 35q19 27 19 69v10v293h163v-541h-161l-1 49q-16 -17 -28 -27t-40 -20.5t-63 -10.5q-32 0 -59 8q-47 14 -81 49.5t-48 83.5q-12 39 -12 119v290z"/>
<glyph glyph-name="udieresis" horiz-adv-x="604" unicode="ü" d="M56 541h162v-306q0 -29 4 -41q6 -28 26 -44t49 -16q45 0 70 35q19 27 19 69v10v293h163v-541h-161l-1 49q-16 -17 -28 -27t-40 -20.5t-63 -10.5q-32 0 -59 8q-47 14 -81 49.5t-48 83.5q-12 39 -12 119v290zM274 737v-162h-156v162h156zM325 738h160v-163h-160v163z"/>
<glyph glyph-name="OE" horiz-adv-x="1021" unicode="Œ" d="M275 222q55 -55 132 -55q37 0 74 16q52 22 82.5 68.5t30.5 102.5q0 69 -44 120q-56 67 -143 67q-34 0 -69 -14q-53 -21 -85.5 -68t-32.5 -105q0 -79 55 -132zM582 663l-1 43h401v-149h-215v-125h214v-153h-215v-127h215v-152h-401v41q-24 -16 -36 -22q-60 -33 -141 -33 q-40 0 -82 10q-134 33 -214 146q-68 95 -68 211q0 128 79 229q16 20 37.5 40t57.5 45t86 40.5t105 15.5q79 0 141 -35q13 -7 37 -25z"/>
<glyph glyph-name="oe" horiz-adv-x="1021" unicode="œ" d="M227 184q35 -35 86 -35q50 0 85.5 35.5t35.5 85.5q-1 50 -36.5 85.5t-85.5 35.5q-51 0 -86 -35.5t-35 -85.5q0 -51 36 -86zM986 215h-403q11 -23 19 -33q39 -53 110 -53q42 0 70 19q9 5 21 17h167q-27 -61 -68 -100q-80 -77 -191 -77q-86 0 -154 44q-17 11 -45 38 q-36 -29 -43 -33q-70 -48 -154 -48q-110 0 -190 72q-95 83 -95 211q0 96 55 168q86 111 224 111q91 0 161 -48q18 -12 43 -36q1 2 14 13.5t22 18.5q68 51 162 51q57 -1 107 -22q77 -32 124.5 -103t47.5 -154q0 -18 -4 -56zM590 333h241q-40 73 -120 73q-44 0 -79 -25 q-8 -5 -24 -21q-4 -4 -18 -27z"/>
<glyph glyph-name="Ydieresis" horiz-adv-x="604" unicode="Ÿ" d="M327 908h157v-163h-157v163zM115 908h161v-163h-161v163zM1 706h198l84 -202q13 -33 23 -61q16 40 38 92l72 171h187l-209 -443v-263h-181v260z"/>
<glyph glyph-name="circumflex" horiz-adv-x="313" unicode="ˆ" d="M126 758l153 -183h-183l-52 68l-49 -66h-170l157 181h144z"/>
<glyph glyph-name="tilde" horiz-adv-x="313" unicode="˜" d="M184 733l82 -119q-58 -37 -120 -37q-38 0 -76 10l-10 3q-9 2 -19.5 4.5t-25.5 4.5t-28 2q-34 0 -75 -24l-75 110q67 44 122 44q32 0 80 -12q52 -13 72 -13q29 0 73 27z"/>
<glyph glyph-name="endash" horiz-adv-x="562" unicode="–" d="M44 353h475v-166h-475v166z"/>
<glyph glyph-name="emdash" horiz-adv-x="667" unicode="—" d="M667 227h-667v127h667v-127z"/>
<glyph glyph-name="quoteleft" horiz-adv-x="271" unicode="‘" d="M216 380h-165v180q0 73 30 108q34 40 98 40h8h29v-82h-6q-35 0 -49 -14.5t-14 -45.5q0 -3 0.5 -9t0.5 -10h68v-167z"/>
<glyph glyph-name="quotesinglbase" horiz-adv-x="271" unicode="‚" d="M53 167h165v-180q-1 -26 -2 -40t-8 -33t-20 -35q-34 -40 -98 -40h-8h-29v82h9q33 0 46 13.5t13 43.5q0 14 -1 22h-67v167z"/>
<glyph glyph-name="quotedblleft" horiz-adv-x="500" unicode="“" d="M216 380h-165v180q0 73 30 108q34 40 97 40h8h30l-1 -82h-6q-35 0 -48.5 -14.5t-13.5 -45.5q0 -3 0.5 -9t0.5 -10h68v-167zM446 380h-165v180q0 73 30 108q34 40 97 40h8h30v-82h-6q-35 0 -49 -14.5t-14 -45.5q0 -3 0.5 -9t0.5 -10h68v-167z"/>
<glyph glyph-name="quotedblright" horiz-adv-x="500" unicode="”" d="M283 706h165v-179q0 -74 -30 -109q-34 -40 -97 -40h-8h-30v83h9q34 0 47 14.5t13 45.5q0 3 -0.5 9t-0.5 10h-68v166zM54 706h165v-179q-1 -26 -2 -40t-8 -33.5t-20 -35.5q-34 -40 -98 -40h-8h-29v83h9q33 0 46 13.5t13 43.5q0 14 -1 22h-67v166z"/>
<glyph glyph-name="dagger" horiz-adv-x="500" unicode="†" d="M168 706h163v-187h148v-138h-148v-549h-163v549h-147v139h147v186z"/>
<glyph glyph-name="ellipsis" horiz-adv-x="1000" unicode="…" d="M246 75q0 -34 -22.5 -57.5t-56.5 -23.5q-15 0 -28 5q-52 21 -52 75q0 33 23.5 56.5t57.5 23.5q33 0 55.5 -23t22.5 -56zM580 75q0 -34 -22.5 -57.5t-56.5 -23.5q-15 0 -27 5q-53 18 -53 75q0 20 7 34q21 46 73 46q33 0 55.5 -23t23.5 -56zM913 75q0 -34 -22.5 -57.5 t-56.5 -23.5q-15 0 -28 5q-11 4 -21 11t-20.5 24.5t-10.5 39.5q0 33 23.5 56.5t56.5 23.5t56 -23t23 -56z"/>
<glyph glyph-name="guilsinglleft" horiz-adv-x="167" unicode="‹" d="M151 473v-167l-52 -37l52 -37v-170l-135 126v161z"/>
<glyph glyph-name="guilsinglright" horiz-adv-x="167" unicode="›" d="M16 478l135 -126v-161l-135 -124v167l51 36l-51 38v170z"/>
<glyph glyph-name="fraction" horiz-adv-x="125" unicode="⁄" d="M173 706h95l-317 -706h-95z"/>
<glyph glyph-name="trademark" horiz-adv-x="688" unicode="™" d="M187 374h-85v265h-102v67h287v-67h-100v-265zM674 374h-82l4 177q1 34 6 67q-3 -9 -7.5 -27l-6.5 -26l-56 -191h-75l-59 192q-1 4 -3.5 11.5l-3.5 10.5q-4 20 -7 29q6 -44 7 -66l5 -177h-82v332h106l76 -239l71 239h107v-332z"/>
<glyph glyph-name="minus" horiz-adv-x="667" unicode="−" d="M667 227h-667v127h667v-127z"/>
</font>
</defs>
</svg>
