<?xml version="1.0" encoding="UTF-8" standalone="no"?>
<!DOCTYPE svg  PUBLIC '-//W3C//DTD SVG 1.1//EN'  'http://www.w3.org/Graphics/SVG/1.1/DTD/svg11.dtd'>
<svg xmlns="http://www.w3.org/2000/svg">
<defs>
<font id="BrandonGrotesque-Regular" horiz-adv-x="987">
<font-face underline-position="-102" font-weight="390" descent="-410" panose-1="2 11 5 3 2 2 3 6 2 2" units-per-em="2048" unicode-range="U+000D-2122" bbox="-264 -635 1894 1999" x-height="819" underline-thickness="102" font-family="BrandonGrotesque" ascent="1638" cap-height="1434"/>
<missing-glyph horiz-adv-x="2048"/>
<glyph glyph-name=".notdef" horiz-adv-x="2048"/>
<glyph glyph-name="glyph1" horiz-adv-x="2048"/>
<glyph glyph-name="glyph1" horiz-adv-x="2048"/>
<glyph glyph-name="uni000D" horiz-adv-x="2048" unicode=""/>
<glyph glyph-name="space" horiz-adv-x="454" unicode=" "/>
<glyph glyph-name="exclam" horiz-adv-x="610" unicode="!" d="M215 1161v234q0 15 12 27t27 12h102q15 0 27 -12t12 -27v-230l-39 -575q-2 -12 -14 -22.5t-25 -10.5h-24q-13 0 -25 10.5t-14 22.5zM188 96q0 49 34.5 83t82.5 34q49 0 83 -33.5t34 -83.5q0 -48 -34 -82t-83 -34q-47 0 -82 34.5t-35 81.5z"/>
<glyph glyph-name="quotedbl" horiz-adv-x="628" unicode='&quot;' d="M410 1065v330q0 15 12 27t27 12h69q21 0 30 -13t9 -25q0 -7 -2 -14l-57 -325q-3 -12 -14.5 -21.5t-22.5 -9.5h-12q-15 0 -27 12t-12 27zM100 1065v330q0 15 12 27t27 12h70q21 0 30 -13t9 -25q0 -7 -2 -14l-58 -325q-3 -12 -14 -21.5t-22 -9.5h-13q-15 0 -27 12t-12 27z "/>
<glyph glyph-name="numbersign" horiz-adv-x="1110" unicode="#" d="M373 492h313l47 350h-309zM86 438v15q0 17 11 28t28 11h158l49 350h-148q-15 0 -27 12t-12 27v14q0 15 12 27t27 12h160l66 467q2 12 12.5 22.5t23.5 10.5h15q18 0 29 -13.5t8 -31.5l-62 -455h309l64 467q2 12 14 22.5t25 10.5h12q19 0 30.5 -13t8.5 -32l-61 -455h143 q17 0 28 -11.5t11 -27.5v-14q0 -16 -9.5 -27.5t-25.5 -11.5h-160l-49 -350h146q16 0 27.5 -11t11.5 -28v-15q0 -15 -10 -27t-25 -12h-164l-53 -366q-2 -14 -13 -23.5t-26 -9.5h-13q-19 0 -30 13t-9 32l54 354h-314l-51 -366q-1 -13 -13 -23t-26 -10h-12q-20 0 -31 13t-8 32 l51 354h-143q-17 0 -28 11.5t-11 27.5z"/>
<glyph glyph-name="dollar" horiz-adv-x="1073" unicode="$" d="M588 119q102 9 171.5 73.5t69.5 149.5q0 84 -58.5 146.5t-182.5 123.5v-493zM262 1092q0 -91 59.5 -155t178.5 -118v496q-62 -6 -110 -30.5t-74.5 -58t-40 -68t-13.5 -66.5zM95.5 194q1.5 7 10.5 21q5 6 18.5 23.5t20.5 24.5t18 15.5t22.5 6.5t23.5 -13q11 -11 30 -26.5 t58.5 -43.5t93.5 -50.5t109 -30.5v532q-87 35 -149 68t-114 76t-82 97.5t-40 121.5q-4 23 -4 74q0 41 13 85.5t43.5 91.5t74 85.5t110.5 65.5t148 34v66q0 17 11.5 27.5t27.5 10.5h14q15 0 26 -10.5t11 -27.5v-66q79 -6 156 -31.5t114 -48.5l37 -22q8 -4 14 -12t8.5 -23.5 t-10.5 -34.5q-4 -6 -12 -18.5t-11 -17t-9.5 -13t-10.5 -11t-10.5 -6t-12 -2.5t-13.5 3.5t-17 7.5q-1 0 -17 9.5t-36 20.5t-47 23t-59.5 22.5t-63.5 14.5l-2 -531q81 -34 138.5 -64.5t110.5 -69.5t85.5 -81.5t51.5 -97.5t19 -121q0 -149 -119 -252t-286 -114v-213 q0 -18 -13 -27.5t-32 -9.5q-17 0 -30 10t-13 27v213q-75 6 -144.5 28.5t-119.5 52.5t-75 48t-42 34q-9 8 -12.5 12t-8 11.5t-4.5 14.5q0 4 1.5 11z"/>
<glyph glyph-name="percent" horiz-adv-x="1382" unicode="%" d="M836 254q0 -68 46 -114t113 -46q64 0 110 46.5t46 113.5q0 63 -46.5 109.5t-109.5 46.5q-67 0 -113 -46t-46 -110zM719 254q0 116 80.5 196t195.5 80q114 0 195.5 -80.5t81.5 -195.5t-81.5 -196t-195.5 -81q-115 0 -195.5 80.5t-80.5 196.5zM262 55l703 1358q12 21 34 21 h33q23 0 31.5 -13.5t8.5 -23.5q0 -9 -5 -19l-707 -1358q-10 -20 -34 -20h-29q-23 0 -34 17.5t-1 37.5zM188 1180q0 -68 46 -114t114 -46q64 0 110 46.5t46 113.5q0 63 -46.5 109t-109.5 46q-67 0 -113.5 -45.5t-46.5 -109.5zM72 1180q0 116 80 196t196 80q114 0 195.5 -80.5 t81.5 -195.5t-81.5 -196t-195.5 -81q-115 0 -195.5 80.5t-80.5 196.5z"/>
<glyph glyph-name="ampersand" horiz-adv-x="1363" unicode="&amp;" d="M397 1118v-10q0 -55 32 -106t99 -117l45 -45q35 21 52 31.5t53 35.5t56.5 46.5t44.5 51t35 62.5t11 68q0 79 -58 138.5t-157 59.5q-98 0 -155.5 -61.5t-57.5 -153.5zM311 354q0 -106 75 -177t183 -71q103 0 193 46.5t158 128.5l-379 397q-230 -139 -230 -324zM168 356 q0 63 19.5 121t48 99.5t70 80.5t74.5 62t73 47v4l-50 53q-70 74 -106.5 141.5t-36.5 145.5v12q0 60 22.5 118t65.5 106.5t114.5 78t160.5 29.5q160 0 253 -91t93 -224q0 -206 -303 -394l338 -337q81 167 81 364q0 31 10.5 39t37.5 8h49q7 0 12.5 -1t9.5 -3.5t7 -4t5 -6 t3 -6.5t1.5 -7t0.5 -6.5v-6.5v-6q0 -118 -32 -238.5t-89 -222.5l196 -196q15 -16 19.5 -24.5t4.5 -16.5q0 -6 -3 -19t-23 -35l-24 -22q-20 -19 -40 -19l-46 25l-174 180q-181 -204 -447 -204q-124 0 -215.5 52.5t-135.5 136.5t-44 187z"/>
<glyph glyph-name="quotesingle" horiz-adv-x="319" unicode="&apos;" d="M100 1065v330q0 15 12 27t27 12h70q21 0 30 -13t9 -25q0 -7 -2 -14l-58 -325q-3 -12 -14 -21.5t-22 -9.5h-13q-15 0 -27 12t-12 27z"/>
<glyph glyph-name="parenleft" horiz-adv-x="704" unicode="(" d="M119 645q0 146 19.5 267.5t54.5 206.5t80 149t100.5 102t111.5 57.5t117 22.5h7q27 0 30 -20l4 -56q1 -4 1 -8q0 -8 -5 -16.5t-16 -10.5q-189 -37 -275 -211t-86 -483t86 -483t275 -211q11 -2 16 -10.5t5 -16.5q0 -4 -1 -8l-4 -55q-3 -21 -30 -21h-7q-61 3 -117 22.5 t-111.5 57.5t-100.5 102t-80 149t-54.5 206.5t-19.5 267.5z"/>
<glyph glyph-name="parenright" horiz-adv-x="704" unicode=")" d="M61 -84q-1 4 -1 8q0 8 5.5 16.5t16.5 10.5q189 37 274.5 210.5t85.5 483.5t-85.5 483.5t-274.5 210.5q-11 2 -16.5 10.5t-5.5 16.5q0 4 1 8l5 56q3 20 29 20h7q74 -4 140.5 -30t130.5 -86t110 -148.5t74.5 -227.5t28.5 -313t-28.5 -313t-74.5 -227.5t-110 -148.5 t-130.5 -86t-140.5 -30h-7q-26 0 -29 21z"/>
<glyph glyph-name="asterisk" horiz-adv-x="671" unicode="*" d="M74 1258q-2 10 -2 14q0 11 6 20q3 4 8 11.5t8 11.5q8 12 23.5 16.5t27.5 -4.5l142 -100l-4 170q0 15 12 26t27 11h26q15 0 27 -11t12 -26l-4 -168l137 102q14 7 29 3.5t24 -15.5l15 -23q8 -13 5.5 -28.5t-15.5 -24.5l-158 -100l160 -101q13 -9 15.5 -19.5t2.5 -14.5 q0 -10 -6 -19l-14 -22q-9 -13 -26 -17t-30 4l-139 101l4 -166q0 -15 -12 -27t-27 -12h-26q-15 0 -27 12t-12 27l4 168l-137 -99q-12 -9 -29 -5t-25 18l-14 20q-9 14 -5.5 30.5t15.5 25.5l154 96l-158 96q-12 9 -14 19z"/>
<glyph glyph-name="plus" horiz-adv-x="1026" unicode="+" d="M84 682v57q0 15 12 27t27 12h321v324q0 15 12 26t27 11h58q15 0 27 -11t12 -26v-324h323q15 0 26 -12t11 -27v-57q0 -15 -11 -27t-26 -12h-323v-321q0 -15 -12 -26t-27 -11h-58q-15 0 -27 11t-12 26v321h-321q-15 0 -27 12t-12 27z"/>
<glyph glyph-name="comma" horiz-adv-x="477" unicode="," d="M111 -298.5q2 9.5 16 22.5q127 114 127 258q-8 -2 -25 -2q-47 0 -81.5 34.5t-34.5 81.5q0 49 34 83t82 34q58 0 97 -41.5t39 -142.5q0 -114 -54.5 -217.5t-117.5 -161.5q-15 -14 -29 -14q-11 0 -21 10l-28 28q-6 5 -6 14q0 4 2 13.5z"/>
<glyph glyph-name="hyphen" horiz-adv-x="845" unicode="-" d="M170 487v39q0 17 11 28t28 11h428q17 0 28 -11t11 -28v-39q0 -15 -11 -25.5t-28 -10.5h-428q-17 0 -28 10.5t-11 25.5z"/>
<glyph glyph-name="period" horiz-adv-x="462" unicode="." d="M115 96q0 49 34 83t82 34q49 0 83 -33.5t34 -83.5q0 -48 -34 -82t-83 -34q-47 0 -81.5 34.5t-34.5 81.5z"/>
<glyph glyph-name="slash" horiz-adv-x="655" unicode="/" d="M82 51l401 1356q3 11 14 19t23 8h45q22 0 30.5 -12.5t8.5 -24.5q0 -7 -2 -15l-399 -1355q-3 -10 -14.5 -18.5t-22.5 -8.5h-47q-21 0 -30 12.5t-9 24.5q0 7 2 14z"/>
<glyph glyph-name="zero" horiz-adv-x="1294" unicode="0" d="M295 696q0 -281 91.5 -432t260.5 -151t260.5 151t91.5 432q0 279 -92 431.5t-260 152.5t-260 -152.5t-92 -431.5zM150 696q0 338 130 527.5t367 189.5t367.5 -189.5t130.5 -527.5t-130.5 -527t-367.5 -189t-367 189t-130 527z"/>
<glyph glyph-name="one" horiz-adv-x="667" unicode="1" d="M72 1069q-9 10 -9 20q0 12 13 25l286 279h56q15 0 26 -12t11 -27v-1315q0 -15 -11 -27t-26 -12h-74q-17 0 -28 11.5t-11 27.5v1100l-147 -115q-27 -20 -47 2z"/>
<glyph glyph-name="two" horiz-adv-x="1062" unicode="2" d="M86 39v61q84 90 251 271.5t251 271.5q207 226 207 371q0 47 -16 90.5t-48 83t-90 63t-133 23.5q-148 0 -291 -154q-12 -12 -27.5 -12t-27.5 12l-41 39q-10 11 -11 25.5t9 27.5q6 8 17 21.5t49.5 48.5t80.5 61.5t108 48t134 21.5q107 0 192.5 -32t139 -87t82 -125.5 t28.5 -150.5q0 -65 -18.5 -125t-58.5 -120.5t-77.5 -105.5t-101.5 -114q-66 -69 -197 -210t-196 -210h602q15 0 27 -12t12 -27v-55q0 -15 -12 -27t-27 -12h-778q-17 0 -28 11.5t-11 27.5z"/>
<glyph glyph-name="three" horiz-adv-x="1089" unicode="3" d="M86 187.5q0 14.5 12 23.5l56 47q13 9 25 9q17 0 30 -19q11 -14 32 -33t59.5 -46t95.5 -45t118 -18q123 0 209 69.5t86 186.5q0 114 -92 191.5t-271 77.5h-114q-39 0 -39 45v49q0 25 9.5 35t33.5 10h113q157 0 241 70.5t84 177.5q0 118 -77.5 189t-190.5 71 q-151 0 -268 -133q-10 -12 -24 -14t-30 10l-49 39q-12 11 -11.5 26.5t11.5 26.5q6 7 17.5 19.5t49 43.5t78 54.5t102.5 43t124 19.5q188 0 305 -102.5t117 -272.5q0 -109 -65.5 -197.5t-145.5 -125.5v-6q40 -17 79.5 -45.5t78.5 -69t63.5 -98t24.5 -119.5 q0 -172 -124 -284.5t-331 -112.5q-71 0 -135.5 15t-105 33.5t-80 48.5t-55 45.5t-36.5 39.5q-10 11 -10 25.5z"/>
<glyph glyph-name="four" horiz-adv-x="1200" unicode="4" d="M205 442h577v713zM33 354v76l776 973q12 12 31 12h41q16 0 27.5 -11t11.5 -28l2 -936h165q17 0 28 -11t11 -26v-45q0 -16 -11 -27.5t-28 -11.5h-165v-280q0 -15 -12 -27t-27 -12h-70q-15 0 -27 12t-12 27v276h-702q-17 0 -28 11.5t-11 27.5z"/>
<glyph glyph-name="five" horiz-adv-x="1091" unicode="5" d="M115 188q0 13 18 31q8 7 23.5 22.5t23.5 22.5q31 27 51 -2q12 -17 32 -37t57 -48.5t94 -47t121 -18.5q94 0 169.5 50.5t113.5 126t38 158.5q0 128 -82 211.5t-239 83.5h-312q-29 0 -46 22.5t-17 49.5v541q0 16 11 27.5t28 11.5h618q17 0 28 -11.5t11 -27.5v-60 q0 -16 -11 -27.5t-28 -11.5h-520v-376h238q229 0 351 -113.5t122 -316.5q0 -195 -136 -332t-340 -137q-253 0 -395 170q-22 25 -22 38z"/>
<glyph glyph-name="six" horiz-adv-x="1112" unicode="6" d="M254 496q2 -36 12.5 -93t38 -109t64.5 -92t93 -63.5t124 -23.5q128 0 217.5 96t89.5 229q0 134 -90 227t-219 93q-53 0 -106 -13.5t-90.5 -33t-67.5 -39.5t-45 -34l-15 -13q-8 -39 -8 -81q0 -14 2 -50zM109 563q0 112 27 215.5t70 182.5t103.5 150t120.5 121t128.5 93.5 t120.5 69t103 45.5q8 3 15 3q19 0 30 -24l23 -49q4 -10 4 -19q0 -27 -41 -40q-32 -11 -83.5 -38t-120.5 -75.5t-132 -106t-116.5 -135t-73.5 -155.5q6 4 16 10t42.5 22t67 28t85.5 22t100 10q87 0 166.5 -31.5t140 -88t97 -141t36.5 -183.5q0 -127 -61.5 -235t-165.5 -171 t-225 -63t-214 45t-149.5 125t-85 184t-28.5 229z"/>
<glyph glyph-name="seven" horiz-adv-x="970" unicode="7" d="M49 1294v60q0 15 12 27t27 12h823q15 0 27 -12t12 -27v-15l-598 -1286q-24 -53 -67 -53h-60q-15 0 -27 12t-12 27v22l572 1194h-670q-15 0 -27 12t-12 27z"/>
<glyph glyph-name="eight" horiz-adv-x="1173" unicode="8" d="M315 1032q0 -100 68 -165.5t205 -78.5q136 13 204 78.5t68 165.5q0 115 -79 186.5t-201 71.5q-112 0 -188.5 -72t-76.5 -186zM281 360q0 -115 88.5 -186.5t214.5 -71.5q136 0 223.5 69.5t87.5 188.5q0 101 -83.5 182t-223.5 95q-141 -14 -224 -95t-83 -182zM127 375 q0 62 24.5 121t64 101.5t80 72.5t79.5 47v6q-81 38 -146 122.5t-65 192.5q0 167 118.5 271t303.5 104q187 0 306.5 -103.5t119.5 -271.5q0 -108 -65 -192.5t-146 -122.5v-6q39 -17 79.5 -47t80 -72.5t64 -101.5t24.5 -121q0 -172 -126 -283.5t-339 -111.5q-208 0 -332.5 112 t-124.5 283z"/>
<glyph glyph-name="nine" horiz-adv-x="1112" unicode="9" d="M219 965q0 -134 90 -227t219 -93q53 0 106 13.5t90.5 33.5t67.5 39.5t45 32.5l15 14q8 39 8 81q0 14 -2 50t-12.5 93t-38 109t-64.5 92t-93 63.5t-124 23.5q-128 0 -217.5 -96t-89.5 -229zM74 956q0 127 61.5 235t165.5 171t225 63t214 -45t150 -125t85.5 -184t28.5 -229 q0 -112 -27 -215.5t-70 -182.5t-103.5 -150t-120.5 -121t-129 -93.5t-121 -69t-103 -45.5q-8 -3 -15 -3q-19 0 -30 24l-23 49q-4 10 -4 19q0 27 41 40q32 11 83.5 38t120.5 75.5t132 106t116.5 135t73.5 155.5q-6 -4 -16 -10t-42.5 -22t-67 -28t-85.5 -22t-100 -10 q-87 0 -166.5 31.5t-140 88t-97 141t-36.5 183.5z"/>
<glyph glyph-name="colon" horiz-adv-x="524" unicode=":" d="M145 723q0 49 34.5 83t82.5 34q50 0 83.5 -34t33.5 -83q0 -48 -34 -82.5t-83 -34.5q-47 0 -82 35t-35 82zM145 96q0 49 34.5 83t82.5 34q50 0 83.5 -33.5t33.5 -83.5q0 -48 -34 -82t-83 -34q-47 0 -82 34.5t-35 81.5z"/>
<glyph glyph-name="semicolon" horiz-adv-x="530" unicode=";" d="M143 723q0 49 34.5 83t82.5 34q50 0 83.5 -34t33.5 -83q0 -48 -34 -82.5t-83 -34.5q-47 0 -82 35t-35 82zM141.5 -299q2.5 10 16.5 23q127 114 127 258q-8 -2 -25 -2q-47 0 -82 34.5t-35 81.5q0 49 34.5 83t82.5 34q58 0 96.5 -41.5t38.5 -142.5q0 -114 -54.5 -217.5 t-117.5 -161.5q-15 -14 -28 -14q-11 0 -21 10l-29 28q-6 5 -6 14q0 3 2.5 13z"/>
<glyph glyph-name="less" horiz-adv-x="899" unicode="&lt;" d="M51 465v10q1 9 7 19t14 16l696 434q11 7 21 7q9 0 17 -5q18 -10 19 -35v-73q0 -25 -22 -39l-535 -328l535 -315q22 -13 22 -39v-74q-1 -25 -19 -35q-8 -5 -17 -5q-10 0 -21 7l-696 420q-8 6 -14 16t-7 19z"/>
<glyph glyph-name="equal" horiz-adv-x="1044" unicode="=" d="M176 758v61q0 16 11 27.5t28 11.5h612q17 0 28 -11.5t11 -27.5v-61q0 -16 -11 -27.5t-28 -11.5h-612q-17 0 -28 11.5t-11 27.5zM176 326v63q0 16 11 27.5t28 11.5h612q17 0 28 -11.5t11 -27.5v-63q0 -16 -11 -27.5t-28 -11.5h-612q-17 0 -28 11.5t-11 27.5z"/>
<glyph glyph-name="greater" horiz-adv-x="899" unicode="&gt;" d="M74 43v74q0 28 22 39l535 315l-535 328q-22 15 -22 39v73q0 25 18 35q8 5 18 5t21 -7l696 -434q9 -6 15 -16t6 -19v-10q0 -9 -6 -19t-15 -16l-696 -420q-11 -7 -21 -7t-18 5q-18 10 -18 35z"/>
<glyph glyph-name="question" horiz-adv-x="944" unicode="?" d="M319 96q0 49 34.5 83t82.5 34q50 0 83.5 -33.5t33.5 -83.5q0 -48 -34 -82t-83 -34q-47 0 -82 34.5t-35 81.5zM102 1221q-12 10 -12 24q0 13 12 29q5 7 14.5 19.5t43.5 43.5t73.5 54.5t105.5 43t138 19.5q160 0 258.5 -86t98.5 -227q0 -63 -24 -115.5t-60 -85.5t-78 -66 t-78 -58t-60 -60t-24 -74v-84q0 -20 -13 -30.5t-30 -10.5h-55q-16 0 -27.5 11t-11.5 28v86q0 51 17 93t44 70.5t59.5 53t65.5 48.5t60 50.5t44 64.5t17 85q0 76 -53.5 128t-149.5 52q-27 0 -51.5 -3t-46.5 -10t-39.5 -13t-35.5 -18t-29 -19t-26 -21.5t-20.5 -19.5t-19 -19.5 t-14.5 -15.5q-26 -26 -54 -2z"/>
<glyph glyph-name="at" horiz-adv-x="2009" unicode="@" d="M729 410q0 -138 69.5 -216.5t170.5 -78.5q93 0 147 55t74 137v291q-3 5 -8.5 12.5t-25 27.5t-42.5 35t-61.5 27.5t-81.5 12.5q-107 0 -174.5 -80t-67.5 -223zM88 457q0 217 67 401t188 316t298 206t389 74q202 0 366 -65.5t272.5 -181.5t167 -274t58.5 -343 q0 -85 -13 -167t-45 -164t-79 -142.5t-122.5 -98.5t-168.5 -38q-99 0 -157.5 44t-77.5 115h-17q-35 -69 -102 -114t-156 -45q-157 0 -257.5 119t-100.5 313q0 200 101.5 314t263.5 114q46 0 87 -11t67 -27t45 -32.5t28 -27.5l8 -11q2 7 5.5 22.5t5 20.5t5 15.5t7.5 13.5 t10.5 8t15.5 6.5t21 1.5h20q15 0 27 -12t12 -27v-436q0 -97 18.5 -153t49.5 -76.5t80 -20.5q124 0 208 133.5t84 362.5q0 127 -29.5 239.5t-90.5 206t-148.5 161t-208 105t-264.5 37.5q-371 0 -590 -237t-219 -645q0 -281 147 -487t394 -312q22 -10 25 -20t-7 -31l-22 -56 q-9 -20 -25 -20q-7 0 -16 4q-284 120 -454.5 360t-170.5 562z"/>
<glyph glyph-name="A" horiz-adv-x="1357" unicode="A" d="M371 487h614q-50 111 -149.5 336t-149.5 336h-16zM12 53l623 1379q11 22 35 22h20q24 0 35 -22l618 -1379q4 -10 4 -19q0 -10 -5 -18q-10 -16 -33 -16h-82q-26 0 -35 23l-152 337h-727l-149 -337q-9 -23 -35 -23h-82q-23 0 -33 16q-6 9 -6 19q0 9 4 18z"/>
<glyph glyph-name="B" horiz-adv-x="1280" unicode="B" d="M362 791h334q115 0 180.5 72.5t65.5 183.5q0 112 -64.5 178.5t-181.5 66.5h-334v-501zM358 137h373q112 0 185 74.5t73 185.5q0 107 -85.5 179.5t-207.5 72.5h-338v-512zM209 39v1356q0 16 11 27.5t28 11.5h448q186 0 303 -107t117 -270q0 -109 -59 -195t-142 -133 q45 -19 85 -46t78 -66.5t60.5 -97t22.5 -124.5q0 -173 -124.5 -284t-321.5 -111h-467q-17 0 -28 11.5t-11 27.5z"/>
<glyph glyph-name="C" horiz-adv-x="1447" unicode="C" d="M104 715q0 202 99 372t269 268.5t372 98.5q149 0 267 -48t228 -142q12 -12 13 -29t-11 -29l-55 -55q-23 -28 -53 2q-81 71 -185 112.5t-206 41.5q-119 0 -225.5 -48t-182 -128t-120 -188.5t-44.5 -225.5q0 -156 74.5 -291t207 -216t290.5 -81q64 0 119 11.5t104.5 36 t83.5 46.5t84 60q26 21 49 6l61 -56q10 -9 10 -24q0 -19 -12 -31q-204 -198 -497 -198q-202 0 -372 97.5t-269 266.5t-99 371z"/>
<glyph glyph-name="D" horiz-adv-x="1529" unicode="D" d="M365 141h307q252 0 415.5 162.5t163.5 415.5q0 252 -163.5 413.5t-415.5 161.5h-307v-1153zM209 39v1356q0 15 11 27t26 12h459q145 0 278 -57t229.5 -153t153.5 -228t57 -277q0 -146 -57 -279.5t-153.5 -229.5t-229 -153t-278.5 -57h-459q-15 0 -26 12t-11 27z"/>
<glyph glyph-name="E" horiz-adv-x="1212" unicode="E" d="M209 39v1356q0 16 11 27.5t28 11.5h807q17 0 28 -11.5t11 -27.5v-60q0 -16 -11 -27.5t-28 -11.5h-688v-499h587q15 0 27 -12t12 -27v-60q0 -17 -11.5 -28t-27.5 -11h-587v-522h688q17 0 28 -11.5t11 -27.5v-59q0 -16 -11 -27.5t-28 -11.5h-807q-17 0 -28 11.5t-11 27.5z "/>
<glyph glyph-name="F" horiz-adv-x="1165" unicode="F" d="M209 39v1356q0 16 11 27.5t28 11.5h807q17 0 28 -11.5t11 -27.5v-60q0 -16 -11 -27.5t-28 -11.5h-688v-561h587q15 0 27 -12t12 -27v-59q0 -15 -12 -27t-27 -12h-587v-559q0 -15 -12 -27t-27 -12h-80q-17 0 -28 11.5t-11 27.5z"/>
<glyph glyph-name="G" horiz-adv-x="1499" unicode="G" d="M104 715q0 202 99 372t269 268.5t372 98.5q149 0 267 -48t228 -142q12 -12 13 -29t-11 -29l-57 -57q-14 -15 -24.5 -14t-28.5 16q-81 71 -185 115.5t-204 44.5q-119 0 -225.5 -47.5t-181.5 -127.5t-119 -188t-44 -225q0 -156 74 -292t206 -218t290 -82q100 0 192 21.5 t134 43.5l42 21v287h-235q-17 0 -28 11t-11 26v75q0 17 11 28t28 11h354q15 0 26 -12t11 -27v-469q0 -20 -16 -32q-9 -5 -24.5 -14.5t-67.5 -32.5t-107.5 -41t-139.5 -32.5t-167 -14.5q-202 0 -372 97.5t-269 266.5t-99 371z"/>
<glyph glyph-name="H" horiz-adv-x="1564" unicode="H" d="M209 39v1356q0 15 12 27t27 12h80q17 0 28 -11.5t11 -27.5v-598h831v598q0 16 11 27.5t28 11.5h80q15 0 27 -12t12 -27v-1356q0 -15 -12 -27t-27 -12h-80q-17 0 -28 11.5t-11 27.5v620h-831v-620q0 -16 -11 -27.5t-28 -11.5h-80q-15 0 -27 12t-12 27z"/>
<glyph glyph-name="I" horiz-adv-x="577" unicode="I" d="M209 39v1356q0 15 12 27t27 12h82q15 0 27 -12t12 -27v-1356q0 -15 -12 -27t-27 -12h-82q-15 0 -27 12t-12 27z"/>
<glyph glyph-name="J" horiz-adv-x="829" unicode="J" d="M-41 131q-8 12 -8 24q0 14 12 27l43 49q16 15 29 17t21 -3.5t20 -19.5q97 -108 198 -108q48 0 91.5 18t79.5 53.5t57.5 96.5t21.5 139v971q0 16 11 27.5t28 11.5h80q17 0 28 -11.5t11 -27.5v-967q0 -210 -114 -329t-298 -119q-188 0 -311 151z"/>
<glyph glyph-name="K" horiz-adv-x="1265" unicode="K" d="M209 49v1335q0 21 14 35.5t35 14.5h59q20 0 35 -15t15 -35v-579l639 608q17 21 38 21h101q29 0 38.5 -24.5t-14.5 -47.5l-647 -604l678 -695q8 -12 8 -26q0 -12 -10 -24q-12 -13 -33 -13h-104q-10 0 -22 4.5t-15 9.5l-657 686v-651q0 -20 -15 -34.5t-35 -14.5h-59 q-21 0 -35 14t-14 35z"/>
<glyph glyph-name="L" horiz-adv-x="1005" unicode="L" d="M209 39v1356q0 16 11 27.5t28 11.5h80q15 0 27 -12t12 -27v-1258h589q17 0 28 -11.5t11 -27.5v-59q0 -16 -11 -27.5t-28 -11.5h-708q-17 0 -28 11.5t-11 27.5z"/>
<glyph glyph-name="M" horiz-adv-x="1765" unicode="M" d="M106 49l265 1376q3 12 14 20.5t23 8.5h32q11 0 21.5 -6.5t13.5 -15.5l406 -1129h10l399 1129q3 9 13.5 15.5t21.5 6.5h33q12 0 23 -8.5t14 -20.5l264 -1376q2 -8 2 -14q-1 -11 -7 -21q-10 -14 -32 -14h-82q-12 0 -23 9t-14 20l-182 1054h-8l-377 -1081q-3 -9 -14 -15.5 t-21 -6.5h-37q-10 0 -21 6.5t-14 15.5l-380 1081h-9l-178 -1054q-2 -11 -13.5 -20t-23.5 -9h-82q-23 0 -33 14q-6 9 -6 21q0 6 2 14z"/>
<glyph glyph-name="N" horiz-adv-x="1585" unicode="N" d="M209 39v1378q0 15 12 26t27 11h51l924 -1151h4v1092q0 16 11 27.5t28 11.5h71q15 0 27 -12t12 -27v-1379q0 -15 -12 -25.5t-27 -10.5h-37l-940 1173h-2v-1114q0 -16 -11 -27.5t-28 -11.5h-71q-15 0 -27 12t-12 27z"/>
<glyph glyph-name="O" horiz-adv-x="1681" unicode="O" d="M248 715q0 -160 79.5 -296.5t216 -216t296.5 -79.5t297 79.5t217 216t80 296.5t-80 297.5t-217 218t-297 80.5t-296.5 -80.5t-216 -218t-79.5 -297.5zM104 715q0 151 58 288t156 236t234.5 157t287.5 58t287.5 -58t235 -157t156.5 -236t58 -288t-58 -287.5t-156.5 -234.5 t-235 -155.5t-287.5 -57.5q-202 0 -371 97.5t-267 266.5t-98 371z"/>
<glyph glyph-name="P" horiz-adv-x="1220" unicode="P" d="M365 672h325q127 0 219 91t92 222q0 123 -92 208t-219 85h-325v-606zM209 39v1356q0 16 11 27.5t28 11.5h452q189 0 324 -133.5t135 -319.5q0 -190 -134.5 -325.5t-322.5 -135.5h-337v-481q0 -15 -12 -27t-27 -12h-78q-17 0 -28 11.5t-11 27.5z"/>
<glyph glyph-name="Q" horiz-adv-x="1683" unicode="Q" d="M248 715q0 -160 79.5 -296.5t216 -216t296.5 -79.5t297 79.5t217 216t80 296.5t-80 297.5t-217 218t-297 80.5t-296.5 -80.5t-216 -218t-79.5 -297.5zM104 715q0 151 58 288t156 236t234.5 157t287.5 58t287.5 -58t235 -157t156.5 -236t58 -288q0 -224 -119.5 -405 t-316.5 -269l239 -385q14 -22 3.5 -42t-35.5 -20h-103q-21 0 -33 21l-223 377q-67 -12 -149 -12q-202 0 -371 97.5t-267 266.5t-98 371z"/>
<glyph glyph-name="R" horiz-adv-x="1353" unicode="R" d="M371 696h397q120 0 207.5 87t87.5 212q0 117 -88 203t-207 86h-397v-588zM209 39v1356q0 16 11 27.5t28 11.5h530q185 0 316 -127.5t131 -309.5q0 -138 -83.5 -250t-219.5 -167l280 -521q11 -20 0.5 -39.5t-35.5 -19.5h-104q-24 0 -33 18l-272 543h-391v-522 q0 -15 -12 -27t-27 -12h-80q-17 0 -28 11.5t-11 27.5z"/>
<glyph glyph-name="S" horiz-adv-x="1091" unicode="S" d="M106 184q0 14 11 31q5 6 15 19.5t15 19.5q22 30 44 30l28 -12q181 -155 346 -155q121 0 198 66t77 159q0 101 -85.5 173.5t-273.5 150.5q-93 41 -152.5 76t-110.5 84.5t-74 114t-23 149.5q0 44 13.5 91t46.5 97t81 88.5t125 63t170 24.5q89 0 176.5 -26t130.5 -52l43 -26 q8 -4 14.5 -12t9 -23.5t-10.5 -34.5q-4 -6 -12.5 -19.5t-12.5 -19.5q-17 -27 -41 -27q-14 0 -31 9l-10 6l-20 12t-27.5 15t-34.5 17t-39.5 16.5t-44 14t-45.5 9.5t-47 4q-77 0 -135 -22.5t-88.5 -58.5t-45 -72.5t-14.5 -71.5q0 -97 69 -164t208 -125q92 -38 154.5 -68.5 t124 -71.5t97 -85t57.5 -102t22 -128q0 -157 -130 -262.5t-313 -105.5q-84 0 -163.5 21t-136 53.5t-85 53t-47.5 37.5q-12 10 -17 16q-6 7 -6 23z"/>
<glyph glyph-name="T" horiz-adv-x="978" unicode="T" d="M16 1335v60q0 16 11 27.5t28 11.5h869q17 0 28 -11.5t11 -27.5v-60q0 -16 -11 -27.5t-28 -11.5h-357v-1257q0 -15 -12 -27t-27 -12h-77q-15 0 -27 12t-12 27v1257h-357q-17 0 -28 11.5t-11 27.5z"/>
<glyph glyph-name="U" horiz-adv-x="1466" unicode="U" d="M190 528v867q0 15 12 27t27 12h78q17 0 28 -11.5t11 -27.5v-854q0 -180 104.5 -298t280.5 -118q178 0 283.5 116.5t105.5 295.5v858q0 16 11 27.5t28 11.5h78q15 0 27 -12t12 -27v-867q0 -236 -152.5 -392t-392.5 -156q-158 0 -282 72t-191.5 196.5t-67.5 279.5z"/>
<glyph glyph-name="V" horiz-adv-x="1359" unicode="V" d="M14 1380q-4 9 -4 18q0 10 6 19q10 17 33 17h82q26 0 35 -23l510 -1147h8l510 1147q3 8 13.5 15.5t21.5 7.5h82q23 0 33 -17q6 -9 6 -19q0 -9 -4 -18l-623 -1378q-11 -22 -35 -22h-20q-24 0 -35 22z"/>
<glyph glyph-name="W" horiz-adv-x="1847" unicode="W" d="M76 1384q-2 8 -2 15q0 12 6 21q10 14 33 14h86q12 0 23 -9t14 -20l284 -1061h8l342 1088q7 22 35 22h37q12 0 22 -6.5t13 -15.5l348 -1088h8l279 1061q3 11 14 20t23 9h86q23 0 33 -14q6 -8 6 -18q0 -9 -2 -18l-388 -1376q-3 -12 -13.5 -20t-22.5 -8h-33q-24 0 -35 22 l-354 1108h-11l-348 -1108q-11 -22 -35 -22h-32q-12 0 -23 8t-14 20z"/>
<glyph glyph-name="X" horiz-adv-x="1193" unicode="X" d="M80 18q-5 9 -5 18q0 10 7 21l416 678l-400 641q-12 20 -1.5 39t36.5 19h111q24 0 35 -19l315 -543h2l319 543q11 19 35 19h111q26 0 36.5 -19t-1.5 -39l-400 -641l414 -678q6 -12 6 -22q0 -9 -4 -17q-10 -18 -37 -18h-94q-26 0 -35 18l-350 580h-2l-346 -580 q-11 -18 -35 -18h-94q-27 0 -39 18z"/>
<glyph glyph-name="Y" horiz-adv-x="1157" unicode="Y" d="M2 1414q11 20 35 20h96q19 0 33 -19l414 -571l413 571q14 19 33 19h96q24 0 34 -20q5 -9 5 -19t-6 -21l-500 -682v-653q0 -15 -12 -27t-27 -12h-79q-17 0 -28 11.5t-11 27.5v651l-494 684q-6 11 -6 21t4 19z"/>
<glyph glyph-name="Z" horiz-adv-x="1093" unicode="Z" d="M61 39v37l744 1208v6h-645q-15 0 -27 12t-12 27v66q0 15 12 27t27 12h829q15 0 27 -12t12 -27v-27l-756 -1223v-2h676q17 0 28 -11.5t11 -27.5v-65q0 -16 -11 -27.5t-28 -11.5h-848q-15 0 -27 12t-12 27z"/>
<glyph glyph-name="bracketleft" horiz-adv-x="669" unicode="[" d="M160 -575v1970q0 15 12 27t27 12h381q15 0 26.5 -12t11.5 -27v-52q0 -17 -11 -27.5t-27 -10.5h-281v-1790h281q15 0 26.5 -11t11.5 -26v-53q0 -15 -11.5 -27t-26.5 -12h-381q-15 0 -27 12t-12 27z"/>
<glyph glyph-name="backslash" horiz-adv-x="675" unicode="\" d="M53 1382q-2 8 -2 15q0 12 8.5 24.5t30.5 12.5h66q12 0 23 -8t14 -19l401 -1356q2 -7 2 -14q0 -12 -9 -24.5t-30 -12.5h-68q-11 0 -22 8.5t-14 18.5z"/>
<glyph glyph-name="bracketright" horiz-adv-x="669" unicode="]" d="M51 -522q0 15 12 26t27 11h281v1790h-281q-16 0 -27.5 10.5t-11.5 27.5v52q0 15 12 27t27 12h381q15 0 27 -12t12 -27v-1970q0 -15 -12 -27t-27 -12h-381q-15 0 -27 12t-12 27v53z"/>
<glyph glyph-name="asciicircum" horiz-adv-x="1073" unicode="^" d="M90.5 828.5q-7.5 13.5 -7.5 22.5q0 10 7 21l412 570q5 8 15.5 14t19.5 6h10q9 0 19.5 -6t15.5 -14l401 -570q7 -11 7 -21q0 -9 -7.5 -22.5t-32.5 -13.5h-67q-25 0 -39 23l-305 432l-310 -432q-16 -23 -39 -23h-67q-25 0 -32.5 13.5z"/>
<glyph glyph-name="underscore" horiz-adv-x="792" unicode="_" d="M51 -59q0 17 11 28t28 11h612q17 0 28 -11t11 -28v-33q0 -15 -11 -26t-28 -11h-612q-17 0 -28 11t-11 26v33z"/>
<glyph glyph-name="grave" horiz-adv-x="618" unicode="`" d="M141.5 1295q-2.5 9 -2.5 14q0 8 4 16l37 74q7 12 17 12.5t11 0.5q17 0 25 -7l308 -172q10 -5 12.5 -13t2.5 -12q0 -7 -3 -14l-21 -45q-6 -12 -11 -12.5t-6 -0.5q-10 0 -30 9l-329 137q-12 4 -14.5 13z"/>
<glyph glyph-name="a" horiz-adv-x="860" unicode="a" d="M217 248q0 -63 39 -104.5t104 -41.5q71 0 133.5 35.5t92.5 79.5v162q-59 33 -172 33q-89 0 -143 -43t-54 -121zM86 248q0 120 87 196t241 76q39 0 82.5 -6.5t67.5 -13.5l24 -6v17q0 109 -24 155q-25 49 -106 49h-3q-127 0 -246 -45q-29 -11 -39 20l-16 51q-10 31 22 45 q13 6 44.5 17t101.5 24t139 13q151 0 205.5 -79t54.5 -267v-455q0 -15 -12 -27t-27 -12h-39q-16 0 -23 7.5t-12 23.5l-16 55q-106 -106 -254 -106q-109 0 -180.5 73.5t-71.5 194.5z"/>
<glyph glyph-name="b" d="M291 244q3 -5 9 -14.5t27 -32.5t45 -41t62.5 -32.5t79.5 -14.5q109 0 176.5 88t67.5 213q0 128 -70 210t-199 82q-50 0 -99.5 -12t-73.5 -24l-25 -13v-409zM147 39v1356q0 15 12 27t27 12h64q15 0 27 -12t12 -27v-609q9 6 27 15t75 24t117 15q180 0 286.5 -121.5 t106.5 -306.5q0 -178 -108.5 -305t-264.5 -127q-43 0 -85 11t-71 27t-51.5 32t-33.5 27l-11 11l-12 -55q-3 -14 -12.5 -23.5t-22.5 -9.5h-43q-15 0 -27 12t-12 27z" unicode="b"/>
<glyph glyph-name="c" horiz-adv-x="903" unicode="c" d="M84 408q0 118 59 218t156 157t207 57q180 0 293 -144q10 -14 8 -30t-16 -27l-39 -33q-9 -8 -16 -12t-14 -2t-9.5 3.5t-11 9.5t-9.5 9q-75 86 -188 86q-116 0 -194.5 -83.5t-78.5 -206.5q0 -124 78 -209.5t193 -85.5q26 0 48 3t41.5 11t32 13t29.5 19t23.5 19t23 21.5 l19.5 19.5q21 18 31.5 17.5t29.5 -13.5l23 -16q15 -11 19 -27q1 -5 1 -9q0 -11 -6 -21q-48 -77 -130.5 -124.5t-182.5 -47.5q-173 0 -296.5 123t-123.5 305z"/>
<glyph glyph-name="d" d="M229 410q0 -125 67.5 -213t176.5 -88q41 0 79 14t63 33.5t44.5 39.5t28.5 34l8 14v409l-27 13.5t-69 22t-102 13.5q-129 0 -199 -82t-70 -210zM86 412q0 185 106.5 306.5t286.5 121.5q60 0 114.5 -13.5t79.5 -26.5l25 -14v609q0 15 12 27t27 12h64q15 0 27 -12t12 -27 v-1356q0 -15 -12 -27t-27 -12h-43q-13 0 -22.5 9.5t-12.5 23.5l-12 55l-11.5 -11.5t-32.5 -26t-52.5 -33t-70 -26t-85.5 -11.5q-156 0 -264.5 127t-108.5 305z" unicode="d"/>
<glyph glyph-name="e" horiz-adv-x="935" unicode="e" d="M229 489h488q-5 91 -71.5 158.5t-158.5 67.5q-102 0 -174.5 -65t-83.5 -161zM86 410q0 180 110.5 305t290.5 125q161 0 266 -106.5t105 -268.5q0 -27 -4 -55q-1 -15 -12 -25t-25 -10h-590q6 -105 87 -185.5t188 -80.5q104 0 203 61q3 2 10 5.5t9 5t7 4t7.5 2.5h6t6 -1.5 t5.5 -4.5t6 -7q6 -8 17.5 -23.5t17.5 -23.5q13 -12 12.5 -24.5t-21.5 -28.5q-45 -36 -125.5 -65t-175.5 -29q-181 0 -291 124t-110 306z"/>
<glyph glyph-name="f" horiz-adv-x="655" unicode="f" d="M47 735v45q0 17 11 28t28 11h125v287q0 171 87 259.5t226 88.5q137 0 226 -84q14 -12 14 -27q0 -9 -6 -20l-33 -53q-18 -30 -53 -2q-80 59 -150 59q-76 0 -123 -54.5t-47 -166.5v-287h238q17 0 28 -11t11 -28v-45q0 -16 -11 -27.5t-28 -11.5h-238v-657q0 -15 -12 -27 t-27 -12h-63q-15 0 -27 12t-12 27v657h-125q-17 0 -28 11.5t-11 27.5z"/>
<glyph glyph-name="g" horiz-adv-x="940" unicode="g" d="M268 483q0 -101 60.5 -165t154.5 -64q92 0 148.5 63.5t56.5 165.5t-56.5 166t-148.5 64q-94 0 -154.5 -64.5t-60.5 -165.5zM240 -332q0 -73 70 -121.5t175 -48.5q107 0 191 55t84 140q0 15 -5 33t-19 43t-48 41t-84 16h-227l-15 -5t-32.5 -16t-41.5 -29t-33 -45t-15 -63z M63 39q0 44 14 84t34.5 66.5t41 46.5t34.5 29l14 9q-7 9 -18 26.5t-29.5 71t-18.5 107.5q0 148 95.5 254.5t250.5 106.5h346q17 0 28 -11t11 -28v-35q0 -12 -6 -23t-16 -12l-111 -22q4 -3 10 -8.5t22 -26t28 -44.5t22 -65t10 -86q0 -144 -95 -246t-249 -102 q-58 0 -106.5 12.5t-68.5 25.5l-19 13l-10 -5t-21.5 -14.5t-27.5 -24.5t-21.5 -34.5t-9.5 -44.5q0 -41 29 -70.5t83 -29.5h295q136 0 221.5 -67t85.5 -195q0 -132 -121.5 -232t-302.5 -100q-99 0 -176.5 25t-123.5 66.5t-69.5 90.5t-23.5 101q0 119 119 190v6 q-54 14 -102 62.5t-48 132.5z"/>
<glyph glyph-name="h" horiz-adv-x="1015" unicode="h" d="M147 39v1356q0 15 12 27t27 12h64q15 0 27 -12t12 -27v-664q4 4 12.5 11.5t36 26.5t57.5 33t76 26t92 12q153 0 235.5 -95t82.5 -274v-432q0 -15 -12 -27t-27 -12h-66q-15 0 -27 12t-12 27v432q0 115 -48 173t-136 58q-44 0 -87 -11.5t-73.5 -28.5t-55 -34t-36.5 -28 l-12 -12v-549q0 -15 -12 -27t-27 -12h-64q-15 0 -27 12t-12 27z"/>
<glyph glyph-name="i" horiz-adv-x="432" unicode="i" d="M145 39v741q0 15 12 27t27 12h64q15 0 27 -12t12 -27v-741q0 -15 -12 -27t-27 -12h-64q-15 0 -27 12t-12 27zM117 1294q0 41 28 70t68 29q41 0 69.5 -29t28.5 -70q0 -40 -28.5 -68t-69.5 -28q-40 0 -68 28t-28 68z"/>
<glyph glyph-name="j" horiz-adv-x="436" unicode="j" d="M121 1294q0 41 28 70t68 29q41 0 69.5 -29t28.5 -70q0 -40 -28.5 -68t-69.5 -28q-40 0 -68 28t-28 68zM-258 -504l33 53q18 30 53 2q26 -20 70.5 -39.5t78.5 -19.5q76 0 123 54.5t47 166.5v1067q0 17 11.5 28t27.5 11h64q16 0 27.5 -11t11.5 -28v-1067 q0 -171 -87.5 -259.5t-226.5 -88.5q-136 0 -225 84q-14 12 -14 27q0 9 6 20z"/>
<glyph glyph-name="k" horiz-adv-x="917" unicode="k" d="M147 39v1356q0 15 12 27t27 12h64q15 0 27 -12t12 -27v-887l348 287q27 24 49 24h111q24 0 27.5 -21t-9.5 -30l-389 -311l453 -406q10 -8 10 -20q1 -5 -1 -11q-6 -20 -30 -20h-113q-19 0 -40 16l-416 396v-373q0 -15 -12 -27t-27 -12h-64q-15 0 -27 12t-12 27z"/>
<glyph glyph-name="l" horiz-adv-x="436" unicode="l" d="M147 39v1356q0 15 12 27t27 12h64q15 0 27 -12t12 -27v-1356q0 -15 -12 -27t-27 -12h-64q-15 0 -27 12t-12 27z"/>
<glyph glyph-name="m" horiz-adv-x="1560" unicode="m" d="M145 39v741q0 15 12 27t27 12h39q27 0 33 -24l18 -64l11.5 11.5t33.5 26.5t54.5 33t74 26t93.5 12q180 0 262 -133l7 5q6 6 13 12t19.5 15l25 18t30 19.5t35 19t39 17t43 14.5t45.5 9.5t48 3.5q317 0 317 -369v-432q0 -15 -12 -27t-27 -12h-65q-15 0 -27 12t-12 27v432 q0 115 -47 173t-137 58q-128 0 -250 -114q10 -58 10 -117v-432q0 -15 -12 -27t-27 -12h-65q-15 0 -27 12t-12 27v432q0 231 -195 231q-41 0 -79.5 -12t-65.5 -29t-47.5 -34t-30.5 -29l-10 -12v-547q0 -15 -12 -27t-27 -12h-64q-15 0 -27 12t-12 27z"/>
<glyph glyph-name="n" horiz-adv-x="1013" unicode="n" d="M145 39v741q0 15 12 27t27 12h39q27 0 33 -24l18 -64q5 4 14 11.5t38 26.5t60.5 33t79 26t95.5 12q318 0 318 -369v-432q0 -15 -12 -27t-27 -12h-66q-15 0 -27 12t-12 27v432q0 115 -48 173t-136 58q-43 0 -86 -12t-74 -29t-55 -34t-36 -29l-13 -12v-547q0 -15 -12 -27 t-27 -12h-64q-15 0 -27 12t-12 27z"/>
<glyph glyph-name="o" d="M227 412q0 -125 77.5 -212t189.5 -87t189 87t77 212q0 122 -77 207.5t-189 85.5t-189.5 -85.5t-77.5 -207.5zM86 412q0 174 119.5 301t288.5 127q111 0 205 -58.5t148 -157t54 -212.5q0 -178 -119 -305t-288 -127q-111 0 -205.5 58.5t-148.5 158t-54 215.5z" unicode="o"/>
<glyph glyph-name="p" d="M291 188q10 -8 27 -20t69 -31.5t102 -19.5q117 0 193 84.5t76 208.5q0 126 -70 213.5t-188 87.5q-37 0 -72.5 -10.5t-59 -25.5t-42 -29.5t-26.5 -25.5l-9 -10v-422zM147 -575v1355q0 15 12 27t27 12h43q23 0 33 -26l14 -39q4 3 11 9t30.5 21t49.5 26t66 20.5t81 9.5 q165 0 276 -126.5t111 -305.5q0 -181 -112.5 -304.5t-280.5 -123.5q-38 0 -74.5 7t-61.5 16.5t-44.5 19.5t-29.5 17l-9 7v-622q0 -15 -12 -27t-27 -12h-64q-15 0 -27 12t-12 27z" unicode="p"/>
<glyph glyph-name="q" d="M229 410q0 -124 76 -208.5t193 -84.5q50 0 99.5 16.5t74.5 33.5l24 17v426q-3 4 -9 11t-26.5 24.5t-43 30.5t-58 24t-72.5 11q-118 0 -188 -87.5t-70 -213.5zM86 408q0 179 111 305.5t276 126.5q65 0 124.5 -21.5t86.5 -42.5l27 -22l14 37q11 28 39 28h37q15 0 27 -12 t12 -27v-1355q0 -15 -12 -27t-27 -12h-64q-15 0 -27 12t-12 27v626q-3 -3 -9.5 -7.5t-28.5 -17t-45.5 -22t-60.5 -17t-75 -7.5q-168 0 -280.5 123.5t-112.5 304.5z" unicode="q"/>
<glyph glyph-name="r" horiz-adv-x="684" unicode="r" d="M145 39v741q0 15 12 27t27 12h39q29 0 35 -28l16 -60q3 4 9 11.5t28.5 26.5t48.5 33t69 26t91 12q27 0 52 -3t50 -9q25 -8 37 -22q8 -9 8 -20q0 -7 -3 -14l-25 -70q-12 -33 -49 -18q-36 16 -80 16t-83 -11.5t-63.5 -28.5t-42.5 -34t-26 -28l-8 -12v-547q0 -15 -12 -27 t-27 -12h-64q-15 0 -27 12t-12 27z"/>
<glyph glyph-name="s" horiz-adv-x="729" unicode="s" d="M92 627q0 35 14.5 70t43.5 68t81.5 54t120.5 21q72 0 132 -19.5t96 -44.5q14 -9 17.5 -27.5t-5.5 -35.5l-17 -33q-9 -17 -27.5 -21.5t-31.5 3.5q-88 49 -164 49q-62 0 -89 -25t-27 -57q0 -24 10 -43.5t36 -38t44 -28t61 -30.5q45 -22 69.5 -34.5t61.5 -34.5t57 -41 t41 -45t30 -56.5t9 -66.5q0 -93 -80 -162t-202 -69q-149 0 -267 92q-8 6 -11 19t1 24q5 7 16 27.5t13 23.5q8 12 23 14t32 -8q10 -8 27.5 -20t68.5 -32t97 -20q61 0 97 28t36 71q0 50 -38.5 81t-141.5 82q-49 24 -84 45.5t-72.5 54t-57.5 74t-20 91.5z"/>
<glyph glyph-name="t" horiz-adv-x="700" unicode="t" d="M55 735v45q0 17 11 28t28 11h105v228q0 15 12 26.5t27 11.5l65 5q15 0 26 -12t11 -27v-232h238q17 0 27.5 -11t10.5 -28v-45q0 -16 -10.5 -27.5t-27.5 -11.5h-238v-479q0 -59 15.5 -78.5t52.5 -19.5q62 0 149 45q25 9 32.5 6t16.5 -18l31 -52q8 -15 8 -24q0 -4 -1 -6 q-3 -10 -21 -21q-33 -21 -103 -45t-133 -24q-59 0 -98 16.5t-58 49.5t-25.5 69.5t-6.5 89.5v491h-105q-17 0 -28 11.5t-11 27.5z"/>
<glyph glyph-name="u" horiz-adv-x="993" unicode="u" d="M135 350v430q0 15 12 27t27 12h66q15 0 27 -12t12 -27v-432q0 -115 48 -173t136 -58q44 0 85 12t68.5 29t49 34t31.5 29l10 12v547q0 15 11.5 27t26.5 12h64q15 0 27 -12t12 -27v-741q0 -15 -12 -27t-27 -12h-39q-16 0 -24 9t-13 26l-14 53l-11.5 -11.5t-33 -26 t-54.5 -33t-74 -26t-93 -11.5q-318 0 -318 370z"/>
<glyph glyph-name="v" horiz-adv-x="841" unicode="v" d="M32 806q7 13 28 13h3h64q26 0 37 -22l254 -586h2l270 586q11 22 35 22h53h3q21 0 29 -13q4 -7 4 -15q0 -9 -5 -19l-350 -772q-8 -20 -35 -20h-10q-27 0 -35 20l-346 772q-5 11 -5 19q0 9 4 15z"/>
<glyph glyph-name="w" horiz-adv-x="1236" unicode="w" d="M68 772q-3 11 -3 19q0 28 33 28h64q30 0 37 -22l149 -541h2l232 563q8 21 34 21h11q27 0 35 -21l229 -565h2l147 543q3 9 13 15.5t22 6.5h64q33 0 33 -28q0 -8 -3 -19l-223 -772q-7 -20 -35 -20h-10q-27 0 -35 20l-250 614l-241 -614q-8 -20 -35 -20h-10q-28 0 -35 20z "/>
<glyph glyph-name="x" horiz-adv-x="854" unicode="x" d="M69 16q-2 6 -2 12q0 12 9 25l268 365l-260 348q-15 20 -7 36.5t34 16.5h86q20 0 32 -16l195 -279h2l203 279q12 16 33 16h86q26 -1 34 -17q2 -6 2 -11q0 -12 -10 -25l-260 -346l262 -367q9 -13 9 -24q0 -7 -3 -13q-8 -16 -32 -16h-76q-18 0 -31 18l-217 301h-2l-213 -303 q-12 -16 -33 -16h-76q-26 0 -33 16z"/>
<glyph glyph-name="y" horiz-adv-x="954" unicode="y" d="M28 806q8 13 31 13h91q23 0 34 -22l303 -627h2l287 627q11 22 35 22h78q23 0 32 -13q4 -7 4 -15t-5 -19l-629 -1362q-12 -24 -35 -24h-76q-24 0 -33.5 14.5t0.5 36.5l263 565l-381 772q-5 11 -5 19t4 13z"/>
<glyph glyph-name="z" horiz-adv-x="747" unicode="z" d="M74 39v20l401 625v6h-344q-15 0 -26 12t-11 27v51q0 17 11 28t26 11h514h2q22 0 33 -17q6 -9 6 -18q0 -10 -6 -20l-391 -629v-6h315q17 0 28 -11t11 -28v-51q0 -16 -11 -27.5t-28 -11.5h-491q-15 0 -27 12t-12 27z"/>
<glyph glyph-name="braceleft" horiz-adv-x="817" unicode="{" d="M51 379v63q0 12 9.5 20.5t21.5 10.5q45 7 93 52.5t48 107.5v330q0 107 32 193.5t83.5 141t119 90.5t134 51t133.5 15q17 0 29 -9t12 -26v-39q0 -14 -7.5 -25t-19.5 -12q-101 -15 -183.5 -61t-136.5 -129.5t-54 -189.5v-273q0 -72 -15.5 -124t-45 -82t-49.5 -42t-52 -26 v-15q32 -14 52 -26t49.5 -42t45 -82t15.5 -124v-272q0 -80 30.5 -148t83.5 -114t119 -76t141 -41q27 -3 27 -35v-41q0 -15 -12.5 -25t-28.5 -10q-67 0 -133.5 14.5t-134 51t-118.5 90.5t-83.5 140.5t-32.5 193.5v329q0 62 -48 107.5t-93 52.5q-12 1 -21.5 12t-9.5 23z"/>
<glyph glyph-name="bar" horiz-adv-x="405" unicode="|" d="M158 -578v2096q0 17 11.5 27.5t27.5 10.5h14q15 0 26 -10.5t11 -27.5v-2096q0 -15 -12 -25.5t-27 -10.5h-12q-15 0 -27 10.5t-12 25.5z"/>
<glyph glyph-name="braceright" horiz-adv-x="817" unicode="}" d="M51 -559q0 32 27 35q101 15 184 61t137 129t54 189v272q0 59 12 105t27 72.5t41 48.5t41 29.5t40 18.5v15q-25 11 -40 18.5t-41 29.5t-41 48.5t-27 72.5t-12 105v273q0 80 -31 148t-84 114.5t-119 76.5t-141 41q-12 1 -19.5 12t-7.5 25v39q0 17 12 26t29 9 q67 0 133.5 -15t134 -51t119 -90.5t83.5 -141t32 -193.5v-330q0 -62 48 -107.5t93 -52.5q12 -2 21.5 -10.5t9.5 -20.5v-63q0 -12 -9.5 -23t-21.5 -12q-45 -7 -93 -52.5t-48 -107.5v-329q0 -107 -32.5 -193.5t-83.5 -140.5t-118.5 -90.5t-134 -51t-133.5 -14.5 q-16 0 -28.5 10t-12.5 25v41z"/>
<glyph glyph-name="asciitilde" horiz-adv-x="1138" unicode="~" d="M107 528q0 13 8 23q4 8 12.5 20.5t36.5 45t57.5 57t75 45t90.5 20.5q44 0 88.5 -16.5t68.5 -31.5t64 -44q100 -69 150 -69q19 0 37 5t34 15.5t28 19.5t25.5 26t19.5 25t17.5 25t12.5 19q11 15 26 17.5t29 -9.5l43 -35q11 -9 11.5 -17t0.5 -9q0 -13 -8 -23 q-4 -8 -12.5 -20.5t-36.5 -45t-58 -57t-76.5 -45t-92.5 -20.5q-41 0 -85.5 16.5t-66 30t-61.5 41.5q-1 1 -23.5 17t-31.5 21t-29 16t-37 15t-35 4q-19 0 -36.5 -5t-33.5 -15.5t-27.5 -20t-25 -26t-19.5 -24.5t-17 -25t-13 -19q-11 -15 -26 -17.5t-29 9.5q-7 6 -21.5 17.5 t-21.5 17.5q-12 10 -12 26z"/>
<glyph glyph-name="uni00A0" horiz-adv-x="454" unicode=" "/>
<glyph glyph-name="exclamdown" horiz-adv-x="468" unicode="¡" d="M145 -346l39 575q2 12 14 22.5t25 10.5h25q13 0 25 -10.5t14 -22.5l39 -571v-233q0 -15 -12 -27t-27 -12h-103q-15 0 -27 12t-12 27v229zM119 723q0 48 34 82.5t83 34.5q47 0 81.5 -35t34.5 -82q0 -49 -34 -83t-82 -34q-50 0 -83.5 34t-33.5 83z"/>
<glyph glyph-name="cent" horiz-adv-x="874" unicode="¢" d="M209 410q0 -86 38 -156t103 -107l150 551q-11 2 -19 2q-115 0 -193.5 -83.5t-78.5 -206.5zM61 408q0 181 123.5 306.5t298.5 125.5q18 0 54 -4l22 84q5 15 16 21t21 6q5 0 10 -1l15 -4q15 -3 22.5 -16.5t3.5 -30.5l-22 -82q87 -38 151 -117q10 -14 8 -30t-16 -27l-39 -33 q-8 -7 -14.5 -10t-11 -3.5t-9.5 2t-7.5 4.5t-8 7.5t-8.5 7.5q-33 38 -82 62l-152 -559q14 -2 43 -2q40 0 72.5 8.5t63 29.5t41.5 30.5t40 37.5q21 18 32 17.5t30 -13.5l22 -16q15 -11 18 -21.5t3 -15.5q0 -10 -6 -20q-48 -77 -130.5 -124.5t-183.5 -47.5q-47 0 -80 8 l-53 -199q-3 -15 -15.5 -21.5t-22.5 -6.5q-4 0 -9 1l-12 5q-15 3 -23.5 16.5t-5.5 28.5l53 202q-113 48 -182.5 154t-69.5 240z"/>
<glyph glyph-name="sterling" horiz-adv-x="1032" unicode="£" d="M121 641v14q0 15 11 27t26 12h65q-2 9 -20 70t-31.5 131.5t-13.5 138.5q0 190 122 305t306 115q178 0 342 -145q13 -10 13 -28q0 -15 -9 -26l-43 -53q-16 -20 -31 -20t-29 18q-5 5 -13.5 13t-35.5 28.5t-55 36t-68.5 28.5t-78.5 13q-120 0 -198.5 -79.5t-78.5 -207.5 q0 -70 15.5 -144t33.5 -129.5t19 -64.5h336q17 0 27.5 -11.5t10.5 -27.5v-16q0 -15 -10.5 -26t-27.5 -11h-314q11 -57 11.5 -100t0.5 -48q0 -76 -13.5 -167t-43.5 -156h512q15 0 26 -11t11 -28v-53q0 -15 -11 -27t-26 -12h-651q-15 0 -27 12t-12 27v37q95 179 95 372 q0 76 -15 154h-90q-15 0 -26 12t-11 27z"/>
<glyph glyph-name="currency" horiz-adv-x="974" unicode="¤" d="M340 680q0 -62 43 -105t104 -43t104.5 43t43.5 105q0 61 -43 104t-105 43q-61 0 -104 -42.5t-43 -104.5zM156 427q0 17 10 28l84 84q-38 66 -38 141t38 141l-84 84q-10 11 -10 28t10 28l41 38q11 11 28 11t27 -11l84 -84q65 40 103.5 40.5t40.5 0.5q73 0 139 -38l86 86 q10 9 24 9q1 0 9.5 -0.5t19.5 -11.5l41 -40q11 -11 11 -27t-11 -27l-84 -84q40 -64 40 -142t-40 -144l84 -84q11 -11 11 -27t-11 -27l-41 -41q-11 -11 -19 -11.5t-9 -0.5q-15 0 -25 10l-86 86q-66 -38 -142.5 -38t-140.5 40l-84 -84q-10 -10 -27 -10t-28 10l-41 39 q-10 11 -10 28z"/>
<glyph glyph-name="yen" horiz-adv-x="1265" unicode="¥" d="M58.5 1419.5q7.5 14.5 31.5 14.5h96q19 0 33 -19l414 -571l414 571q14 19 32 19h97q24 0 31.5 -14.5t7.5 -23.5q0 -11 -7 -22l-499 -682v-102h264q17 0 28 -11.5t11 -27.5v-16q0 -15 -11 -26t-28 -11h-264v-154h264q17 0 28 -11.5t11 -27.5v-16q0 -15 -11 -26t-28 -11 h-264v-213q0 -15 -12 -27t-27 -12h-80q-17 0 -28 11.5t-11 27.5v213h-268q-15 0 -26 12t-11 27v14q0 15 11 27t26 12h268v154h-268q-15 0 -26 12t-11 27v14q0 15 11 27t26 12h268v100l-494 684q-6 11 -6 21t7.5 24.5z"/>
<glyph glyph-name="brokenbar" horiz-adv-x="745" unicode="¦" d="M328 842v676q0 17 11.5 27.5t27.5 10.5h14q15 0 26 -10.5t11 -27.5v-676q0 -15 -12 -26t-27 -11h-12q-15 0 -27 11t-12 26zM328 100q0 17 11.5 28t27.5 11h14q15 0 26 -11t11 -28v-678q0 -15 -12 -25.5t-27 -10.5h-12q-15 0 -27 10.5t-12 25.5v678z"/>
<glyph glyph-name="section" horiz-adv-x="1079" unicode="§" d="M250 559q0 -41 15.5 -75.5t38 -58.5t68 -51.5t83.5 -46t108.5 -51.5t120.5 -59q5 3 14 8t32 23t40.5 39t32 56.5t14.5 74.5q0 45 -21.5 82.5t-70.5 72.5t-109 64.5t-157 69.5q-50 20 -86 38q-5 -2 -13.5 -6.5t-29.5 -20.5t-37 -35.5t-29.5 -52.5t-13.5 -71zM82 -306 q0 14 12 30l41 51q16 21 33 21q14 0 29 -15q12 -12 36 -31t72 -50.5t112 -53t126 -21.5q116 0 195 53t79 152q0 94 -87.5 170t-270.5 154q-175 73 -268 169.5t-93 229.5q0 49 17 94t41 74t48 51.5t41 32.5l17 10q-7 4 -18 12.5t-39 36.5t-50 60t-39.5 82.5t-17.5 103.5 q0 44 13.5 89.5t46.5 91.5t81.5 82t125 58.5t170.5 22.5q89 0 176.5 -26t130.5 -52l43 -26q8 -4 14 -12t9 -23t-9 -33l-31 -47q-14 -21 -36 -21q-14 0 -31 9l-11 6q-10 6 -19.5 12t-27.5 15t-35 17t-39.5 16.5t-44 14t-45.5 9.5t-47 4q-79 0 -137 -19.5t-88 -51.5 t-43.5 -65.5t-13.5 -68.5q0 -83 70.5 -148t205.5 -120q93 -39 154.5 -68.5t123.5 -68t97.5 -77.5t57.5 -89.5t22 -110.5q0 -48 -18 -95t-43.5 -79.5t-51 -58t-43.5 -37.5l-18 -13q7 -5 19 -13.5t42 -38.5t52.5 -63.5t41.5 -86.5t19 -109q0 -157 -125 -252.5t-317 -95.5 q-68 0 -135.5 15.5t-113.5 35.5t-89.5 46.5t-62 41t-32.5 27.5q-13 11 -18.5 17.5t-5.5 22.5z"/>
<glyph glyph-name="dieresis" horiz-adv-x="847" unicode="¨" d="M559 1294q0 41 28 70t68 29q41 0 70 -29t29 -70q0 -40 -29 -68t-70 -28q-40 0 -68 28t-28 68zM164 1294q0 41 28 70t68 29q41 0 69.5 -29t28.5 -70q0 -40 -28.5 -68t-69.5 -28q-40 0 -68 28t-28 68z"/>
<glyph glyph-name="copyright" horiz-adv-x="1691" unicode="©" d="M481 713q0 161 112 273t271 112q136 0 236 -78q14 -12 15 -28.5t-11 -30.5l-29 -37q-18 -25 -55 -2q-70 47 -152 47q-104 0 -173.5 -73.5t-69.5 -176.5q0 -106 69 -178t174 -72q79 0 146 45q19 11 33 11q16 0 26 -13l33 -39q11 -12 10.5 -28.5t-12.5 -28.5 q-102 -86 -240 -86q-158 0 -270.5 112.5t-112.5 270.5zM233 717q0 -124 48.5 -238t130.5 -196t196 -130.5t238 -48.5q125 0 238.5 48.5t195.5 131t130 195.5t48 238q0 167 -81.5 308t-222.5 222.5t-308 81.5q-125 0 -238 -48t-195.5 -130t-131 -195.5t-48.5 -238.5zM111 717 q0 200 98.5 369.5t267.5 268.5t369 99t369.5 -99t268.5 -268.5t99 -369.5t-99 -369t-268.5 -267.5t-369.5 -98.5t-369 98.5t-267.5 267.5t-98.5 369z"/>
<glyph glyph-name="ordfeminine" horiz-adv-x="638" unicode="ª" d="M164 1028q0 -44 29 -74t73 -30q48 0 93 24t69 53v115q-54 27 -125 27q-59 0 -99 -32.5t-40 -82.5zM72 1026q0 88 62.5 142.5t174.5 54.5q28 0 58.5 -5.5t47.5 -10.5l17 -5q0 90 -17 124t-75 34q-20 0 -40.5 -2t-35.5 -5t-33 -8t-26.5 -8t-23.5 -8t-17 -6q-10 -3 -19 4.5 t-12 18.5l-10 36q-5 21 14 31q7 5 29.5 13.5t74 18t107.5 9.5q30 0 55 -5t43 -11.5t32 -21t23 -25.5t15 -32.5t9.5 -34.5t5 -40t1.5 -40v-43v-6v-5v-6v-312q0 -12 -7.5 -20t-18.5 -8h-37q-18 0 -25 20l-12 43q-25 -23 -41.5 -36t-55 -28.5t-81.5 -15.5q-79 0 -130.5 55 t-51.5 144z"/>
<glyph glyph-name="guillemotleft" horiz-adv-x="849" unicode="«" d="M418 397q-17 23 0 49l223 304q14 24 37 24h29q27 0 35 -19q3 -8 3 -16q0 -13 -8 -28l-151 -285l145 -301q11 -25 3 -43t-34 -19h-38q-18 0 -31 17zM84 397q-8 12 -8 24t8 25l223 304q14 24 37 24h29q27 0 35 -19q3 -8 3 -16q0 -13 -8 -28l-151 -285l145 -301 q13 -25 5 -43t-35 -19h-39q-18 0 -31 17z"/>
<glyph glyph-name="logicalnot" horiz-adv-x="1064" unicode="¬" d="M76 682v57q0 15 12 27t27 12h778q16 0 27.5 -12.5t11.5 -26.5v-417q0 -15 -12 -26t-27 -11h-57q-15 0 -27 11t-12 26v321h-682q-15 0 -27 12t-12 27z"/>
<glyph glyph-name="uni00AD" horiz-adv-x="710" unicode="­" d="M102 487v39q0 17 11 28t28 11h428q17 0 28 -11t11 -28v-39q0 -15 -11 -25.5t-28 -10.5h-428q-17 0 -28 10.5t-11 25.5z"/>
<glyph glyph-name="registered" horiz-adv-x="1693" unicode="®" d="M719 748h201q55 0 88.5 33.5t33.5 82.5q0 53 -33 85t-89 32h-201v-233zM590 383v672q0 16 11 27.5t28 11.5h291q103 0 177 -60.5t74 -169.5q0 -54 -17 -97t-44.5 -68t-53 -38.5t-50.5 -19.5l60.5 -121t61.5 -121q10 -19 -1 -37t-33 -18h-70q-22 0 -37 29l-115 256h-151 v-246q0 -16 -11 -27.5t-28 -11.5h-53q-17 0 -28 11.5t-11 27.5zM233 717q0 -124 48.5 -238t130.5 -196t196 -130.5t238 -48.5q125 0 238.5 48.5t195.5 131t130 195.5t48 238q0 167 -81.5 308t-222.5 222.5t-308 81.5q-125 0 -238 -48t-195.5 -130t-131 -195.5t-48.5 -238.5z M111 717q0 200 98.5 369.5t267.5 268.5t369 99t369.5 -99t268.5 -268.5t99 -369.5t-99 -369t-268.5 -267.5t-369.5 -98.5t-369 98.5t-267.5 267.5t-98.5 369z"/>
<glyph glyph-name="macron" horiz-adv-x="847" unicode="¯" d="M123 1231v43q0 17 11 28t28 11h524q17 0 28 -11t11 -28v-43q0 -15 -11 -26t-28 -11h-524q-17 0 -28 11t-11 26z"/>
<glyph glyph-name="degree" horiz-adv-x="684" unicode="°" d="M174 1178q0 -66 51 -117t117 -51q63 0 113.5 51t50.5 117q0 63 -50.5 113t-113.5 50q-66 0 -117 -50t-51 -113zM66 1178q0 116 80 196t196 80q114 0 195 -80.5t81 -195.5t-81 -196t-195 -81q-115 0 -195.5 80.5t-80.5 196.5z"/>
<glyph glyph-name="plusminus" horiz-adv-x="1222" unicode="±" d="M184 825v58q0 15 12 27t27 12h322v303q0 15 12 26t27 11h57q15 0 27 -11t12 -26v-303h324q15 0 25.5 -12t10.5 -27v-58q0 -15 -10.5 -27t-25.5 -12h-324v-239q0 -15 -12 -26t-27 -11h-57q-15 0 -27 11t-12 26v239h-322q-15 0 -27 12t-12 27zM182 164v57q0 15 12 27t27 12 h780q15 0 26 -12t11 -27v-57q0 -15 -11 -27t-26 -12h-780q-15 0 -27 12t-12 27z"/>
<glyph glyph-name="uni00B2" horiz-adv-x="628" unicode="²" d="M92 1051v28l260 273q35 38 50.5 63t15.5 51q0 37 -29.5 67t-87.5 30q-65 0 -127 -62q-12 -12 -24 0l-41 43q-13 13 0 23q3 4 9 10t26 22t41.5 28t54.5 22t67 10q106 0 163.5 -51.5t57.5 -130.5q0 -82 -100 -185l-166 -170h248q18 0 18 -20v-51q0 -19 -18 -19h-397 q-21 0 -21 19z"/>
<glyph glyph-name="uni00B3" horiz-adv-x="610" unicode="³" d="M86 1096q-6 6 -6 11q0 6 8 11l43 41q16 9 27 -2l4 -3q5 -4 10 -7t13 -8.5t16.5 -10t19.5 -9t22 -8t24 -5.5t26 -2q49 0 86 26t37 66q0 41 -38 69.5t-112 28.5h-63q-8 0 -14.5 5t-6.5 14v51q0 18 21 18h63q66 0 99.5 26t33.5 65q0 40 -33 66t-77 26q-66 0 -115 -49 q-12 -12 -27 0l-41 36q-6 4 -6 12t6 13q3 3 9 8.5t25.5 20t40.5 25t52.5 19.5t63.5 9q92 0 153.5 -47t61.5 -123q0 -49 -33 -88.5t-73 -54.5v-5q45 -17 84.5 -58t39.5 -95q0 -76 -64.5 -126t-168.5 -50q-134 0 -211 84z"/>
<glyph glyph-name="acute" horiz-adv-x="618" unicode="´" d="M149.5 1220q2.5 8 12.5 13l307 172q7 7 25 7q1 0 11 -0.5t17 -12.5l37 -74q4 -8 4 -17q0 -4 -2 -13t-14 -13l-330 -137q-21 -9 -30 -9q-1 0 -6 0.5t-11 12.5l-20 45q-3 7 -3 14q0 4 2.5 12z"/>
<glyph glyph-name="uni00B5" horiz-adv-x="1034" unicode="µ" d="M150 -575v1355q0 15 11.5 27t26.5 12h66q15 0 27 -12t12 -27v-432q0 -115 48 -173t136 -58q44 0 85 12t68.5 29t49 34t31.5 29l10 12v547q0 15 12 27t27 12h63q15 0 27 -12t12 -27v-741q0 -15 -12 -27t-27 -12h-39q-26 0 -36 35l-15 53l-11.5 -11.5t-33 -26t-54.5 -33 t-74 -26t-93 -11.5q-109 0 -176 40v-595q0 -15 -12 -27t-27 -12h-64q-15 0 -26.5 12t-11.5 27z"/>
<glyph glyph-name="paragraph" horiz-adv-x="1437" unicode="¶" d="M51 1008q0 176 116 302t282 126l905 -2q15 0 27 -12t12 -27v-41q0 -17 -11.5 -28t-27.5 -11h-228v-1893q0 -15 -11 -26.5t-28 -11.5h-43q-15 0 -26.5 11.5t-11.5 26.5v1893h-320v-1893q0 -15 -12 -26.5t-27 -11.5h-41q-15 0 -27 11.5t-12 26.5v1156h-90 q-175 0 -300.5 125t-125.5 305z"/>
<glyph glyph-name="periodcentered" horiz-adv-x="468" unicode="·" d="M117 535q0 49 34 82.5t82 33.5q50 0 83.5 -33.5t33.5 -82.5q0 -48 -34 -82.5t-83 -34.5q-47 0 -81.5 35t-34.5 82z"/>
<glyph glyph-name="cedilla" horiz-adv-x="505" unicode="¸" d="M72 -408l28 23q11 8 25 8.5t22 -8.5q34 -37 84 -37q41 0 66 27t25 69q0 33 -15.5 57.5t-44.5 38.5t-53 20.5t-57 12.5q-35 7 -35 41v156h110v-109q97 -12 156 -67.5t59 -142.5q0 -89 -62 -151t-153 -62q-45 0 -86.5 19.5t-68.5 51.5q-12 13 -12 28q0 17 12 25z"/>
<glyph glyph-name="uni00B9" horiz-adv-x="389" unicode="¹" d="M49 1501q-1 4 -1 7q0 10 7 16l144 114h57q18 0 18 -18v-569q0 -8 -5.5 -13.5t-12.5 -5.5h-72q-9 0 -14.5 5.5t-5.5 13.5v430l-84 -23q-18 -4 -21 8z"/>
<glyph glyph-name="ordmasculine" horiz-adv-x="663" unicode="º" d="M190 1128q0 -107 37 -165t105 -58t104.5 58t36.5 165t-37 166.5t-104 59.5t-104.5 -59.5t-37.5 -166.5zM78 1128q0 153 66.5 238.5t187.5 85.5t187.5 -85.5t66.5 -238.5q0 -151 -66.5 -236t-187.5 -85t-187.5 85t-66.5 236z"/>
<glyph glyph-name="guillemotright" horiz-adv-x="849" unicode="»" d="M440 755q8 19 35 19h29q23 0 37 -24l223 -304q8 -13 8 -25t-8 -24l-213 -317q-13 -17 -31 -17h-39q-27 1 -35 19t5 43l145 301l-152 285q-12 25 -4 44zM106 755q8 19 35 19h29q23 0 37 -24l223 -304q8 -13 8 -25t-8 -24l-213 -317q-13 -17 -31 -17h-39q-27 1 -35 19t5 43 l145 301l-151 285q-8 15 -8 28q0 8 3 16z"/>
<glyph glyph-name="onequarter" horiz-adv-x="1296" unicode="¼" d="M762 211h217v242zM649 139v60l352 401q6 6 17 6h43q8 0 14 -5.5t6 -12.5v-379h84q7 0 13 -5t6 -11v-54q0 -6 -6 -11t-13 -5h-84v-105q0 -7 -6 -12.5t-14 -5.5h-66q-8 0 -14 5.5t-6 12.5v103h-307q-8 0 -13.5 5.5t-5.5 12.5zM184 55l703 1358q12 21 35 21h32 q23 0 31.5 -13.5t8.5 -23.5q0 -9 -5 -19l-706 -1358q-10 -20 -35 -20h-29q-23 0 -34 17.5t-1 37.5zM78 1296q-1 4 -1 7q0 10 7 16l143 115h58q18 0 18 -19v-569q0 -8 -5.5 -13.5t-12.5 -5.5h-72q-9 0 -14.5 5.5t-5.5 13.5v430l-84 -23q-18 -4 -21 9z"/>
<glyph glyph-name="onehalf" horiz-adv-x="1282" unicode="½" d="M711 18v29l260 272q65 71 65 115q0 37 -29 66.5t-87 29.5q-66 0 -127 -61q-13 -13 -25 0l-41 43q-13 13 0 23q3 4 9 10t26 22t41.5 28t55 22t67.5 10q106 0 163.5 -52t57.5 -131q0 -81 -100 -184l-166 -170h247q19 0 19 -20v-52q0 -18 -19 -18h-397q-20 0 -20 18zM184 55 l703 1358q12 21 35 21h32q23 0 31.5 -13.5t8.5 -23.5q0 -9 -5 -19l-706 -1358q-10 -20 -35 -20h-29q-23 0 -34 17.5t-1 37.5zM78 1296q-1 4 -1 7q0 10 7 16l143 115h58q18 0 18 -19v-569q0 -8 -5.5 -13.5t-12.5 -5.5h-72q-9 0 -14.5 5.5t-5.5 13.5v430l-84 -23q-18 -4 -21 9 z"/>
<glyph glyph-name="threequarters" horiz-adv-x="1388" unicode="¾" d="M854 211h217v242zM741 139v60l353 401q6 6 16 6h43q8 0 14.5 -5.5t6.5 -12.5v-379h83q7 0 13 -5t6 -11v-54q0 -6 -6 -11t-13 -5h-83v-105q0 -7 -6.5 -12.5t-14.5 -5.5h-66q-8 0 -14 5.5t-6 12.5v103h-307q-8 0 -13.5 5.5t-5.5 12.5zM276 55l703 1358q12 21 35 21h33 q23 0 31 -14q8 -12 8 -22t-5 -20l-706 -1358q-10 -20 -35 -20h-29q-23 0 -34 17.5t-1 37.5zM92 891q-6 6 -6 11q0 6 8 11l43 41q16 9 27 -2l4 -4l10 -6t13 -8.5t16.5 -10t19.5 -9t22 -8t24 -5.5t26 -2q49 0 86 26t37 66q0 42 -38 70.5t-112 28.5h-63q-21 0 -21 18v51 q0 19 21 19h63q66 0 100 25.5t34 64.5q0 40 -33.5 66t-77.5 26q-66 0 -115 -49q-12 -12 -26 0l-41 37q-6 4 -6 12t6 12q3 3 9 8.5t25.5 20t40 25t52 19.5t63.5 9q92 0 153.5 -47t61.5 -123q0 -49 -33 -88.5t-73 -54.5v-4q45 -17 85 -58.5t40 -95.5q0 -76 -65 -126t-169 -50 q-134 0 -211 84z"/>
<glyph glyph-name="questiondown" horiz-adv-x="499" unicode="¿" d="M147 723q0 48 34 82.5t83 34.5q47 0 82 -35t35 -82q0 -49 -34.5 -83t-82.5 -34q-50 0 -83.5 34t-33.5 83zM-133 -322q0 54 18 100.5t46.5 79t62.5 60.5t68.5 52.5t63 48.5t46.5 54t18 64v84q0 20 13 30.5t30 10.5h56q16 0 27.5 -11t11.5 -28v-86q0 -51 -17 -93t-44 -70.5 t-60 -53t-66 -48.5t-60 -50.5t-44 -64.5t-17 -85q0 -76 53.5 -128t149.5 -52q27 0 51.5 3t46.5 10t39.5 13t36 18.5t29 18.5t26.5 21t20.5 19.5t19.5 20.5l14 15q26 26 53 2l39 -34q12 -10 12 -24t-12 -30q-5 -7 -14.5 -19.5t-43.5 -43.5t-73.5 -54.5t-105.5 -43t-138 -19.5 q-160 0 -258 86t-98 227z"/>
<glyph glyph-name="Agrave" horiz-adv-x="1357" unicode="À" d="M472 1754.5q-3 13.5 3 25.5l37 73q7 12 17.5 12.5t13.5 0.5q15 0 22 -6l307 -172q10 -5 14 -16t-1 -23l-21 -45q-6 -12 -15.5 -13t-31.5 8l-330 138q-12 4 -15 17.5zM371 487h614q-50 111 -149.5 336t-149.5 336h-16zM12 53l623 1379q11 22 35 22h20q24 0 35 -22 l618 -1379q4 -10 4 -19q0 -10 -7.5 -22t-30.5 -12h-82q-26 0 -35 23l-152 337h-727l-149 -337q-9 -23 -35 -23h-82q-23 0 -31 12.5t-8 22.5q0 9 4 18z"/>
<glyph glyph-name="Aacute" horiz-adv-x="1357" unicode="Á" d="M471.5 1672q3.5 11 13.5 16l308 172q7 6 22 6q2 0 13 -0.5t18 -12.5l37 -73q6 -12 2.5 -25.5t-15.5 -17.5l-329 -138q-22 -9 -31.5 -8t-15.5 13l-21 45q-5 12 -1.5 23zM371 487h614q-50 111 -149.5 336t-149.5 336h-16zM12 53l623 1379q11 22 35 22h20q24 0 35 -22 l618 -1379q4 -10 4 -19q0 -10 -7.5 -22t-30.5 -12h-82q-26 0 -35 23l-152 337h-727l-149 -337q-9 -23 -35 -23h-82q-23 0 -31 12.5t-8 22.5q0 9 4 18z"/>
<glyph glyph-name="Acircumflex" horiz-adv-x="1357" unicode="Â" d="M393.5 1645.5q4.5 10.5 14.5 17.5l245 192q12 9 27 9t27 -9l245 -192q10 -7 14.5 -17.5t-1.5 -21.5q-3 -4 -10.5 -16.5t-12.5 -19t-13.5 -13t-18 -5.5t-21.5 9l-209 143l-209 -139q-30 -19 -47 4l-29 37q-6 11 -1.5 21.5zM371 487h614q-50 111 -149.5 336t-149.5 336h-16 zM12 53l623 1379q11 22 35 22h20q24 0 35 -22l618 -1379q4 -10 4 -19q0 -10 -7.5 -22t-30.5 -12h-82q-26 0 -35 23l-152 337h-727l-149 -337q-9 -23 -35 -23h-82q-23 0 -31 12.5t-8 22.5q0 9 4 18z"/>
<glyph glyph-name="Atilde" horiz-adv-x="1357" unicode="Ã" d="M379 1692q2 4 11 25t16 36.5t23 38t33.5 37t45 25t59.5 10.5q34 0 64 -15.5t51 -38t39 -45t36.5 -38t35.5 -15.5q62 0 92 105q10 32 47 16l33 -16q6 -3 9.5 -7.5t4.5 -8.5t0.5 -10.5t-1 -9.5t-3 -10t-2.5 -8q-56 -166 -182 -166q-38 0 -74.5 24t-59.5 53t-48.5 53 t-43.5 24q-19 0 -34.5 -9t-26.5 -26.5t-16.5 -31.5t-12.5 -35q-5 -17 -17.5 -23.5t-33.5 2.5l-37 19q-22 11 -8 45zM371 487h614q-50 111 -149.5 336t-149.5 336h-16zM12 53l623 1379q11 22 35 22h20q24 0 35 -22l618 -1379q4 -10 4 -19q0 -10 -7.5 -22t-30.5 -12h-82 q-26 0 -35 23l-152 337h-727l-149 -337q-9 -23 -35 -23h-82q-23 0 -31 12.5t-8 22.5q0 9 4 18z"/>
<glyph glyph-name="Adieresis" horiz-adv-x="1357" unicode="Ä" d="M797 1718q0 41 28 70t68 29q41 0 69.5 -29t28.5 -70q0 -40 -28.5 -68t-69.5 -28q-40 0 -68 28t-28 68zM371 487h614q-50 111 -149.5 336t-149.5 336h-16zM365 1718q0 41 28 70t68 29q41 0 69.5 -29t28.5 -70q0 -40 -28.5 -68t-69.5 -28q-40 0 -68 28t-28 68zM12 53 l623 1379q11 22 35 22h20q24 0 35 -22l618 -1379q4 -10 4 -19q0 -10 -7.5 -22t-30.5 -12h-82q-26 0 -35 23l-152 337h-727l-149 -337q-9 -23 -35 -23h-82q-23 0 -31 12.5t-8 22.5q0 9 4 18z"/>
<glyph glyph-name="Aring" horiz-adv-x="1357" unicode="Å" d="M553 1776q0 -50 37.5 -87.5t87.5 -37.5q49 0 85 37.5t36 87.5q0 49 -35.5 84.5t-85.5 35.5t-87.5 -35.5t-37.5 -84.5zM455 1776q0 94 64.5 158.5t158.5 64.5q93 0 158 -65t65 -158q0 -94 -65.5 -159t-157.5 -65q-94 0 -158.5 65t-64.5 159zM371 487h614 q-50 111 -149.5 336t-149.5 336h-16zM12 53l623 1379q11 22 35 22h20q24 0 35 -22l618 -1379q4 -10 4 -19q0 -10 -7.5 -22t-30.5 -12h-82q-26 0 -35 23l-152 337h-727l-149 -337q-9 -23 -35 -23h-82q-23 0 -31 12.5t-8 22.5q0 9 4 18z"/>
<glyph glyph-name="AE" horiz-adv-x="1837" unicode="Æ" d="M422 487h412v672zM-15.5 11q-4.5 11 -4.5 18q0 12 8 24l821 1317q2 3 7.5 11.5t7 11t6.5 9t7 8.5l7 7t8.5 6.5t9 4.5t10.5 3.5t12 1.5t15 1h780q17 0 28 -11.5t11 -27.5v-60q0 -16 -11 -27.5t-28 -11.5h-700v-499h600q15 0 27 -12t12 -27v-60q0 -17 -11.5 -28t-27.5 -11 h-600v-522h700q17 0 28 -11.5t11 -27.5v-59q0 -16 -11 -27.5t-28 -11.5h-807q-17 0 -27.5 11.5t-10.5 27.5v321h-486l-213 -337q-18 -23 -39 -23h-84q-23 0 -27.5 11z"/>
<glyph glyph-name="Ccedilla" horiz-adv-x="1452" unicode="Ç" d="M106 715q0 202 99 372t269 268.5t372 98.5q149 0 267 -48t228 -142q12 -12 13 -29t-11 -29l-55 -55q-23 -28 -53 2q-81 71 -185 112.5t-206 41.5q-119 0 -225.5 -48t-182 -128t-120 -188.5t-44.5 -225.5q0 -156 74.5 -291t207 -216t290.5 -81q64 0 119 11.5t104.5 36 t83.5 46.5t84 60q26 21 49 6l62 -56q10 -9 10 -23q0 -19 -13 -32q-204 -198 -497 -198v-89q97 -12 156 -67.5t59 -142.5q0 -89 -62 -151t-153 -62q-45 0 -87 19.5t-69 51.5q-12 14 -11.5 29.5t11.5 23.5l29 23q11 8 25 8.5t22 -8.5q34 -37 84 -37q41 0 65.5 27t24.5 69 q0 33 -15.5 57.5t-44.5 38.5t-53 20.5t-57 12.5q-35 7 -35 41v144q-176 25 -320 126.5t-226.5 259.5t-82.5 341z"/>
<glyph glyph-name="Egrave" horiz-adv-x="1212" unicode="È" d="M462 1754.5q-3 13.5 3 25.5l37 73q7 12 17.5 12.5t13.5 0.5q15 0 22 -6l307 -172q10 -5 13.5 -16t-1.5 -23l-20 -45q-6 -12 -15.5 -13t-31.5 8l-330 138q-12 4 -15 17.5zM209 39v1356q0 16 11 27.5t28 11.5h807q17 0 28 -11.5t11 -27.5v-60q0 -16 -11 -27.5t-28 -11.5 h-688v-499h587q15 0 27 -12t12 -27v-60q0 -17 -11.5 -28t-27.5 -11h-587v-522h688q17 0 28 -11.5t11 -27.5v-59q0 -16 -11 -27.5t-28 -11.5h-807q-17 0 -28 11.5t-11 27.5z"/>
<glyph glyph-name="Eacute" horiz-adv-x="1212" unicode="É" d="M463.5 1672q3.5 11 13.5 16l307 172q7 6 23 6q2 0 13 -0.5t18 -12.5l36 -73q6 -12 3 -25.5t-15 -17.5l-330 -138q-22 -9 -31.5 -8t-15.5 13l-20 45q-5 12 -1.5 23zM209 39v1356q0 16 11 27.5t28 11.5h807q17 0 28 -11.5t11 -27.5v-60q0 -16 -11 -27.5t-28 -11.5h-688 v-499h587q15 0 27 -12t12 -27v-60q0 -17 -11.5 -28t-27.5 -11h-587v-522h688q17 0 28 -11.5t11 -27.5v-59q0 -16 -11 -27.5t-28 -11.5h-807q-17 0 -28 11.5t-11 27.5z"/>
<glyph glyph-name="Ecircumflex" horiz-adv-x="1212" unicode="Ê" d="M363 1645.5q4 10.5 14 17.5l246 192q12 9 26 9q15 0 27 -9l246 -192q10 -7 14 -17.5t-2 -21.5q-3 -4 -10.5 -16.5t-12.5 -19t-13.5 -13t-18 -5.5t-21.5 9l-209 143l-209 -139q-30 -19 -47 4l-28 37q-6 11 -2 21.5zM209 39v1356q0 16 11 27.5t28 11.5h807q17 0 28 -11.5 t11 -27.5v-60q0 -16 -11 -27.5t-28 -11.5h-688v-499h587q15 0 27 -12t12 -27v-60q0 -17 -11.5 -28t-27.5 -11h-587v-522h688q17 0 28 -11.5t11 -27.5v-59q0 -16 -11 -27.5t-28 -11.5h-807q-17 0 -28 11.5t-11 27.5z"/>
<glyph glyph-name="Edieresis" horiz-adv-x="1212" unicode="Ë" d="M770 1718q0 41 28 70t68 29q41 0 70 -29t29 -70q0 -40 -29 -68t-70 -28q-40 0 -68 28t-28 68zM338 1718q0 41 28 70t68 29q41 0 69.5 -29t28.5 -70q0 -40 -28.5 -68t-69.5 -28q-40 0 -68 28t-28 68zM209 39v1356q0 16 11 27.5t28 11.5h807q17 0 28 -11.5t11 -27.5v-60 q0 -16 -11 -27.5t-28 -11.5h-688v-499h587q15 0 27 -12t12 -27v-60q0 -17 -11.5 -28t-27.5 -11h-587v-522h688q17 0 28 -11.5t11 -27.5v-59q0 -16 -11 -27.5t-28 -11.5h-807q-17 0 -28 11.5t-11 27.5z"/>
<glyph glyph-name="Igrave" horiz-adv-x="577" unicode="Ì" d="M209 39v1356q0 15 12 27t27 12h82q15 0 27 -12t12 -27v-1356q0 -15 -12 -27t-27 -12h-82q-15 0 -27 12t-12 27zM82 1750q-2 9 -2 13q0 9 4 17l37 73q7 12 17.5 12.5t13.5 0.5q15 0 22 -6l307 -172q10 -5 13 -13t3 -13q0 -6 -3 -13l-21 -45q-6 -12 -11 -12.5t-7 -0.5 q-10 0 -29 8l-330 138q-12 4 -14 13z"/>
<glyph glyph-name="Iacute" horiz-adv-x="577" unicode="Í" d="M209 39v1356q0 15 12 27t27 12h82q15 0 27 -12t12 -27v-1356q0 -15 -12 -27t-27 -12h-82q-15 0 -27 12t-12 27zM83.5 1675q2.5 8 12.5 13l307 172q7 6 23 6q2 0 13 -0.5t18 -12.5l37 -73q4 -8 4 -16q0 -5 -2.5 -14t-14.5 -13l-329 -138q-16 -7 -28 -7q-15 0 -20 12 l-20 45q-3 7 -3 14q0 4 2.5 12z"/>
<glyph glyph-name="Icircumflex" horiz-adv-x="577" unicode="Î" d="M209 39v1356q0 15 12 27t27 12h82q15 0 27 -12t12 -27v-1356q0 -15 -12 -27t-27 -12h-82q-15 0 -27 12t-12 27zM3 1648.5q3 7.5 13 14.5l246 192q12 9 27 9q14 0 26 -9l246 -192q10 -7 13 -14.5t3 -11.5q0 -6 -4 -13q-3 -5 -10.5 -17t-12.5 -18.5t-12.5 -12.5t-15.5 -6 q-1 0 -6.5 0.5t-17.5 8.5l-209 143l-209 -139q-30 -19 -47 4l-29 37q-4 7 -4 13q0 4 3 11.5z"/>
<glyph glyph-name="Idieresis" horiz-adv-x="577" unicode="Ï" d="M410 1718q0 41 28 70t68 29q41 0 69.5 -29t28.5 -70q0 -40 -28.5 -68t-69.5 -28q-40 0 -68 28t-28 68zM209 39v1356q0 15 12 27t27 12h82q15 0 27 -12t12 -27v-1356q0 -15 -12 -27t-27 -12h-82q-15 0 -27 12t-12 27zM-23 1718q0 41 28.5 70t68.5 29q41 0 69.5 -29 t28.5 -70q0 -40 -28.5 -68t-69.5 -28q-40 0 -68.5 28t-28.5 68z"/>
<glyph glyph-name="Eth" horiz-adv-x="1538" unicode="Ð" d="M373 141h307q166 0 298.5 73.5t207 205.5t74.5 299q0 251 -163.5 413t-416.5 162h-307v-538h432q17 0 28 -11.5t11 -27.5v-17q0 -15 -11 -25.5t-28 -10.5h-432v-523zM121 702v15q0 15 11 27t26 12h59v639q0 15 11 27t26 12h459q145 0 278.5 -57t230 -153t153.5 -228 t57 -277q0 -117 -36.5 -227t-103 -198t-155 -154.5t-198 -103t-226.5 -36.5h-459q-15 0 -26 12t-11 27v625h-59q-15 0 -26 11.5t-11 26.5z"/>
<glyph glyph-name="Ntilde" horiz-adv-x="1585" unicode="Ñ" d="M516 1692q2 3 11 25t16 37t23.5 37.5t34 36.5t45 25t59.5 11q42 0 78 -24t57 -52t45.5 -52t44.5 -24q62 0 92 105q10 32 47 16l33 -16q6 -3 9.5 -7.5t4.5 -8.5t0.5 -10.5t-1 -9.5t-3 -10t-2.5 -8q-56 -166 -182 -166q-38 0 -74.5 24t-59.5 53t-48.5 53t-43.5 24 q-19 0 -34.5 -9t-26.5 -26.5t-16.5 -31.5t-12.5 -35q-5 -17 -17.5 -23.5t-33.5 2.5l-37 19q-22 11 -8 45zM209 39v1378q0 15 12 26t27 11h51l924 -1151h4v1092q0 16 11 27.5t28 11.5h71q15 0 27 -12t12 -27v-1379q0 -15 -12 -25.5t-27 -10.5h-37l-940 1173h-2v-1114 q0 -16 -11 -27.5t-28 -11.5h-71q-15 0 -27 12t-12 27z"/>
<glyph glyph-name="Ograve" horiz-adv-x="1681" unicode="Ò" d="M652.5 1754.5q-3.5 13.5 2.5 25.5l37 73q7 12 17.5 12.5t13.5 0.5q15 0 22 -6l308 -172q10 -5 13.5 -16t-1.5 -23l-21 -45q-6 -12 -15.5 -13t-31.5 8l-329 138q-12 4 -15.5 17.5zM248 715q0 -160 79.5 -296.5t216 -216t296.5 -79.5t297 79.5t217 216t80 296.5t-80 297.5 t-217 218t-297 80.5t-296.5 -80.5t-216 -218t-79.5 -297.5zM104 715q0 151 58 288t156 236t234.5 157t287.5 58t287.5 -58t235 -157t156.5 -236t58 -288t-58 -287.5t-156.5 -234.5t-235 -155.5t-287.5 -57.5q-202 0 -371 97.5t-267 266.5t-98 371z"/>
<glyph glyph-name="Oacute" horiz-adv-x="1681" unicode="Ó" d="M654 1672q4 11 14 16l307 172q7 6 22 6q2 0 13 -0.5t18 -12.5l37 -73q6 -12 3 -25.5t-15 -17.5l-330 -138q-22 -9 -31.5 -8t-15.5 13l-21 45q-5 12 -1 23zM248 715q0 -160 79.5 -296.5t216 -216t296.5 -79.5t297 79.5t217 216t80 296.5t-80 297.5t-217 218t-297 80.5 t-296.5 -80.5t-216 -218t-79.5 -297.5zM104 715q0 151 58 288t156 236t234.5 157t287.5 58t287.5 -58t235 -157t156.5 -236t58 -288t-58 -287.5t-156.5 -234.5t-235 -155.5t-287.5 -57.5q-202 0 -371 97.5t-267 266.5t-98 371z"/>
<glyph glyph-name="Ocircumflex" horiz-adv-x="1681" unicode="Ô" d="M553 1645.5q4 10.5 14 17.5l246 192q12 9 27 9q14 0 26 -9l246 -192q10 -7 14 -17.5t-2 -21.5q-3 -5 -10.5 -17t-12.5 -18.5t-13 -13t-17.5 -5.5t-21.5 9l-209 143l-209 -139q-30 -19 -47 4l-29 37q-6 11 -2 21.5zM248 715q0 -160 79.5 -296.5t216 -216t296.5 -79.5 t297 79.5t217 216t80 296.5t-80 297.5t-217 218t-297 80.5t-296.5 -80.5t-216 -218t-79.5 -297.5zM104 715q0 151 58 288t156 236t234.5 157t287.5 58t287.5 -58t235 -157t156.5 -236t58 -288t-58 -287.5t-156.5 -234.5t-235 -155.5t-287.5 -57.5q-202 0 -371 97.5 t-267 266.5t-98 371z"/>
<glyph glyph-name="Otilde" horiz-adv-x="1681" unicode="Õ" d="M539 1692q2 4 11 25t16 36.5t23 38t33.5 37t45 25t59.5 10.5q42 0 78 -24t57 -52t45.5 -52t44.5 -24q62 0 92 105q10 33 48 16l32 -16q5 -2 8.5 -5.5t5 -8t2 -8t-0.5 -9.5t-1.5 -8.5t-2.5 -8t-2 -6.5q-9 -27 -21.5 -51.5t-34 -52.5t-54.5 -45t-73 -17q-38 0 -74.5 24 t-59 53t-48 53t-43.5 24q-19 0 -34.5 -9t-26.5 -26.5t-16.5 -31.5t-12.5 -35q-5 -17 -17.5 -23.5t-33.5 2.5l-37 19q-22 11 -8 45zM248 715q0 -160 79.5 -296.5t216 -216t296.5 -79.5t297 79.5t217 216t80 296.5t-80 297.5t-217 218t-297 80.5t-296.5 -80.5t-216 -218 t-79.5 -297.5zM104 715q0 151 58 288t156 236t234.5 157t287.5 58t287.5 -58t235 -157t156.5 -236t58 -288t-58 -287.5t-156.5 -234.5t-235 -155.5t-287.5 -57.5q-202 0 -371 97.5t-267 266.5t-98 371z"/>
<glyph glyph-name="Odieresis" horiz-adv-x="1681" unicode="Ö" d="M961 1718q0 41 28 70t68 29q41 0 69.5 -29t28.5 -70q0 -40 -28.5 -68t-69.5 -28q-40 0 -68 28t-28 68zM528 1718q0 41 28.5 70t68.5 29q41 0 69.5 -29t28.5 -70q0 -40 -28.5 -68t-69.5 -28q-40 0 -68.5 28t-28.5 68zM248 715q0 -160 79.5 -296.5t216 -216t296.5 -79.5 t297 79.5t217 216t80 296.5t-80 297.5t-217 218t-297 80.5t-296.5 -80.5t-216 -218t-79.5 -297.5zM104 715q0 151 58 288t156 236t234.5 157t287.5 58t287.5 -58t235 -157t156.5 -236t58 -288t-58 -287.5t-156.5 -234.5t-235 -155.5t-287.5 -57.5q-202 0 -371 97.5 t-267 266.5t-98 371z"/>
<glyph glyph-name="multiply" horiz-adv-x="985" unicode="×" d="M160 456q0 16 10 27l227 228l-227 227q-10 10 -10 27t10 28l39 41q11 10 28 10t27 -10l228 -227l229 229q10 10 25 10q1 0 9 -0.5t19 -11.5l41 -41q12 -12 12 -28q0 -15 -10 -25l-229 -229l229 -228q10 -11 10 -26q0 -17 -12 -29l-41 -39q-11 -11 -19 -11.5t-9 -0.5 q-15 0 -25 10l-229 229l-228 -227q-10 -11 -26 -11t-27 11l-41 41q-10 10 -10 26z"/>
<glyph glyph-name="Oslash" horiz-adv-x="1681" unicode="Ø" d="M457 264q78 -67 177 -104t206 -37q160 0 297 79.5t217 216t80 296.5q0 108 -38 208t-106 177zM248 715q0 -219 145 -387l836 837q-169 146 -389 146q-160 0 -296.5 -80.5t-216 -218t-79.5 -297.5zM104 715q0 151 58 288t156 236t234.5 157t287.5 58q138 0 264.5 -49 t226.5 -137l129 129q10 11 26 11t27 -11l11 -11q10 -10 10 -26t-10 -27l-129 -129q86 -100 134 -226t48 -263q0 -151 -58 -287.5t-156.5 -234.5t-235 -155.5t-287.5 -57.5q-139 0 -264.5 47t-223.5 133l-125 -125q-11 -10 -26.5 -9.5t-26.5 11.5l-8 8q-11 11 -11.5 26.5 t9.5 26.5l125 125q-185 211 -185 492z"/>
<glyph glyph-name="Ugrave" horiz-adv-x="1466" unicode="Ù" d="M521.5 1754.5q-3.5 13.5 2.5 25.5l37 73q7 12 17.5 12.5t13.5 0.5q15 0 22 -6l308 -172q10 -5 13.5 -16t-1.5 -23l-21 -45q-6 -12 -15.5 -13t-31.5 8l-329 138q-12 4 -15.5 17.5zM190 528v867q0 15 12 27t27 12h78q17 0 28 -11.5t11 -27.5v-854q0 -180 104.5 -298 t280.5 -118q178 0 283.5 116.5t105.5 295.5v858q0 16 11 27.5t28 11.5h78q15 0 27 -12t12 -27v-867q0 -236 -152.5 -392t-392.5 -156q-158 0 -282 72t-191.5 196.5t-67.5 279.5z"/>
<glyph glyph-name="Uacute" horiz-adv-x="1466" unicode="Ú" d="M523 1672q4 11 14 16l307 172q7 6 22 6q2 0 13 -0.5t18 -12.5l37 -73q6 -12 3 -25.5t-15 -17.5l-330 -138q-22 -9 -31.5 -8t-15.5 13l-21 45q-5 12 -1 23zM190 528v867q0 15 12 27t27 12h78q17 0 28 -11.5t11 -27.5v-854q0 -180 104.5 -298t280.5 -118q178 0 283.5 116.5 t105.5 295.5v858q0 16 11 27.5t28 11.5h78q15 0 27 -12t12 -27v-867q0 -236 -152.5 -392t-392.5 -156q-158 0 -282 72t-191.5 196.5t-67.5 279.5z"/>
<glyph glyph-name="Ucircumflex" horiz-adv-x="1466" unicode="Û" d="M436.5 1645.5q4.5 10.5 14.5 17.5l245 192q12 9 27 9t27 -9l245 -192q10 -7 14.5 -17.5t-1.5 -21.5q-3 -4 -10.5 -16.5t-12.5 -19t-13.5 -13t-18 -5.5t-21.5 9l-209 143l-209 -139q-30 -19 -47 4l-29 37q-6 11 -1.5 21.5zM190 528v867q0 15 12 27t27 12h78q17 0 28 -11.5 t11 -27.5v-854q0 -180 104.5 -298t280.5 -118q178 0 283.5 116.5t105.5 295.5v858q0 16 11 27.5t28 11.5h78q15 0 27 -12t12 -27v-867q0 -236 -152.5 -392t-392.5 -156q-158 0 -282 72t-191.5 196.5t-67.5 279.5z"/>
<glyph glyph-name="Udieresis" horiz-adv-x="1466" unicode="Ü" d="M850 1718q0 41 28 70t68 29q41 0 69.5 -29t28.5 -70q0 -40 -28.5 -68t-69.5 -28q-40 0 -68 28t-28 68zM418 1718q0 41 28 70t68 29q41 0 69.5 -29t28.5 -70q0 -40 -28.5 -68t-69.5 -28q-40 0 -68 28t-28 68zM190 528v867q0 15 12 27t27 12h78q17 0 28 -11.5t11 -27.5 v-854q0 -180 104.5 -298t280.5 -118q178 0 283.5 116.5t105.5 295.5v858q0 16 11 27.5t28 11.5h78q15 0 27 -12t12 -27v-867q0 -236 -152.5 -392t-392.5 -156q-158 0 -282 72t-191.5 196.5t-67.5 279.5z"/>
<glyph glyph-name="Yacute" horiz-adv-x="1157" unicode="Ý" d="M373.5 1672q3.5 11 13.5 16l307 172q7 6 23 6q2 0 13 -0.5t18 -12.5l36 -73q6 -12 3 -25.5t-15 -17.5l-330 -138q-22 -9 -31.5 -8t-15.5 13l-20 45q-5 12 -1.5 23zM5.5 1419.5q7.5 14.5 31.5 14.5h96q19 0 33 -19l414 -571l413 571q14 19 33 19h96q24 0 31.5 -14.5 t7.5 -24.5q0 -11 -6 -21l-500 -682v-653q0 -15 -12 -27t-27 -12h-79q-17 0 -28 11.5t-11 27.5v651l-494 684q-6 11 -6 21t7.5 24.5z"/>
<glyph glyph-name="Thorn" horiz-adv-x="1222" unicode="Þ" d="M365 414h325q127 0 219 91t92 222q0 123 -92 208t-219 85h-325v-606zM209 39v1354q0 16 11 28.5t28 12.5h78q15 0 27 -12t12 -27v-219h335h3q187 0 321.5 -133.5t134.5 -319.5q0 -190 -134.5 -325.5t-322.5 -135.5h-337v-223q0 -15 -12 -27t-27 -12h-78q-17 0 -28 11.5 t-11 27.5z"/>
<glyph glyph-name="germandbls" horiz-adv-x="1107" unicode="ß" d="M147 39v803q0 303 110 457.5t321 154.5q68 0 128 -17.5t109.5 -53.5t78 -97t28.5 -141q0 -67 -28.5 -136.5t-63 -116t-63 -94.5t-28.5 -77q0 -22 31 -53.5t74.5 -69t87.5 -82.5t75 -109.5t31 -134.5q0 -75 -28 -132.5t-76.5 -91.5t-107 -51t-124.5 -17q-62 0 -118.5 13.5 t-79.5 24.5q-12 5 -18.5 9.5t-11.5 15t-1 23.5l16 61q9 43 43 25q86 -48 170 -48q85 0 136 47t51 123q0 50 -32 99t-77.5 90t-90.5 80.5t-77 84t-32 87.5q0 42 30.5 101.5t67.5 110.5t67.5 110.5t30.5 101.5q0 88 -61.5 138t-141.5 50q-282 0 -282 -487v-801q0 -15 -12 -27 t-27 -12h-66q-15 0 -27 12t-12 27z"/>
<glyph glyph-name="agrave" horiz-adv-x="858" unicode="à" d="M247 1299.5q-3 13.5 3 25.5l37 74q7 12 17 12.5t11 0.5q17 0 25 -7l307 -172q10 -5 13.5 -16t-1.5 -23l-20 -45q-6 -12 -15.5 -12.5t-31.5 8.5l-330 137q-12 4 -15 17.5zM217 248q0 -63 39 -104.5t104 -41.5q71 0 133.5 35.5t92.5 79.5v162q-59 33 -172 33 q-89 0 -143 -43t-54 -121zM86 248q0 120 87 196t241 76q39 0 82.5 -6.5t67.5 -13.5l24 -6v17q0 108 -25 156t-108 48q-127 0 -246 -45q-29 -11 -39 20l-16 51q-10 31 22 45q13 6 44.5 17t101.5 24t139 13q151 0 205.5 -79t54.5 -267v-455q0 -15 -12 -27t-27 -12h-39 q-16 0 -23 7.5t-12 23.5l-16 55q-106 -106 -254 -106q-109 0 -180.5 73.5t-71.5 194.5z"/>
<glyph glyph-name="aacute" horiz-adv-x="858" unicode="á" d="M232 1217q4 11 14 16l307 172q7 7 25 7q1 0 11 -0.5t17 -12.5l37 -74q6 -12 3 -25.5t-15 -17.5l-330 -137q-22 -9 -31.5 -8.5t-15.5 12.5l-21 45q-5 12 -1 23zM217 248q0 -63 39 -104.5t104 -41.5q71 0 133.5 35.5t92.5 79.5v162q-59 33 -172 33q-89 0 -143 -43t-54 -121 zM86 248q0 120 87 196t241 76q39 0 82.5 -6.5t67.5 -13.5l24 -6v17q0 108 -25 156t-108 48q-127 0 -246 -45q-29 -11 -39 20l-16 51q-10 31 22 45q13 6 44.5 17t101.5 24t139 13q151 0 205.5 -79t54.5 -267v-455q0 -15 -12 -27t-27 -12h-39q-16 0 -23 7.5t-12 23.5l-16 55 q-106 -106 -254 -106q-109 0 -180.5 73.5t-71.5 194.5z"/>
<glyph glyph-name="acircumflex" horiz-adv-x="858" unicode="â" d="M217 248q0 -63 39 -104.5t104 -41.5q71 0 133.5 35.5t92.5 79.5v162q-59 33 -172 33q-89 0 -143 -43t-54 -121zM137 1174q-14 20 13 38l245 193q11 8 27 8t27 -8l245 -193q27 -18 13 -38q-3 -4 -10.5 -16.5t-12.5 -19t-13.5 -13.5t-18 -6t-21.5 9l-209 144l-209 -139 q-30 -19 -47 4zM86 248q0 120 87 196t241 76q39 0 82.5 -6.5t67.5 -13.5l24 -6v17q0 108 -25 156t-108 48q-127 0 -246 -45q-29 -11 -39 20l-16 51q-10 31 22 45q13 6 44.5 17t101.5 24t139 13q151 0 205.5 -79t54.5 -267v-455q0 -15 -12 -27t-27 -12h-39q-16 0 -23 7.5 t-12 23.5l-16 55q-106 -106 -254 -106q-109 0 -180.5 73.5t-71.5 194.5z"/>
<glyph glyph-name="atilde" horiz-adv-x="858" unicode="ã" d="M217 248q0 -63 39 -104.5t104 -41.5q71 0 133.5 35.5t92.5 79.5v162q-59 33 -172 33q-89 0 -143 -43t-54 -121zM123 1241q2 4 11 25t16 36.5t23 38t33.5 37t45 25t59.5 10.5q34 0 64 -15.5t51 -37.5t39 -44.5t36.5 -38t35.5 -15.5q62 0 92 104q10 32 47 16l33 -16 q6 -3 9.5 -7.5t4.5 -8t1 -6.5q0 -5 -1 -11t-3.5 -12.5t-2.5 -7.5q-56 -166 -182 -166q-38 0 -74.5 24t-59.5 52.5t-48.5 52.5t-43.5 24q-19 0 -34.5 -9t-26.5 -26.5t-16.5 -31.5t-12.5 -35q-5 -17 -17.5 -23t-33.5 3l-37 18q-22 11 -8 45zM86 248q0 120 87 196t241 76 q39 0 82.5 -6.5t67.5 -13.5l24 -6v17q0 108 -25 156t-108 48q-127 0 -246 -45q-29 -11 -39 20l-16 51q-10 31 22 45q13 6 44.5 17t101.5 24t139 13q151 0 205.5 -79t54.5 -267v-455q0 -15 -12 -27t-27 -12h-39q-16 0 -23 7.5t-12 23.5l-16 55q-106 -106 -254 -106 q-109 0 -180.5 73.5t-71.5 194.5z"/>
<glyph glyph-name="adieresis" horiz-adv-x="858" unicode="ä" d="M549 1294q0 41 28 70t68 29q41 0 69.5 -29t28.5 -70q0 -40 -28.5 -68t-69.5 -28q-40 0 -68 28t-28 68zM217 248q0 -63 39 -104.5t104 -41.5q71 0 133.5 35.5t92.5 79.5v162q-59 33 -172 33q-89 0 -143 -43t-54 -121zM154 1294q0 41 28 70t68 29q41 0 69.5 -29t28.5 -70 q0 -40 -28.5 -68t-69.5 -28q-40 0 -68 28t-28 68zM86 248q0 120 87 196t241 76q39 0 82.5 -6.5t67.5 -13.5l24 -6v17q0 108 -25 156t-108 48q-127 0 -246 -45q-29 -11 -39 20l-16 51q-10 31 22 45q13 6 44.5 17t101.5 24t139 13q151 0 205.5 -79t54.5 -267v-455 q0 -15 -12 -27t-27 -12h-39q-16 0 -23 7.5t-12 23.5l-16 55q-106 -106 -254 -106q-109 0 -180.5 73.5t-71.5 194.5z"/>
<glyph glyph-name="aring" horiz-adv-x="858" unicode="å" d="M299 1231q0 -49 37.5 -87t87.5 -38q49 0 85 37.5t36 87.5q0 49 -35.5 85t-85.5 36t-87.5 -36t-37.5 -85zM217 248q0 -63 39 -104.5t104 -41.5q71 0 133.5 35.5t92.5 79.5v162q-59 33 -172 33q-89 0 -143 -43t-54 -121zM201 1231q0 94 64.5 158.5t158.5 64.5q93 0 158 -65 t65 -158t-65 -158t-158 -65q-94 0 -158.5 64.5t-64.5 158.5zM86 248q0 120 87 196t241 76q39 0 82.5 -6.5t67.5 -13.5l24 -6v17q0 108 -25 156t-108 48q-127 0 -246 -45q-29 -11 -39 20l-16 51q-10 31 22 45q13 6 44.5 17t101.5 24t139 13q151 0 205.5 -79t54.5 -267v-455 q0 -15 -12 -27t-27 -12h-39q-16 0 -23 7.5t-12 23.5l-16 55q-106 -106 -254 -106q-109 0 -180.5 73.5t-71.5 194.5z"/>
<glyph glyph-name="ae" horiz-adv-x="1413" unicode="æ" d="M725 492h471q-4 95 -70.5 158t-160.5 63q-73 0 -140 -39.5t-100 -98.5v-83zM217 250q0 -73 48.5 -110.5t117.5 -37.5q60 0 115 31.5t84 73.5v182q-59 19 -170 19q-81 0 -138 -42.5t-57 -115.5zM88 254q0 118 81.5 191t221.5 73q48 0 95 -3t70 -6l22 -3v20 q0 106 -21 149.5t-94 43.5q-26 0 -51.5 -2t-49.5 -6t-42.5 -7.5t-39.5 -9.5t-31 -9t-27.5 -9t-18.5 -6q-15 -4 -27.5 4.5t-15.5 23.5l-10 52q-6 31 32 41q15 5 41 13.5t101.5 22t144.5 13.5q99 0 149.5 -28.5t73.5 -84.5q116 113 275 113q157 0 262.5 -104.5t105.5 -270.5 q0 -19 -1 -32t-4.5 -28t-12.5 -22.5t-23 -7.5h-573v-125q37 -64 105.5 -100.5t152.5 -36.5q111 0 203 57q3 2 10 5.5t9 5t7 4t7.5 2.5h6t6 -1.5t5.5 -4.5t6 -7l35 -47q9 -11 11.5 -17t-1 -15.5t-18.5 -20.5q-48 -37 -127 -65.5t-174 -28.5q-201 0 -310 145 q-45 -60 -126 -102.5t-173 -42.5q-120 0 -194 75t-74 199z"/>
<glyph glyph-name="ccedilla" horiz-adv-x="907" unicode="ç" d="M86 408q0 118 59 218t156 157t207 57q180 0 293 -144q10 -14 8 -30t-16 -27l-39 -33q-9 -8 -16 -12t-14 -2t-9.5 3.5t-11 9.5t-9.5 9q-75 86 -188 86q-116 0 -194.5 -83.5t-78.5 -206.5q0 -124 78 -209.5t193 -85.5q26 0 48 3t41.5 11t32 13t29.5 19t23.5 19t23 21.5 l19.5 19.5q21 18 31.5 17.5t29.5 -13.5l23 -16q15 -11 17.5 -21t2.5 -15q0 -11 -6 -21q-44 -71 -117.5 -117t-164.5 -53v-91q97 -12 156 -67.5t59 -142.5q0 -89 -62 -151t-153 -62q-45 0 -87 19.5t-69 51.5q-12 14 -11.5 29.5t11.5 23.5l29 23q11 8 25 8.5t22 -8.5 q34 -37 84 -37q41 0 65.5 27t24.5 69q0 33 -15.5 57.5t-44.5 38.5t-53 20.5t-57 12.5q-35 7 -35 41v144q-145 27 -242.5 143.5t-97.5 276.5z"/>
<glyph glyph-name="egrave" horiz-adv-x="935" unicode="è" d="M278 1299.5q-3 13.5 3 25.5l36 74q7 12 17.5 12.5t11.5 0.5q17 0 25 -7l307 -172q10 -5 13.5 -16t-1.5 -23l-20 -45q-6 -12 -15.5 -12.5t-31.5 8.5l-330 137q-12 4 -15 17.5zM229 489h488q-5 91 -71.5 158.5t-158.5 67.5q-102 0 -174.5 -65t-83.5 -161zM86 410 q0 180 110.5 305t290.5 125q161 0 266 -106.5t105 -268.5q0 -27 -4 -55q-1 -15 -12 -25t-25 -10h-590q6 -105 87 -185.5t188 -80.5q104 0 203 61q3 2 10 5.5t9 5t7 4t7.5 2.5h6t6 -1.5t5.5 -4.5t6 -7q6 -8 17.5 -23.5t17.5 -23.5q13 -12 12.5 -24.5t-21.5 -28.5 q-45 -36 -125.5 -65t-175.5 -29q-181 0 -291 124t-110 306z"/>
<glyph glyph-name="eacute" horiz-adv-x="935" unicode="é" d="M273 1217q4 11 14 16l307 172q7 7 25 7q1 0 11 -0.5t17 -12.5l37 -74q6 -12 3 -25.5t-15 -17.5l-330 -137q-22 -9 -31.5 -8.5t-15.5 12.5l-21 45q-5 12 -1 23zM229 489h488q-5 91 -71.5 158.5t-158.5 67.5q-102 0 -174.5 -65t-83.5 -161zM86 410q0 180 110.5 305 t290.5 125q161 0 266 -106.5t105 -268.5q0 -27 -4 -55q-1 -15 -12 -25t-25 -10h-590q6 -105 87 -185.5t188 -80.5q104 0 203 61q3 2 10 5.5t9 5t7 4t7.5 2.5h6t6 -1.5t5.5 -4.5t6 -7q6 -8 17.5 -23.5t17.5 -23.5q13 -12 12.5 -24.5t-21.5 -28.5q-45 -36 -125.5 -65 t-175.5 -29q-181 0 -291 124t-110 306z"/>
<glyph glyph-name="ecircumflex" horiz-adv-x="935" unicode="ê" d="M229 489h488q-5 91 -71.5 158.5t-158.5 67.5q-102 0 -174.5 -65t-83.5 -161zM205 1195q4 10 14 17l246 193q11 8 27 8q15 0 26 -8l246 -193q10 -7 14 -17t-2 -21q-3 -4 -10.5 -16.5t-12.5 -19t-13.5 -13.5t-18 -6t-21.5 9l-208 144l-209 -139q-30 -19 -47 4l-29 37 q-6 11 -2 21zM86 410q0 180 110.5 305t290.5 125q161 0 266 -106.5t105 -268.5q0 -27 -4 -55q-1 -15 -12 -25t-25 -10h-590q6 -105 87 -185.5t188 -80.5q104 0 203 61q3 2 10 5.5t9 5t7 4t7.5 2.5h6t6 -1.5t5.5 -4.5t6 -7q6 -8 17.5 -23.5t17.5 -23.5q13 -12 12.5 -24.5 t-21.5 -28.5q-45 -36 -125.5 -65t-175.5 -29q-181 0 -291 124t-110 306z"/>
<glyph glyph-name="edieresis" horiz-adv-x="935" unicode="ë" d="M586 1294q0 41 28 70t68 29q41 0 69.5 -29t28.5 -70q0 -40 -28.5 -68t-69.5 -28q-40 0 -68 28t-28 68zM229 489h488q-5 91 -71.5 158.5t-158.5 67.5q-102 0 -174.5 -65t-83.5 -161zM190 1294q0 41 28.5 70t68.5 29q41 0 69.5 -29t28.5 -70q0 -40 -28.5 -68t-69.5 -28 q-40 0 -68.5 28t-28.5 68zM86 410q0 180 110.5 305t290.5 125q161 0 266 -106.5t105 -268.5q0 -27 -4 -55q-1 -15 -12 -25t-25 -10h-590q6 -105 87 -185.5t188 -80.5q104 0 203 61q3 2 10 5.5t9 5t7 4t7.5 2.5h6t6 -1.5t5.5 -4.5t6 -7q6 -8 17.5 -23.5t17.5 -23.5 q13 -12 12.5 -24.5t-21.5 -28.5q-45 -36 -125.5 -65t-175.5 -29q-181 0 -291 124t-110 306z"/>
<glyph glyph-name="igrave" horiz-adv-x="432" unicode="ì" d="M145 39v741q0 15 12 27t27 12h64q15 0 27 -12t12 -27v-741q0 -15 -12 -27t-27 -12h-64q-15 0 -27 12t-12 27zM10.5 1295q-2.5 9 -2.5 14q0 8 4 16l37 74q7 12 17 12.5t11 0.5q17 0 25 -7l308 -172q10 -5 12.5 -13t2.5 -12q0 -7 -3 -14l-21 -45q-6 -12 -11 -12.5t-6 -0.5 q-10 0 -30 9l-329 137q-12 4 -14.5 13z"/>
<glyph glyph-name="iacute" horiz-adv-x="432" unicode="í" d="M145 39v741q0 15 12 27t27 12h64q15 0 27 -12t12 -27v-741q0 -15 -12 -27t-27 -12h-64q-15 0 -27 12t-12 27zM12 1220q3 8 13 13l307 172q7 7 25 7q1 0 11 -0.5t17 -12.5l37 -74q4 -8 4 -17q0 -4 -2 -13t-14 -13l-330 -137q-21 -9 -30 -9q-1 0 -6 0.5t-11 12.5l-21 45 q-3 7 -3 13q0 5 3 13z"/>
<glyph glyph-name="icircumflex" horiz-adv-x="432" unicode="î" d="M145 39v741q0 15 12 27t27 12h64q15 0 27 -12t12 -27v-741q0 -15 -12 -27t-27 -12h-64q-15 0 -27 12t-12 27zM-66 1174q-5 7 -5 13q0 13 18 25l246 193q11 8 26 8q16 0 27 -8l246 -193q10 -7 13 -14t3 -11q0 -6 -4 -13q-3 -4 -10.5 -16.5t-12.5 -19t-13 -13t-16 -6.5 q-1 0 -6.5 0.5t-17.5 8.5l-209 144l-209 -139q-30 -19 -47 4z"/>
<glyph glyph-name="idieresis" horiz-adv-x="432" unicode="ï" d="M317 1294q0 41 28.5 70t68.5 29q41 0 69.5 -29t28.5 -70q0 -40 -28.5 -68t-69.5 -28q-40 0 -68.5 28t-28.5 68zM145 39v741q0 15 12 27t27 12h64q15 0 27 -12t12 -27v-741q0 -15 -12 -27t-27 -12h-64q-15 0 -27 12t-12 27zM-78 1294q0 41 28 70t68 29q41 0 70 -29t29 -70 q0 -40 -29 -68t-70 -28q-40 0 -68 28t-28 68z"/>
<glyph glyph-name="eth" horiz-adv-x="1114" unicode="ð" d="M229 440q0 -133 90 -229t218 -96q68 0 124 23.5t93 63.5t64 92t37.5 109t12.5 93t2 50q0 43 -8 81q-5 5 -15.5 14t-43.5 32t-68.5 40.5t-89 32t-106.5 14.5q-129 0 -219.5 -93.5t-90.5 -226.5zM84 449q0 99 36.5 183.5t97 141t140 88t166.5 31.5q78 0 156 -23t117 -46 l39 -23q-49 185 -263 352l-198 -115q-14 -7 -29.5 -2t-21.5 17l-9 14q-8 12 -4 28t17 23l164 94q-118 75 -203 109q-34 14 -17 49l27 55q8 18 25 18q7 0 16 -3q154 -60 283 -152l143 82q15 9 30 4.5t23 -18.5l8 -15q8 -12 3.5 -27t-17.5 -24l-111 -63q312 -272 312 -664 q0 -125 -28.5 -229t-85 -184t-149.5 -125t-214 -45q-130 0 -234.5 63.5t-161.5 170.5t-57 235z"/>
<glyph glyph-name="ntilde" horiz-adv-x="1013" unicode="ñ" d="M215 1241q2 4 11 25t16 36.5t23 38t33.5 37t45 25t59.5 10.5q34 0 64 -15.5t51 -37.5t39 -44.5t36.5 -38t35.5 -15.5q62 0 92 104q10 32 47 16l33 -16q6 -3 9.5 -7.5t4.5 -8.5t0.5 -10t-1 -9.5t-3 -10t-2.5 -7.5q-56 -166 -182 -166q-38 0 -74.5 24t-59.5 52.5 t-48.5 52.5t-43.5 24q-19 0 -34.5 -9t-26.5 -26.5t-16.5 -31.5t-12.5 -35q-5 -17 -17.5 -23t-33.5 3l-37 18q-22 11 -8 45zM145 39v741q0 15 12 27t27 12h39q27 0 33 -24l18 -64q5 4 14 11.5t38 26.5t60.5 33t79 26t95.5 12q318 0 318 -369v-432q0 -15 -12 -27t-27 -12h-66 q-15 0 -27 12t-12 27v432q0 115 -48 173t-136 58q-43 0 -86 -12t-74 -29t-55 -34t-36 -29l-13 -12v-547q0 -15 -12 -27t-27 -12h-64q-15 0 -27 12t-12 27z"/>
<glyph glyph-name="ograve" d="M286 1299.5q-3 13.5 3 25.5l37 74q7 12 17 12.5t11 0.5q17 0 25 -7l307 -172q10 -5 13.5 -16t-1.5 -23l-20 -45q-6 -12 -15.5 -12.5t-31.5 8.5l-330 137q-12 4 -15 17.5zM227 412q0 -125 77.5 -212t189.5 -87t189 87t77 212q0 122 -77 207.5t-189 85.5t-189.5 -85.5 t-77.5 -207.5zM86 412q0 174 119.5 301t288.5 127q111 0 205 -58.5t148 -157t54 -212.5q0 -178 -119 -305t-288 -127q-111 0 -205.5 58.5t-148.5 158t-54 215.5z" unicode="ò"/>
<glyph glyph-name="oacute" d="M287.5 1217q3.5 11 13.5 16l307 172q7 7 25 7q1 0 11.5 -0.5t17.5 -12.5l36 -74q6 -12 3 -25.5t-15 -17.5l-330 -137q-22 -9 -31.5 -8.5t-15.5 12.5l-20 45q-5 12 -1.5 23zM227 412q0 -125 77.5 -212t189.5 -87t189 87t77 212q0 122 -77 207.5t-189 85.5t-189.5 -85.5 t-77.5 -207.5zM86 412q0 174 119.5 301t288.5 127q111 0 205 -58.5t148 -157t54 -212.5q0 -178 -119 -305t-288 -127q-111 0 -205.5 58.5t-148.5 158t-54 215.5z" unicode="ó"/>
<glyph glyph-name="ocircumflex" d="M227 412q0 -125 77.5 -212t189.5 -87t189 87t77 212q0 122 -77 207.5t-189 85.5t-189.5 -85.5t-77.5 -207.5zM207 1195q4 10 14 17l246 193q11 8 27 8q15 0 26 -8l246 -193q10 -7 14 -17t-2 -21q-3 -4 -10.5 -16.5t-12.5 -19t-13.5 -13.5t-18 -6t-21.5 9l-208 144 l-209 -139q-30 -19 -47 4l-29 37q-6 11 -2 21zM86 412q0 174 119.5 301t288.5 127q111 0 205 -58.5t148 -157t54 -212.5q0 -178 -119 -305t-288 -127q-111 0 -205.5 58.5t-148.5 158t-54 215.5z" unicode="ô"/>
<glyph glyph-name="otilde" d="M227 412q0 -125 77.5 -212t189.5 -87t189 87t77 212q0 122 -77 207.5t-189 85.5t-189.5 -85.5t-77.5 -207.5zM195 1241q2 4 11 25t16 36.5t23 38t33.5 37t45 25t59.5 10.5q42 0 78 -23.5t57 -52t45.5 -52t44.5 -23.5q62 0 92 104q10 33 48 16l32 -16q6 -3 9.5 -7.5 t4.5 -8.5t0.5 -10t-1 -9.5t-3 -10t-2.5 -7.5q-56 -166 -182 -166q-38 0 -74.5 24t-59 52.5t-48 52.5t-43.5 24q-19 0 -34.5 -9t-26.5 -26.5t-16.5 -31.5t-12.5 -35q-5 -17 -17.5 -23t-33.5 3l-37 18q-22 11 -8 45zM86 412q0 174 119.5 301t288.5 127q111 0 205 -58.5 t148 -157t54 -212.5q0 -178 -119 -305t-288 -127q-111 0 -205.5 58.5t-148.5 158t-54 215.5z" unicode="õ"/>
<glyph glyph-name="odieresis" d="M592 1294q0 41 28 70t68 29q41 0 69.5 -29t28.5 -70q0 -40 -28.5 -68t-69.5 -28q-40 0 -68 28t-28 68zM227 412q0 -125 77.5 -212t189.5 -87t189 87t77 212q0 122 -77 207.5t-189 85.5t-189.5 -85.5t-77.5 -207.5zM197 1294q0 41 28 70t68 29q41 0 69.5 -29t28.5 -70 q0 -40 -28.5 -68t-69.5 -28q-40 0 -68 28t-28 68zM86 412q0 174 119.5 301t288.5 127q111 0 205 -58.5t148 -157t54 -212.5q0 -178 -119 -305t-288 -127q-111 0 -205.5 58.5t-148.5 158t-54 215.5z" unicode="ö"/>
<glyph glyph-name="divide" horiz-adv-x="1101" unicode="÷" d="M428 1083q0 49 34.5 83t82.5 34q49 0 83 -34t34 -83q0 -48 -34 -82t-83 -34q-47 0 -82 34.5t-35 81.5zM428 350q0 49 34.5 83t82.5 34q49 0 83 -33.5t34 -83.5q0 -48 -34 -82.5t-83 -34.5q-47 0 -82 35t-35 82zM123 682v57q0 15 12 27t27 12h780q15 0 26 -12t11 -27v-57 q0 -15 -11 -27t-26 -12h-780q-15 0 -27 12t-12 27z"/>
<glyph glyph-name="oslash" horiz-adv-x="983" unicode="ø" d="M328 174q70 -61 166 -61q112 0 188 88t76 213q0 87 -41 155zM229 414q0 -97 41 -168l389 395q-70 64 -165 64q-112 0 -188.5 -84.5t-76.5 -206.5zM88 414q0 174 118.5 300t287.5 126q148 0 262 -103l43 43q12 12 28.5 12t26.5 -12l10 -10q12 -10 12 -26t-12 -27l-47 -47 q82 -116 82 -256q0 -178 -118 -306t-287 -128q-151 0 -263 98l-28 -29q-11 -12 -27.5 -11.5t-28.5 11.5l-8 10q-12 10 -12.5 27t10.5 27l33 32q-82 119 -82 269z"/>
<glyph glyph-name="ugrave" horiz-adv-x="993" unicode="ù" d="M300 1299.5q-3 13.5 3 25.5l37 74q7 12 17 12.5t11 0.5q17 0 25 -7l307 -172q10 -5 14 -16t-1 -23l-21 -45q-6 -12 -15.5 -12.5t-31.5 8.5l-330 137q-12 4 -15 17.5zM135 350v430q0 15 12 27t27 12h66q15 0 27 -12t12 -27v-432q0 -115 48 -173t136 -58q44 0 85 12 t68.5 29t49 34t31.5 29l10 12v547q0 15 11.5 27t26.5 12h64q15 0 27 -12t12 -27v-741q0 -15 -12 -27t-27 -12h-39q-16 0 -24 9t-13 26l-14 53l-11.5 -11.5t-33 -26t-54.5 -33t-74 -26t-93 -11.5q-318 0 -318 370z"/>
<glyph glyph-name="uacute" horiz-adv-x="993" unicode="ú" d="M299.5 1217q3.5 11 13.5 16l308 172q7 7 25 7q1 0 11 -0.5t17 -12.5l37 -74q6 -12 2.5 -25.5t-15.5 -17.5l-329 -137q-22 -9 -31.5 -8.5t-15.5 12.5l-21 45q-5 12 -1.5 23zM135 350v430q0 15 12 27t27 12h66q15 0 27 -12t12 -27v-432q0 -115 48 -173t136 -58q44 0 85 12 t68.5 29t49 34t31.5 29l10 12v547q0 15 11.5 27t26.5 12h64q15 0 27 -12t12 -27v-741q0 -15 -12 -27t-27 -12h-39q-16 0 -24 9t-13 26l-14 53l-11.5 -11.5t-33 -26t-54.5 -33t-74 -26t-93 -11.5q-318 0 -318 370z"/>
<glyph glyph-name="ucircumflex" horiz-adv-x="993" unicode="û" d="M217 1195q4 10 14 17l246 193q11 8 27 8q15 0 26 -8l246 -193q10 -7 14 -17t-2 -21q-3 -5 -10.5 -17t-12.5 -18.5t-13 -13.5t-17.5 -6t-21.5 9l-209 144l-209 -139q-30 -19 -47 4l-29 37q-6 11 -2 21zM135 350v430q0 15 12 27t27 12h66q15 0 27 -12t12 -27v-432 q0 -115 48 -173t136 -58q44 0 85 12t68.5 29t49 34t31.5 29l10 12v547q0 15 11.5 27t26.5 12h64q15 0 27 -12t12 -27v-741q0 -15 -12 -27t-27 -12h-39q-16 0 -24 9t-13 26l-14 53l-11.5 -11.5t-33 -26t-54.5 -33t-74 -26t-93 -11.5q-318 0 -318 370z"/>
<glyph glyph-name="udieresis" horiz-adv-x="993" unicode="ü" d="M598 1294q0 41 28 70t68 29q41 0 70 -29t29 -70q0 -40 -29 -68t-70 -28q-40 0 -68 28t-28 68zM203 1294q0 41 28 70t68 29q41 0 69.5 -29t28.5 -70q0 -40 -28.5 -68t-69.5 -28q-40 0 -68 28t-28 68zM135 350v430q0 15 12 27t27 12h66q15 0 27 -12t12 -27v-432 q0 -115 48 -173t136 -58q44 0 85 12t68.5 29t49 34t31.5 29l10 12v547q0 15 11.5 27t26.5 12h64q15 0 27 -12t12 -27v-741q0 -15 -12 -27t-27 -12h-39q-16 0 -24 9t-13 26l-14 53l-11.5 -11.5t-33 -26t-54.5 -33t-74 -26t-93 -11.5q-318 0 -318 370z"/>
<glyph glyph-name="yacute" horiz-adv-x="954" unicode="ý" d="M281.5 1217q3.5 11 13.5 16l307 172q7 7 25 7q1 0 11 -0.5t17 -12.5l37 -74q6 -12 3 -25.5t-15 -17.5l-330 -137q-22 -9 -31.5 -8.5t-15.5 12.5l-20 45q-5 12 -1.5 23zM30 810q6 9 29 9h91q23 0 34 -22l303 -627h2l287 627q11 22 35 22h78q23 0 29.5 -10t6.5 -18 q0 -9 -5 -19l-629 -1362q-12 -24 -35 -24h-76q-24 0 -33.5 14.5t0.5 36.5l263 565l-381 772q-5 11 -5 19t6 17z"/>
<glyph glyph-name="thorn" d="M291 188q10 -8 27 -20t69 -31.5t102 -19.5q117 0 193 84.5t76 208.5q0 129 -66.5 215t-191.5 86q-37 0 -72.5 -10.5t-59 -25.5t-42 -29.5t-26.5 -25.5l-9 -10v-422zM147 -575v1970q0 15 12 27t27 12h64q15 0 27 -12t12 -27v-633q3 3 9 8.5t27.5 19t45.5 23.5t63 18.5 t80 8.5q115 0 204 -59t136 -157t47 -216q0 -181 -112.5 -304.5t-280.5 -123.5q-38 0 -74.5 7t-61.5 16.5t-44.5 19.5t-29.5 17l-9 7v-622q0 -15 -12 -27t-27 -12h-64q-15 0 -27 12t-12 27z" unicode="þ"/>
<glyph glyph-name="OE" horiz-adv-x="1980" unicode="Œ" d="M248 715q0 -160 79.5 -296.5t216 -216t296.5 -79.5q74 0 137 14v1155q-77 17 -137 17q-160 0 -296.5 -80t-216 -217t-79.5 -297zM104 715q0 151 58 288t156 236t234.5 157t287.5 58q41 0 85 -5t67 -10l24 -5h807q17 0 28 -11.5t11 -27.5v-60q0 -16 -11 -27.5t-28 -11.5 h-688v-499h587q15 0 27 -12t12 -27v-60q0 -17 -11.5 -28t-27.5 -11h-587v-522h688q17 0 28 -11.5t11 -27.5v-59q0 -16 -11 -27.5t-28 -11.5h-807q-84 -20 -176 -20q-202 0 -371 97.5t-267 266.5t-98 371z"/>
<glyph glyph-name="oe" horiz-adv-x="1595" unicode="œ" d="M893 487h485q-4 95 -70.5 158.5t-160.5 63.5q-102 0 -172.5 -63t-81.5 -159zM225 414q0 -125 76 -213t188 -88t188.5 88t76.5 213q0 122 -76.5 206.5t-188.5 84.5t-188 -84.5t-76 -206.5zM84 414q0 175 118 300.5t287 125.5q99 0 185 -47.5t143 -128.5q55 83 140 129.5 t190 46.5q157 0 264 -104.5t107 -270.5q0 -20 -5 -55q-1 -15 -11.5 -25t-24.5 -10h-586q14 -105 92.5 -184.5t177.5 -79.5q107 0 203 59q3 2 10 5.5t9 5t7 4t7.5 2.5h6t6 -1.5t5.5 -4.5t6 -7q6 -8 17.5 -23.5t17.5 -23.5q9 -11 11.5 -17t-1 -15.5t-18.5 -20.5 q-45 -36 -125.5 -65t-175.5 -29q-104 0 -189 47t-141 129q-57 -81 -143 -128.5t-185 -47.5q-169 0 -287 128t-118 306z"/>
<glyph glyph-name="Ydieresis" horiz-adv-x="1157" unicode="Ÿ" d="M698 1718q0 41 28.5 70t68.5 29q41 0 69.5 -29t28.5 -70q0 -40 -28.5 -68t-69.5 -28q-40 0 -68.5 28t-28.5 68zM266 1718q0 41 28 70t68 29q41 0 70 -29t29 -70q0 -40 -29 -68t-70 -28q-40 0 -68 28t-28 68zM5.5 1419.5q7.5 14.5 31.5 14.5h96q19 0 33 -19l414 -571 l413 571q14 19 33 19h96q24 0 31.5 -14.5t7.5 -24.5q0 -11 -6 -21l-500 -682v-653q0 -15 -12 -27t-27 -12h-79q-17 0 -28 11.5t-11 27.5v651l-494 684q-6 11 -6 21t7.5 24.5z"/>
<glyph glyph-name="circumflex" horiz-adv-x="763" unicode="ˆ" d="M93 1198q3 7 13 14l246 193q11 8 27 8t27 -8l245 -193q18 -12 18 -25q0 -7 -5 -13q-3 -4 -10.5 -16.5t-12.5 -19t-13 -13t-16 -6.5q-1 0 -6.5 0.5t-17.5 8.5l-209 144l-209 -139q-30 -19 -47 4l-29 37q-4 7 -4 13q0 4 3 11z"/>
<glyph glyph-name="tilde" horiz-adv-x="778" unicode="˜" d="M86 1241q2 4 11 25t16 36.5t23 38t33.5 37t45 25t59.5 10.5q34 0 64 -15.5t51 -37.5t39 -44.5t36.5 -38t35.5 -15.5q62 0 92 104q10 32 47 16l33 -16q6 -3 9.5 -7.5t4.5 -8t1 -6.5q0 -5 -1 -11t-3.5 -12.5t-2.5 -7.5q-56 -166 -182 -166q-38 0 -74.5 24t-59.5 52.5 t-48.5 52.5t-43.5 24q-19 0 -34.5 -9t-26.5 -26.5t-16.5 -31.5t-12.5 -35q-5 -17 -17.5 -23t-33.5 3l-37 18q-13 7 -13 22q0 10 5 23z"/>
<glyph glyph-name="uni2002" horiz-adv-x="999" unicode=" "/>
<glyph glyph-name="uni2003" horiz-adv-x="1999" unicode=" "/>
<glyph glyph-name="uni2009" horiz-adv-x="399" unicode=" "/>
<glyph glyph-name="endash" horiz-adv-x="1181" unicode="–" d="M174 494v22q0 17 11 28t28 11h756q17 0 28 -11t11 -28v-22q0 -15 -11 -26t-28 -11h-756q-17 0 -28 11t-11 26z"/>
<glyph glyph-name="emdash" horiz-adv-x="1632" unicode="—" d="M174 494v22q0 17 11 28t28 11h1206q17 0 28 -11t11 -28v-22q0 -15 -11 -26t-28 -11h-1206q-17 0 -28 11t-11 26z"/>
<glyph glyph-name="quoteleft" horiz-adv-x="417" unicode="‘" d="M78 1059q0 114 54.5 217.5t117.5 161.5q15 14 28 14q11 0 21 -10l29 -29q6 -5 6 -13q0 -4 -2.5 -13.5t-16.5 -22.5q-127 -114 -127 -258q8 2 25 2q47 0 82 -35t35 -82q0 -49 -34.5 -83t-82.5 -34q-58 0 -96.5 42t-38.5 143z"/>
<glyph glyph-name="quotesinglbase" horiz-adv-x="477" unicode="‚" d="M111 -298.5q2 9.5 16 22.5q127 114 127 258q-8 -2 -25 -2q-47 0 -81.5 34.5t-34.5 81.5q0 49 34 83t82 34q58 0 97 -41.5t39 -142.5q0 -114 -54.5 -217.5t-117.5 -161.5q-15 -14 -29 -14q-11 0 -21 10l-28 28q-6 5 -6 14q0 4 2 13.5z"/>
<glyph glyph-name="quotedblleft" horiz-adv-x="786" unicode="“" d="M446 1063q0 114 54.5 217.5t117.5 161.5q15 14 29 14q11 0 21 -10l28 -29q6 -5 6 -14q0 -3 -2 -12.5t-16 -22.5q-127 -114 -127 -258q8 2 25 2q47 0 81.5 -35t34.5 -82q0 -49 -34 -82.5t-82 -33.5q-58 0 -97 41.5t-39 142.5zM78 1063q0 114 54.5 217.5t117.5 161.5 q15 14 28 14q11 0 21 -10l29 -29q6 -5 6 -13q0 -4 -2.5 -13.5t-16.5 -22.5q-127 -114 -127 -258q8 2 25 2q47 0 82 -35t35 -82q0 -49 -34.5 -82.5t-82.5 -33.5q-58 0 -96.5 41.5t-38.5 142.5z"/>
<glyph glyph-name="quotedblright" horiz-adv-x="782" unicode="”" d="M458 939.5q3 14.5 17 27.5q127 114 127 258q-8 -2 -24 -2q-47 0 -82 34.5t-35 81.5q0 49 34.5 83t82.5 34q58 0 96.5 -41.5t38.5 -142.5q0 -114 -54.5 -217.5t-117.5 -161.5q-15 -14 -28 -14q-11 0 -21 10l-29 29q-8 7 -5 21.5zM90 945q2 9 16 22q127 114 127 258 q-8 -2 -24 -2q-47 0 -82 34.5t-35 81.5q0 49 34.5 83t82.5 34q58 0 96.5 -41.5t38.5 -142.5q0 -114 -54.5 -217.5t-117.5 -161.5q-15 -14 -28 -14q-11 0 -21 10l-29 29q-6 5 -6 14q0 4 2 13z"/>
<glyph glyph-name="ellipsis" horiz-adv-x="1277" unicode="…" d="M922 96q0 49 34 83t82 34q50 0 83.5 -33.5t33.5 -83.5q0 -48 -34 -82t-83 -34q-47 0 -81.5 34.5t-34.5 81.5zM518 96q0 49 34.5 83t82.5 34q49 0 83 -33.5t34 -83.5q0 -48 -34 -82t-83 -34q-47 0 -82 34.5t-35 81.5zM123 96q0 49 34.5 83t82.5 34q49 0 82.5 -33.5 t33.5 -83.5q0 -48 -33.5 -82t-82.5 -34q-47 0 -82 34.5t-35 81.5z"/>
<glyph glyph-name="guilsinglleft" horiz-adv-x="516" unicode="‹" d="M84 397q-8 12 -8 24t8 25l223 304q17 24 37 24h29q27 0 35 -19q3 -8 3 -16q0 -13 -8 -28l-151 -285l145 -301q11 -25 3 -43t-33 -19h-39q-18 0 -31 17z"/>
<glyph glyph-name="guilsinglright" horiz-adv-x="516" unicode="›" d="M106 755q8 19 35 19h29q21 0 37 -24l223 -304q8 -13 8 -25t-8 -24l-213 -317q-13 -17 -31 -17h-39q-25 1 -33 19t3 43l145 301l-151 285q-8 15 -8 28q0 8 3 16z"/>
<glyph glyph-name="Euro" horiz-adv-x="1497" unicode="€" d="M41 557v14q0 15 11 27t26 12h82q-6 50 -6 105q0 33 2 49h-78q-15 0 -26 12t-11 27v14q0 15 11 27t26 12h88q50 259 254 428.5t473 169.5q149 0 267.5 -48t228.5 -142q12 -12 13 -29t-11 -29l-50 -49q-14 -14 -31.5 -14.5t-35.5 16.5q-76 71 -176.5 109.5t-206.5 38.5 q-203 0 -356.5 -128t-198.5 -323h575q17 0 28 -11.5t11 -27.5v-16q0 -15 -11 -26t-28 -11h-589q-3 -24 -3 -47q0 -55 9 -107h501q17 0 28 -11.5t11 -27.5v-16q0 -15 -11 -26t-28 -11h-477q60 -171 206.5 -280t332.5 -109q63 0 118 12t105.5 37.5t84.5 48t85 60.5q24 20 49 6 l60 -60q10 -9 10 -24q0 -19 -12 -31q-204 -198 -498 -198q-254 0 -451 150.5t-262 387.5h-102q-15 0 -26 12t-11 27z"/>
<glyph glyph-name="trademark" horiz-adv-x="1476" unicode="™" d="M639 862l106 551q3 12 14.5 21.5t24.5 9.5h9q9 0 20 -7.5t14 -15.5l166 -434l168 434q3 8 14.5 15.5t20.5 7.5h8q12 0 24 -9.5t15 -21.5l109 -553q1 -4 1 -8q0 -14 -10.5 -25.5t-29.5 -11.5h-25q-13 0 -24.5 10.5t-14.5 24.5l-69 338l-148 -361q-3 -7 -13.5 -12.5 t-19.5 -5.5h-12q-9 0 -20.5 6t-14.5 14l-143 359l-72 -340q-3 -12 -15 -22.5t-24 -10.5h-20q-20 0 -31 14t-8 33zM102 1372v23q0 15 12 27t27 12h391q17 0 28 -11.5t11 -27.5v-23q0 -17 -11 -28t-28 -11h-143v-479q0 -15 -12 -27t-27 -12h-26q-17 0 -28 11.5t-11 27.5v479 h-144q-16 0 -27.5 11t-11.5 28z"/>
</font>
</defs>
</svg>
