<?xml version="1.0" encoding="UTF-8" standalone="no"?>
<!DOCTYPE svg  PUBLIC '-//W3C//DTD SVG 1.1//EN'  'http://www.w3.org/Graphics/SVG/1.1/DTD/svg11.dtd'>
<svg xmlns="http://www.w3.org/2000/svg">
<defs>
<font id="BrandonGrotesque-Light" horiz-adv-x="995">
<font-face underline-position="-102" font-weight="330" descent="-410" panose-1="2 11 3 3 2 2 3 6 2 2" units-per-em="2048" unicode-range="U+000D-2122" bbox="-294 -635 1905 1980" x-height="819" underline-thickness="102" font-family="BrandonGrotesque" ascent="1638" cap-height="1434"/>
<missing-glyph horiz-adv-x="2048"/>
<glyph glyph-name=".notdef" horiz-adv-x="2048"/>
<glyph glyph-name="glyph1" horiz-adv-x="2048"/>
<glyph glyph-name="glyph1" horiz-adv-x="2048"/>
<glyph glyph-name="uni000D" horiz-adv-x="2048" unicode=""/>
<glyph glyph-name="space" horiz-adv-x="444" unicode=" "/>
<glyph glyph-name="exclam" horiz-adv-x="606" unicode="!" d="M248 1157v250q0 27 31 27h51q10 0 18 -8t8 -19v-248l-18 -584q0 -9 -9 -16.5t-18 -7.5h-16q-10 0 -18.5 7.5t-8.5 16.5zM219 61q0 35 25 58.5t59 23.5q35 0 58.5 -23.5t23.5 -58.5q0 -34 -23.5 -57.5t-58.5 -23.5q-34 0 -59 24t-25 57z"/>
<glyph glyph-name="quotedbl" horiz-adv-x="612" unicode='&quot;' d="M422 1038v369q0 11 8 19t19 8h43q12 0 18.5 -9t5.5 -24l-33 -363q-4 -22 -20 -22h-23q-18 0 -18 22zM115 1038v369q0 11 8 19t18 8h43q12 0 19 -9t6 -24l-33 -363q-4 -22 -20 -22h-23q-18 0 -18 22z"/>
<glyph glyph-name="numbersign" horiz-adv-x="1126" unicode="#" d="M365 485h333l62 373h-332zM94 449v10q0 11 7.5 18.5t17.5 7.5h180l63 373h-184q-10 0 -18 8t-8 19v12q0 11 8 19t18 8h195l82 487q3 23 26 23h13q12 0 18 -9t4 -22l-80 -479h334l82 487q3 23 27 23h14q24 0 20 -31l-79 -479h170q10 0 17 -8t7 -19v-12q0 -11 -6 -19 t-16 -8h-181l-63 -373h182q11 0 19 -8t8 -18v-10q0 -11 -7.5 -19t-17.5 -8h-194l-68 -399q-1 -9 -9.5 -16t-17.5 -7h-12q-29 0 -24 31l67 391h-336l-65 -399q-1 -9 -9.5 -16t-17.5 -7h-12q-30 0 -25 31l68 391h-172q-10 0 -17.5 8t-7.5 19z"/>
<glyph glyph-name="dollar" horiz-adv-x="1091" unicode="$" d="M588 68q131 8 224 86.5t93 185.5q0 115 -78 185.5t-239 129.5v-587zM207 1094q0 -61 21.5 -109t66 -84.5t98.5 -63t133 -53.5v580q-83 -4 -147.5 -30.5t-100 -66.5t-53.5 -84t-18 -89zM113 1092q0 58 23.5 116.5t70 112.5t129.5 90t190 41v76q0 13 8.5 19.5t20.5 6.5h8 q11 0 19 -7t8 -19v-78q52 -3 103.5 -14.5t88 -26t66 -28.5t44.5 -23l15 -10q25 -20 11 -41l-21 -31q-15 -22 -43 -8q-16 11 -40.5 25t-92.5 39t-131 30q0 -100 -1 -301t-1 -301q104 -36 175.5 -72.5t129 -85.5t85.5 -113.5t28 -146.5q0 -145 -123.5 -249t-294.5 -113v-222 q0 -11 -9 -17.5t-20 -6.5q-33 0 -33 24v222q-219 12 -401 167q-13 11 -13 24q0 9 7 19l22 29q17 21 52 -6q151 -133 333 -145v614q-103 34 -171.5 66t-127 79.5t-86.5 112.5t-28 152z"/>
<glyph glyph-name="percent" horiz-adv-x="1409" unicode="%" d="M801 260q0 -86 60.5 -145.5t146.5 -59.5q85 0 144.5 59.5t59.5 145.5q0 85 -59.5 145t-144.5 60q-86 0 -146.5 -60t-60.5 -145zM725 260q0 119 82.5 202t200.5 83q117 0 199.5 -83.5t82.5 -201.5q0 -117 -82.5 -200t-199.5 -83q-118 0 -200.5 83t-82.5 200zM242.5 11.5 q-4.5 11.5 3.5 23.5l778 1388q7 11 25 11h36q13 0 17.5 -9.5t4.5 -14.5q0 -7 -5 -15l-780 -1381q-7 -14 -25 -14h-37q-13 0 -17.5 11.5zM162 1171q0 -86 59.5 -146t145.5 -60q85 0 144.5 60t59.5 146q0 85 -59.5 145t-144.5 60q-86 0 -145.5 -60t-59.5 -145zM84 1171 q0 118 83 200.5t200 82.5t199.5 -82.5t82.5 -200.5t-82.5 -200t-199.5 -82t-200 82t-83 200z"/>
<glyph glyph-name="ampersand" horiz-adv-x="1388" unicode="&amp;" d="M367 1135q-2 -116 139 -261q9 -8 18.5 -18t21.5 -22l19 -19q50 25 90 49t82 56.5t70.5 65.5t46.5 73.5t18 83.5q0 94 -65 162.5t-182 68.5q-123 0 -190.5 -72t-67.5 -167zM274 354q0 -124 85 -208.5t216 -84.5q124 0 229.5 53.5t184.5 149.5l-444 451 q-271 -147 -271 -361zM184 354q0 253 303 416l-30 33q-43 47 -67 76t-54 74t-42.5 89t-12.5 88v7q0 55 21 109.5t61.5 101.5t110.5 76.5t157 29.5q156 0 244 -90.5t88 -218.5q0 -61 -29 -120t-80 -108t-107 -88t-122 -73l417 -414q123 197 123 418q0 5 -1 20.5t-1 20.5 q0 18 17 18h43q18 0 24 -18q4 -14 4 -41q0 -121 -39 -246t-108 -231l213 -211q18 -16 18 -29q0 -10 -10 -18l-33 -31q-18 -18 -41 4l-204 207q-91 -106 -211.5 -165.5t-262.5 -59.5q-178 0 -283.5 108.5t-105.5 265.5z"/>
<glyph glyph-name="quotesingle" horiz-adv-x="305" unicode="&apos;" d="M115 1038v369q0 11 8 19t18 8h43q12 0 19 -9t6 -24l-33 -363q-4 -22 -20 -22h-23q-18 0 -18 22z"/>
<glyph glyph-name="parenleft" horiz-adv-x="704" unicode="(" d="M129 645q0 174 28.5 313t75.5 228t111.5 149.5t131.5 86.5t142 30q25 0 25 -18l2 -31q1 -10 -3.5 -17.5t-12.5 -7.5q-191 -26 -300.5 -204.5t-109.5 -528.5t109.5 -528.5t300.5 -204.5q8 0 12.5 -7.5t3.5 -17.5l-2 -30q0 -9 -6 -13.5t-13 -4.5q-3 0 -6 1q-75 3 -142 29 t-131.5 86t-111.5 149t-75.5 228t-28.5 313z"/>
<glyph glyph-name="parenright" horiz-adv-x="704" unicode=")" d="M59 -113q-1 10 4.5 17.5t14.5 7.5q191 26 299 204t108 529t-108 529t-299 204q-9 0 -14.5 7.5t-4.5 17.5l2 31q3 18 27 18q75 -4 142 -30t131 -86.5t110.5 -149.5t75 -228t28.5 -313t-28.5 -313t-75 -228t-110.5 -149t-131 -86t-142 -29h-6q-18 0 -21 17z"/>
<glyph glyph-name="asterisk" horiz-adv-x="696" unicode="*" d="M86.5 1261q-1.5 7 -1.5 10q0 7 3 13l12 21q10 17 33 4l182 -113l-2 211q0 11 8.5 19t18.5 8h16q10 0 18.5 -8t8.5 -19l-2 -211l180 115q20 11 35 -8l10 -17q4 -8 4 -15q0 -12 -12 -20l-188 -114l190 -115q7 -4 9 -11.5t2 -11.5q0 -6 -3 -10l-10 -18q-6 -9 -17 -11.5 t-20 3.5l-180 114l2 -211q0 -10 -8 -18t-19 -8h-16q-11 0 -19 8t-8 18l2 211l-180 -112q-9 -6 -19 -3.5t-16 11.5l-10 16q-4 6 -4 13q0 3 2 10t10 12l187 113l-189 112q-8 5 -9.5 12z"/>
<glyph glyph-name="plus" horiz-adv-x="1034" unicode="+" d="M96 694v31q0 11 8 19t19 8h352v354q0 10 8 17t19 7h33q11 0 18.5 -7t7.5 -17v-354h350q11 0 19 -8t8 -19v-31q0 -10 -8 -18t-19 -8h-350v-351q0 -11 -7.5 -18.5t-18.5 -7.5h-33q-11 0 -19 8t-8 18v351h-352q-11 0 -19 8t-8 18z"/>
<glyph glyph-name="comma" horiz-adv-x="473" unicode="," d="M145 61q0 36 23.5 58t62.5 22q48 0 81.5 -48.5t33.5 -143.5q0 -57 -17 -109.5t-42.5 -87t-47.5 -56t-40 -32.5q-12 -7 -21 -7t-14 7l-17 21q-5 6 -5 12q0 10 14 20q42 34 65 65q42 58 49 130q1 9 1 17q0 35 -11 61q-17 -10 -33 -10q-38 0 -60 23.5t-22 57.5z"/>
<glyph glyph-name="hyphen" horiz-adv-x="978" unicode="-" d="M233 500v22q0 12 7 19.5t18 7.5h463q11 0 19 -7.5t8 -19.5v-22q0 -10 -8 -18.5t-19 -8.5h-463q-10 0 -17.5 8t-7.5 19z"/>
<glyph glyph-name="period" horiz-adv-x="456" unicode="." d="M145 61q0 35 25 58.5t59 23.5q35 0 58.5 -23.5t23.5 -58.5q0 -34 -23.5 -57.5t-58.5 -23.5q-34 0 -59 24t-25 57z"/>
<glyph glyph-name="slash" horiz-adv-x="669" unicode="/" d="M84 29l453 1388q7 17 26 17h29q14 0 19.5 -7t5.5 -14q0 -4 -1 -8l-452 -1387q-6 -18 -27 -18h-31q-13 0 -18.5 6.5t-5.5 13.5q0 4 2 9z"/>
<glyph glyph-name="zero" horiz-adv-x="1318" unicode="0" d="M248 698q0 -303 107 -469t304 -166q196 0 303 166t107 469q0 300 -107 466.5t-303 166.5q-197 0 -304 -166t-107 -467zM158 698q0 338 131.5 528.5t369.5 190.5t370 -190.5t132 -528.5t-132 -528t-370 -190t-369.5 190t-131.5 528z"/>
<glyph glyph-name="one" horiz-adv-x="659" unicode="1" d="M41 1087q-6 7 -6 14q0 9 10 17l328 277h30q13 0 22 -7t9 -18v-1343q0 -11 -8 -19t-18 -8h-41q-11 0 -19 8t-8 19v1230l-244 -200q-17 -14 -30 2z"/>
<glyph glyph-name="two" horiz-adv-x="1073" unicode="2" d="M82 25v36l543 545q112 112 169.5 211t57.5 195q0 60 -21 115t-62 100.5t-108.5 72.5t-152.5 27q-38 0 -73.5 -7t-65 -21t-53 -27.5t-45 -33.5t-33 -31t-26 -28t-15.5 -18q-19 -22 -41 -6l-25 21q-17 17 -4 36q5 8 15 22t46 49t76.5 61.5t106.5 48.5t137 22 q207 0 323.5 -116t116.5 -285q0 -124 -65.5 -231t-192.5 -234l-467 -465h688q11 0 19 -8t8 -19v-30q0 -11 -8 -19t-19 -8h-802q-11 0 -19 8t-8 17z"/>
<glyph glyph-name="three" horiz-adv-x="1118" unicode="3" d="M98 181q0 10 8 16l33 26q17 14 37 -6q1 -1 26 -26.5t37 -35t45 -32t63 -33t77 -20t100 -9.5q160 0 261.5 85t101.5 223q0 58 -21 107.5t-57 84t-83.5 59t-100 36.5t-107.5 12h-190q-15 0 -21 5.5t-6 20.5v37q0 25 29 25h188q59 0 115.5 16t106 48t80 89t30.5 131 q0 127 -89.5 208t-221.5 81q-193 0 -322 -151q-16 -20 -35 -4l-30 24q-9 6 -9.5 17t7.5 18q6 7 17 19.5t49 44t80 55.5t108 43.5t135 19.5q178 0 292.5 -101t114.5 -263q0 -114 -69 -204.5t-162 -125.5v-4q106 -33 187 -129t81 -213q0 -172 -126.5 -283.5t-336.5 -111.5 q-71 0 -135.5 15t-105.5 33.5t-80.5 48t-56 46t-36.5 39.5q-8 9 -8 19z"/>
<glyph glyph-name="four" horiz-adv-x="1193" unicode="4" d="M145 401h697v852zM31 350v35l837 1032h37q23 0 23 -22q0 -166 1 -498t1 -498h155q11 0 19 -7t8 -17v-27q0 -10 -8 -18t-19 -8h-155v-295q0 -11 -8 -19t-19 -8q-3 0 -9 -0.5t-9 -0.5t-7 0.5t-11 1t-11.5 2t-9 4.5t-6.5 8t-2 12v292h-772q-35 0 -35 31z"/>
<glyph glyph-name="five" horiz-adv-x="1116" unicode="5" d="M132 177q0 9 11 20q5 4 14.5 13t14.5 13q20 17 35 -4q127 -156 338 -156q167 0 276 115.5t109 272.5q0 158 -98.5 249t-286.5 91h-340q-18 0 -28.5 13.5t-10.5 29.5v534q0 11 7.5 19t19.5 8h643q10 0 18 -8t8 -19v-33q0 -11 -8 -18.5t-18 -7.5h-584v-432h293 q233 0 356 -111t123 -315q0 -128 -61 -235.5t-172 -171.5t-248 -64q-254 0 -398 172q-13 16 -13 25z"/>
<glyph glyph-name="six" horiz-adv-x="1134" unicode="6" d="M207 549q0 -96 25 -182t72 -155t123 -110t171 -41q150 0 258.5 114t108.5 271q0 160 -106.5 264.5t-256.5 104.5q-69 0 -135 -22t-106.5 -47t-80.5 -62t-49 -48.5t-20 -25.5q-4 -40 -4 -61zM119 563q0 115 28 220.5t72.5 185.5t106.5 152t122.5 121.5t128.5 92t116.5 66 t94.5 41.5q4 1 8 1q6 0 13 -3.5t10 -12.5l15 -30q10 -27 -23 -39q-43 -15 -100.5 -44.5t-137 -86t-147 -124t-124 -166t-75.5 -204.5q15 20 45.5 45t78.5 53.5t117 48t142 19.5q118 0 218.5 -54t163.5 -157.5t63 -236.5q0 -128 -62 -236.5t-167.5 -171.5t-227.5 -63 q-117 0 -209 45t-150.5 124.5t-89 184.5t-30.5 229z"/>
<glyph glyph-name="seven" horiz-adv-x="968" unicode="7" d="M41 1337v31q0 13 8 20t19 7h847q13 0 21 -7.5t8 -17.5v-10l-602 -1327q-9 -21 -15.5 -27t-23.5 -6h-49q-14 0 -17 12t3 21l583 1276h-755q-27 0 -27 28z"/>
<glyph glyph-name="eight" horiz-adv-x="1175" unicode="8" d="M258 1038q0 -118 88 -191.5t242 -84.5q153 11 241.5 84.5t88.5 191.5q0 125 -90 210t-246 85q-152 0 -238 -85t-86 -210zM223 358q0 -96 49.5 -165.5t129.5 -102.5t182 -33q163 0 265.5 78t102.5 223q0 118 -99.5 204.5t-264.5 99.5q-168 -13 -266.5 -97.5t-98.5 -206.5z M129 367q0 128 89 221.5t218 124.5v4q-114 33 -192 119.5t-78 203.5q0 159 110.5 265t307.5 106q198 0 312 -106t114 -265q0 -117 -78.5 -203.5t-192.5 -119.5v-4q130 -31 219 -123t89 -223q0 -180 -127 -283.5t-336 -103.5q-204 0 -329.5 103.5t-125.5 283.5z"/>
<glyph glyph-name="nine" horiz-adv-x="1132" unicode="9" d="M170 958q0 -160 105.5 -264t254.5 -104q70 0 136 22t106.5 46.5t80.5 62t49 48.5t20 26q4 40 4 61q0 76 -15 146.5t-46.5 133t-77 108.5t-110 72.5t-140.5 26.5q-152 0 -259.5 -114t-107.5 -271zM80 954q0 128 62 236.5t167.5 171.5t227.5 63q154 0 264 -78.5 t162.5 -208.5t52.5 -296q0 -115 -28 -220.5t-72.5 -185.5t-107 -152t-123 -121.5t-129 -92t-117.5 -66t-95 -41.5q-5 -2 -10 -2q-14 0 -21 16l-12 31q-11 28 23 39q43 15 100 44.5t136.5 86t147 124t123.5 166t74 204.5q-15 -20 -45.5 -45t-78 -53.5t-116 -48t-141.5 -19.5 q-117 0 -218 54t-163.5 157.5t-62.5 236.5z"/>
<glyph glyph-name="colon" horiz-adv-x="538" unicode=":" d="M186 756q0 35 25 59.5t59 24.5q35 0 58.5 -24.5t23.5 -59.5q0 -33 -23.5 -57.5t-58.5 -24.5q-34 0 -59 25t-25 57zM186 61q0 35 25 58.5t59 23.5q35 0 58.5 -23.5t23.5 -58.5q0 -34 -23.5 -57.5t-58.5 -23.5q-34 0 -59 24t-25 57z"/>
<glyph glyph-name="semicolon" horiz-adv-x="546" unicode=";" d="M186 756q0 35 24 59.5t58 24.5q35 0 58.5 -24.5t23.5 -59.5q0 -33 -23.5 -57.5t-58.5 -24.5q-33 0 -57.5 24.5t-24.5 57.5zM186 61q0 36 23.5 58t62.5 22q48 0 81.5 -48.5t33.5 -143.5q0 -57 -17 -109.5t-42.5 -87t-47.5 -56t-40 -32.5q-12 -7 -21 -7t-14 7l-17 21 q-5 6 -5 12q0 10 14 20q42 34 65 65q42 58 49 130q1 9 1 17q0 35 -11 61q-17 -10 -33 -10q-38 0 -60 23.5t-22 57.5z"/>
<glyph glyph-name="less" horiz-adv-x="886" unicode="&lt;" d="M53 473v2q0 16 21 29l723 459q6 5 12 5q3 0 7 -3q8 -6 9 -23v-47q0 -22 -16 -31l-623 -391l623 -379q16 -9 16 -31v-47q-1 -16 -9 -22q-3 -2 -7 -3q-6 0 -12 5l-723 444q-21 13 -21 33z"/>
<glyph glyph-name="equal" horiz-adv-x="1148" unicode="=" d="M225 776v35q0 27 27 27h645q11 0 19 -8t8 -19v-35q0 -10 -8 -18t-19 -8h-645q-27 0 -27 26zM225 350v35q0 27 27 27h645q11 0 19 -8t8 -19v-35q0 -10 -8 -18t-19 -8h-645q-27 0 -27 26z"/>
<glyph glyph-name="greater" horiz-adv-x="886" unicode="&gt;" d="M61 16v47q0 21 17 31l622 379l-622 391q-17 10 -17 31v47q-1 17 9 23q4 3 9 3q6 0 11 -5l723 -459q21 -13 21 -29v-2q0 -20 -21 -33l-723 -444q-6 -5 -12 -5q-4 1 -8 3q-10 6 -9 22z"/>
<glyph glyph-name="question" horiz-adv-x="960" unicode="?" d="M352 61q0 35 24 58.5t58 23.5q35 0 59.5 -23.5t24.5 -58.5q0 -34 -24.5 -57.5t-59.5 -23.5q-34 0 -58 23.5t-24 57.5zM125 1280q5 7 14 19t41.5 42t71 52.5t102 41.5t133.5 19q153 0 245.5 -80.5t92.5 -208.5q0 -63 -25.5 -117.5t-63.5 -89.5t-83 -69.5t-83 -60 t-63.5 -58t-25.5 -65.5v-117q0 -29 -26 -29h-39q-25 0 -25 29v119q0 40 19 76.5t49 64.5t66.5 55t73 54.5t66.5 56t49 66t19 79.5q0 85 -68.5 149t-183.5 64q-39 0 -74.5 -6.5t-63.5 -18.5t-50.5 -24.5t-41.5 -29t-30 -27t-22.5 -23.5t-12.5 -14q-15 -15 -34 -2l-21 14 q-13 9 -13 20q0 9 7 19z"/>
<glyph glyph-name="at" horiz-adv-x="2027" unicode="@" d="M672 414q0 -155 83.5 -251.5t213.5 -96.5q51 0 95.5 16t72.5 38t50 50t31.5 48t14.5 36v387q-2 4 -11 15t-30.5 29.5t-48.5 34t-68 27t-86 11.5q-134 0 -225.5 -95.5t-91.5 -248.5zM98 459q0 217 67 401t188 315t298 205t389 74q201 0 365 -65t273 -180.5t168 -273.5 t59 -343q0 -71 -8.5 -139.5t-27 -139t-51 -129t-77.5 -105.5t-110.5 -73t-145.5 -26q-96 0 -154 44.5t-76 116.5q-16 -25 -39 -49t-58.5 -51.5t-86.5 -44t-108 -16.5q-166 0 -272.5 122t-106.5 312q0 189 116 307.5t285 118.5q46 0 89.5 -9.5t71.5 -22.5t49.5 -26t31.5 -22 l10 -10l6 45q3 24 29 24h20q11 0 19 -8t8 -18v-514q0 -224 170 -224q83 0 148 43t105 118t60.5 170.5t20.5 205.5q0 169 -52 312.5t-149.5 249t-247.5 165t-336 59.5q-259 0 -454 -114t-299.5 -322t-104.5 -483q0 -296 155.5 -514t416.5 -330q13 -6 15.5 -13t-3.5 -20 l-14 -33q-6 -15 -18 -15q-5 0 -11 3q-137 58 -250 147t-197 204.5t-130 261.5t-46 309z"/>
<glyph glyph-name="A" horiz-adv-x="1337" unicode="A" d="M313 475h711l-350 825h-4zM12 25l631 1425q7 14 25 14h6q19 0 26 -14l625 -1425q2 -6 2 -10q0 -15 -20 -15h-54q-19 0 -28 18l-166 377h-783l-163 -377q-9 -18 -29 -18h-57q-17 0 -17 13q0 5 2 12z"/>
<glyph glyph-name="B" horiz-adv-x="1275" unicode="B" d="M313 770h381q142 0 223.5 80t81.5 209q0 133 -85.5 208.5t-233.5 75.5h-367v-573zM311 86h396q149 0 243 85.5t94 219.5q0 133 -99.5 212t-250.5 79h-383v-596zM217 27v1380q0 11 8.5 19t18.5 8h436q190 0 307 -101.5t117 -269.5q0 -117 -62.5 -204.5t-162.5 -127.5 q119 -32 194.5 -117.5t75.5 -224.5q0 -172 -126 -280.5t-325 -108.5h-454q-10 0 -18.5 8t-8.5 19z"/>
<glyph glyph-name="C" horiz-adv-x="1470" unicode="C" d="M115 715q0 151 58.5 288t157.5 235.5t236.5 157t288.5 58.5q289 0 498 -190q8 -8 8.5 -18.5t-6.5 -18.5l-33 -35q-17 -16 -35 2q-189 168 -432 168q-176 0 -323 -87.5t-231.5 -236t-84.5 -323.5q0 -174 84.5 -321.5t231.5 -234.5t323 -87q124 0 228 44.5t204 127.5 q18 15 33 4l35 -35q8 -6 8 -16.5t-8 -18.5q-102 -99 -231 -148.5t-269 -49.5q-151 0 -288 57.5t-236.5 155t-158 234t-58.5 288.5z"/>
<glyph glyph-name="D" horiz-adv-x="1511" unicode="D" d="M313 88h346q177 0 322.5 82.5t229 227.5t83.5 321q0 174 -83.5 318t-229.5 226.5t-322 82.5h-346v-1258zM217 27v1380q0 10 8 18.5t17 8.5h434q146 0 279.5 -57t230 -153t154 -228t57.5 -277q0 -196 -97 -361.5t-263 -261.5t-361 -96h-434q-9 0 -17 8.5t-8 18.5z"/>
<glyph glyph-name="E" horiz-adv-x="1224" unicode="E" d="M217 27v1380q0 11 8.5 19t18.5 8h821q11 0 19 -8t8 -19v-35q0 -10 -8 -18t-19 -8h-750v-566h650q11 0 18.5 -8t7.5 -18v-35q0 -11 -8 -19t-18 -8h-650v-606h750q11 0 19 -8t8 -19v-32q0 -11 -8 -19t-19 -8h-821q-10 0 -18.5 8t-8.5 19z"/>
<glyph glyph-name="F" horiz-adv-x="1173" unicode="F" d="M217 27v1380q0 11 8.5 19t18.5 8h821q11 0 19 -8t8 -19v-35q0 -10 -8 -18t-19 -8h-750v-623h650q10 0 18 -8t8 -19v-10v-12t-0.5 -11t-2.5 -10.5t-4.5 -7.5t-7.5 -6t-11 -2h-650l-2 -610q0 -11 -9 -19t-23 -8h-37q-10 0 -18.5 8t-8.5 19z"/>
<glyph glyph-name="G" horiz-adv-x="1521" unicode="G" d="M115 715q0 151 58.5 288t157.5 236t236 157t289 58q287 0 496 -190q8 -8 8.5 -18.5t-6.5 -18.5q-10 -12 -33 -35q-16 -19 -35 0q-187 172 -432 172q-175 0 -321.5 -87t-231 -235t-84.5 -323t84.5 -323t231 -235t321.5 -87q87 0 167.5 14.5t133.5 36t83 36.5t42 25v385 h-350q-16 0 -21.5 6t-5.5 21v41q0 13 5.5 19t21.5 6h420q10 0 18 -8t8 -17v-475q0 -21 -6.5 -31.5t-21.5 -21.5q-21 -14 -57.5 -32t-99.5 -42.5t-152.5 -40.5t-182.5 -16q-152 0 -289 57.5t-236 155t-157.5 234t-58.5 288.5z"/>
<glyph glyph-name="H" horiz-adv-x="1546" unicode="H" d="M217 27v1380q0 11 8.5 19t18.5 8h43q12 0 19 -8t7 -19v-629h920v629q0 11 8.5 19t18.5 8h43q12 0 19 -8t7 -19v-1380q0 -11 -7 -19t-19 -8h-43q-10 0 -18.5 8t-8.5 19v665h-920v-665q0 -11 -7 -19t-19 -8h-43q-10 0 -18.5 8t-8.5 19z"/>
<glyph glyph-name="I" horiz-adv-x="532" unicode="I" d="M217 27v1380q0 11 8.5 19t18.5 8h45q10 0 18 -8t8 -19v-1380q0 -12 -8.5 -19.5t-19.5 -7.5h-43q-10 0 -18.5 8t-8.5 19z"/>
<glyph glyph-name="J" horiz-adv-x="800" unicode="J" d="M-51 133q-6 9 -6 17q0 10 8 18l26 25q17 17 35 0q57 -57 89 -78q75 -49 163 -49q135 0 217 93.5t82 270.5v977q0 12 8.5 19.5t20.5 7.5h41q10 0 18 -8t8 -19v-975q0 -214 -106.5 -333t-290.5 -119q-188 0 -313 153z"/>
<glyph glyph-name="K" horiz-adv-x="1208" unicode="K" d="M217 27v1376q0 13 8.5 22t22.5 9h37q13 0 21.5 -8.5t8.5 -22.5v-633l697 649q17 15 41 15h57q16 0 19 -13t-7 -22l-712 -662l735 -702q7 -5 7 -12q0 -4 -2 -9q-5 -14 -24 -14h-65q-25 0 -45 20l-701 680v-673q0 -27 -30 -27h-41q-12 0 -19.5 7.5t-7.5 19.5z"/>
<glyph glyph-name="L" horiz-adv-x="1001" unicode="L" d="M217 27v1380q0 11 8.5 19t18.5 8h45q9 0 16.5 -8.5t7.5 -18.5v-1321h654q17 0 21.5 -7t4.5 -20v-36q0 -10 -7.5 -16.5t-18.5 -6.5h-723q-10 0 -18.5 8t-8.5 19z"/>
<glyph glyph-name="M" horiz-adv-x="1759" unicode="M" d="M102 27l291 1413q3 14 19 14h22q15 0 21 -14l422 -1258h4l424 1258q6 14 20 14h23q14 0 18 -14l291 -1413q1 -4 1 -8q0 -19 -24 -19h-49q-9 0 -15.5 7t-8.5 16l-232 1200h-4l-414 -1227q-5 -16 -28 -16h-9q-21 0 -26 16l-414 1227h-4l-231 -1200q-2 -9 -9 -16t-16 -7h-49 q-24 0 -24 19q0 4 1 8z"/>
<glyph glyph-name="N" horiz-adv-x="1579" unicode="N" d="M217 27v1400q0 12 9.5 19.5t21.5 7.5h35l983 -1280h2v1233q0 11 8 19t18 8h41q11 0 19 -8t8 -19v-1401q0 -13 -10 -19.5t-23 -6.5h-26q-14 0 -992 1292h-2v-1245q0 -11 -8 -19t-18 -8h-39q-10 0 -18.5 8t-8.5 19z"/>
<glyph glyph-name="O" horiz-adv-x="1705" unicode="O" d="M205 715q0 -176 86.5 -324.5t235.5 -234.5t325 -86t325.5 86t236.5 234.5t87 324.5t-87 325.5t-236.5 236.5t-325.5 87t-325 -87t-235.5 -236.5t-86.5 -325.5zM115 715q0 151 58 288t156.5 236t235 157t287.5 58q152 0 289 -58t235.5 -157t156.5 -236t58 -288 q0 -152 -58 -288.5t-156.5 -234t-235.5 -155t-289 -57.5q-151 0 -287.5 57.5t-235 155t-156.5 234t-58 288.5z"/>
<glyph glyph-name="P" horiz-adv-x="1216" unicode="P" d="M313 604h367q152 0 261.5 109.5t109.5 263.5q0 150 -110 255t-263 105h-365v-733zM217 27v1380q0 11 8.5 19t18.5 8h440q125 0 231.5 -61.5t169 -167.5t62.5 -230q0 -126 -62.5 -233t-168.5 -169.5t-230 -62.5h-373v-483q0 -11 -9 -19t-23 -8h-37q-10 0 -18.5 8t-8.5 19z "/>
<glyph glyph-name="Q" horiz-adv-x="1708" unicode="Q" d="M205 715q0 -176 86.5 -324.5t235.5 -234.5t325 -86t325.5 86t236.5 234.5t87 324.5t-87 325.5t-236.5 236.5t-325.5 87t-325 -87t-235.5 -236.5t-86.5 -325.5zM115 715q0 151 58 288t156.5 236t235 157t287.5 58q152 0 289 -58t235.5 -157t156.5 -236t58 -288 q0 -231 -127 -415t-334 -267l244 -398q5 -7 1 -18.5t-15 -11.5h-68q-14 0 -26 20l-228 377q-90 -22 -186 -22q-151 0 -287.5 57.5t-235 155t-156.5 234t-58 288.5z"/>
<glyph glyph-name="R" horiz-adv-x="1331" unicode="R" d="M315 639h433q149 0 255.5 102.5t106.5 253.5q0 145 -107 244.5t-258 99.5h-430v-700zM217 27v1380q0 11 7.5 19t19.5 8h508q189 0 322.5 -126.5t133.5 -312.5q0 -153 -94.5 -269.5t-243.5 -158.5l299 -530q8 -12 4 -24.5t-18 -12.5h-63q-20 0 -29 18l-297 537 q-27 -2 -76 -2h-377v-526q0 -11 -9 -19t-23 -8h-37q-10 0 -18.5 8t-8.5 19z"/>
<glyph glyph-name="S" horiz-adv-x="1112" unicode="S" d="M125 1092q0 48 15 97t49 97t84 85t126 60t168 23q57 0 114 -10.5t98.5 -26t74.5 -31t50 -26.5l16 -10q23 -18 8 -43q-10 -14 -17 -27q-19 -26 -45 -10q-8 5 -19 12t-44 23.5t-66 28.5t-80.5 22t-91.5 10q-90 0 -159.5 -25.5t-108.5 -67t-58.5 -87t-19.5 -92.5 q0 -64 23 -113t70.5 -86.5t105 -64t141.5 -54.5q92 -31 156.5 -59t125.5 -66t97.5 -80t58 -99.5t21.5 -127.5q0 -100 -62.5 -184.5t-165 -132t-219.5 -47.5q-69 0 -136.5 15.5t-114 35.5t-89.5 47t-61.5 41.5t-32.5 27.5q-13 11 -13 24q0 9 7 19l19 25q23 27 45 8 q15 -13 28 -24t53.5 -38t80 -45.5t99 -34t117.5 -15.5q140 0 242.5 81t102.5 193q0 67 -26 119t-81.5 92.5t-122.5 71.5t-168 65q-79 28 -133 52t-107.5 58.5t-85 74t-50.5 95t-19 124.5z"/>
<glyph glyph-name="T" horiz-adv-x="966" unicode="T" d="M16 1376v31q0 12 8 19.5t19 7.5h881q12 0 19 -8t7 -19v-35q0 -11 -7 -18.5t-19 -7.5h-394v-1319q0 -11 -9 -19t-23 -8h-37q-11 0 -19 8t-8 19v1319h-391q-27 0 -27 30z"/>
<glyph glyph-name="U" horiz-adv-x="1474" unicode="U" d="M201 522v885q0 11 8 19t18 8h43q10 0 18.5 -8t8.5 -19v-875q0 -202 118.5 -330t319.5 -128q202 0 322.5 127.5t120.5 328.5v877q0 27 28 27h41q11 0 19 -8t8 -19v-885q0 -237 -148.5 -389.5t-390.5 -152.5q-240 0 -387 152t-147 390z"/>
<glyph glyph-name="V" horiz-adv-x="1333" unicode="V" d="M10 1426q4 8 19 8h55q17 0 22 -15l553 -1272h5l559 1272q5 15 22 15h53q14 0 20 -8q2 -3 2 -7q0 -7 -3 -14l-629 -1407q-7 -18 -24 -18h-11q-16 0 -22 18l-619 1409q-3 7 -3 12q-1 4 1 7z"/>
<glyph glyph-name="W" horiz-adv-x="1835" unicode="W" d="M80 1407q-1 4 -1 8q0 19 23 19h50q9 0 15.5 -7t8.5 -16l344 -1200h4l361 1225q6 18 30 18h5q24 0 30 -18l363 -1225h4l342 1200q2 9 8.5 16t15.5 7h50q23 0 23 -19q0 -4 -1 -8l-405 -1413q-4 -14 -19 -14h-22q-15 0 -21 14l-368 1247h-5l-368 -1247q-6 -14 -21 -14h-22 q-16 0 -19 14z"/>
<glyph glyph-name="X" horiz-adv-x="1157" unicode="X" d="M68 10q-2 3 -1 7q0 7 5 14l444 702l-420 670q-8 12 -3 21.5t20 9.5h65q17 0 27 -13l370 -602h3l374 602q10 13 27 13h65q15 0 20 -9.5t-3 -21.5l-422 -670l448 -702q5 -8 5 -14q0 -3 -2 -7q-4 -10 -19 -10h-65q-18 0 -27 12l-401 633h-3l-395 -633q-9 -12 -26 -12h-66 q-16 0 -20 10z"/>
<glyph glyph-name="Y" horiz-adv-x="1146" unicode="Y" d="M-8 1424q5 10 20 10h62q16 0 26 -13l467 -637l475 637q10 13 27 13h61q15 0 20 -10q3 -3 3 -7q0 -7 -6 -14l-533 -705v-671q0 -11 -8 -19t-18 -8h-12q-4 -1 -8 -1t-6 1q-5 0 -13 0.5t-12.5 2t-9 4.5t-7 8t-2.5 12v669l-522 707q-6 8 -6 14q0 4 2 7z"/>
<glyph glyph-name="Z" horiz-adv-x="1091" unicode="Z" d="M61 25v36l832 1278v4h-741q-11 0 -19 9t-8 22v33q0 11 8.5 19t18.5 8h843q12 0 19.5 -8t7.5 -19v-33l-834 -1282v-2h764q12 0 19.5 -8t7.5 -19v-36q0 -11 -7.5 -19t-19.5 -8h-862q-12 0 -20.5 7.5t-8.5 17.5z"/>
<glyph glyph-name="bracketleft" horiz-adv-x="675" unicode="[" d="M170 -590v1997q0 11 8 19t19 8h399q10 0 18.5 -8t8.5 -19v-31q0 -10 -8 -18t-19 -8h-338v-1882h338q10 0 18.5 -8t8.5 -19v-31q0 -10 -8 -18t-19 -8h-399q-11 0 -19 8t-8 18z"/>
<glyph glyph-name="backslash" horiz-adv-x="669" unicode="\" d="M53 1405q-1 4 -1 8q0 7 6 14t20 7h28q20 0 27 -17l453 -1388q1 -5 1 -9q0 -7 -5.5 -13.5t-18.5 -6.5h-31q-20 0 -26 18z"/>
<glyph glyph-name="bracketright" horiz-adv-x="673" unicode="]" d="M53 -559q0 11 8.5 19t18.5 8h336v1882h-336q-11 0 -19 8t-8 18v31q0 11 8.5 19t18.5 8h397q11 0 19 -8t8 -19v-1997q0 -10 -8 -18t-19 -8h-397q-11 0 -19 8t-8 18v31z"/>
<glyph glyph-name="asciicircum" horiz-adv-x="1073" unicode="^" d="M77 825.5q-2 6.5 -2 9.5q0 8 7 17l432 596q10 14 23 14h6q11 0 22 -14l430 -596q7 -9 7 -17q0 -3 -2 -9.5t-17 -6.5h-47q-20 0 -33 17l-364 505l-365 -505q-13 -17 -33 -17h-47q-15 0 -17 6.5z"/>
<glyph glyph-name="underscore" horiz-adv-x="804" unicode="_" d="M53 -47q0 11 7.5 19t19.5 8h645q11 0 19 -8t8 -19v-21q0 -10 -8 -17t-19 -7h-645q-12 0 -19.5 6.5t-7.5 17.5v21z"/>
<glyph glyph-name="grave" horiz-adv-x="618" unicode="`" d="M147 1337l21 41q6 11 17 11q8 0 18 -5l336 -184q14 -8 14 -20q0 -4 -2 -9l-10 -20q-5 -10 -16 -10q-7 0 -17 4l-352 162q-12 7 -12 17q0 6 3 13z"/>
<glyph glyph-name="a" horiz-adv-x="874" unicode="a" d="M174 254q0 -88 54.5 -141.5t140.5 -53.5q85 0 161 40.5t111 86.5v226q-97 43 -207 43q-117 0 -188.5 -55t-71.5 -146zM90 252q0 121 93 198.5t251 77.5q104 0 207 -36q0 60 -3 98t-13.5 74t-30 55.5t-52.5 31t-81 11.5q-38 0 -75 -5t-65.5 -13t-49 -15t-37.5 -14t-19 -8 q-24 -9 -31 16l-10 25q-7 22 12 30q10 7 37 18.5t97.5 27.5t146.5 16q53 0 93.5 -9.5t67.5 -24.5t46 -42.5t29.5 -53t16 -68t6.5 -75.5t1 -86v-454q0 -11 -8.5 -19t-18.5 -8h-24q-18 0 -25 23l-8 73q-50 -47 -123.5 -81.5t-161.5 -34.5q-116 0 -192 74t-76 198z"/>
<glyph glyph-name="b" d="M246 207q3 -6 12.5 -18.5t33 -36t53 -43t75 -34t94.5 -14.5q127 0 212 102t85 247q0 147 -92 244.5t-232 97.5q-65 0 -125.5 -21.5t-87.5 -42.5l-28 -22v-459zM156 27v1380q0 11 8 19t18 8h35q11 0 19 -8t8 -19v-649q4 3 11.5 8.5t33 20t53 25t70 19.5t86.5 9 q173 0 287 -123t114 -305q0 -180 -109.5 -306t-267.5 -126q-55 0 -106 14t-87 35.5t-57.5 39t-33.5 31.5l-7 -73q-3 -27 -28 -27h-21q-10 0 -18 8t-8 19z" unicode="b"/>
<glyph glyph-name="c" horiz-adv-x="940" unicode="c" d="M94 410q0 120 59 219.5t157.5 155t213.5 55.5q107 0 186.5 -41t116.5 -88q17 -20 -4 -37l-20 -21q-19 -19 -43 4q-26 30 -89 62.5t-147 32.5q-141 0 -239.5 -97.5t-98.5 -242.5q0 -147 99 -246.5t237 -99.5q54 0 99.5 13.5t80 39t46 36t30.5 31.5q20 23 39 4l23 -20 q10 -10 10 -20q0 -6 -4 -13q-13 -21 -40.5 -45.5t-67.5 -51t-97 -43.5t-117 -17q-176 0 -303 123.5t-127 306.5z"/>
<glyph glyph-name="d" d="M186 410q0 -145 84 -247t211 -102q50 0 96 14.5t75.5 34t53.5 42.5t33.5 36.5t12.5 18.5v459q-4 3 -11 9t-31.5 21t-51 26t-67.5 20.5t-83 9.5q-140 0 -231 -97.5t-91 -244.5zM96 410q0 183 115 306.5t289 123.5q69 0 132 -20.5t92 -41.5l28 -20v649q0 11 7 19t19 8h37 q9 0 17 -8.5t8 -18.5v-1380q0 -11 -8 -19t-19 -8h-20q-26 0 -29 27l-6 71q-13 -14 -33.5 -30.5t-56.5 -38t-87 -35.5t-106 -14q-159 0 -269 125t-110 305z" unicode="d"/>
<glyph glyph-name="e" horiz-adv-x="956" unicode="e" d="M188 459h592q0 127 -74 213t-206 86t-218 -85t-94 -214zM96 412q0 181 111 304.5t293 123.5q161 0 265.5 -106t104.5 -269q0 -19 -0.5 -27.5t-3 -23.5t-9 -22t-17.5 -7h-654q6 -135 95.5 -229.5t224.5 -94.5q129 0 242 76q14 9 21 9t15 -9l21 -28q11 -14 -8 -33 q-34 -34 -121 -65t-176 -31q-183 0 -293.5 123.5t-110.5 308.5z"/>
<glyph glyph-name="f" horiz-adv-x="641" unicode="f" d="M57 766v27q0 10 8 18t19 8h123v281q0 175 84.5 264.5t224.5 89.5q73 0 138 -27.5t91 -60.5q9 -11 9 -21q0 -6 -4 -12l-21 -28q-15 -22 -35 -2q-28 26 -77 47.5t-101 21.5q-101 0 -160 -68t-59 -204v-281h303q12 0 19.5 -6.5t7.5 -17.5v-31q0 -25 -27 -25h-303v-712 q0 -11 -8.5 -19t-18.5 -8h-37q-10 0 -18 8t-8 19v712h-123q-13 0 -20 8.5t-7 18.5z"/>
<glyph glyph-name="g" horiz-adv-x="946" unicode="g" d="M227 496q0 -113 68 -188t192 -75q113 0 182.5 75.5t69.5 187.5q0 124 -72.5 193t-179.5 69q-116 0 -188 -75t-72 -187zM193 -322q0 -91 83 -160t224 -69q138 0 231.5 72t93.5 176q0 78 -51 129t-158 51h-258q-11 -1 -35 -13t-54.5 -34.5t-53 -63t-22.5 -88.5zM72 70 q0 48 17 89.5t43 68t43.5 40.5t31.5 21q-23 29 -43.5 84.5t-20.5 120.5q0 151 98 248.5t261 97.5h336q12 0 19 -8t7 -19v-22q0 -22 -18 -25l-148 -10q18 -9 37 -26.5t40.5 -47.5t35.5 -79t14 -109q0 -141 -94 -240.5t-246 -99.5q-83 0 -140 22.5t-83 50.5q-10 -4 -24 -13 t-33.5 -26t-33 -46t-13.5 -62q0 -119 161 -119h297q139 0 221.5 -65.5t82.5 -196.5q0 -135 -118 -234.5t-300 -99.5q-100 0 -179.5 27.5t-126 72.5t-70.5 97t-24 106q0 134 129 215q-18 4 -42.5 16t-52 33.5t-46 58t-18.5 79.5z"/>
<glyph glyph-name="h" horiz-adv-x="1013" unicode="h" d="M156 27v1380q0 11 8 19t20 8h33q11 0 19 -8t8 -19v-698q131 131 297 131q160 0 244.5 -96t84.5 -279v-438q0 -11 -8 -19t-18 -8h-37q-11 0 -19 8t-8 19v438q0 140 -62.5 213.5t-180.5 73.5q-48 0 -95 -14.5t-79 -33t-61 -42t-40.5 -35.5t-17.5 -19v-581q0 -27 -27 -27 h-39q-10 0 -16 8t-6 19z"/>
<glyph glyph-name="i" horiz-adv-x="401" unicode="i" d="M156 27v766q0 11 8 18.5t18 7.5h37q11 0 19 -8t8 -18v-766q0 -27 -27 -27h-41q-10 0 -16 8t-6 19zM131 1288q0 29 20.5 50.5t49.5 21.5t49 -21t20 -51q0 -28 -20 -47.5t-49 -19.5t-49.5 19.5t-20.5 47.5z"/>
<glyph glyph-name="j" horiz-adv-x="399" unicode="j" d="M129 1288q0 29 20.5 50.5t49.5 21.5t49 -21t20 -51q0 -28 -20 -47.5t-49 -19.5t-49.5 19.5t-20.5 47.5zM-289 -518l21 33q6 9 16 9t19 -9q88 -68 178 -68q100 0 155.5 67t55.5 205v1074q0 11 8 18.5t18 7.5h35q11 0 19 -8t8 -18v-1074q0 -176 -79.5 -265t-219.5 -89 q-72 0 -135 28t-95 60q-9 9 -9 17q0 6 5 12z"/>
<glyph glyph-name="k" horiz-adv-x="876" unicode="k" d="M156 27v1380q0 11 8 19t18 8h35q11 0 19 -8t8 -19v-918l436 318q15 12 33 12h59q15 0 16.5 -14.5t-10.5 -22.5l-440 -323l493 -424q8 -8 8 -17q0 -3 -1 -6q-4 -12 -17 -12h-63q-20 0 -41 16l-473 408v-397q0 -27 -27 -27h-39q-10 0 -16 8t-6 19z"/>
<glyph glyph-name="l" horiz-adv-x="401" unicode="l" d="M156 27v1380q0 11 8 19t18 8h37q11 0 19 -8t8 -19v-1380q0 -27 -27 -27h-41q-10 0 -16 8t-6 19z"/>
<glyph glyph-name="m" horiz-adv-x="1562" unicode="m" d="M156 27v766q0 11 8 18.5t18 7.5h25q19 0 22 -20l11 -88q12 16 32 34t54.5 41.5t86 38.5t109.5 15q189 0 269 -150q13 17 36.5 38t62 48.5t94 45.5t114.5 18q162 0 240.5 -98.5t78.5 -276.5v-438q0 -11 -8 -19t-18 -8h-41q-9 0 -16 7.5t-7 19.5v438q0 141 -60 214t-175 73 q-156 0 -271 -140q19 -68 19 -147v-438q0 -11 -8 -19t-19 -8h-39q-11 0 -17.5 7.5t-6.5 19.5v438q0 141 -61 214t-177 73q-57 0 -108.5 -19t-84.5 -47t-49 -46t-24 -30v-583q0 -27 -27 -27h-41q-10 0 -16 8t-6 19z"/>
<glyph glyph-name="n" horiz-adv-x="1013" unicode="n" d="M156 27v766q0 11 8 18.5t20 7.5h21q21 0 24 -20l9 -88q14 15 37 33t61.5 41.5t93 39t111.5 15.5q167 0 248 -98.5t81 -276.5v-438q0 -11 -8 -19t-18 -8h-37q-11 0 -19 8t-8 19v438q0 140 -62.5 213.5t-180.5 73.5q-47 0 -94 -14t-79.5 -32.5t-61.5 -41.5t-41 -35t-17 -19 v-583q0 -27 -27 -27h-39q-10 0 -16 8t-6 19z"/>
<glyph glyph-name="o" horiz-adv-x="1011" unicode="o" d="M182 412q0 -146 94 -247.5t230 -101.5q135 0 228 101.5t93 247.5q0 142 -93.5 242t-227.5 100q-136 0 -230 -100t-94 -242zM94 412q0 176 120 302t292 126q171 0 291.5 -126t120.5 -302q0 -180 -120 -306t-292 -126q-173 0 -292.5 126t-119.5 306z"/>
<glyph glyph-name="p" horiz-adv-x="997" unicode="p" d="M246 162q4 -8 29.5 -28.5t82.5 -44t119 -23.5q147 0 240.5 99t93.5 247q0 145 -87 244.5t-224 99.5q-45 0 -87 -11t-70 -26.5t-51 -33t-33 -28.5t-13 -16v-479zM156 -588v1381q0 11 8.5 18.5t19.5 7.5h23q21 0 24 -20l7 -58q124 99 268 99q169 0 282 -124.5t113 -305.5 q0 -183 -117 -306.5t-297 -123.5q-61 0 -118 18t-82 33.5t-43 31.5v-651q0 -10 -8 -18t-19 -8h-35q-10 0 -18 8t-8 18z"/>
<glyph glyph-name="q" d="M186 412q0 -148 92.5 -247t239.5 -99q62 0 120 23t81.5 41.5t32.5 29.5v481q-4 6 -13 15.5t-33 28t-51.5 33.5t-69.5 26.5t-87 11.5q-138 0 -225 -99t-87 -245zM96 410q0 181 112 305.5t281 124.5q145 0 269 -99l8 56q3 22 27 22h22q9 0 17 -8t8 -18v-1381q0 -10 -8 -18 t-17 -8h-37q-10 0 -18 8t-8 18v654q-99 -86 -242 -86q-181 0 -297.5 123t-116.5 307z" unicode="q"/>
<glyph glyph-name="r" horiz-adv-x="663" unicode="r" d="M156 27v766q0 11 8 18.5t18 7.5h25q21 0 24 -22l9 -84q11 16 28 33t48.5 40.5t78.5 38.5t101 15q60 0 127 -25q14 -5 20 -15q4 -6 4 -13q0 -4 -2 -9l-16 -41q-9 -20 -33 -10q-63 25 -107 25q-55 0 -103 -19.5t-77.5 -48t-43.5 -46t-19 -28.5v-583q0 -27 -27 -27h-41 q-10 0 -16 8t-6 19z"/>
<glyph glyph-name="s" horiz-adv-x="757" unicode="s" d="M100 627q0 35 16 71.5t47.5 68.5t85 52.5t120.5 20.5q131 0 231 -66q9 -6 11.5 -17t-3.5 -22l-12 -22q-6 -11 -17 -14t-22 3q-14 9 -37 20.5t-67 24.5t-84 13q-88 0 -132 -41t-44 -90q0 -57 46.5 -92.5t147.5 -71.5q43 -16 65.5 -24.5t58.5 -25t55.5 -29t43.5 -32.5 t36.5 -40.5t21 -48t8.5 -58.5q0 -93 -84.5 -160t-206.5 -67q-150 0 -268 92q-17 13 -8 28l20 33q5 8 15.5 9t21.5 -7q100 -80 219 -80q86 0 141.5 42.5t55.5 103.5q0 64 -53.5 101t-176.5 83q-122 43 -187 98.5t-65 143.5z"/>
<glyph glyph-name="t" horiz-adv-x="673" unicode="t" d="M70 766v33q0 20 24 20h96v223q0 12 8 19.5t19 7.5l35 2q10 0 18.5 -8.5t8.5 -18.5v-225h284q12 0 19.5 -7.5t7.5 -18.5v-27q0 -12 -7.5 -19.5t-19.5 -7.5h-284v-522q0 -81 19.5 -115t86.5 -34q47 0 102 19t84 36q21 12 33 -8l14 -25q5 -9 5 -16q0 -11 -11 -19 q-33 -26 -96.5 -50.5t-140.5 -24.5q-61 0 -100 16.5t-56.5 51.5t-23 70.5t-5.5 92.5v528h-96q-24 0 -24 27z"/>
<glyph glyph-name="u" horiz-adv-x="993" unicode="u" d="M143 352v441q0 10 8 18t19 8h37q11 0 18.5 -7.5t7.5 -18.5v-441q0 -141 63 -213.5t181 -72.5q48 0 93 14t74.5 33t54.5 41.5t35 35.5t14 19v584q0 26 26 26h37q11 0 19 -8t8 -18v-766q0 -11 -8 -19t-19 -8h-25q-20 0 -24 25l-8 79q-12 -15 -32.5 -32.5t-55.5 -40t-87 -37 t-108 -14.5q-167 0 -247.5 96.5t-80.5 275.5z"/>
<glyph glyph-name="v" horiz-adv-x="835" unicode="v" d="M31 810q3 9 14 9h2h45q19 0 27 -18l297 -676h2l299 676q8 18 26 18h45h2q10 0 14 -9q1 -3 2 -7q0 -7 -5 -15l-357 -790q-9 -18 -24 -18h-8q-17 0 -25 18l-352 790q-5 8 -5 16q0 3 1 6z"/>
<glyph glyph-name="w" horiz-adv-x="1241" unicode="w" d="M70 786q-4 11 -4 18q0 15 16 15h45q22 0 27 -18l192 -645h2l244 665q5 19 24 19h9q18 0 24 -19l244 -665h2l192 645q5 18 27 18h45q16 0 16 -15q0 -7 -4 -18l-245 -788q-5 -18 -25 -18h-8q-19 0 -25 18l-247 690h-3l-245 -690q-6 -18 -25 -18h-8q-20 0 -25 18z"/>
<glyph glyph-name="x" horiz-adv-x="856" unicode="x" d="M68 9q-2 3 -2 6q0 6 6 14l301 391l-285 371q-9 11 -4.5 19.5t16.5 8.5h54q18 0 30 -18l240 -318h2l242 318q12 18 30 18h54q12 0 16.5 -8.5t-4.5 -19.5l-283 -369l297 -393q6 -7 6 -14q0 -3 -2 -6q-4 -9 -16 -9h-53q-19 0 -31 18l-256 342h-2l-256 -342q-12 -18 -31 -18 h-53q-12 0 -16 9z"/>
<glyph glyph-name="y" horiz-adv-x="907" unicode="y" d="M27 808q3 11 16 11h45q18 0 27 -18l350 -692h4l319 692q9 18 27 18h45q13 0 16 -11q1 -3 1 -6q0 -8 -5 -16l-643 -1384q-6 -16 -26 -16h-47q-27 0 -15 28l277 594l-387 778q-5 8 -5 16q0 3 1 6z"/>
<glyph glyph-name="z" horiz-adv-x="759" unicode="z" d="M70 23v22l481 686v6h-418q-10 0 -17 8t-7 19v29q0 26 24 26h531q15 -1 23 -13q4 -6 4 -12q0 -7 -5 -14l-479 -692v-6h424q26 0 26 -27v-28q0 -11 -7 -19t-19 -8h-537q-10 0 -17 7t-7 16z"/>
<glyph glyph-name="braceleft" horiz-adv-x="747" unicode="{" d="M53 397v33q0 13 19 19q24 8 42.5 17t46.5 29t44 55t16 81v327q0 109 26 196t69 142t101.5 91.5t120 51.5t128.5 15q11 0 19.5 -7t8.5 -17v-25q0 -22 -20 -25q-172 -13 -268.5 -117t-96.5 -307v-325q0 -49 -18.5 -91.5t-46.5 -69t-44.5 -38t-29.5 -18.5v-2q6 -3 18.5 -10 t34.5 -25.5t40 -41.5t32 -60t14 -78v-334q0 -203 96.5 -307t268.5 -117q20 -3 20 -25v-24q0 -10 -8.5 -17.5t-19.5 -7.5q-67 0 -128.5 15t-120 51.5t-101.5 91.5t-69 142t-26 196v336q0 46 -16 81t-44 55t-46.5 29t-42.5 17q-6 2 -8.5 3t-5.5 3t-4 5t-1 7z"/>
<glyph glyph-name="bar" horiz-adv-x="399" unicode="|" d="M168 -590v2118q0 12 8 19t19 7h12q24 0 24 -26v-2118q0 -10 -7.5 -17t-18.5 -7h-10q-11 0 -19 7t-8 17z"/>
<glyph glyph-name="braceright" horiz-adv-x="747" unicode="}" d="M53 -586q0 22 21 25q172 13 268 117t96 307v334q0 49 18.5 91t47 68.5t44.5 37.5t30 18v2q-9 5 -19.5 11t-34.5 25.5t-41 42t-31 60t-14 78.5v325q0 203 -96 307t-268 117q-21 4 -21 25v25q0 10 9 17t20 7q67 0 128 -15t120 -51.5t101.5 -91.5t68.5 -142t26 -196v-327 q0 -37 12 -68t27.5 -49t39.5 -33t38 -20.5t33 -11.5q18 -6 18 -19v-33q0 -8 -3.5 -11.5t-14.5 -6.5q-19 -6 -33 -11.5t-38 -20.5t-39.5 -33t-27.5 -49t-12 -68v-336q0 -109 -26 -196t-68.5 -142t-101.5 -91.5t-120 -51.5t-128 -15q-11 0 -20 7.5t-9 17.5v24z"/>
<glyph glyph-name="asciitilde" horiz-adv-x="1175" unicode="~" d="M135 543q4 8 12 21t34.5 46.5t56 59t76 46.5t94.5 21q109 0 215 -110q87 -92 161 -92q18 0 36 4t33 10.5t29.5 16t25.5 19t22.5 21.5t19 21.5t15.5 21.5t12 18.5t9 15t5 9.5q16 22 35 6l27 -18q11 -7 11 -20q0 -8 -5 -13q-4 -8 -12 -21t-34.5 -46.5t-56.5 -59 t-76.5 -46.5t-95.5 -21q-44 0 -87.5 19.5t-65.5 37.5t-56 51q-27 27 -45.5 42.5t-53 32.5t-68.5 17q-18 0 -35.5 -4t-32.5 -10.5t-29.5 -16t-25.5 -19t-22 -21.5t-18.5 -22t-15.5 -21.5t-12 -18t-9 -15t-5 -9.5q-16 -22 -37 -7l-27 21q-10 8 -10 17q0 8 6 16z"/>
<glyph glyph-name="uni00A0" horiz-adv-x="536" unicode=" " d="M49 1337l21 41q6 12 17 12q7 0 17 -6l338 -178q15 -8 15 -20q0 -4 -2 -8l-13 -27q-5 -10 -8 -11t-4 -1q-5 0 -16 4l-346 157q-22 11 -22 26q0 5 3 11z"/>
<glyph glyph-name="exclamdown" horiz-adv-x="460" unicode="¡" d="M176 -340l19 584q0 9 8.5 16.5t17.5 7.5h17q10 0 18 -7.5t8 -16.5l21 -582v-250q0 -26 -31 -26h-51q-11 0 -19 8t-8 18v248zM147 758q0 34 23.5 58t58.5 24q34 0 59 -24t25 -58q0 -35 -25 -58.5t-59 -23.5q-35 0 -58.5 23.5t-23.5 58.5z"/>
<glyph glyph-name="cent" horiz-adv-x="911" unicode="¢" d="M164 412q0 -108 55.5 -193.5t145.5 -124.5l176 654q-24 4 -39 4q-141 0 -239.5 -97.5t-98.5 -242.5zM72 410q0 120 59 219.5t157.5 155t213.5 55.5q33 0 63 -6l21 81q5 18 24 18q4 0 8 -1l11 -2q10 -1 15.5 -11t2.5 -22l-20 -78q63 -18 111 -50t67 -58q17 -20 -4 -37 l-23 -21q-9 -8 -17 -8t-12 3t-12 11q-52 52 -133 74l-178 -661q37 -6 74 -6q28 0 54.5 4.5t47 10.5t42 16t35 18t29 20.5t22.5 18.5t18 16.5t12 11.5q20 23 39 4l16 -14q12 -12 12 -23q0 -6 -4 -12q-13 -21 -40 -45.5t-67.5 -51t-97 -43.5t-116.5 -17q-62 0 -101 10 l-47 -185q-5 -17 -24 -17q-4 0 -8 1l-11 2q-10 1 -15.5 10.5t-2.5 20.5l47 186q-119 47 -193.5 155.5t-74.5 246.5z"/>
<glyph glyph-name="sterling" horiz-adv-x="1060" unicode="£" d="M135 649v8q0 9 8.5 17t18.5 8h74q-3 11 -24 89t-31.5 140.5t-10.5 128.5q0 183 121.5 298.5t294.5 115.5q122 0 222 -50.5t136 -98.5q7 -10 7 -20q0 -12 -11 -25l-16 -19q-20 -21 -45 4q-9 9 -21 19.5t-41.5 30.5t-61 35t-78.5 26.5t-95 11.5q-134 0 -228 -92t-94 -238 q0 -64 11.5 -129t31 -137.5t23.5 -89.5h413q13 0 20 -9t7 -20v-8q0 -11 -7.5 -19t-19.5 -8h-397q12 -73 12 -165q-3 -201 -75 -369h614q25 0 25 -29v-30q0 -9 -7.5 -17t-17.5 -8h-700q-11 0 -18.5 9.5t-6.5 19.5v18q48 107 73 214.5t25 176.5v15q0 71 -16 165h-88 q-12 0 -19.5 9.5t-7.5 21.5z"/>
<glyph glyph-name="currency" horiz-adv-x="1005" unicode="¤" d="M310 657.5q0 -82.5 57 -139.5q57 -56 98 -56l42 -1q81 0 138 57t57 139.5t-57 139.5q-57 58 -138 58l-41 -1q-42 0 -99 -57t-57 -139.5zM168 373.5q0 10.5 6 15.5l109 109q-54 70 -54 160q0 92 54 161l-109 107q-7 9 -7 17q0 10 11 20l21 22q9 8 21 8q8 0 18 -4l104 -108 q73 54 159 54q2 0 47 -0.5t116 -55.5l108 108q4 6 15 6q1 0 7.5 -0.5t14.5 -11.5l22 -18q7 -10 7 -20t-7 -19l-104 -105q53 -71 53 -160.5t-53 -158.5l104 -105q6 -9 6 -17q0 -12 -12 -22l-20 -22q-10 -9 -20 -9q-9 0 -17 7l-104 104q-71 -53 -116 -54h-47q-89 0 -159 54 l-104 -108q-8 -5 -16 -5q-11 0 -23 9l-21 24q-10 7 -10 17.5z"/>
<glyph glyph-name="yen" horiz-adv-x="1269" unicode="¥" d="M55 1427.5q4 6.5 19 6.5h61q17 0 27 -13l467 -639l475 639q10 13 26 13h62q15 0 18.5 -6.5t3.5 -10.5q0 -7 -6 -14l-532 -705v-106h307q11 0 18 -8t7 -19v-12q0 -11 -7 -18t-18 -7h-307v-180h307q12 0 18.5 -7.5t6.5 -18.5v-13q0 -10 -7 -17t-18 -7h-307v-258 q0 -11 -8 -19t-19 -8h-45q-10 0 -17 8t-7 19v258h-308q-10 0 -17 6.5t-7 17.5v13q0 26 24 26h308v180h-308q-10 0 -17 7t-7 18v12q0 27 24 27h308v104l-523 707q-6 7 -6 14q0 4 4 10.5z"/>
<glyph glyph-name="brokenbar" horiz-adv-x="735" unicode="¦" d="M336 821v707q0 12 7.5 19t18.5 7h13q24 0 24 -26v-707q0 -11 -7.5 -18.5t-18.5 -7.5h-11q-10 0 -18 7.5t-8 18.5zM336 119q0 11 8 18.5t18 7.5h13q10 0 17 -7.5t7 -18.5v-709q0 -10 -7.5 -17t-18.5 -7h-11q-11 0 -18.5 7t-7.5 17v709z"/>
<glyph glyph-name="section" horiz-adv-x="1091" unicode="§" d="M199 596q0 -114 80.5 -180t246.5 -123q139 -44 238 -100q1 1 14.5 13t21.5 19.5t22 22.5t23 29.5t18.5 32.5t14.5 39t5 42q0 60 -25 107t-79 84.5t-118 65.5t-163 61q-127 34 -193 84q-54 -51 -76 -87q-30 -53 -30 -110zM102 592q0 126 134 246q-132 123 -132 266 q0 47 15 94.5t49.5 94t84 82t125.5 57.5t167 22q57 0 114 -10.5t97.5 -26t73 -31t48.5 -26.5l17 -10q8 -4 12 -14.5t-4 -26.5l-20 -31q-16 -23 -41 -8l-6 4q-7 4 -14 8.5t-19.5 11.5t-25 13.5t-30 14t-34.5 14t-38 12.5t-41 10.5t-43.5 7t-45.5 2.5q-91 0 -160.5 -24 t-108.5 -63.5t-58 -84.5t-19 -92q0 -112 86 -185t250 -124q89 -30 151.5 -56t122.5 -61t96 -74t58 -91.5t22 -115.5q0 -26 -6 -51t-18 -48.5t-23 -41.5t-28.5 -38.5t-26.5 -30t-25.5 -25.5t-17.5 -17q143 -118 143 -278q0 -96 -60.5 -174t-160 -121t-213.5 -43 q-81 0 -158 20.5t-132.5 52t-84.5 52t-47 37.5q-22 22 -6 43l26 33q19 22 39 2q14 -14 39 -33t73.5 -49.5t116 -51t136.5 -20.5q131 0 231.5 70.5t100.5 179.5q0 119 -95 195t-290 141q-92 30 -159.5 64.5t-123.5 80.5t-84.5 108t-28.5 138z"/>
<glyph glyph-name="dieresis" horiz-adv-x="847" unicode="¨" d="M586 1288q0 31 19 51.5t48 20.5q31 0 51.5 -20.5t20.5 -51.5q0 -28 -20.5 -47.5t-51.5 -19.5q-29 0 -48 19.5t-19 47.5zM193 1288q0 31 20 51.5t49 20.5q31 0 50.5 -20.5t19.5 -51.5q0 -28 -20 -47.5t-50 -19.5q-29 0 -49 19.5t-20 47.5z"/>
<glyph glyph-name="copyright" horiz-adv-x="1705" unicode="©" d="M481 713q0 162 113.5 275.5t275.5 113.5q142 0 238 -78q9 -8 10 -19t-6 -20l-18 -22q-14 -19 -35 -2q-75 59 -187 59q-127 0 -214 -89t-87 -216t87 -215t214 -88q101 0 185 63q23 17 39 -4l18 -25q13 -19 -2 -34q-98 -88 -242 -88q-161 0 -275 114t-114 275zM195 717 q0 -178 88 -329.5t239.5 -240t329.5 -88.5t329.5 88.5t239.5 240t88 329.5q0 133 -52 254.5t-140 209t-210 139.5t-255 52t-255 -52t-210 -139.5t-140 -209t-52 -254.5zM115 717q0 200 98.5 369.5t268 268.5t370.5 99q200 0 370 -99t269.5 -268.5t99.5 -369.5t-99.5 -370 t-269.5 -268.5t-370 -98.5q-150 0 -286.5 58t-235.5 157t-157 235.5t-58 286.5z"/>
<glyph glyph-name="ordfeminine" horiz-adv-x="663" unicode="ª" d="M145 1028q0 -62 39.5 -100.5t98.5 -38.5t111.5 27.5t78.5 60.5v164q-81 28 -145 28q-79 0 -131 -40.5t-52 -100.5zM82 1026q0 88 67.5 143.5t182.5 55.5q82 0 143 -23q0 107 -22.5 147t-100.5 40q-20 0 -39.5 -2t-36 -5.5t-30 -7t-26.5 -8t-20 -7.5t-15 -7t-9 -4 q-18 -6 -22 10l-9 26q-6 17 11 25q90 45 200 45q31 0 55.5 -4.5t43 -11.5t33 -21t24 -26t16 -33.5t10 -38t5 -44.5t2 -47t0.5 -52v-316q0 -9 -6.5 -14.5t-14.5 -5.5h-22q-18 0 -21 16l-6 47q-92 -78 -199 -78q-85 0 -139.5 55t-54.5 146z"/>
<glyph glyph-name="guillemotleft" horiz-adv-x="829" unicode="«" d="M422 408q-12 15 0 34l221 316q13 18 33 18h33q12 0 14 -7t2 -10q0 -9 -6 -20l-193 -313l193 -322q6 -11 6 -19q0 -3 -2 -10t-14 -7h-33q-20 0 -33 18zM94 408q-6 8 -6 16t6 18l221 316q13 18 33 18h33q12 0 14 -7t2 -10q0 -9 -6 -20l-192 -313l192 -322q6 -11 6 -19 q0 -3 -2 -10t-14 -7h-33q-20 0 -33 18z"/>
<glyph glyph-name="logicalnot" horiz-adv-x="1087" unicode="¬" d="M98 696v31q0 11 8 19t19 8h788q10 0 17.5 -8t7.5 -19v-410q0 -10 -8 -17t-19 -7h-32q-11 0 -19 7t-8 17v353h-727q-11 0 -19 8t-8 18z"/>
<glyph glyph-name="uni00AD" horiz-adv-x="710" unicode="­" d="M98 500v22q0 12 7 19.5t18 7.5h463q11 0 18.5 -7.5t7.5 -19.5v-22q0 -11 -8 -19t-18 -8h-463q-10 0 -17.5 8t-7.5 19z"/>
<glyph glyph-name="registered" horiz-adv-x="1708" unicode="®" d="M672 707h241q73 0 125 43.5t52 115.5q0 84 -55.5 121t-145.5 37h-217v-317zM590 369v702q0 11 7 19t17 8h299q51 0 96.5 -14t83 -41.5t59.5 -73t22 -103.5q0 -100 -59.5 -157t-135.5 -72l143 -262q6 -11 1.5 -21t-17.5 -10h-47q-19 0 -29 21l-137 266h-29h-192v-262 q0 -27 -25 -27h-33q-10 0 -17 8t-7 19zM195 717q0 -178 88 -329.5t239.5 -240t329.5 -88.5t329.5 88.5t239.5 240t88 329.5q0 133 -52 254.5t-140 209t-210 139.5t-255 52t-255 -52t-210 -139.5t-140 -209t-52 -254.5zM115 717q0 200 98.5 369.5t268 268.5t370.5 99 q200 0 370 -99t269.5 -268.5t99.5 -369.5t-99.5 -370t-269.5 -268.5t-370 -98.5q-150 0 -286.5 58t-235.5 157t-157 235.5t-58 286.5z"/>
<glyph glyph-name="macron" horiz-adv-x="847" unicode="¯" d="M119 1243v27q0 11 7 18.5t19 7.5h557q11 0 19 -8t8 -18v-27q0 -10 -8 -17t-19 -7h-557q-26 0 -26 24z"/>
<glyph glyph-name="degree" horiz-adv-x="716" unicode="°" d="M147 1174q0 -86 62.5 -148.5t148.5 -62.5q84 0 146.5 62.5t62.5 148.5q0 84 -62.5 146t-146.5 62q-86 0 -148.5 -61.5t-62.5 -146.5zM76 1174q0 118 82 200t200 82q116 0 199.5 -82t83.5 -200t-83.5 -200.5t-199.5 -82.5q-118 0 -200 82t-82 201z"/>
<glyph glyph-name="plusminus" horiz-adv-x="1257" unicode="±" d="M209 809v31q0 10 8 18t19 8h350v344q0 10 7.5 17.5t18.5 7.5h33q11 0 19 -7.5t8 -17.5v-344h352q10 0 17.5 -7.5t7.5 -18.5v-31q0 -11 -7.5 -19t-17.5 -8h-352v-258q0 -10 -8 -18t-19 -8h-33q-10 0 -18 8t-8 18v258h-350q-10 0 -18.5 8t-8.5 19zM209 178v31q0 11 8.5 19 t18.5 8h788q10 0 17.5 -8t7.5 -19v-31q0 -11 -7.5 -18.5t-17.5 -7.5h-788q-11 0 -19 8t-8 18z"/>
<glyph glyph-name="uni00B2" horiz-adv-x="655" unicode="²" d="M111 1049v18l284 266q71 68 74 135q0 49 -39 86t-108 37q-73 0 -140 -67q-4 -6 -10 -6t-10 4l-27 24q-10 10 -2 21q3 4 8 10t23.5 22t39.5 28t54 22t68 10q101 0 159 -53.5t58 -130.5q0 -94 -94 -181l-218 -198h293q15 0 15 -17v-30q0 -17 -15 -17h-395q-18 0 -18 17z "/>
<glyph glyph-name="uni00B3" horiz-adv-x="647" unicode="³" d="M106 1096q-6 6 -6 11q0 6 6 11l23 23q13 13 27 0q1 -1 8.5 -8t13 -11.5t16.5 -12t22.5 -13t27 -11t35 -8t40.5 -2.5q69 0 113.5 33t44.5 84q0 49 -43 83t-123 34h-92q-16 0 -16 20v25q0 16 16 16h92q66 0 108 29t42 84q0 50 -39 80t-100 30q-85 0 -146 -61 q-11 -11 -20 -2l-27 22q-13 12 -2 23q3 3 8.5 9t25.5 20.5t41.5 25.5t55 20t68.5 9q92 0 151.5 -45.5t59.5 -122.5q0 -48 -32.5 -88.5t-74.5 -59.5q5 -2 13.5 -5t30 -16t38 -29t30 -44t13.5 -61q0 -76 -65 -126t-168 -50q-83 0 -138.5 28t-77.5 56z"/>
<glyph glyph-name="acute" horiz-adv-x="618" unicode="´" d="M147 1178q-2 4 -2 8q0 11 15 20l338 178q9 6 17 6q11 0 17 -12l21 -41q3 -6 3 -12q0 -15 -21 -25l-347 -157q-11 -4 -16 -4q-2 0 -4.5 1t-7.5 11z"/>
<glyph glyph-name="uni00B5" horiz-adv-x="1034" unicode="µ" d="M160 -588v1381q0 11 8 18.5t18 7.5h37q11 0 19 -8t8 -18v-441q0 -141 63 -213.5t181 -72.5q48 0 93 14t74 33t54 41.5t35 35.5t14 19v584q0 26 27 26h36q11 0 19 -8t8 -18v-766q0 -11 -8 -19t-19 -8h-24q-21 0 -25 25l-8 79q-12 -15 -32.5 -32.5t-55.5 -40t-87 -37 t-108 -14.5q-77 0 -142.5 30.5t-94.5 75.5v-674q0 -11 -9 -18.5t-20 -7.5h-35q-10 0 -18 8t-8 18z"/>
<glyph glyph-name="paragraph" horiz-adv-x="1402" unicode="¶" d="M53 1004q0 178 117.5 304t286.5 126h876q11 0 19 -8t8 -19v-25q0 -12 -8 -19t-19 -7h-219v-1944q0 -10 -8 -18t-19 -8h-22q-10 0 -18.5 7t-8.5 19v1944h-358v-1944q0 -10 -8 -18t-19 -8h-22q-10 0 -18.5 7t-8.5 19v1168h-147q-118 0 -212 60.5t-143 157t-49 206.5z"/>
<glyph glyph-name="periodcentered" horiz-adv-x="477" unicode="·" d="M156 535q0 35 25 58t59 23q35 0 58.5 -23t23.5 -58q0 -34 -23.5 -58t-58.5 -24q-34 0 -59 24t-25 58z"/>
<glyph glyph-name="cedilla" horiz-adv-x="505" unicode="¸" d="M80 -438q-7 11 -7 20q0 10 9 17l20 16q15 12 33 -6q37 -43 105 -43q54 0 87 35.5t33 87.5q0 118 -188 139q-25 6 -25 27v145h74v-111q98 -11 158.5 -61t60.5 -137q0 -83 -57.5 -141t-142.5 -58q-56 0 -100.5 22t-59.5 48z"/>
<glyph glyph-name="uni00B9" horiz-adv-x="382" unicode="¹" d="M57 1509q-2 4 -2 8q0 8 8 15l150 106h25q20 0 20 -16v-573q0 -7 -5 -12t-11 -5h-41q-17 0 -17 17v493l-96 -57q-12 -6 -18 4z"/>
<glyph glyph-name="ordmasculine" horiz-adv-x="677" unicode="º" d="M162 1128q0 -120 46.5 -187t129.5 -67q85 0 131.5 67t46.5 187q0 122 -47 191.5t-131 69.5q-83 0 -129.5 -69.5t-46.5 -191.5zM88 1128q0 153 66 239.5t184 86.5q119 0 185.5 -86.5t66.5 -239.5q0 -150 -66.5 -235.5t-185.5 -85.5q-118 0 -184 85.5t-66 235.5z"/>
<glyph glyph-name="guillemotright" horiz-adv-x="829" unicode="»" d="M433 78.5q-4 10.5 5 25.5l193 322l-193 313q-9 15 -5 26t16 11h32q20 0 33 -18l221 -316q6 -10 6 -18t-6 -16l-221 -322q-13 -18 -33 -18h-32q-12 0 -16 10.5zM107 74.5q-2 6.5 -2 10.5q0 8 6 19l192 322l-192 313q-6 11 -6 20q0 3 2 10t14 7h33q19 0 32 -18l222 -316 q6 -10 6 -18t-6 -16l-222 -322q-13 -18 -32 -18h-33q-12 0 -14 6.5z"/>
<glyph glyph-name="onequarter" horiz-adv-x="1300" unicode="¼" d="M762 211h244v266zM645 160v18l387 428h29q8 0 14 -5.5t6 -12.5v-379h80q7 0 13 -5t6 -11v-33q0 -6 -6 -11.5t-13 -5.5h-80v-125q0 -7 -6 -12.5t-14 -5.5h-35q-8 0 -14 5.5t-6 12.5v123h-342q-8 0 -13.5 5.5t-5.5 13.5zM153 8.5q-5 8.5 1 20.5l786 1394q7 11 27 11h30 q12 0 16 -6.5t4 -10.5q0 -5 -3 -12l-787 -1395q-6 -10 -26 -10h-31q-12 0 -17 8.5zM96 1305q-2 4 -2 8q0 8 8 14l150 107h24q21 0 21 -17v-573q0 -7 -5 -12t-11 -5h-41q-17 0 -17 17v493l-96 -57q-11 -6 -18 4z"/>
<glyph glyph-name="onehalf" horiz-adv-x="1370" unicode="½" d="M793 16v19l284 266q71 68 74 135q0 49 -39 86t-108 37q-73 0 -140 -67q-10 -13 -20 -3l-27 25q-10 10 -2 21q3 4 8 10t23.5 22t39.5 28t54 22t68 10q101 0 159 -53.5t58 -131.5q0 -92 -95 -180l-217 -199h293q15 0 15 -16v-31q0 -16 -15 -16h-395q-18 0 -18 16zM153 8.5 q-5 8.5 1 20.5l786 1394q7 11 27 11h30q12 0 16 -6.5t4 -10.5q0 -5 -3 -12l-787 -1395q-6 -10 -26 -10h-31q-12 0 -17 8.5zM96 1305q-2 4 -2 8q0 8 8 14l150 107h24q21 0 21 -17v-573q0 -7 -5 -12t-11 -5h-41q-17 0 -17 17v493l-96 -57q-11 -6 -18 4z"/>
<glyph glyph-name="threequarters" horiz-adv-x="1445" unicode="¾" d="M905 211h244v266zM788 160v18l388 428h28q8 0 14.5 -5.5t6.5 -12.5v-379h80q7 0 12.5 -5t5.5 -11v-33q0 -6 -5.5 -11.5t-12.5 -5.5h-80v-125q0 -7 -6.5 -12.5t-14.5 -5.5h-35q-8 0 -14 5.5t-6 12.5v123h-342q-7 0 -13 5.5t-6 13.5zM296 8.5q-5 8.5 1 20.5l786 1394 q7 11 27 11h31q12 0 15.5 -6t3.5 -11q0 -6 -3 -12l-786 -1395q-6 -10 -27 -10h-31q-12 0 -17 8.5zM100 891q-6 6 -6 11q0 6 6 11l23 23q13 14 27 0q1 -1 8.5 -8t13 -11.5t16.5 -12t22.5 -13t27 -11t35 -8t40.5 -2.5q69 0 113.5 33t44.5 84q0 49 -43 83t-123 34h-92 q-16 0 -16 20v25q0 16 16 16h92q66 0 108 29t42 84q0 50 -39.5 80.5t-100.5 30.5q-83 0 -145 -62q-11 -11 -20 -2l-27 23q-12 12 -2 22q3 3 8.5 9t25 20.5t41 25.5t55 20t68.5 9q92 0 151.5 -45.5t59.5 -122.5q0 -48 -32 -88t-74 -59q5 -2 13.5 -5t30 -16t38 -29.5t30 -44.5 t13.5 -61q0 -76 -65.5 -126t-168.5 -50q-83 0 -138 28t-77 56z"/>
<glyph glyph-name="questiondown" horiz-adv-x="489" unicode="¿" d="M172 758q0 34 24.5 58t59.5 24q34 0 58 -24t24 -58q0 -35 -24 -58.5t-58 -23.5q-35 0 -59.5 23.5t-24.5 58.5zM-135 -346q0 75 35.5 136.5t86 101.5t101 74.5t86 72t35.5 76.5v116q0 29 27 29h38q25 0 25 -29v-118q0 -46 -25.5 -88t-63.5 -72t-82 -63.5t-82 -64 t-63.5 -74t-25.5 -91.5q0 -85 68.5 -149t183.5 -64q39 0 74.5 6.5t63.5 18.5t50.5 24.5t41.5 29t30 27t22.5 23.5t12.5 14q15 15 35 2l20 -14q13 -9 13 -20q0 -9 -7 -19q-5 -7 -14 -19t-41.5 -42t-71 -52.5t-102 -41.5t-133.5 -19q-153 0 -245.5 80.5t-92.5 208.5z"/>
<glyph glyph-name="Agrave" horiz-adv-x="1337" unicode="À" d="M496 1794l20 41q6 11 17 11q8 0 18 -5l336 -184q19 -11 12 -29l-10 -20q-8 -17 -33 -6l-352 161q-19 9 -8 31zM313 475h711l-350 825h-4zM12 25l631 1425q7 14 25 14h6q19 0 26 -14l625 -1425q2 -6 2 -10q0 -15 -20 -15h-54q-19 0 -28 18l-166 377h-783l-163 -377 q-9 -18 -29 -18h-57q-17 0 -17 13q0 5 2 12z"/>
<glyph glyph-name="Aacute" horiz-adv-x="1337" unicode="Á" d="M494 1628q-7 18 12 29l336 184q10 5 18 5q11 0 17 -11l20 -41q11 -22 -8 -31l-352 -161q-25 -11 -33 6zM313 475h711l-350 825h-4zM12 25l631 1425q7 14 25 14h6q19 0 26 -14l625 -1425q2 -6 2 -10q0 -15 -20 -15h-54q-19 0 -28 18l-166 377h-783l-163 -377 q-9 -18 -29 -18h-57q-17 0 -17 13q0 5 2 12z"/>
<glyph glyph-name="Acircumflex" horiz-adv-x="1337" unicode="Â" d="M395 1599q-11 14 8 29l248 201q10 10 21 10h6q10 0 20 -10l248 -201q19 -15 8 -29l-18 -22q-13 -17 -31 -4l-231 172l-230 -172q-17 -13 -30 4zM313 475h711l-350 825h-4zM12 25l631 1425q7 14 25 14h6q19 0 26 -14l625 -1425q2 -6 2 -10q0 -15 -20 -15h-54q-19 0 -28 18 l-166 377h-783l-163 -377q-9 -18 -29 -18h-57q-17 0 -17 13q0 5 2 12z"/>
<glyph glyph-name="Atilde" horiz-adv-x="1337" unicode="Ã" d="M371 1675q32 86 71 125q50 51 119 51q41 0 70.5 -19t47 -46.5t32.5 -55t35 -46.5t47 -19q77 0 116 121q3 10 12.5 14.5t18.5 -0.5l23 -8q17 -8 12 -27q-3 -11 -7.5 -25t-20 -43t-35 -51t-53 -39.5t-73.5 -17.5t-69.5 19.5t-46.5 47.5t-32.5 55.5t-36 47t-46.5 19.5 q-27 0 -48.5 -13t-35.5 -37t-20 -39t-13 -38q-7 -25 -30 -15l-25 11q-19 6 -12 28zM313 475h711l-350 825h-4zM12 25l631 1425q7 14 25 14h6q19 0 26 -14l625 -1425q2 -6 2 -10q0 -15 -20 -15h-54q-19 0 -28 18l-166 377h-783l-163 -377q-9 -18 -29 -18h-57q-17 0 -17 13 q0 5 2 12z"/>
<glyph glyph-name="Adieresis" horiz-adv-x="1337" unicode="Ä" d="M821 1708q0 31 20.5 51.5t49.5 20.5q31 0 51.5 -20.5t20.5 -51.5q0 -28 -21 -48t-51 -20q-29 0 -49.5 20t-20.5 48zM393 1708q0 31 20.5 51.5t49.5 20.5q31 0 51.5 -20.5t20.5 -51.5q0 -28 -21 -48t-51 -20q-29 0 -49.5 20t-20.5 48zM313 475h711l-350 825h-4zM12 25 l631 1425q7 14 25 14h6q19 0 26 -14l625 -1425q2 -6 2 -10q0 -15 -20 -15h-54q-19 0 -28 18l-166 377h-783l-163 -377q-9 -18 -29 -18h-57q-17 0 -17 13q0 5 2 12z"/>
<glyph glyph-name="Aring" horiz-adv-x="1337" unicode="Å" d="M526 1761q0 -61 45 -106t107 -45t106.5 45t44.5 106q0 62 -45 107t-106 45q-62 0 -107 -45.5t-45 -106.5zM461 1761q0 92 62.5 155.5t154.5 63.5q91 0 155 -63.5t64 -155.5t-64 -154.5t-155 -62.5q-92 0 -154.5 62.5t-62.5 154.5zM313 475h711l-350 825h-4zM12 25 l631 1425q7 14 25 14h6q19 0 26 -14l625 -1425q2 -6 2 -10q0 -15 -20 -15h-54q-19 0 -28 18l-166 377h-783l-163 -377q-9 -18 -29 -18h-57q-17 0 -17 13q0 5 2 12z"/>
<glyph glyph-name="AE" horiz-adv-x="1873" unicode="Æ" d="M367 475h497v782zM-16 35l870 1364q11 18 21 26.5t30 8.5h805q12 0 19.5 -8t7.5 -19v-33q0 -11 -7.5 -18.5t-19.5 -7.5h-756v-568h658q10 0 18 -8t8 -18v-35q0 -27 -26 -27h-658v-606h756q27 0 27 -29v-30q0 -11 -7.5 -19t-19.5 -8h-819q-11 0 -19 8t-8 19v368h-545 l-237 -377q-13 -18 -33 -18h-57q-9 0 -12.5 4.5t-3.5 9.5q0 9 8 21z"/>
<glyph glyph-name="Ccedilla" horiz-adv-x="1470" unicode="Ç" d="M115 715q0 151 58.5 288t157.5 235.5t236.5 157t288.5 58.5q289 0 498 -190q8 -8 8.5 -18.5t-6.5 -18.5l-33 -35q-17 -16 -35 2q-189 168 -432 168q-176 0 -323 -87.5t-231.5 -236t-84.5 -323.5q0 -174 84.5 -321.5t231.5 -234.5t323 -87q124 0 228 44.5t204 127.5 q18 15 33 4l35 -35q8 -6 8 -16.5t-8 -18.5q-102 -99 -231 -148.5t-269 -49.5q-5 0 -15.5 1t-15.5 1v-93q98 -11 158.5 -61t60.5 -137q0 -83 -57.5 -141t-142.5 -58q-56 0 -100.5 22t-59.5 48q-15 24 2 37l21 16q15 11 32 -6q37 -43 105 -43q54 0 87.5 35.5t33.5 87.5 q0 118 -189 139q-24 5 -24 27v133q-178 23 -323.5 123.5t-229.5 259.5t-84 344z"/>
<glyph glyph-name="Egrave" horiz-adv-x="1224" unicode="È" d="M463 1794l20 41q6 11 17 11q8 0 18 -5l336 -184q19 -11 12 -29l-10 -20q-8 -17 -33 -6l-352 161q-19 9 -8 31zM217 27v1380q0 11 8.5 19t18.5 8h821q11 0 19 -8t8 -19v-35q0 -10 -8 -18t-19 -8h-750v-566h650q11 0 18.5 -8t7.5 -18v-35q0 -11 -8 -19t-18 -8h-650v-606 h750q11 0 19 -8t8 -19v-32q0 -11 -8 -19t-19 -8h-821q-10 0 -18.5 8t-8.5 19z"/>
<glyph glyph-name="Eacute" horiz-adv-x="1224" unicode="É" d="M461 1628q-7 18 12 29l336 184q10 5 18 5q11 0 17 -11l20 -41q11 -22 -8 -31l-352 -161q-25 -11 -33 6zM217 27v1380q0 11 8.5 19t18.5 8h821q11 0 19 -8t8 -19v-35q0 -10 -8 -18t-19 -8h-750v-566h650q11 0 18.5 -8t7.5 -18v-35q0 -11 -8 -19t-18 -8h-650v-606h750 q11 0 19 -8t8 -19v-32q0 -11 -8 -19t-19 -8h-821q-10 0 -18.5 8t-8.5 19z"/>
<glyph glyph-name="Ecircumflex" horiz-adv-x="1224" unicode="Ê" d="M362 1599q-11 13 9 29l247 201q10 10 21 10h6q11 0 21 -10l247 -201q20 -16 9 -29l-19 -22q-13 -17 -31 -4l-231 172l-229 -172q-18 -13 -31 4zM217 27v1380q0 11 8.5 19t18.5 8h821q11 0 19 -8t8 -19v-35q0 -10 -8 -18t-19 -8h-750v-566h650q11 0 18.5 -8t7.5 -18v-35 q0 -11 -8 -19t-18 -8h-650v-606h750q11 0 19 -8t8 -19v-32q0 -11 -8 -19t-19 -8h-821q-10 0 -18.5 8t-8.5 19z"/>
<glyph glyph-name="Edieresis" horiz-adv-x="1224" unicode="Ë" d="M797 1708q0 31 20 51.5t49 20.5q31 0 51.5 -20.5t20.5 -51.5q0 -28 -21 -48t-51 -20q-29 0 -49 20t-20 48zM369 1708q0 31 20 51.5t49 20.5q31 0 51.5 -20.5t20.5 -51.5q0 -28 -21 -48t-51 -20q-29 0 -49 20t-20 48zM217 27v1380q0 11 8.5 19t18.5 8h821q11 0 19 -8 t8 -19v-35q0 -10 -8 -18t-19 -8h-750v-566h650q11 0 18.5 -8t7.5 -18v-35q0 -11 -8 -19t-18 -8h-650v-606h750q11 0 19 -8t8 -19v-32q0 -11 -8 -19t-19 -8h-821q-10 0 -18.5 8t-8.5 19z"/>
<glyph glyph-name="Igrave" horiz-adv-x="532" unicode="Ì" d="M217 27v1380q0 11 8.5 19t18.5 8h45q10 0 18 -8t8 -19v-1380q0 -12 -8.5 -19.5t-19.5 -7.5h-43q-10 0 -18.5 8t-8.5 19zM84 1794l20 41q6 11 17 11q8 0 18 -5l336 -184q14 -8 14 -20q0 -4 -2 -9l-10 -20q-5 -10 -16 -10q-7 0 -17 4l-352 161q-12 6 -12 17q0 6 4 14z"/>
<glyph glyph-name="Iacute" horiz-adv-x="532" unicode="Í" d="M217 27v1380q0 11 8.5 19t18.5 8h45q10 0 18 -8t8 -19v-1380q0 -12 -8.5 -19.5t-19.5 -7.5h-43q-10 0 -18.5 8t-8.5 19zM82 1628q-2 5 -2 9q0 12 14 20l336 184q10 5 18 5q11 0 17 -11l20 -41q4 -8 4 -14q0 -11 -12 -17l-352 -161q-10 -4 -17 -4q-11 0 -16 10z"/>
<glyph glyph-name="Icircumflex" horiz-adv-x="532" unicode="Î" d="M217 27v1380q0 11 8.5 19t18.5 8h45q10 0 18 -8t8 -19v-1380q0 -12 -8.5 -19.5t-19.5 -7.5h-43q-10 0 -18.5 8t-8.5 19zM-16 1599q-4 5 -4 10q0 9 12 19l248 201q10 10 20 10h6q11 0 21 -10l248 -201q12 -10 12 -19q0 -5 -4 -10l-19 -22q-7 -10 -16 -10q-7 0 -14 6 l-232 172l-229 -172q-8 -6 -15 -6q-9 0 -16 10z"/>
<glyph glyph-name="Idieresis" horiz-adv-x="532" unicode="Ï" d="M410 1708q0 31 20 51.5t49 20.5q31 0 51.5 -20.5t20.5 -51.5q0 -28 -21 -48t-51 -20q-29 0 -49 20t-20 48zM217 27v1380q0 11 8.5 19t18.5 8h45q10 0 18 -8t8 -19v-1380q0 -12 -8.5 -19.5t-19.5 -7.5h-43q-10 0 -18.5 8t-8.5 19zM-18 1708q0 31 20 51.5t49 20.5 q31 0 51.5 -20.5t20.5 -51.5q0 -28 -21 -48t-51 -20q-29 0 -49 20t-20 48z"/>
<glyph glyph-name="Eth" horiz-adv-x="1517" unicode="Ð" d="M319 88h347q131 0 248.5 48.5t201.5 132.5t133 201t49 249q0 174 -83 318t-228.5 226.5t-320.5 82.5h-347v-603h512q11 0 19 -8t8 -18v-12q0 -10 -8 -17.5t-19 -7.5h-512v-592zM127 707v10q0 11 7.5 18.5t17.5 7.5h71v664q0 11 7.5 19t17.5 8h434q146 0 279.5 -57 t230 -153t154 -228t57.5 -277q0 -196 -97 -361.5t-263 -261.5t-361 -96h-434q-10 0 -17.5 8t-7.5 19v653h-71q-10 0 -17.5 8t-7.5 19z"/>
<glyph glyph-name="Ntilde" horiz-adv-x="1579" unicode="Ñ" d="M496 1675q32 86 71 125q50 51 119 51q41 0 70.5 -19t47 -46.5t32.5 -55t35 -46.5t47 -19q77 0 116 121q3 10 12.5 14.5t18.5 -0.5l22 -8q18 -9 13 -27q-3 -11 -7.5 -25t-20 -43t-35 -51t-53 -39.5t-73.5 -17.5t-69.5 19.5t-46.5 47.5t-32.5 55.5t-36 47t-46.5 19.5 q-27 0 -48.5 -13t-35.5 -37t-20 -39t-13 -38q-3 -11 -12 -15t-19 0l-24 11q-19 6 -12 28zM217 27v1400q0 12 9.5 19.5t21.5 7.5h35l983 -1280h2v1233q0 11 8 19t18 8h41q11 0 19 -8t8 -19v-1401q0 -13 -10 -19.5t-23 -6.5h-26q-14 0 -992 1292h-2v-1245q0 -11 -8 -19t-18 -8 h-39q-10 0 -18.5 8t-8.5 19z"/>
<glyph glyph-name="Ograve" horiz-adv-x="1705" unicode="Ò" d="M672 1794l20 41q6 11 17 11q8 0 18 -5l336 -184q19 -11 12 -29l-10 -20q-8 -17 -33 -6l-352 161q-19 9 -8 31zM205 715q0 -176 86.5 -324.5t235.5 -234.5t325 -86t325.5 86t236.5 234.5t87 324.5t-87 325.5t-236.5 236.5t-325.5 87t-325 -87t-235.5 -236.5t-86.5 -325.5z M115 715q0 151 58 288t156.5 236t235 157t287.5 58q152 0 289 -58t235.5 -157t156.5 -236t58 -288q0 -152 -58 -288.5t-156.5 -234t-235.5 -155t-289 -57.5q-151 0 -287.5 57.5t-235 155t-156.5 234t-58 288.5z"/>
<glyph glyph-name="Oacute" horiz-adv-x="1705" unicode="Ó" d="M670 1628q-7 18 12 29l336 184q10 5 18 5q11 0 17 -11l20 -41q11 -22 -8 -31l-352 -161q-25 -11 -33 6zM205 715q0 -176 86.5 -324.5t235.5 -234.5t325 -86t325.5 86t236.5 234.5t87 324.5t-87 325.5t-236.5 236.5t-325.5 87t-325 -87t-235.5 -236.5t-86.5 -325.5z M115 715q0 151 58 288t156.5 236t235 157t287.5 58q152 0 289 -58t235.5 -157t156.5 -236t58 -288q0 -152 -58 -288.5t-156.5 -234t-235.5 -155t-289 -57.5q-151 0 -287.5 57.5t-235 155t-156.5 234t-58 288.5z"/>
<glyph glyph-name="Ocircumflex" horiz-adv-x="1705" unicode="Ô" d="M571 1599q-11 13 9 29l247 201q10 10 21 10h6q10 0 20 -10l248 -201q19 -15 8 -29l-18 -22q-13 -17 -31 -4l-231 172l-229 -172q-18 -13 -31 4zM205 715q0 -176 86.5 -324.5t235.5 -234.5t325 -86t325.5 86t236.5 234.5t87 324.5t-87 325.5t-236.5 236.5t-325.5 87 t-325 -87t-235.5 -236.5t-86.5 -325.5zM115 715q0 151 58 288t156.5 236t235 157t287.5 58q152 0 289 -58t235.5 -157t156.5 -236t58 -288q0 -152 -58 -288.5t-156.5 -234t-235.5 -155t-289 -57.5q-151 0 -287.5 57.5t-235 155t-156.5 234t-58 288.5z"/>
<glyph glyph-name="Otilde" horiz-adv-x="1705" unicode="Õ" d="M547 1675q32 86 71 125q50 51 119 51q41 0 70.5 -19t47 -46.5t32.5 -55t35 -46.5t47 -19q77 0 116 121q3 10 12.5 14.5t18.5 -0.5l23 -8q17 -8 12 -27q-3 -11 -7.5 -25t-20 -43t-34.5 -51t-52.5 -39.5t-73.5 -17.5t-69.5 19.5t-47 47.5t-33 55.5t-36 47t-46.5 19.5 q-27 0 -48.5 -13t-35.5 -37t-20 -39t-13 -38q-7 -25 -30 -15l-25 11q-19 6 -12 28zM205 715q0 -176 86.5 -324.5t235.5 -234.5t325 -86t325.5 86t236.5 234.5t87 324.5t-87 325.5t-236.5 236.5t-325.5 87t-325 -87t-235.5 -236.5t-86.5 -325.5zM115 715q0 151 58 288 t156.5 236t235 157t287.5 58q152 0 289 -58t235.5 -157t156.5 -236t58 -288q0 -152 -58 -288.5t-156.5 -234t-235.5 -155t-289 -57.5q-151 0 -287.5 57.5t-235 155t-156.5 234t-58 288.5z"/>
<glyph glyph-name="Odieresis" horiz-adv-x="1705" unicode="Ö" d="M997 1708q0 31 20.5 51.5t49.5 20.5q31 0 51.5 -20.5t20.5 -51.5q0 -28 -21 -48t-51 -20q-29 0 -49.5 20t-20.5 48zM569 1708q0 31 20.5 51.5t49.5 20.5q31 0 51.5 -20.5t20.5 -51.5q0 -28 -21 -48t-51 -20q-29 0 -49.5 20t-20.5 48zM205 715q0 -176 86.5 -324.5 t235.5 -234.5t325 -86t325.5 86t236.5 234.5t87 324.5t-87 325.5t-236.5 236.5t-325.5 87t-325 -87t-235.5 -236.5t-86.5 -325.5zM115 715q0 151 58 288t156.5 236t235 157t287.5 58q152 0 289 -58t235.5 -157t156.5 -236t58 -288q0 -152 -58 -288.5t-156.5 -234 t-235.5 -155t-289 -57.5q-151 0 -287.5 57.5t-235 155t-156.5 234t-58 288.5z"/>
<glyph glyph-name="multiply" d="M178 445q0 11 8 18l248 248l-248 247q-6 8 -6 20t6 19l23 23q7 8 19 8t20 -8l248 -248l247 250q7 6 18.5 5.5t18.5 -7.5l25 -23q8 -10 8 -19t-8 -17l-248 -250l248 -248q7 -7 7 -19t-7 -18l-25 -23q-6 -8 -12 -8.5t-7 -0.5q-10 0 -16 7l-249 250l-250 -248 q-6 -7 -17.5 -7t-17.5 7l-25 23q-8 8 -8 19z" unicode="×"/>
<glyph glyph-name="Oslash" horiz-adv-x="1705" unicode="Ø" d="M412 242q87 -83 200.5 -127.5t241.5 -44.5q176 0 325.5 86t236.5 234.5t87 324.5q0 245 -164 430zM207 715q0 -247 160 -428l929 903q-187 174 -442 174q-176 0 -325 -87t-235.5 -236.5t-86.5 -325.5zM117 715q0 151 57.5 288t156 236t235 157t288.5 58q145 0 275.5 -53 t230.5 -148l135 131q6 8 16.5 8t18.5 -8l8 -8q8 -8 8 -19t-8 -18l-133 -131q88 -101 138 -228t50 -265q0 -152 -58 -288.5t-157 -234t-236 -155t-288 -57.5q-148 0 -278.5 51t-229.5 145l-131 -127q-6 -7 -16.5 -7t-18.5 7l-8 8q-8 7 -8 18t8 19l129 127q-88 100 -136 227 t-48 267z"/>
<glyph glyph-name="Ugrave" horiz-adv-x="1474" unicode="Ù" d="M573 1794l21 41q6 11 17 11q8 0 18 -5l336 -184q19 -11 12 -29l-10 -20q-8 -17 -33 -6l-352 161q-20 10 -9 31zM201 522v885q0 11 8 19t18 8h43q10 0 18.5 -8t8.5 -19v-875q0 -202 118.5 -330t319.5 -128q202 0 322.5 127.5t120.5 328.5v877q0 27 28 27h41q11 0 19 -8 t8 -19v-885q0 -237 -148.5 -389.5t-390.5 -152.5q-240 0 -387 152t-147 390z"/>
<glyph glyph-name="Uacute" horiz-adv-x="1474" unicode="Ú" d="M571 1628q-7 18 13 29l336 184q10 5 17 5q11 0 17 -11l21 -41q11 -22 -8 -31l-353 -161q-24 -11 -32 6zM201 522v885q0 11 8 19t18 8h43q10 0 18.5 -8t8.5 -19v-875q0 -202 118.5 -330t319.5 -128q202 0 322.5 127.5t120.5 328.5v877q0 27 28 27h41q11 0 19 -8t8 -19 v-885q0 -237 -148.5 -389.5t-390.5 -152.5q-240 0 -387 152t-147 390z"/>
<glyph glyph-name="Ucircumflex" horiz-adv-x="1474" unicode="Û" d="M473 1599q-11 14 8 29l248 201q10 10 21 10h6q10 0 20 -10l248 -201q19 -15 8 -29l-18 -22q-13 -17 -31 -4l-231 172l-230 -172q-17 -13 -30 4zM201 522v885q0 11 8 19t18 8h43q10 0 18.5 -8t8.5 -19v-875q0 -202 118.5 -330t319.5 -128q202 0 322.5 127.5t120.5 328.5 v877q0 27 28 27h41q11 0 19 -8t8 -19v-885q0 -237 -148.5 -389.5t-390.5 -152.5q-240 0 -387 152t-147 390z"/>
<glyph glyph-name="Udieresis" horiz-adv-x="1474" unicode="Ü" d="M899 1708q0 31 20.5 51.5t49.5 20.5q31 0 51 -20.5t20 -51.5q0 -28 -20.5 -48t-50.5 -20q-29 0 -49.5 20t-20.5 48zM471 1708q0 31 20.5 51.5t49.5 20.5q31 0 51 -20.5t20 -51.5q0 -28 -20.5 -48t-50.5 -20q-29 0 -49.5 20t-20.5 48zM201 522v885q0 11 8 19t18 8h43 q10 0 18.5 -8t8.5 -19v-875q0 -202 118.5 -330t319.5 -128q202 0 322.5 127.5t120.5 328.5v877q0 27 28 27h41q11 0 19 -8t8 -19v-885q0 -237 -148.5 -389.5t-390.5 -152.5q-240 0 -387 152t-147 390z"/>
<glyph glyph-name="Yacute" horiz-adv-x="1146" unicode="Ý" d="M365 1628q-7 18 12 29l336 184q10 5 18 5q11 0 17 -11l20 -41q11 -22 -8 -31l-352 -161q-25 -11 -33 6zM-6.5 1427.5q3.5 6.5 18.5 6.5h62q16 0 26 -13l467 -637l475 637q10 13 27 13h61q15 0 19 -6.5t4 -10.5q0 -6 -6 -14l-533 -705v-671q0 -11 -8 -19t-18 -8 q-3 0 -9.5 -0.5t-10.5 -0.5t-7.5 0.5t-11.5 1t-12.5 2t-9 4.5t-7 8t-2.5 12v669l-522 707q-6 8 -6 14q0 4 3.5 10.5z"/>
<glyph glyph-name="Thorn" horiz-adv-x="1220" unicode="Þ" d="M313 350h367q152 0 261.5 109.5t109.5 265.5q0 150 -110 254t-263 104h-365v-733zM217 27v1380q0 11 8.5 19t18.5 8h43q10 0 18 -8t8 -19v-227h371q125 0 231.5 -61.5t169 -167t62.5 -228.5q0 -127 -62.5 -234t-168.5 -169t-230 -62h-373v-231q0 -11 -9 -19t-23 -8h-37 q-10 0 -18.5 8t-8.5 19z"/>
<glyph glyph-name="germandbls" horiz-adv-x="1134" unicode="ß" d="M156 27v813q0 304 111 459t325 155q69 0 130 -18t111.5 -54.5t79.5 -99t29 -143.5q0 -64 -28 -132.5t-62 -115t-62 -94.5t-28 -76q0 -21 30.5 -51.5t73.5 -67.5t86.5 -81.5t74 -108t30.5 -133.5q0 -76 -28.5 -135t-77.5 -94t-109 -52.5t-127 -17.5q-45 0 -84 5t-64 12.5 t-42.5 17t-24 18.5t-4.5 16l12 39q9 27 31 16q24 -14 74 -29.5t102 -15.5q107 0 178.5 58t71.5 162q0 57 -31 111.5t-75.5 96.5t-88.5 80t-75 76.5t-31 73.5q0 37 29 91.5t64 103t64 111t29 112.5q0 78 -38.5 133.5t-95.5 79.5t-126 24q-169 0 -256.5 -134t-87.5 -398v-813 q0 -27 -27 -27h-41q-10 0 -16 8t-6 19z"/>
<glyph glyph-name="agrave" horiz-adv-x="874" unicode="à" d="M279 1337l20 41q6 11 17 11q8 0 18 -5l336 -184q19 -11 12 -29l-10 -20q-8 -17 -33 -6l-352 162q-18 9 -8 30zM174 254q0 -88 54.5 -141.5t140.5 -53.5q85 0 161 40.5t111 86.5v226q-97 43 -207 43q-117 0 -188.5 -55t-71.5 -146zM90 252q0 121 93 198.5t251 77.5 q104 0 207 -36q0 60 -3 98t-13.5 74t-30 55.5t-52.5 31t-81 11.5q-38 0 -75 -5t-65.5 -13t-49 -15t-37.5 -14t-19 -8q-24 -9 -31 16l-10 25q-7 22 12 30q10 7 37 18.5t97.5 27.5t146.5 16q53 0 93.5 -9.5t67.5 -24.5t46 -42.5t29.5 -53t16 -68t6.5 -75.5t1 -86v-454 q0 -11 -8.5 -19t-18.5 -8h-24q-18 0 -25 23l-8 73q-50 -47 -123.5 -81.5t-161.5 -34.5q-116 0 -192 74t-76 198z"/>
<glyph glyph-name="aacute" horiz-adv-x="874" unicode="á" d="M272 1178q-7 17 13 28l338 178q9 6 17 6q11 0 17 -12l21 -41q11 -22 -19 -37l-346 -157q-14 -5 -18.5 -3.5t-9.5 11.5zM174 254q0 -88 54.5 -141.5t140.5 -53.5q85 0 161 40.5t111 86.5v226q-97 43 -207 43q-117 0 -188.5 -55t-71.5 -146zM90 252q0 121 93 198.5 t251 77.5q104 0 207 -36q0 60 -3 98t-13.5 74t-30 55.5t-52.5 31t-81 11.5q-38 0 -75 -5t-65.5 -13t-49 -15t-37.5 -14t-19 -8q-24 -9 -31 16l-10 25q-7 22 12 30q10 7 37 18.5t97.5 27.5t146.5 16q53 0 93.5 -9.5t67.5 -24.5t46 -42.5t29.5 -53t16 -68t6.5 -75.5t1 -86 v-454q0 -11 -8.5 -19t-18.5 -8h-24q-18 0 -25 23l-8 73q-50 -47 -123.5 -81.5t-161.5 -34.5q-116 0 -192 74t-76 198z"/>
<glyph glyph-name="acircumflex" horiz-adv-x="874" unicode="â" d="M174 254q0 -88 54.5 -141.5t140.5 -53.5q85 0 161 40.5t111 86.5v226q-97 43 -207 43q-117 0 -188.5 -55t-71.5 -146zM158 1153q-11 14 8 29l248 200q11 11 20 11h6q10 0 21 -11l248 -200q19 -15 8 -29l-19 -23q-13 -17 -30 -4l-232 172l-229 -172q-18 -13 -31 4zM90 252 q0 121 93 198.5t251 77.5q104 0 207 -36q0 60 -3 98t-13.5 74t-30 55.5t-52.5 31t-81 11.5q-38 0 -75 -5t-65.5 -13t-49 -15t-37.5 -14t-19 -8q-24 -9 -31 16l-10 25q-7 22 12 30q10 7 37 18.5t97.5 27.5t146.5 16q53 0 93.5 -9.5t67.5 -24.5t46 -42.5t29.5 -53t16 -68 t6.5 -75.5t1 -86v-454q0 -11 -8.5 -19t-18.5 -8h-24q-18 0 -25 23l-8 73q-50 -47 -123.5 -81.5t-161.5 -34.5q-116 0 -192 74t-76 198z"/>
<glyph glyph-name="atilde" horiz-adv-x="874" unicode="ã" d="M174 254q0 -88 54.5 -141.5t140.5 -53.5q85 0 161 40.5t111 86.5v226q-97 43 -207 43q-117 0 -188.5 -55t-71.5 -146zM123 1225q32 86 71 125q50 51 119 51q41 0 70.5 -19.5t47 -46.5t32.5 -54.5t35 -47t47 -19.5q78 0 117 121q3 10 12 14.5t18 0.5l23 -9q13 -6 13 -19 q0 -3 -1 -7q-3 -11 -7.5 -25t-20 -43t-34.5 -51t-52.5 -39.5t-73.5 -17.5t-69.5 19.5t-47 47t-33 55t-36 47t-46.5 19.5q-27 0 -48.5 -13t-35.5 -37t-20 -39t-13 -38q-7 -24 -30 -14l-25 10q-19 6 -12 29zM90 252q0 121 93 198.5t251 77.5q104 0 207 -36q0 60 -3 98 t-13.5 74t-30 55.5t-52.5 31t-81 11.5q-38 0 -75 -5t-65.5 -13t-49 -15t-37.5 -14t-19 -8q-24 -9 -31 16l-10 25q-7 22 12 30q10 7 37 18.5t97.5 27.5t146.5 16q53 0 93.5 -9.5t67.5 -24.5t46 -42.5t29.5 -53t16 -68t6.5 -75.5t1 -86v-454q0 -11 -8.5 -19t-18.5 -8h-24 q-18 0 -25 23l-8 73q-50 -47 -123.5 -81.5t-161.5 -34.5q-116 0 -192 74t-76 198z"/>
<glyph glyph-name="adieresis" horiz-adv-x="874" unicode="ä" d="M592 1288q0 31 19 51.5t48 20.5q31 0 51.5 -20.5t20.5 -51.5q0 -28 -20.5 -47.5t-51.5 -19.5q-29 0 -48 19.5t-19 47.5zM199 1288q0 31 20 51.5t49 20.5q31 0 50.5 -20.5t19.5 -51.5q0 -28 -20 -47.5t-50 -19.5q-29 0 -49 19.5t-20 47.5zM174 254q0 -88 54.5 -141.5 t140.5 -53.5q85 0 161 40.5t111 86.5v226q-97 43 -207 43q-117 0 -188.5 -55t-71.5 -146zM90 252q0 121 93 198.5t251 77.5q104 0 207 -36q0 60 -3 98t-13.5 74t-30 55.5t-52.5 31t-81 11.5q-38 0 -75 -5t-65.5 -13t-49 -15t-37.5 -14t-19 -8q-24 -9 -31 16l-10 25 q-7 22 12 30q10 7 37 18.5t97.5 27.5t146.5 16q53 0 93.5 -9.5t67.5 -24.5t46 -42.5t29.5 -53t16 -68t6.5 -75.5t1 -86v-454q0 -11 -8.5 -19t-18.5 -8h-24q-18 0 -25 23l-8 73q-50 -47 -123.5 -81.5t-161.5 -34.5q-116 0 -192 74t-76 198z"/>
<glyph glyph-name="aring" horiz-adv-x="874" unicode="å" d="M287 1235q0 -61 45.5 -106.5t107.5 -45.5q60 0 105 45.5t45 106.5t-45 106t-105 45q-62 0 -107.5 -45t-45.5 -106zM221 1235q0 92 63.5 155.5t155.5 63.5q91 0 154 -63.5t63 -155.5t-63 -154.5t-154 -62.5q-92 0 -155.5 62.5t-63.5 154.5zM174 254q0 -88 54.5 -141.5 t140.5 -53.5q85 0 161 40.5t111 86.5v226q-97 43 -207 43q-117 0 -188.5 -55t-71.5 -146zM90 252q0 121 93 198.5t251 77.5q104 0 207 -36q0 60 -3 98t-13.5 74t-30 55.5t-52.5 31t-81 11.5q-38 0 -75 -5t-65.5 -13t-49 -15t-37.5 -14t-19 -8q-24 -9 -31 16l-10 25 q-7 22 12 30q10 7 37 18.5t97.5 27.5t146.5 16q53 0 93.5 -9.5t67.5 -24.5t46 -42.5t29.5 -53t16 -68t6.5 -75.5t1 -86v-454q0 -11 -8.5 -19t-18.5 -8h-24q-18 0 -25 23l-8 73q-50 -47 -123.5 -81.5t-161.5 -34.5q-116 0 -192 74t-76 198z"/>
<glyph glyph-name="ae" horiz-adv-x="1443" unicode="æ" d="M721 459h547q0 127 -74.5 213t-206.5 86q-87 0 -156 -38.5t-110 -105.5v-155zM174 254q0 -93 59.5 -144t147.5 -51q81 0 155 36.5t107 80.5v246q-109 31 -209 31q-114 0 -187 -54.5t-73 -144.5zM92 256q0 120 90 195t242 75q69 0 131.5 -9t85.5 -17q0 61 -3 98 t-12.5 71.5t-29 52t-51 28t-78.5 10.5q-40 0 -78.5 -5t-68.5 -13t-51 -15t-39 -14.5t-19 -7.5q-24 -7 -31 16l-8 33q-3 19 18 26q13 7 37 17t97.5 26.5t146.5 16.5q101 0 156.5 -29.5t79.5 -91.5q111 121 280 121q161 0 266 -106t105 -269q0 -17 -0.5 -27t-3 -24.5 t-9.5 -21.5t-18 -7h-606v-172q43 -70 114 -111t158 -41q129 0 242 76q25 17 37 0l20 -28q11 -14 -8 -33q-34 -34 -121 -65t-176 -31q-185 0 -299 139q-46 -55 -134 -97t-185 -42q-122 0 -199.5 75t-77.5 201z"/>
<glyph glyph-name="ccedilla" horiz-adv-x="944" unicode="ç" d="M96 410q0 120 59 219.5t157.5 155t213.5 55.5q107 0 186.5 -41t116.5 -88q17 -20 -4 -37l-20 -21q-19 -19 -43 4q-26 30 -89 62.5t-147 32.5q-141 0 -239.5 -97.5t-98.5 -242.5q0 -147 99 -246.5t237 -99.5q54 0 99.5 13.5t80 39t46 36t30.5 31.5q20 23 39 4l23 -20 q10 -10 10 -20q0 -6 -4 -13q-13 -21 -40.5 -45.5t-67.5 -51t-97 -43.5t-117 -17h-14v-91q98 -11 158.5 -61t60.5 -137q0 -83 -58 -141t-143 -58q-56 0 -100 22t-59 48q-15 24 2 37l20 16q15 12 33 -6q37 -43 104 -43q54 0 87.5 35.5t33.5 87.5q0 118 -188 139q-25 6 -25 27 v135q-148 30 -245 145.5t-97 274.5z"/>
<glyph glyph-name="egrave" horiz-adv-x="956" unicode="è" d="M297 1337l20 41q6 11 17 11q8 0 18 -5l336 -184q19 -11 12 -29l-10 -20q-8 -17 -33 -6l-352 162q-18 9 -8 30zM188 459h592q0 127 -74 213t-206 86t-218 -85t-94 -214zM96 412q0 181 111 304.5t293 123.5q161 0 265.5 -106t104.5 -269q0 -19 -0.5 -27.5t-3 -23.5t-9 -22 t-17.5 -7h-654q6 -135 95.5 -229.5t224.5 -94.5q129 0 242 76q14 9 21 9.5t15 -9.5l21 -28q11 -14 -8 -33q-34 -34 -121 -65t-176 -31q-183 0 -293.5 123.5t-110.5 308.5z"/>
<glyph glyph-name="eacute" horiz-adv-x="956" unicode="é" d="M297 1178q-7 17 12 28l338 178q10 6 18 6q11 0 17 -12l20 -41q11 -22 -18 -37l-346 -157q-14 -5 -19 -3.5t-10 11.5zM188 459h592q0 127 -74 213t-206 86t-218 -85t-94 -214zM96 412q0 181 111 304.5t293 123.5q161 0 265.5 -106t104.5 -269q0 -19 -0.5 -27.5t-3 -23.5 t-9 -22t-17.5 -7h-654q6 -135 95.5 -229.5t224.5 -94.5q129 0 242 76q14 9 21 9.5t15 -9.5l21 -28q11 -14 -8 -33q-34 -34 -121 -65t-176 -31q-183 0 -293.5 123.5t-110.5 308.5z"/>
<glyph glyph-name="ecircumflex" horiz-adv-x="956" unicode="ê" d="M217 1153q-11 14 8 29l248 200q11 11 21 11h6q9 0 20 -11l248 -200q19 -15 8 -29l-18 -23q-13 -17 -31 -4l-231 172l-230 -172q-17 -13 -30 4zM188 459h592q0 127 -74 213t-206 86t-218 -85t-94 -214zM96 412q0 181 111 304.5t293 123.5q161 0 265.5 -106t104.5 -269 q0 -19 -0.5 -27.5t-3 -23.5t-9 -22t-17.5 -7h-654q6 -135 95.5 -229.5t224.5 -94.5q129 0 242 76q14 9 21 9.5t15 -9.5l21 -28q11 -14 -8 -33q-34 -34 -121 -65t-176 -31q-183 0 -293.5 123.5t-110.5 308.5z"/>
<glyph glyph-name="edieresis" horiz-adv-x="956" unicode="ë" d="M625 1288q0 31 19 51.5t48 20.5q31 0 51.5 -20.5t20.5 -51.5q0 -28 -20.5 -47.5t-51.5 -19.5q-29 0 -48 19.5t-19 47.5zM231 1288q0 31 20.5 51.5t49.5 20.5q31 0 50.5 -20.5t19.5 -51.5q0 -28 -20 -47.5t-50 -19.5q-29 0 -49.5 19.5t-20.5 47.5zM188 459h592 q0 127 -74 213t-206 86t-218 -85t-94 -214zM96 412q0 181 111 304.5t293 123.5q161 0 265.5 -106t104.5 -269q0 -19 -0.5 -27.5t-3 -23.5t-9 -22t-17.5 -7h-654q6 -135 95.5 -229.5t224.5 -94.5q129 0 242 76q14 9 21 9.5t15 -9.5l21 -28q11 -14 -8 -33q-34 -34 -121 -65 t-176 -31q-183 0 -293.5 123.5t-110.5 308.5z"/>
<glyph glyph-name="igrave" horiz-adv-x="401" unicode="ì" d="M156 27v766q0 11 8 18.5t18 7.5h37q11 0 19 -8t8 -18v-766q0 -12 -9 -19.5t-20 -7.5h-35q-10 0 -18 8t-8 19zM0 1337l20 41q6 11 17 11q8 0 18 -5l336 -184q14 -8 14 -20q0 -4 -2 -9l-10 -20q-5 -10 -16 -10q-7 0 -17 4l-352 162q-12 6 -12 17q0 5 4 13z"/>
<glyph glyph-name="iacute" horiz-adv-x="401" unicode="í" d="M156 27v766q0 11 8 18.5t18 7.5h37q11 0 19 -8t8 -18v-766q0 -12 -9 -19.5t-20 -7.5h-35q-10 0 -18 8t-8 19zM0 1178q-2 5 -2 9q0 11 14 19l338 178q10 6 18 6q11 0 17 -12l21 -41q3 -6 3 -11q0 -15 -22 -26l-346 -157q-11 -4 -16 -4q-2 0 -5 1t-8 11z"/>
<glyph glyph-name="icircumflex" horiz-adv-x="401" unicode="î" d="M156 27v766q0 11 8 18.5t18 7.5h37q11 0 19 -8t8 -18v-766q0 -12 -9 -19.5t-20 -7.5h-35q-10 0 -18 8t-8 19zM-80 1153q-4 5 -4 10q0 9 12 19l248 200q11 11 21 11h6q9 0 20 -11l248 -200q12 -10 12 -19q0 -5 -4 -10l-18 -23q-7 -10 -16 -10q-7 0 -15 6l-231 172 l-230 -172q-7 -6 -14 -6q-9 0 -16 10z"/>
<glyph glyph-name="idieresis" horiz-adv-x="401" unicode="ï" d="M328 1288q0 31 19 51.5t48 20.5q31 0 51.5 -20.5t20.5 -51.5q0 -28 -20.5 -47.5t-51.5 -19.5q-29 0 -48 19.5t-19 47.5zM156 27v766q0 11 8 18.5t18 7.5h37q11 0 19 -8t8 -18v-766q0 -12 -9 -19.5t-20 -7.5h-35q-10 0 -18 8t-8 19zM-66 1288q0 31 20.5 51.5t49.5 20.5 q31 0 50.5 -20.5t19.5 -51.5q0 -28 -20 -47.5t-50 -19.5q-29 0 -49.5 19.5t-20.5 47.5z"/>
<glyph glyph-name="eth" horiz-adv-x="1132" unicode="ð" d="M180 446q0 -157 107.5 -268.5t259.5 -111.5q76 0 140.5 26.5t110 71.5t77 107t46.5 132t15 146q0 21 -4 61q-11 15 -19.5 25.5t-48.5 48.5t-80.5 62.5t-106.5 46.5t-136 22q-149 0 -255 -104.5t-106 -264.5zM90 451q0 133 63 236.5t163.5 157.5t218.5 54q73 0 141.5 -19 t116 -48.5t77.5 -54t45 -44.5q-43 255 -290 455l-236 -137q-9 -5 -20 -2t-15 12l-6 10q-6 9 -3.5 19.5t11.5 15.5l213 123q-136 93 -245 135q-25 9 -13 33l15 35q5 12 17 12q5 0 11 -2q155 -58 297 -166l142 82q21 12 36 -10l7 -11q10 -20 -11 -34l-118 -70 q319 -274 319 -670q0 -166 -52.5 -296t-162.5 -208.5t-264 -78.5q-122 0 -227.5 63t-167.5 171.5t-62 236.5z"/>
<glyph glyph-name="ntilde" horiz-adv-x="1013" unicode="ñ" d="M201 1225q32 86 71 125q50 51 119 51q41 0 70.5 -19.5t47 -46.5t32.5 -54.5t35 -47t47 -19.5q77 0 116 121q3 10 12.5 15t18.5 0l23 -9q16 -8 12 -26q-3 -11 -7.5 -25t-20 -43t-35 -51t-53 -39.5t-73.5 -17.5t-69.5 19.5t-46.5 47t-32.5 55t-36 47t-46.5 19.5 q-27 0 -48.5 -13t-35.5 -37t-20 -39t-13 -38q-7 -24 -30 -14l-25 10q-19 6 -12 29zM156 27v766q0 11 8 18.5t20 7.5h21q21 0 24 -20l9 -88q14 15 37 33t61.5 41.5t93 39t111.5 15.5q167 0 248 -98.5t81 -276.5v-438q0 -11 -8 -19t-18 -8h-37q-11 0 -19 8t-8 19v438 q0 140 -62.5 213.5t-180.5 73.5q-47 0 -94 -14t-79.5 -32.5t-61.5 -41.5t-41 -35t-17 -19v-583q0 -27 -27 -27h-39q-10 0 -16 8t-6 19z"/>
<glyph glyph-name="ograve" horiz-adv-x="1011" unicode="ò" d="M303 1337l21 41q6 11 17 11q7 0 17 -5l336 -184q20 -11 13 -29l-11 -20q-8 -17 -32 -6l-353 162q-18 9 -8 30zM182 412q0 -146 94 -247.5t230 -101.5q135 0 228 101.5t93 247.5q0 142 -93.5 242t-227.5 100q-136 0 -230 -100t-94 -242zM94 412q0 176 120 302t292 126 q171 0 291.5 -126t120.5 -302q0 -180 -120 -306t-292 -126q-173 0 -292.5 126t-119.5 306z"/>
<glyph glyph-name="oacute" horiz-adv-x="1011" unicode="ó" d="M303 1178q-7 17 12 28l338 178q10 6 18 6q11 0 17 -12l21 -41q11 -22 -19 -37l-346 -157q-14 -5 -19 -3.5t-10 11.5zM182 412q0 -146 94 -247.5t230 -101.5q135 0 228 101.5t93 247.5q0 142 -93.5 242t-227.5 100q-136 0 -230 -100t-94 -242zM94 412q0 176 120 302 t292 126q171 0 291.5 -126t120.5 -302q0 -180 -120 -306t-292 -126q-173 0 -292.5 126t-119.5 306z"/>
<glyph glyph-name="ocircumflex" horiz-adv-x="1011" unicode="ô" d="M223 1153q-11 14 8 29l248 200q11 11 21 11h6q9 0 20 -11l248 -200q19 -15 8 -29l-18 -23q-13 -17 -31 -4l-231 172l-230 -172q-17 -13 -30 4zM182 412q0 -146 94 -247.5t230 -101.5q135 0 228 101.5t93 247.5q0 142 -93.5 242t-227.5 100q-136 0 -230 -100t-94 -242z M94 412q0 176 120 302t292 126q171 0 291.5 -126t120.5 -302q0 -180 -120 -306t-292 -126q-173 0 -292.5 126t-119.5 306z"/>
<glyph glyph-name="otilde" horiz-adv-x="1011" unicode="õ" d="M203 1207.5q-3 8.5 0 17.5q32 86 71 125q50 51 119 51q41 0 70.5 -19.5t47 -46.5t32.5 -54.5t35 -47t47 -19.5q77 0 116 121q3 10 12.5 15t18.5 0l23 -9q16 -8 12 -26q-3 -11 -7.5 -25t-20 -43t-35 -51t-53 -39.5t-73.5 -17.5t-69.5 19.5t-46.5 47t-32.5 55t-36 47 t-46.5 19.5q-27 0 -48.5 -13t-35.5 -37t-20 -39t-13 -38q-7 -24 -30 -14l-25 10q-9 3 -12 11.5zM182 412q0 -146 94 -247.5t230 -101.5q135 0 228 101.5t93 247.5q0 142 -93.5 242t-227.5 100q-136 0 -230 -100t-94 -242zM94 412q0 176 120 302t292 126q171 0 291.5 -126 t120.5 -302q0 -180 -120 -306t-292 -126q-173 0 -292.5 126t-119.5 306z"/>
<glyph glyph-name="odieresis" horiz-adv-x="1011" unicode="ö" d="M631 1288q0 31 19 51.5t48 20.5q31 0 51.5 -20.5t20.5 -51.5q0 -28 -20.5 -47.5t-51.5 -19.5q-29 0 -48 19.5t-19 47.5zM238 1288q0 31 20 51.5t49 20.5q31 0 50.5 -20.5t19.5 -51.5q0 -28 -20 -47.5t-50 -19.5q-29 0 -49 19.5t-20 47.5zM182 412q0 -146 94 -247.5 t230 -101.5q135 0 228 101.5t93 247.5q0 142 -93.5 242t-227.5 100q-136 0 -230 -100t-94 -242zM94 412q0 176 120 302t292 126q171 0 291.5 -126t120.5 -302q0 -180 -120 -306t-292 -126q-173 0 -292.5 126t-119.5 306z"/>
<glyph glyph-name="divide" horiz-adv-x="1198" unicode="÷" d="M508 1032q0 34 25 58t59 24q35 0 58.5 -24t23.5 -58t-23.5 -59t-58.5 -25q-34 0 -59 25t-25 59zM508 389q0 34 25 58t59 24q35 0 58.5 -24t23.5 -58t-23.5 -59t-58.5 -25q-34 0 -59 25t-25 59zM178 696v31q0 11 8 19t19 8h788q10 0 17.5 -8t7.5 -19v-31q0 -11 -7.5 -18.5 t-17.5 -7.5h-788q-11 0 -19 8t-8 18z"/>
<glyph glyph-name="oslash" horiz-adv-x="1009" unicode="ø" d="M283 160q94 -97 223 -97q135 0 228 100.5t93 246.5q0 111 -61 200zM184 410q0 -113 58 -201l483 450q-92 95 -219 95q-135 0 -228.5 -101t-93.5 -243zM94 410q0 176 120 303t292 127q163 0 282 -119l48 45q8 8 18 8t18 -8l9 -8q9 -8 9 -19t-9 -18l-50 -49 q84 -117 84 -262q0 -180 -118.5 -305t-290.5 -125q-169 0 -287 118l-35 -35q-8 -7 -18.5 -6t-18.5 9l-6 8q-9 7 -9.5 18.5t7.5 18.5l37 36q-82 119 -82 263z"/>
<glyph glyph-name="ugrave" d="M307 1337l21 41q6 11 17 11q7 0 17 -5l336 -184q20 -11 13 -29l-11 -20q-8 -17 -32 -6l-353 162q-18 9 -8 30zM145 352v441q0 10 8 18t19 8h37q11 0 19 -8t8 -18v-441q0 -141 62.5 -213.5t180.5 -72.5q48 0 93 14t74.5 33t54.5 41.5t35 35.5t14 19v584q0 26 26 26h37 q11 0 19 -8t8 -18v-766q0 -11 -8 -19t-19 -8h-25q-20 0 -24 25l-8 79q-12 -15 -32.5 -32.5t-55.5 -40t-87 -37t-108 -14.5q-167 0 -247.5 96.5t-80.5 275.5z" unicode="ù"/>
<glyph glyph-name="uacute" d="M307 1178q-7 17 12 28l338 178q10 6 18 6q11 0 17 -12l21 -41q11 -22 -19 -37l-346 -157q-14 -5 -19 -3.5t-10 11.5zM145 352v441q0 10 8 18t19 8h37q11 0 19 -8t8 -18v-441q0 -141 62.5 -213.5t180.5 -72.5q48 0 93 14t74.5 33t54.5 41.5t35 35.5t14 19v584q0 26 26 26 h37q11 0 19 -8t8 -18v-766q0 -11 -8 -19t-19 -8h-25q-20 0 -24 25l-8 79q-12 -15 -32.5 -32.5t-55.5 -40t-87 -37t-108 -14.5q-167 0 -247.5 96.5t-80.5 275.5z" unicode="ú"/>
<glyph glyph-name="ucircumflex" d="M217 1153q-11 14 8 29l248 200q11 11 21 11h6q9 0 20 -11l248 -200q19 -15 8 -29l-18 -23q-13 -17 -31 -4l-231 172l-230 -172q-17 -13 -30 4zM145 352v441q0 10 8 18t19 8h37q11 0 19 -8t8 -18v-441q0 -141 62.5 -213.5t180.5 -72.5q48 0 93 14t74.5 33t54.5 41.5 t35 35.5t14 19v584q0 26 26 26h37q11 0 19 -8t8 -18v-766q0 -11 -8 -19t-19 -8h-25q-20 0 -24 25l-8 79q-12 -15 -32.5 -32.5t-55.5 -40t-87 -37t-108 -14.5q-167 0 -247.5 96.5t-80.5 275.5z" unicode="û"/>
<glyph glyph-name="udieresis" d="M633 1288q0 31 19 51.5t48 20.5q31 0 51.5 -20.5t20.5 -51.5q0 -28 -20.5 -47.5t-51.5 -19.5q-29 0 -48 19.5t-19 47.5zM240 1288q0 31 20 51.5t49 20.5q31 0 50.5 -20.5t19.5 -51.5q0 -28 -20 -47.5t-50 -19.5q-29 0 -49 19.5t-20 47.5zM145 352v441q0 10 8 18t19 8h37 q11 0 19 -8t8 -18v-441q0 -141 62.5 -213.5t180.5 -72.5q48 0 93 14t74.5 33t54.5 41.5t35 35.5t14 19v584q0 26 26 26h37q11 0 19 -8t8 -18v-766q0 -11 -8 -19t-19 -8h-25q-20 0 -24 25l-8 79q-12 -15 -32.5 -32.5t-55.5 -40t-87 -37t-108 -14.5q-167 0 -247.5 96.5 t-80.5 275.5z" unicode="ü"/>
<glyph glyph-name="yacute" horiz-adv-x="907" unicode="ý" d="M264 1178q-7 17 12 28l338 178q10 6 18 6q11 0 17 -12l21 -41q11 -22 -19 -37l-346 -157q-14 -5 -19 -3.5t-10 11.5zM28 812q2 7 15 7h45q18 0 27 -18l350 -692h4l319 692q9 18 27 18h45q13 0 15 -7t2 -10q0 -8 -5 -16l-643 -1384q-6 -16 -26 -16h-47q-27 0 -15 28 l277 594l-387 778q-5 8 -5 16q0 3 2 10z"/>
<glyph glyph-name="thorn" d="M246 164q4 -8 29.5 -29t82.5 -45t119 -24q148 0 241 97t93 245q0 146 -87 247t-224 101q-45 0 -87 -11.5t-70 -27t-51 -33.5t-33 -29t-13 -16v-475zM156 -588v1995q0 12 8.5 19.5t19.5 7.5h33q11 0 19 -8t8 -19v-664q72 58 143 80q58 17 119 17q168 0 280.5 -125.5 t112.5 -306.5q0 -184 -116 -306t-296 -122q-144 0 -243 86v-654q0 -10 -8 -18t-19 -8h-35q-10 0 -18 8t-8 18z" unicode="þ"/>
<glyph glyph-name="OE" horiz-adv-x="1998" unicode="Œ" d="M203 715q0 -176 86.5 -324.5t235.5 -234.5t325 -86q77 0 143 14v1262q-75 16 -143 16q-176 0 -325 -86.5t-235.5 -235.5t-86.5 -325zM115 715q0 101 26 197t73 177t114.5 149t148.5 115.5t176.5 74t196.5 26.5q77 0 174 -20h817q10 0 17.5 -8t7.5 -19v-35 q0 -11 -7.5 -18.5t-17.5 -7.5h-749v-566h649q11 0 18.5 -8t7.5 -18v-35q0 -11 -8 -19t-18 -8h-649v-606h749q10 0 17.5 -8t7.5 -19v-32q0 -11 -7.5 -19t-17.5 -8h-815q-97 -20 -176 -20q-152 0 -288.5 57.5t-234 155t-155 234t-57.5 288.5z"/>
<glyph glyph-name="oe" horiz-adv-x="1613" unicode="œ" d="M877 453h561q0 127 -75.5 215t-207.5 88q-88 0 -166.5 -45.5t-111.5 -120.5v-137zM182 412q0 -146 93.5 -247.5t228.5 -101.5q94 0 177 57t112 124v348q-38 61 -117.5 111.5t-171.5 50.5q-134 0 -228 -100t-94 -242zM94 412q0 115 54 213.5t149 156.5t207 58 q100 0 188.5 -43.5t145.5 -120.5q110 164 317 164q160 0 266.5 -107.5t106.5 -273.5q0 -80 -31 -80h-620v-135q33 -72 113 -127.5t171 -55.5q129 0 242 76q25 17 37 0l20 -28q11 -14 -8 -33q-34 -34 -121 -65t-176 -31q-110 0 -187.5 44.5t-138.5 125.5q-58 -80 -142 -125 t-183 -45q-172 0 -291 126t-119 306z"/>
<glyph glyph-name="Ydieresis" horiz-adv-x="1146" unicode="Ÿ" d="M713 1708q0 31 20 51.5t49 20.5q31 0 51.5 -20.5t20.5 -51.5q0 -28 -21 -48t-51 -20q-29 0 -49 20t-20 48zM285 1708q0 31 20 51.5t49 20.5q31 0 51.5 -20.5t20.5 -51.5q0 -28 -21 -48t-51 -20q-29 0 -49 20t-20 48zM-6.5 1427.5q3.5 6.5 18.5 6.5h62q16 0 26 -13 l467 -637l475 637q10 13 27 13h61q15 0 19 -6.5t4 -10.5q0 -6 -6 -14l-533 -705v-671q0 -11 -8 -19t-18 -8q-3 0 -9.5 -0.5t-10.5 -0.5t-7.5 0.5t-11.5 1t-12.5 2t-9 4.5t-7 8t-2.5 12v669l-522 707q-6 8 -6 14q0 4 3.5 10.5z"/>
<glyph glyph-name="circumflex" horiz-adv-x="763" unicode="ˆ" d="M98 1153q-4 5 -4 10q0 9 12 19l248 200q11 11 21 11h6q9 0 20 -11l248 -200q12 -10 12 -19q0 -5 -4 -10l-18 -23q-7 -10 -16 -10q-7 0 -15 6l-231 172l-230 -172q-7 -6 -14 -6q-9 0 -16 10z"/>
<glyph glyph-name="tilde" horiz-adv-x="778" unicode="˜" d="M72.5 1205.5q-2.5 6.5 -2.5 10.5t2 9q32 86 71 125q50 51 119 51q41 0 70.5 -19.5t47 -46.5t32.5 -54.5t35 -47t47 -19.5q77 0 116 121q3 10 12.5 15t18.5 0l23 -9q13 -6 13 -19q0 -3 -1 -7q-3 -11 -7.5 -25t-20 -43t-35 -51t-53 -39.5t-73.5 -17.5t-69.5 19.5t-46.5 47 t-32.5 55t-36 47t-46.5 19.5q-27 0 -48.5 -13t-35.5 -37t-20 -39t-13 -38q-7 -24 -30 -14l-25 10q-9 3 -11.5 9.5z"/>
<glyph glyph-name="uni2002" horiz-adv-x="990" unicode=" "/>
<glyph glyph-name="uni2003" horiz-adv-x="1980" unicode=" "/>
<glyph glyph-name="uni2009" horiz-adv-x="396" unicode=" "/>
<glyph glyph-name="endash" horiz-adv-x="1318" unicode="–" d="M240 502v16q0 11 8 19t18 8h787q12 0 19 -8t7 -19v-16q0 -11 -7 -18t-19 -7h-787q-11 0 -18.5 7.5t-7.5 17.5z"/>
<glyph glyph-name="emdash" horiz-adv-x="1765" unicode="—" d="M240 502v16q0 11 8 19t18 8h1233q12 0 19.5 -8t7.5 -19v-16q0 -11 -7.5 -18t-19.5 -7h-1233q-11 0 -18.5 7.5t-7.5 17.5z"/>
<glyph glyph-name="quoteleft" horiz-adv-x="387" unicode="‘" d="M88 1159q0 57 17 109.5t43 87t48 56t40 32.5q12 6 20 6t14 -6l17 -21q5 -6 5 -13q0 -10 -13 -19q-43 -34 -64 -63q-44 -60 -51 -132q-1 -9 -1 -17q0 -35 11 -61q17 10 33 10q38 0 60 -23.5t22 -57.5q0 -36 -23.5 -58t-62.5 -22q-48 0 -81.5 48.5t-33.5 143.5z"/>
<glyph glyph-name="quotesinglbase" horiz-adv-x="468" unicode="‚" d="M143 59q0 36 23.5 58t62.5 22q48 0 81.5 -48.5t33.5 -143.5q0 -57 -17 -109.5t-42.5 -87t-47.5 -56t-40 -32.5q-12 -7 -21 -7t-14 7l-17 21q-5 6 -5 12q0 10 14 20q42 34 65 65q42 58 49 130q1 9 1 17q0 35 -11 61q-18 -11 -33 -11q-38 0 -60 24t-22 58z"/>
<glyph glyph-name="quotedblleft" horiz-adv-x="755" unicode="“" d="M457 1161q0 57 17 109.5t42.5 87t47.5 56t40 32.5q12 7 21 7t14 -7l16 -21q5 -6 5 -13q0 -10 -13 -19q-43 -34 -64 -63q-44 -60 -51 -132q-1 -8 -1 -15q0 -34 12 -63q17 10 32 10q38 0 60 -23.5t22 -57.5q0 -36 -23.5 -58t-62.5 -22q-48 0 -81 48.5t-33 143.5zM90 1161 q0 57 17 109.5t43 87t48 56t40 32.5q12 6 20 6t14 -6l17 -21q5 -6 5 -13q0 -10 -13 -19q-43 -34 -64 -63q-44 -60 -51 -132q-1 -9 -1 -17q0 -35 11 -61q17 10 33 10q38 0 60 -23.5t22 -57.5q0 -36 -23.5 -58t-62.5 -22q-48 0 -81.5 48.5t-33.5 143.5z"/>
<glyph glyph-name="quotedblright" horiz-adv-x="753" unicode="”" d="M471 1374q0 36 23.5 58t62.5 22q48 0 81.5 -48.5t33.5 -143.5q0 -57 -17 -109.5t-43 -87t-48 -56t-40 -32.5q-12 -7 -21 -7t-14 7l-16 20q-14 17 8 33q43 34 64 63q44 60 51 132q1 9 1 17q0 35 -11 61q-18 -11 -33 -11q-38 0 -60 24t-22 58zM104 1374q0 36 23.5 58 t62.5 22q48 0 81.5 -48.5t33.5 -143.5q0 -57 -17 -109.5t-42.5 -87t-47.5 -56t-40 -32.5q-12 -7 -21 -7t-14 7l-17 20q-5 6 -5 13q0 10 14 20q42 34 65 65q42 58 49 130q1 9 1 17q0 35 -11 61q-18 -11 -33 -11q-38 0 -60 24t-22 58z"/>
<glyph glyph-name="ellipsis" horiz-adv-x="1277" unicode="…" d="M952 63q0 34 24 58t58 24q35 0 58.5 -24t23.5 -58t-23.5 -58.5t-58.5 -24.5q-34 0 -58 24.5t-24 58.5zM553 63q0 34 24 58t58 24q35 0 58.5 -24t23.5 -58t-23.5 -58.5t-58.5 -24.5q-34 0 -58 24.5t-24 58.5zM160 63q0 34 25 58t59 24q35 0 58.5 -24t23.5 -58t-23.5 -58.5 t-58.5 -24.5q-34 0 -59 24.5t-25 58.5z"/>
<glyph glyph-name="guilsinglleft" horiz-adv-x="501" unicode="‹" d="M94 408q-6 8 -6 16t6 18l221 316q13 18 33 18h33q12 0 14 -7t2 -10q0 -9 -6 -20l-192 -313l192 -322q6 -11 6 -19q0 -3 -2 -10t-14 -7h-33q-20 0 -33 18z"/>
<glyph glyph-name="guilsinglright" horiz-adv-x="501" unicode="›" d="M107 74.5q-2 6.5 -2 10.5q0 8 6 19l192 322l-192 313q-6 11 -6 20q0 3 2 10t14 7h33q19 0 32 -18l222 -316q6 -10 6 -18t-6 -16l-222 -322q-13 -18 -32 -18h-33q-12 0 -14 6.5z"/>
<glyph glyph-name="Euro" horiz-adv-x="1505" unicode="€" d="M41 557v10q0 11 7.5 19t17.5 8h96q-10 62 -10 121q0 39 2 57h-88q-10 0 -17.5 9t-7.5 20v10q0 11 7.5 19t17.5 8h96q28 173 131 314t261 221.5t339 80.5q293 0 498 -190q10 -11 10 -20t-8 -17l-31 -31q-20 -20 -41 0q-175 166 -428 166q-235 0 -411 -149.5t-216 -374.5 h662q12 0 19 -9.5t7 -21.5v-8q0 -11 -7 -19t-19 -8h-672q-2 -18 -2 -57q0 -72 10 -121h584q11 0 17.5 -9.5t6.5 -21.5v-8q0 -11 -7 -18t-17 -7h-567q59 -202 227 -330t385 -128q138 0 232 42t200 130q20 17 33 4l35 -35q9 -10 9 -18q0 -9 -9 -17q-207 -198 -500 -198 q-257 0 -456 154.5t-261 395.5h-110q-11 0 -18 8t-7 19z"/>
<glyph glyph-name="trademark" horiz-adv-x="1476" unicode="™" d="M612 838l140 596q3 11 7.5 15.5t14.5 4.5h10q14 0 21 -20l176 -502h2l178 502q7 20 21 20h10q10 0 14.5 -4.5t7.5 -15.5l140 -596q1 -5 1 -9q0 -7 -4.5 -14.5t-17.5 -7.5h-22q-19 0 -25 20l-108 445h-2l-164 -459q-5 -16 -19 -16h-20q-14 0 -19 16l-166 459h-2l-106 -445 q-6 -20 -25 -20h-22q-13 0 -18.5 9t-2.5 22zM100 1397v10q0 11 8 19t19 8h426q11 0 19 -8t8 -19v-14q0 -12 -8 -19.5t-19 -7.5h-176v-532q0 -10 -8.5 -18.5t-18.5 -8.5h-20q-10 0 -17.5 7.5t-7.5 19.5v532h-178q-12 0 -19.5 9.5t-7.5 21.5z"/>
</font>
</defs>
</svg>
