<?xml version="1.0" encoding="UTF-8" standalone="no"?>
<!DOCTYPE svg  PUBLIC '-//W3C//DTD SVG 1.1//EN'  'http://www.w3.org/Graphics/SVG/1.1/DTD/svg11.dtd'>
<svg xmlns="http://www.w3.org/2000/svg">
<defs>
<font id="BrandonGrotesque-Bold" horiz-adv-x="1357">
<font-face underline-position="-102" font-weight="450" descent="-410" panose-1="2 11 8 3 2 2 3 6 2 2" units-per-em="2048" unicode-range="U+000D-2122" bbox="-262 -635 1933 2007" x-height="819" underline-thickness="102" font-family="BrandonGrotesque" ascent="1638" cap-height="1434"/>
<missing-glyph horiz-adv-x="2048"/>
<glyph glyph-name=".notdef" horiz-adv-x="2048"/>
<glyph glyph-name="glyph1" horiz-adv-x="2048"/>
<glyph glyph-name="glyph1" horiz-adv-x="2048"/>
<glyph glyph-name="uni000D" horiz-adv-x="2048" unicode=""/>
<glyph glyph-name="space" horiz-adv-x="452" unicode=" "/>
<glyph glyph-name="exclam" horiz-adv-x="634" unicode="!" d="M166 1161v234q0 15 12 27t27 12h225q15 0 27 -12t12 -27v-230l-80 -575q-2 -12 -14 -22.5t-25 -10.5h-65q-13 0 -25 10.5t-14 22.5zM150 147q0 69 49 119.5t116 50.5q70 0 120 -50.5t50 -119.5t-50 -118t-120 -49q-68 0 -116.5 49t-48.5 118z"/>
<glyph glyph-name="quotedbl" horiz-adv-x="702" unicode='&quot;' d="M424 1065v330q0 15 12 27t27 12h164q21 0 30 -13t9 -25q0 -7 -2 -14l-84 -325q-3 -12 -14.5 -21.5t-22.5 -9.5h-80q-15 0 -27 12t-12 27zM74 1065v330q0 15 12 27t27 12h163q21 0 30 -13t9 -25q0 -7 -2 -14l-84 -325q-3 -12 -14 -21.5t-22 -9.5h-80q-15 0 -27 12t-12 27z "/>
<glyph glyph-name="numbersign" horiz-adv-x="1101" unicode="#" d="M379 492h326l45 335h-324zM76 424v29q0 17 11 28t28 11h159l48 335h-148q-15 0 -27 12t-12 27v29q0 15 12 27t27 12h162l65 467q2 12 13 22.5t24 10.5h29q18 0 29 -13.5t8 -31.5l-62 -455h324l68 467q2 12 13.5 22.5t24.5 10.5h25q19 0 30.5 -13t8.5 -32l-66 -455h131 q17 0 28 -11.5t11 -27.5v-29q0 -16 -11 -27.5t-28 -11.5h-145l-47 -335h133q16 0 27.5 -11t11.5 -28v-29q0 -15 -12 -27t-27 -12h-149l-45 -352q-2 -14 -13 -23.5t-26 -9.5h-27q-19 0 -30 13t-9 32l45 340h-326l-47 -352q-1 -13 -13 -23t-26 -10h-24q-20 0 -31 13t-8 32 l47 340h-145q-17 0 -28 11.5t-11 27.5z"/>
<glyph glyph-name="dollar" horiz-adv-x="1075" unicode="$" d="M592 203q67 11 110 52.5t43 100.5q0 116 -153 205v-358zM328 1092q0 -61 37 -108t116 -89v330q-73 -9 -113 -46.5t-40 -86.5zM84 201q7 11 17.5 30t18.5 33.5t19 32t21.5 28.5t21.5 19t23 7.5t24 -9.5q16 -12 43 -30t91.5 -50.5t119.5 -46.5q0 67 1 197t1 196 q-68 27 -116.5 51t-107.5 64.5t-95.5 85t-62 110.5t-25.5 144q0 75 25 140.5t73.5 118.5t128.5 87.5t182 42.5v66q0 17 11.5 27.5t27.5 10.5h27q16 0 27.5 -10.5t11.5 -27.5v-68q82 -6 165.5 -36t121.5 -52.5t69 -44.5q15 -9 19 -30t-6 -38q-6 -8 -14.5 -22t-15.5 -24.5 t-16 -24.5t-17 -24t-17.5 -20.5t-17.5 -17t-17 -11t-17 -3.5t-16 6q-2 1 -38.5 23t-87.5 48t-95 40v-369q64 -27 113 -51.5t111 -67t102 -88.5t68 -113.5t28 -144.5q0 -171 -112.5 -281t-313.5 -122v-213q0 -17 -11.5 -27t-29.5 -10q-64 0 -64 37v213q-77 6 -147 25.5 t-118.5 46.5t-76.5 47t-47 38q-11 11 -15.5 17t-4.5 16q0 13 10 29z"/>
<glyph glyph-name="percent" horiz-adv-x="1355" unicode="%" d="M895 256q0 -41 29.5 -70.5t70.5 -29.5q40 0 70.5 29.5t30.5 70.5q0 39 -30.5 68.5t-70.5 29.5q-41 0 -70.5 -29t-29.5 -69zM719 256q0 115 81 195.5t195 80.5q116 0 197.5 -80.5t81.5 -195.5t-81.5 -195.5t-197.5 -80.5q-114 0 -195 80.5t-81 195.5zM221 1178 q0 -41 30 -71t71 -30q40 0 69 30t29 71q0 40 -29 69t-69 29q-41 0 -71 -29t-30 -69zM213 55l702 1358q11 21 35 21h103q23 0 31 -14q8 -12 8 -22t-5 -20l-706 -1358q-3 -7 -13.5 -13.5t-21.5 -6.5h-98q-23 0 -34 17.5t-1 37.5zM45 1178q0 115 80.5 195.5t196.5 80.5 q114 0 195 -80.5t81 -195.5t-81 -196t-195 -81q-116 0 -196.5 80.5t-80.5 196.5z"/>
<glyph glyph-name="ampersand" horiz-adv-x="1411" unicode="&amp;" d="M479 1122q-1 -32 13 -63t30 -50.5t51 -56.5q9 -9 13 -14l45 -45q1 1 12 7t18 10t21 13t24 17t23.5 20t23.5 23t20.5 26t17 30t10.5 33t4 36q0 61 -48.5 107.5t-125.5 46.5q-69 0 -110.5 -40.5t-41.5 -99.5zM395 391q0 -84 61.5 -138t153.5 -54q158 0 264 120l-305 324 q-1 0 -14.5 -8t-21 -13t-24 -16.5t-27 -22t-25.5 -26t-24.5 -33t-19 -38t-14 -45t-4.5 -50.5zM152 365q0 43 8 84t23.5 74.5t33 62.5t41 54t43 43.5t44 36t38.5 26.5t32 19t19 11v4l-43 47q-69 72 -104 140.5t-35 149.5q0 65 25 123t71.5 106.5t122 78t168.5 29.5 q169 0 278 -97t109 -237q0 -59 -21 -114.5t-56.5 -98.5t-65.5 -71.5t-67 -56.5t-40 -31l236 -238q50 101 73 227q7 35 21 48t47 3l113 -32q9 -2 15.5 -5.5t10.5 -8t7 -8.5t4 -10.5t2 -10.5t0 -11t-1.5 -9.5t-2 -9t-1.5 -7.5q-41 -171 -126 -326l182 -172q16 -16 20.5 -23.5 t4.5 -15.5q0 -6 -3 -19.5t-26 -35.5l-84 -86q-20 -19 -41 -19q-24 0 -49 25l-148 150q-14 -17 -35 -35t-61.5 -44.5t-88 -46t-117 -34t-144.5 -14.5q-191 0 -311.5 112t-120.5 273z"/>
<glyph glyph-name="quotesingle" horiz-adv-x="352" unicode="&apos;" d="M74 1065v330q0 15 12 27t27 12h163q21 0 30 -13t9 -25q0 -7 -2 -14l-84 -325q-3 -12 -14 -21.5t-22 -9.5h-80q-15 0 -27 12t-12 27z"/>
<glyph glyph-name="parenleft" horiz-adv-x="700" unicode="(" d="M88 645q0 185 31 328.5t80 230.5t118 143.5t136 78.5t143 26h3q15 0 25.5 -8.5t10.5 -22.5l6 -135q1 -12 -6.5 -23.5t-18.5 -13.5q-146 -39 -211 -189.5t-65 -414.5q0 -265 64.5 -414t211.5 -188q13 -3 19 -13t6 -20v-6l-6 -133q-3 -33 -39 -33q-53 4 -101.5 16t-101 39 t-95.5 67t-83 103t-67.5 143.5t-43.5 192.5t-16 246z"/>
<glyph glyph-name="parenright" horiz-adv-x="702" unicode=")" d="M59 4v6q0 10 6 20t19 13q147 39 211.5 188t64.5 414q0 264 -65 414.5t-211 189.5q-11 2 -18.5 13.5t-6.5 23.5l7 135q0 14 10 22.5t25 8.5h3q76 -4 143 -26t136 -78.5t118 -143.5t80 -230.5t31 -328.5q0 -134 -16 -246t-43.5 -192.5t-67.5 -143.5t-83 -103t-95.5 -67 t-101 -39t-101.5 -16q-35 0 -38 33z"/>
<glyph glyph-name="asterisk" horiz-adv-x="716" unicode="*" d="M50.5 1218q-2.5 11 -2.5 16q0 10 5 19q39 55 39 56q8 11 23.5 14t27.5 -6l148 -103l-4 181q0 15 12 27t27 12h65q15 0 27 -12t12 -27l-4 -181l147 105q12 8 29.5 5t24.5 -15l35 -56q7 -10 7 -22q0 -3 -1.5 -13.5t-16.5 -19.5l-170 -102l170 -105q14 -9 16.5 -19.5 t2.5 -14.5q0 -10 -6 -19l-39 -55q-7 -13 -23.5 -17t-28.5 4l-147 103l4 -176q0 -15 -12 -27t-27 -12h-65q-15 0 -27 12t-12 27l4 178l-148 -103q-12 -9 -28.5 -5t-24.5 16l-35 55q-6 10 -6 21q0 4 2 14.5t15 19.5l170 103l-170 102q-13 9 -15.5 20z"/>
<glyph glyph-name="plus" horiz-adv-x="1146" unicode="+" d="M131 651v115q0 15 12 27t27 12h307v309q0 15 12 26t27 11h115q15 0 27 -11t12 -26v-309h309q15 0 26 -12t11 -27v-115q0 -15 -11 -27t-26 -12h-309v-305q0 -15 -12 -26t-27 -11h-115q-15 0 -27 11t-12 26v305h-307q-15 0 -27 12t-12 27z"/>
<glyph glyph-name="comma" horiz-adv-x="530" unicode="," d="M74 145q0 70 51.5 120t128.5 50q36 0 70 -14t66 -43.5t51.5 -84t19.5 -126.5q0 -89 -25 -167.5t-64.5 -132t-75 -87.5t-69.5 -55q-13 -9 -24 -9q-14 0 -27 13l-31 33q-11 12 -8.5 27.5t17.5 27.5q55 48 83 83q80 102 80 216l-5 -2q-4 -1 -11 -3.5t-16 -5t-21 -4t-24 -1.5 q-68 0 -117 49t-49 116z"/>
<glyph glyph-name="hyphen" horiz-adv-x="755" unicode="-" d="M111 430v137q0 17 11 28t28 11h456q17 0 28 -11t11 -28v-137q0 -15 -11 -26t-28 -11h-456q-17 0 -28 11t-11 26z"/>
<glyph glyph-name="period" horiz-adv-x="481" unicode="." d="M72 147q0 69 49.5 119.5t118.5 50.5t119.5 -50.5t50.5 -119.5t-50.5 -118t-119.5 -49t-118.5 49t-49.5 118z"/>
<glyph glyph-name="slash" horiz-adv-x="722" unicode="/" d="M59 51l402 1356q3 11 14 19t23 8h147q22 0 30.5 -12.5t8.5 -24.5q0 -7 -2 -15l-399 -1355q-3 -10 -14.5 -18.5t-22.5 -8.5h-150q-21 0 -30 12.5t-9 24.5q0 7 2 14z"/>
<glyph glyph-name="zero" horiz-adv-x="1282" unicode="0" d="M393 696q0 -228 64.5 -351.5t183.5 -123.5t183.5 123.5t64.5 351.5q0 227 -64.5 351t-183.5 124t-183.5 -124t-64.5 -351zM125 696q0 338 135.5 527.5t380.5 189.5t380.5 -189.5t135.5 -527.5t-135.5 -527t-380.5 -189t-380.5 189t-135.5 527z"/>
<glyph glyph-name="one" horiz-adv-x="731" unicode="1" d="M55 1108q-1 4 -1 8q0 18 12 29l294 248h144q15 0 26 -12t11 -27v-1315q0 -15 -11 -27t-26 -12h-176q-17 0 -28 11.5t-11 27.5v981l-180 -39q-14 -3 -27 5.5t-14 21.5z"/>
<glyph glyph-name="two" horiz-adv-x="1060" unicode="2" d="M63 39v47q206 250 531 682q104 129 104 227q0 76 -56.5 131.5t-160.5 55.5q-117 0 -229 -121q-12 -12 -27.5 -12t-27.5 12l-99 98q-10 10 -11 25t9 28q7 8 19 21.5t53 48.5t85 61.5t111.5 48t135.5 21.5q212 0 334 -117t122 -290q0 -63 -20 -122.5t-43.5 -98.5 t-73.5 -111q-77 -109 -352 -455h442q15 0 27 -12t12 -27v-141q0 -15 -12 -27t-27 -12h-807q-17 0 -28 11.5t-11 27.5z"/>
<glyph glyph-name="three" horiz-adv-x="1069" unicode="3" d="M76 213l104 100q28 25 53 0q3 -3 16.5 -14.5t39 -28t55 -31.5t68 -25.5t73.5 -10.5q86 0 151.5 55t65.5 137q0 84 -75 143.5t-207 59.5h-115q-17 0 -28 11t-11 30v129q0 41 39 41h115q121 0 187.5 53t66.5 135t-59 135.5t-140 53.5q-122 0 -207 -99q-11 -12 -26 -13 t-29 11l-100 95q-12 11 -11.5 26.5t11.5 26.5q6 7 18 19.5t51.5 43.5t81.5 54.5t106 43t128 19.5q119 0 218 -45.5t158.5 -132t59.5 -197.5q0 -109 -65 -195t-146 -124v-6q40 -17 80 -44.5t79.5 -68.5t64 -99t24.5 -122q0 -175 -130.5 -287t-340.5 -112q-271 0 -426 182 q-8 10 -8 23q0 16 10 28z"/>
<glyph glyph-name="four" horiz-adv-x="1222" unicode="4" d="M303 510h410v491zM33 336v170l737 897q12 12 31 12h110q16 0 27.5 -11t11.5 -28v-872h164q17 0 28 -11t11 -26v-127q0 -16 -11 -27.5t-28 -11.5h-164l2 -262q0 -15 -12 -27t-27 -12h-170q-15 0 -26.5 12t-11.5 27v258h-633q-17 0 -28 11.5t-11 27.5z"/>
<glyph glyph-name="five" horiz-adv-x="1081" unicode="5" d="M95 188q0 13 18 31l102 100q26 23 49 3q8 -8 27 -22.5t55 -37.5t85.5 -39t96.5 -16q102 0 170 71.5t68 170.5t-65.5 164t-182.5 65h-315q-29 0 -46.5 22.5t-17.5 49.5v604q0 16 11 27.5t28 11.5h647q17 0 28 -11.5t11 -27.5v-140q0 -15 -11 -26.5t-28 -11.5h-454v-273 h176q216 0 342.5 -125.5t126.5 -328.5q0 -194 -143 -331.5t-353 -137.5q-77 0 -146.5 17.5t-119 45.5t-82.5 54t-55 53q-22 25 -22 38z"/>
<glyph glyph-name="six" horiz-adv-x="1103" unicode="6" d="M334 514q0 -54 14.5 -106t42.5 -96.5t75 -71.5t107 -27q96 0 165 71.5t69 168.5q0 99 -69 169t-167 70q-92 0 -154 -55.5t-83 -122.5zM88 545q0 123 29 234.5t75 194.5t109.5 155.5t125.5 121.5t131 89.5t118.5 62t93.5 35.5q10 3 19 3q29 0 38 -32l47 -121q4 -10 4 -19 q0 -28 -40 -40q-45 -14 -104 -44t-132 -78.5t-133 -120t-82 -150.5q33 19 101 38t133 19q78 0 151.5 -29t133.5 -82.5t96 -140t36 -192.5q0 -193 -137 -331t-326 -138q-156 0 -268 78t-165.5 204t-53.5 283z"/>
<glyph glyph-name="seven" horiz-adv-x="991" unicode="7" d="M61 1210v144q0 15 12 27t27 12h852q15 0 27 -12t12 -27v-15l-610 -1284q-23 -55 -70 -55h-151q-51 0 -51 39v22l532 1110h-541q-15 0 -27 12t-12 27z"/>
<glyph glyph-name="eight" horiz-adv-x="1161" unicode="8" d="M395 1028q0 -149 187 -194q92 21 139 73t47 121q0 73 -55 123.5t-135 50.5q-74 0 -128.5 -50.5t-54.5 -123.5zM369 377q0 -82 63.5 -135.5t149.5 -53.5q87 0 150 53t63 136q0 72 -57 133.5t-156 83.5q-99 -22 -156 -83.5t-57 -133.5zM96 373q0 62 30 123t74 105t80.5 72 t63.5 42v6q-35 19 -69 47t-67.5 67.5t-54 92.5t-20.5 110q0 167 127.5 271t317.5 104q195 0 323.5 -103.5t128.5 -271.5q0 -55 -20.5 -107t-54 -91.5t-67 -67.5t-69.5 -49v-8q39 -20 78 -49.5t79.5 -72t65.5 -100.5t25 -120q0 -171 -133.5 -282t-355.5 -111 q-216 0 -349 111.5t-133 281.5z"/>
<glyph glyph-name="nine" horiz-adv-x="1103" unicode="9" d="M297 952q0 -99 68.5 -169t166.5 -70q92 0 154.5 55.5t83.5 122.5q0 43 -9 85t-28 81t-46.5 69t-68 48t-88.5 18q-96 0 -164.5 -71.5t-68.5 -168.5zM66 956q0 193 136.5 331t325.5 138q117 0 211.5 -45t154 -122.5t91 -179t31.5 -218.5q0 -123 -29 -234.5t-75 -194.5 t-109.5 -155.5t-125.5 -121.5t-131 -89.5t-118.5 -62t-93.5 -35.5q-11 -3 -20 -3q-29 0 -38 32l-47 121q-4 10 -4 19q0 27 41 40q45 14 104 44t132 78.5t133 120t82 150.5q-33 -19 -101 -38t-133 -19q-78 0 -151.5 29t-133.5 82.5t-96 140t-36 192.5z"/>
<glyph glyph-name="colon" horiz-adv-x="548" unicode=":" d="M127 692q0 62 43 105t104 43q62 0 105 -43t43 -105q0 -61 -43 -104t-105 -43t-104.5 42.5t-42.5 104.5zM127 127q0 61 42.5 104t104.5 43t105 -43t43 -104t-43 -104t-105 -43t-104.5 43t-42.5 104z"/>
<glyph glyph-name="semicolon" horiz-adv-x="505" unicode=";" d="M104 117q0 56 42 96.5t104 40.5q30 0 58 -11.5t54 -35.5t42 -69t16 -105q0 -208 -184 -371q-12 -10 -24 -10q-13 0 -24 12l-28 31q-22 22 4 45q13 9 31 26.5t45 49.5t45 78.5t18 95.5l-3 -1l-10 -2.5t-13 -3t-16.5 -2.5t-18.5 -1q-57 0 -97.5 40t-40.5 97zM96 692 q0 62 43 105t105 43q61 0 104 -43t43 -105t-42.5 -104.5t-104.5 -42.5t-105 43t-43 104z"/>
<glyph glyph-name="less" horiz-adv-x="892" unicode="&lt;" d="M39 465v10q0 9 6 19t14 16l711 434q11 7 21 7q9 0 17 -5q18 -10 19 -35v-143q0 -20 -18 -33l-440 -262l440 -254q18 -13 18 -33v-143q-1 -25 -19 -35q-8 -5 -17 -5q-10 0 -21 7l-711 420q-8 6 -14 16t-6 19z"/>
<glyph glyph-name="equal" horiz-adv-x="999" unicode="=" d="M127 731v115q0 16 11 27.5t28 11.5h668q17 0 27.5 -11.5t10.5 -27.5v-115q0 -16 -10.5 -27.5t-27.5 -11.5h-668q-17 0 -28 11.5t-11 27.5zM127 299v117q0 16 11 27.5t28 11.5h668q17 0 27.5 -11.5t10.5 -27.5v-117q0 -16 -10.5 -27.5t-27.5 -11.5h-668q-17 0 -28 11.5 t-11 27.5z"/>
<glyph glyph-name="greater" horiz-adv-x="892" unicode="&gt;" d="M66 43v143q0 22 18 33l438 254l-438 262q-18 11 -18 33v143q0 25 18 35q8 5 18 5t21 -7l711 -434q8 -6 14 -16t6 -19v-10q0 -9 -6 -19t-14 -16l-711 -420q-11 -7 -21 -7t-18 5q-18 10 -18 35z"/>
<glyph glyph-name="question" horiz-adv-x="919" unicode="?" d="M252 147q0 69 49.5 119.5t118.5 50.5t119.5 -50.5t50.5 -119.5t-50.5 -118t-119.5 -49t-118.5 49t-49.5 118zM57 1274q6 7 17 19.5t49 43.5t81 54.5t112.5 43t142.5 19.5q164 0 280.5 -98t116.5 -246q0 -58 -23 -110t-57.5 -87.5t-75 -70t-75 -60.5t-57.5 -56t-23 -58 v-68q0 -19 -10.5 -31t-30.5 -12h-166q-16 0 -27.5 11t-11.5 28v86q0 54 29.5 103t71.5 86t83.5 71.5t71 73.5t29.5 78q0 58 -45 97.5t-119 39.5q-43 0 -82 -13.5t-59.5 -29t-45.5 -37t-34 -27.5q-25 -15 -45 2l-97 95q-12 11 -12 25q0 16 12 28z"/>
<glyph glyph-name="at" horiz-adv-x="2019" unicode="@" d="M784 426q-1 -10 -1 -19q0 -84 52 -146t128 -62q62 0 102 33.5t55 80.5t17 109v76q-9 44 -59 89.5t-117 45.5q-74 0 -123.5 -57.5t-53.5 -149.5zM66 457q0 216 71 401t197.5 316t308.5 205.5t397 74.5q208 0 378 -65.5t282 -181.5t172.5 -274t60.5 -343q0 -85 -15 -167.5 t-50 -163.5t-87 -142t-133 -99t-180 -38q-182 0 -243 159h-17q-35 -69 -104.5 -114t-161.5 -45q-159 0 -265 126t-106 306q0 185 106.5 306.5t270.5 121.5q134 0 248 -121q4 10 12 35t11 30.5t13 17.5t24 14.5t36 2.5h35q16 0 27.5 -11t11.5 -28v-374q0 -66 10 -111 t28.5 -67.5t39.5 -31t49 -8.5q64 0 113 55.5t73.5 143.5t24.5 193q0 142 -42.5 262t-124.5 210t-211.5 140.5t-293.5 50.5q-341 0 -542 -211.5t-201 -574.5q0 -245 135.5 -436.5t357.5 -284.5q35 -15 23 -49l-49 -129q-10 -26 -30 -26q-7 0 -15 3q-284 103 -464.5 354.5 t-180.5 567.5z"/>
<glyph glyph-name="A" d="M473 489h412l-205 451h-6zM0 53l637 1379q11 22 35 22h20q24 0 35 -22l631 -1379q4 -9 4 -18q0 -11 -6 -19q-10 -16 -33 -16h-178q-23 0 -36 9.5t-24 31.5l-100 221h-612l-101 -221q-16 -41 -59 -41h-178q-23 0 -33 16q-6 9 -6 19q0 9 4 18z" unicode="A"/>
<glyph glyph-name="B" horiz-adv-x="1263" unicode="B" d="M451 831h219q77 0 126.5 53.5t49.5 131.5q0 77 -49 125.5t-127 48.5h-219v-359zM451 242h247q77 0 131 53.5t54 132.5q0 75 -63.5 126.5t-145.5 51.5h-223v-364zM186 39v1356q0 16 11 27.5t28 11.5h469q183 0 307.5 -109t124.5 -270q0 -108 -70 -197t-155 -129 q44 -14 88 -41t85.5 -67.5t67 -99.5t25.5 -126q0 -170 -128.5 -282.5t-317.5 -112.5h-496q-17 0 -28 11.5t-11 27.5z"/>
<glyph glyph-name="C" horiz-adv-x="1400" unicode="C" d="M82 715q0 151 58.5 288t157 235.5t235.5 157t288 58.5q152 0 270.5 -47t225.5 -143q13 -12 13.5 -29t-11.5 -29l-125 -129q-10 -12 -24.5 -12t-26.5 12q-65 57 -147.5 89t-168.5 32q-128 0 -233.5 -65.5t-164 -174.5t-58.5 -237q0 -127 59 -235.5t165 -173t234 -64.5 q170 0 314 117q12 10 27 9.5t24 -9.5l127 -132q10 -10 10 -25q0 -18 -12 -30q-204 -198 -498 -198q-101 0 -197 26t-177 73t-149 114.5t-115.5 148.5t-74 176.5t-26.5 196.5z"/>
<glyph glyph-name="D" horiz-adv-x="1511" unicode="D" d="M451 250h233q199 0 330 134t131 335q0 200 -131 333.5t-330 133.5h-233v-936zM186 39v1356q0 15 11 27t26 12h486q145 0 278 -57t229.5 -153t153.5 -228t57 -277q0 -146 -57 -279.5t-153.5 -229.5t-229 -153t-278.5 -57h-486q-15 0 -26 12t-11 27z"/>
<glyph glyph-name="E" horiz-adv-x="1204" unicode="E" d="M186 39v1356q0 16 11 27.5t28 11.5h834q17 0 28 -11.5t11 -27.5v-168q0 -16 -11 -27.5t-28 -11.5h-606v-336h505q15 0 27 -12t12 -27v-170q0 -17 -11.5 -28t-27.5 -11h-505v-358h606q17 0 28 -11.5t11 -27.5v-168q0 -16 -11 -27.5t-28 -11.5h-834q-17 0 -28 11.5 t-11 27.5z"/>
<glyph glyph-name="F" horiz-adv-x="1155" unicode="F" d="M186 39v1356q0 16 11 27.5t28 11.5h834q17 0 28 -11.5t11 -27.5v-168q0 -16 -11 -27.5t-28 -11.5h-606v-385h505q15 0 27 -12t12 -27v-168q0 -15 -12 -27t-27 -12h-505v-518q0 -15 -12 -27t-27 -12h-189q-17 0 -28 11.5t-11 27.5z"/>
<glyph glyph-name="G" horiz-adv-x="1458" unicode="G" d="M84 715q0 151 58 288t156 235.5t234.5 157t286.5 58.5q136 0 265 -49.5t235 -140.5q12 -12 13 -29t-11 -29l-127 -133q-25 -25 -53 0q-134 119 -310 119q-125 0 -231 -65t-166.5 -174.5t-60.5 -235.5q0 -125 61 -233t167.5 -172t232.5 -64q112 0 243 51v174h-164 q-17 0 -28 11t-11 26v162q0 17 11 28t28 11h394q15 0 25.5 -12t10.5 -27v-525q0 -20 -16 -32q-9 -5 -25 -14t-68 -32t-108 -40.5t-140 -32t-167 -14.5q-150 0 -286.5 57.5t-234.5 155t-156 233.5t-58 287z"/>
<glyph glyph-name="H" horiz-adv-x="1574" unicode="H" d="M186 39v1356q0 15 12 27t27 12h191q17 0 28 -11.5t11 -27.5v-543h667v543q0 16 11 27.5t28 11.5h189q15 0 27 -12t12 -27v-1356q0 -15 -12 -27t-27 -12h-189q-17 0 -28 11.5t-11 27.5v565h-667v-565q0 -16 -11 -27.5t-28 -11.5h-191q-15 0 -27 12t-12 27z"/>
<glyph glyph-name="I" horiz-adv-x="641" unicode="I" d="M186 39v1356q0 15 12 27t27 12h191q15 0 27 -12t12 -27v-1356q0 -15 -12 -27t-27 -12h-191q-15 0 -27 12t-12 27z"/>
<glyph glyph-name="J" horiz-adv-x="856" unicode="J" d="M-33 129q-8 12 -8 24q0 14 12 27l107 109q15 13 30 13q16 0 31 -15q61 -66 135 -66q66 0 115 54t49 153v967q0 16 11 27.5t28 11.5h193q17 0 28 -11.5t11 -27.5v-967q0 -208 -122 -328t-308 -120q-191 0 -312 149z"/>
<glyph glyph-name="K" horiz-adv-x="1341" unicode="K" d="M186 49v1335q0 21 14.5 35.5t35.5 14.5h180q20 0 34.5 -15t14.5 -35v-553l516 582q17 21 39 21h205q29 0 40.5 -25.5t-8.5 -48.5l-534 -602l573 -686q9 -12 9 -26q0 -10 -4 -20q-11 -26 -41 -26h-224q-28 0 -37 14l-534 660v-625q0 -20 -14.5 -34.5t-34.5 -14.5h-180 q-22 0 -36 14t-14 35z"/>
<glyph glyph-name="L" horiz-adv-x="1034" unicode="L" d="M186 39v1356q0 16 11 27.5t28 11.5h189q15 0 27 -12t12 -27v-1149h522q17 0 28 -11.5t11 -27.5v-168q0 -16 -11 -27.5t-28 -11.5h-750q-17 0 -28 11.5t-11 27.5z"/>
<glyph glyph-name="M" horiz-adv-x="1787" unicode="M" d="M92 47l244 1376q4 31 37 31h33q24 0 34 -20l451 -967h6l451 967q10 20 34 20h33q33 0 37 -31l242 -1376q1 -6 1 -11q0 -13 -7 -23q-10 -13 -31 -13h-187q-13 0 -24 10t-14 21l-121 776h-6l-359 -805q-7 -22 -35 -22h-37q-23 0 -34 22l-363 805h-6l-119 -776 q-2 -11 -13 -21t-24 -10h-184q-20 0 -31 12q-9 10 -9 26q0 4 1 9z"/>
<glyph glyph-name="N" horiz-adv-x="1583" unicode="N" d="M186 39v1378q0 15 12 26t27 11h51l852 -905h2v846q0 16 11 27.5t28 11.5h189q15 0 27 -12t12 -27v-1379q0 -15 -12 -25.5t-27 -10.5h-49l-856 940h-2v-881q0 -16 -11 -27.5t-28 -11.5h-187q-15 0 -27 12t-12 27z"/>
<glyph glyph-name="O" horiz-adv-x="1638" unicode="O" d="M350 715q0 -193 138 -331t331 -138q127 0 235.5 63t172 171t63.5 235t-63.5 236t-172 173t-235.5 64t-235 -64t-171 -173t-63 -236zM84 715q0 101 26 197t73 177t114.5 149t148.5 115.5t176.5 74t196.5 26.5q151 0 287.5 -58t235 -157t156.5 -236t58 -288t-58 -287.5 t-156.5 -234.5t-235 -155.5t-287.5 -57.5t-287.5 57.5t-234.5 155.5t-155.5 234.5t-57.5 287.5z"/>
<glyph glyph-name="P" horiz-adv-x="1212" unicode="P" d="M453 770h237q87 0 149 61.5t62 151.5q0 84 -62 141.5t-149 57.5h-237v-412zM186 39v1356q0 16 11 27.5t28 11.5h482q189 0 323.5 -133.5t134.5 -319.5q0 -125 -61.5 -231t-166.5 -168t-228 -62h-256v-481q0 -15 -12 -27t-27 -12h-189q-17 0 -28 11.5t-11 27.5z"/>
<glyph glyph-name="Q" horiz-adv-x="1640" unicode="Q" d="M350 715q0 -193 138 -331t331 -138q127 0 235.5 63t172 171t63.5 235t-63.5 236t-172 173t-235.5 64t-235 -64t-171 -173t-63 -236zM84 715q0 101 26 197t73 177t114.5 149t148.5 115.5t176.5 74t196.5 26.5q151 0 287.5 -58t235 -157t156.5 -236t58 -288 q0 -206 -108.5 -381t-290.5 -275l256 -403q13 -22 2.5 -42t-35.5 -20h-217q-7 0 -18 6.5t-15 14.5l-219 371q-49 -6 -92 -6q-151 0 -287.5 57.5t-234.5 155.5t-155.5 234.5t-57.5 287.5z"/>
<glyph glyph-name="R" horiz-adv-x="1363" unicode="R" d="M455 780h333q82 0 142.5 61.5t60.5 147.5q0 81 -60.5 140t-142.5 59h-333v-408zM186 39v1356q0 16 11 27.5t28 11.5h586q185 0 315.5 -129t130.5 -312q0 -138 -83 -248t-220 -165l281 -521q11 -20 0.5 -39.5t-35.5 -19.5h-215q-24 0 -33 18l-272 543h-227v-522 q0 -15 -12 -27t-27 -12h-189q-17 0 -28 11.5t-11 27.5z"/>
<glyph glyph-name="S" horiz-adv-x="1110" unicode="S" d="M94 164q-1 2 -1 5q0 10 9 32l74 127q11 20 34 23t36 -9l10 -7q11 -7 24 -15.5t33 -20.5t41 -23t47 -22.5t51 -19.5t52 -13.5t51 -5.5q79 0 132.5 46t53.5 112q0 76 -63.5 133.5t-196.5 111.5q-81 33 -143 69.5t-120.5 89.5t-90 125t-31.5 159q0 71 27 138.5t80.5 125.5 t145 93.5t208.5 35.5q73 0 144.5 -16t125.5 -41.5t86 -44t54 -35.5q15 -9 19 -31t-7 -37l-78 -116q-13 -20 -32.5 -28t-39.5 3q-181 113 -284 113q-82 0 -131 -44.5t-49 -99.5q0 -71 57 -124t184 -105q48 -19 86.5 -37t84.5 -43.5t81 -52t69.5 -62.5t57 -75t36 -88.5 t13.5 -104.5q0 -165 -131 -285t-340 -120q-90 0 -171 18.5t-137.5 47.5t-88 51t-53.5 42q-16 15 -19 25z"/>
<glyph glyph-name="T" horiz-adv-x="1026" unicode="T" d="M27 1227v168q0 16 11 27.5t28 11.5h895q17 0 27.5 -11.5t10.5 -27.5v-168q0 -16 -10.5 -27.5t-27.5 -11.5h-314v-1149q0 -15 -12 -27t-27 -12h-190q-15 0 -27 12t-12 27v1149h-313q-17 0 -28 11.5t-11 27.5z"/>
<glyph glyph-name="U" horiz-adv-x="1472" unicode="U" d="M166 543v852q0 15 12 27t27 12h194q17 0 28 -11.5t11 -27.5v-838q0 -133 83 -222t214 -89t215 89t84 220v840q0 16 11 27.5t28 11.5h195q15 0 27 -12t12 -27v-852q0 -115 -44 -219t-120 -179.5t-182.5 -120t-225.5 -44.5q-158 0 -289 75.5t-205.5 204.5t-74.5 283z"/>
<glyph glyph-name="V" d="M0 1380q-4 9 -4 18q0 10 6 19q10 17 33 17h209q26 0 35 -23l393 -881h14l393 881q9 23 35 23h209q23 0 33 -17q6 -9 6 -19q0 -9 -4 -18l-635 -1378q-11 -22 -35 -22h-20q-24 0 -35 22z" unicode="V"/>
<glyph glyph-name="W" horiz-adv-x="1841" unicode="W" d="M59 1384q-2 8 -2 15q1 12 7 21q10 14 32 14h189q12 0 23 -9t14 -20l213 -817h8l325 844q7 22 35 22h37q28 0 35 -22l328 -844h8l209 817q3 11 13.5 20t22.5 9h189q23 0 33 -14q6 -8 6 -18q0 -9 -2 -18l-387 -1376q-3 -12 -14 -20t-23 -8h-33q-28 0 -35 22l-366 928h-11 l-362 -928q-11 -22 -35 -22h-33q-12 0 -23 8t-14 20z"/>
<glyph glyph-name="X" horiz-adv-x="1294" unicode="X" d="M60 18q-5 9 -6 18q0 10 7 21l426 678l-409 641q-12 20 -1.5 39t36.5 19h237q19 0 33 -19l262 -434h2l266 434q9 19 33 19h238q26 0 36.5 -19t-1.5 -39l-412 -641l426 -678q6 -12 6 -22q-1 -9 -5 -17q-10 -18 -36 -18h-221q-26 0 -35 18l-293 469h-6l-289 -469 q-14 -18 -35 -18h-221q-26 0 -38 18z"/>
<glyph glyph-name="Y" horiz-adv-x="1193" unicode="Y" d="M-8 1414q11 20 35 20h209q18 0 32 -19l328 -471l328 471q14 19 32 19h211q24 0 35 -20q4 -9 4 -19t-6 -21l-473 -682v-653q0 -15 -12 -27t-27 -12h-188q-17 0 -28 11.5t-11 27.5v651l-467 684q-6 11 -6 21t4 19z"/>
<glyph glyph-name="Z" horiz-adv-x="1101" unicode="Z" d="M51 39v37l611 1102v8h-512q-15 0 -27 12t-12 27v170q0 15 12 27t27 12h856q15 0 26.5 -12t11.5 -27v-27l-602 -1116v-4h523q17 0 28 -11.5t11 -27.5v-170q0 -16 -11 -27.5t-28 -11.5h-875q-15 0 -27 12t-12 27z"/>
<glyph glyph-name="bracketleft" horiz-adv-x="714" unicode="[" d="M135 -575v1970q0 15 12 27t27 12h463q15 0 27 -12t12 -27v-127q0 -17 -11.5 -28t-27.5 -11h-266v-1639h266q15 0 27 -10.5t12 -25.5v-129q0 -15 -12 -27t-27 -12h-463q-15 0 -27 12t-12 27z"/>
<glyph glyph-name="backslash" horiz-adv-x="731" unicode="\" d="M41 1382q-2 8 -2 15q0 12 8.5 24.5t30.5 12.5h155q12 0 23 -8t14 -19l402 -1356q2 -7 2 -14q0 -12 -9 -24.5t-30 -12.5h-158q-11 0 -22.5 8.5t-14.5 18.5z"/>
<glyph glyph-name="bracketright" horiz-adv-x="714" unicode="]" d="M39 -446q0 15 12 25.5t27 10.5h266v1639h-266q-16 0 -27.5 11t-11.5 28v127q0 15 12 27t27 12h463q15 0 27 -12t12 -27v-1970q0 -15 -12 -27t-27 -12h-463q-15 0 -27 12t-12 27v129z"/>
<glyph glyph-name="asciicircum" horiz-adv-x="1073" unicode="^" d="M77.5 802q-7.5 14 -7.5 23q0 10 6 21l426 596q12 20 35 20h10q23 0 35 -20l415 -596q7 -11 7 -22q0 -9 -7.5 -22.5t-31.5 -13.5h-142q-18 0 -32 19l-252 346l-256 -346q-14 -19 -33 -19h-141q-24 0 -31.5 14z"/>
<glyph glyph-name="underscore" horiz-adv-x="849" unicode="_" d="M39 -59q0 17 11 28t28 11h694q17 0 28 -11t11 -28v-80q0 -15 -11 -26t-28 -11h-694q-17 0 -28 11t-11 26v80z"/>
<glyph glyph-name="grave" horiz-adv-x="618" unicode="`" d="M109 1294l57 105q7 13 16.5 14t11.5 1q14 0 25 -9l336 -199q10 -5 12.5 -13t2.5 -12q0 -7 -3 -14l-37 -73q-8 -19 -27 -19q-10 0 -24 6l-358 158q-20 10 -20 28q0 12 8 27z"/>
<glyph glyph-name="a" horiz-adv-x="874" unicode="a" d="M289 260q0 -46 29.5 -76t76.5 -30q45 0 88 28t54 51v113q-56 25 -115 25q-60 0 -96.5 -30.5t-36.5 -80.5zM63 260q0 112 88 185t240 73q36 0 73.5 -5.5t57.5 -10.5l19 -6v6q0 72 -24 103q-25 32 -83 32q-54 0 -122.5 -10t-106.5 -21q-7 -2 -14 -2q-28 0 -33 39l-19 107 q-1 7 -1 13q0 28 30 38q12 5 49 13t103.5 17t125.5 9q94 0 157 -23.5t97.5 -72t48 -110.5t13.5 -151v-444q0 -15 -12 -27t-27 -12h-74q-22 0 -35 29l-24 55q-114 -104 -250 -104q-124 0 -200.5 75.5t-76.5 204.5z"/>
<glyph glyph-name="b" horiz-adv-x="1024" unicode="b" d="M367 334q14 -49 56.5 -91t115.5 -42q81 0 133.5 60.5t52.5 148.5q0 87 -57 147.5t-142 60.5q-45 0 -85 -12t-57 -24l-17 -11v-237zM123 39v1356q0 15 12 27t27 12h174q15 0 27 -12t12 -27v-592q98 37 182 37q180 0 293 -123.5t113 -306.5q0 -178 -114 -304t-280 -126 q-48 0 -93.5 12.5t-75.5 30.5t-53.5 36t-34.5 31l-11 12l-20 -63q-5 -17 -15.5 -28t-23.5 -11h-80q-15 0 -27 12t-12 27z"/>
<glyph glyph-name="c" horiz-adv-x="872" unicode="c" d="M59 410q0 118 61.5 217.5t161.5 156t214 56.5q182 0 303 -146q10 -14 7 -30t-18 -27l-94 -90q-22 -19 -51 6q-58 65 -141 65t-142 -61t-59 -147q0 -88 58 -148.5t141 -60.5q38 0 70 12t48.5 25t38.5 34l7 7q25 25 51 6l88 -76q22 -18 22 -35q0 -11 -8 -22 q-110 -172 -323 -172q-176 0 -305.5 124.5t-129.5 305.5z"/>
<glyph glyph-name="d" horiz-adv-x="1024" unicode="d" d="M299 410q0 -88 52.5 -148.5t133.5 -60.5q73 0 115.5 42t56.5 91v237q-6 5 -18.5 13t-54 21t-86.5 13q-85 0 -142 -60.5t-57 -147.5zM61 410q0 183 113 306.5t293 123.5q84 0 182 -37v592q0 15 12 27t27 12h174q15 0 27 -12t12 -27v-1356q0 -15 -12 -27t-27 -12h-80 q-13 0 -23.5 11t-15.5 28l-20 63q-4 -5 -11.5 -13t-33.5 -29t-54.5 -37.5t-74.5 -29.5t-94 -13q-166 0 -280 126t-114 304z"/>
<glyph glyph-name="e" horiz-adv-x="911" unicode="e" d="M313 512h310q-5 57 -48.5 98t-101.5 41q-61 0 -106.5 -40t-53.5 -99zM61 410q0 115 53 213t149.5 157.5t215.5 59.5q160 0 271.5 -108.5t111.5 -272.5q0 -28 -4 -56q-1 -15 -13 -24.5t-26 -9.5h-524q5 -69 59 -124t138 -55q88 0 159 52q35 21 54 0l83 -97 q11 -11 11.5 -25.5t-13.5 -27.5q-121 -112 -305 -112q-182 0 -301 125t-119 305z"/>
<glyph glyph-name="f" horiz-adv-x="704" unicode="f" d="M63 643v137q0 17 11 28t28 11h70v221q0 196 107 305t276 109q74 0 141.5 -25.5t100.5 -54.5q9 -8 11 -22q1 -4 1 -8q0 -9 -4 -17l-70 -131q-6 -12 -21 -15t-28 5q-69 41 -121 41q-66 0 -101.5 -49t-35.5 -138v-221h205q17 0 28 -11t11 -28v-137q0 -16 -11 -27.5 t-28 -11.5h-205v-565q0 -15 -12 -27t-27 -12h-178q-15 0 -27 12t-12 27v565h-70q-17 0 -28 11.5t-11 27.5z"/>
<glyph glyph-name="g" horiz-adv-x="946" unicode="g" d="M348 473q0 -64 41 -105.5t103 -41.5q63 0 102 41t39 106t-39 106.5t-102 41.5q-62 0 -103 -42t-41 -106zM303 -309q0 -54 48.5 -87.5t131.5 -33.5q86 0 138.5 35.5t52.5 93.5q0 37 -34.5 68.5t-115.5 31.5q-76 0 -133 -8q-17 -6 -34.5 -15.5t-35.5 -32.5t-18 -52zM37 61 q0 45 16 85t38.5 65.5t44.5 44.5t38 27l16 8q-7 8 -17 22.5t-27 64.5t-17 105q0 145 103 251t253 106h373q17 0 28 -11t11 -28v-68q0 -28 -23 -35l-114 -36q3 -3 8.5 -8t20 -24t25 -41t19.5 -58.5t9 -77.5q0 -128 -97.5 -225t-252.5 -97q-45 0 -99 8t-65 8 q-25 0 -50.5 -21.5t-25.5 -55.5q0 -31 23.5 -50.5t58.5 -19.5h262q144 0 241 -78t97 -209q0 -149 -118 -248.5t-331 -99.5q-109 0 -192.5 25t-130.5 66.5t-70.5 89.5t-23.5 100q0 121 122 194v6q-13 4 -29.5 11.5t-39.5 25.5t-40.5 40.5t-30.5 59t-13 78.5z"/>
<glyph glyph-name="h" horiz-adv-x="1064" unicode="h" d="M123 39v1356q0 15 12 27t27 12h174q15 0 27 -12t12 -27v-623q36 27 93.5 47.5t123.5 20.5q76 0 138 -22.5t103.5 -61t70 -91.5t41.5 -111t13 -122v-393q0 -15 -11.5 -27t-26.5 -12h-166q-17 0 -28 11.5t-11 27.5v395q0 84 -44 134t-118 50q-69 0 -116 -40t-62 -105v-434 q0 -39 -43 -39h-170q-15 0 -27 12t-12 27z"/>
<glyph glyph-name="i" horiz-adv-x="493" unicode="i" d="M123 39v741q0 17 11.5 28t27.5 11h170q16 0 27.5 -11t11.5 -28v-741q0 -15 -12 -27t-27 -12h-170q-15 0 -27 12t-12 27zM104 1251q0 59 41 100.5t99 41.5q60 0 101.5 -41.5t41.5 -100.5t-41.5 -100t-101.5 -41q-58 0 -99 41t-41 100z"/>
<glyph glyph-name="j" horiz-adv-x="495" unicode="j" d="M106 1251q0 59 41 100.5t99 41.5q60 0 101.5 -41.5t41.5 -100.5t-41.5 -100t-101.5 -41q-58 0 -99 41t-41 100zM-262 -533v7q0 10 4 18l68 131q6 12 21 15t28 -5q69 -41 121 -41q69 0 106 49t37 138v1001q0 17 11.5 28t27.5 11h172q16 0 27.5 -11t11.5 -28v-1001 q0 -197 -106 -305.5t-275 -108.5q-75 0 -143 25.5t-99 54.5q-10 7 -12 22z"/>
<glyph glyph-name="k" horiz-adv-x="1001" unicode="k" d="M123 39v1356q0 15 12 27t27 12h174q15 0 27 -12t12 -27v-887l282 287q28 24 52 24h186q26 0 34.5 -21t-7.5 -38l-306 -311l365 -392q10 -11 10 -23q-1 -7 -3 -14q-8 -20 -34 -20h-221q-23 0 -35 16l-323 369v-346q0 -15 -12 -27t-27 -12h-174q-15 0 -27 12t-12 27z"/>
<glyph glyph-name="l" horiz-adv-x="495" unicode="l" d="M123 39v1356q0 15 12 27t27 12h172q15 0 27 -12t12 -27v-1356q0 -15 -12 -27t-27 -12h-172q-15 0 -27 12t-12 27z"/>
<glyph glyph-name="m" horiz-adv-x="1595" unicode="m" d="M123 39v741q0 17 11.5 28t27.5 11h76q27 0 34 -22l29 -78q16 18 38 36t56.5 38.5t81.5 33.5t98 13q162 0 267 -127q17 18 40.5 36.5t60.5 40.5t86.5 36t100.5 14q95 0 166 -33.5t112 -91.5t61 -129.5t20 -155.5v-391q0 -16 -11 -27.5t-28 -11.5h-166q-17 0 -28 11.5 t-11 27.5v405q0 81 -39 127.5t-114 46.5q-33 0 -63 -9t-49 -21.5t-33.5 -25t-20.5 -21.5l-6 -9q2 -40 2 -77v-416q0 -15 -12 -27t-27 -12h-154q-17 0 -28 11.5t-11 27.5v405q0 82 -37.5 128t-113.5 46q-69 0 -111 -38.5t-61 -90.5v-450q0 -15 -12 -27t-27 -12h-166 q-15 0 -27 12t-12 27z"/>
<glyph glyph-name="n" horiz-adv-x="1062" unicode="n" d="M123 39v741q0 17 11.5 28t27.5 11h78q24 0 34 -24l29 -76q16 17 37.5 34t58 38.5t87.5 35t106 13.5q94 0 166 -33.5t114 -91.5t63 -129t21 -154v-393q0 -15 -11.5 -27t-26.5 -12h-168q-17 0 -28 11.5t-11 27.5v405q0 80 -40.5 127t-113.5 47q-72 0 -123 -40t-69 -89v-450 q0 -22 -11.5 -30.5t-40.5 -8.5h-151q-15 0 -27 12t-12 27z"/>
<glyph glyph-name="o" horiz-adv-x="958" unicode="o" d="M283 412q0 -88 56.5 -149.5t139.5 -61.5q82 0 139.5 61.5t57.5 149.5q0 86 -57.5 146t-139.5 60q-83 0 -139.5 -59.5t-56.5 -146.5zM59 412q0 114 56.5 212.5t153.5 157t210 58.5t210 -58.5t153.5 -157t56.5 -212.5q0 -177 -123.5 -304.5t-296.5 -127.5t-296.5 127.5 t-123.5 304.5z"/>
<glyph glyph-name="p" horiz-adv-x="1024" unicode="p" d="M365 248q6 -5 18.5 -13t54 -21t86.5 -13q85 0 142 61t57 148q0 88 -54 148t-137 60q-69 0 -112 -40.5t-55 -83.5v-246zM123 -575v1355q0 17 11.5 28t27.5 11h80q25 0 34 -24l27 -68q30 39 102.5 76t161.5 37q167 0 281.5 -126t114.5 -304q0 -180 -119.5 -305t-286.5 -125 q-100 0 -182 45v-600q0 -39 -49 -39h-164q-15 0 -27 12t-12 27z"/>
<glyph glyph-name="q" horiz-adv-x="1024" unicode="q" d="M301 406q0 -87 56.5 -146t142.5 -59q45 0 85 11.5t57 23.5l17 12v246q-12 43 -55 83.5t-112 40.5q-83 0 -137 -62t-54 -150zM61 410q0 178 114.5 304t281.5 126q89 0 161.5 -37t102.5 -76l27 68q9 24 34 24h80q16 0 27.5 -11t11.5 -28v-1355q0 -15 -12 -27t-27 -12h-164 q-49 0 -49 39v600q-82 -45 -182 -45q-167 0 -286.5 125t-119.5 305z"/>
<glyph glyph-name="r" horiz-adv-x="698" unicode="r" d="M123 39v741q0 17 11.5 28t27.5 11h78q26 0 36 -26l29 -80q20 28 45 52.5t77 49.5t110 25q77 0 126 -23q36 -17 36 -41q0 -9 -5 -18l-76 -133q-8 -14 -21.5 -19.5t-25.5 0.5q-36 12 -59 12q-55 0 -93 -27t-52 -56v-496q0 -39 -48 -39h-157q-15 0 -27 12t-12 27z"/>
<glyph glyph-name="s" horiz-adv-x="745" unicode="s" d="M68 598q0 102 76.5 172t224.5 70q157 0 252 -64q14 -9 19.5 -24.5t-1.5 -30.5l-51 -105q-7 -13 -22 -16t-27 2q-92 43 -170 43q-70 0 -70 -47q0 -28 39 -49q14 -6 74 -31q52 -20 90 -38t75 -43.5t60 -54t37 -67.5t14 -86q0 -105 -88 -177t-238 -72q-92 0 -162.5 22.5 t-109.5 52.5q-24 20 -12 43l55 111q6 15 20 18t27 -4q93 -49 187 -49q69 0 69 51q0 28 -28 49.5t-109 53.5q-119 46 -175 111.5t-56 158.5z"/>
<glyph glyph-name="t" horiz-adv-x="706" unicode="t" d="M59 643v137q0 17 11 28t26 11h70v228q0 15 12 26.5t27 11.5l168 2q15 0 26 -11.5t11 -26.5v-230h180q17 0 28 -11t11 -28v-137q0 -16 -11 -27.5t-28 -11.5h-180v-328q0 -39 16.5 -52t46.5 -13q37 0 100 22q35 12 45 -22l41 -129q3 -7 3 -14q0 -8 -4 -15q-6 -14 -21 -20 q-7 -4 -44 -16t-96 -24.5t-104 -12.5q-227 0 -227 264v360h-70q-15 0 -26 12t-11 27z"/>
<glyph glyph-name="u" horiz-adv-x="1030" unicode="u" d="M109 383v397q0 17 11.5 28t26.5 11h168q16 0 27.5 -11t11.5 -28v-403q0 -82 40 -129t110 -47q61 0 107.5 47t56.5 106v426q0 23 10 31t35 8h155q16 0 27.5 -11t11.5 -28v-741q0 -15 -12 -27t-27 -12h-75q-27 0 -39 31l-25 67q-2 -2 -15.5 -14.5t-20.5 -18.5t-24 -18.5 t-30.5 -20t-35 -17.5t-42.5 -15.5t-49 -9.5t-57 -4q-92 0 -160.5 33t-108 90.5t-58.5 127.5t-19 152z"/>
<glyph glyph-name="v" horiz-adv-x="856" unicode="v" d="M12 804q8 14 31 15h178q26 0 37 -22l166 -381h4l176 381q11 22 49 22h160q23 -1 31 -15q4 -6 4 -13q0 -10 -6 -21l-375 -770q-12 -20 -35 -20h-10q-23 0 -35 20l-373 770q-6 11 -6 21q0 7 4 13z"/>
<glyph glyph-name="w" horiz-adv-x="1261" unicode="w" d="M37 772q-4 9 -4 17q0 9 6 17q11 14 33 13h147q10 0 22 -7t15 -17l123 -367h2l209 393q10 19 33 19h16q22 0 33 -19l207 -393h2l123 367q5 16 15.5 20t31.5 4h133q22 1 33 -13q7 -8 7 -19q0 -7 -3 -15l-256 -770q-7 -22 -37 -22h-8q-22 0 -33 18l-258 477h-2l-256 -477 q-11 -18 -33 -18h-10q-28 0 -35 22z"/>
<glyph glyph-name="x" horiz-adv-x="923" unicode="x" d="M42 20q-2 6 -2 13q0 13 9 26l266 359l-258 342q-15 20 -5 39.5t36 19.5h170q25 0 40.5 -5t27.5 -23l133 -193h2l135 193q19 28 61 28h185h2q24 0 31 -19q2 -6 2 -12q0 -14 -11 -28l-258 -340l260 -361q9 -13 9 -26q0 -7 -2 -13q-7 -20 -31 -20h-180q-35 0 -58 33 l-145 205h-2l-156 -222q-12 -16 -33 -16h-196q-25 0 -32 20z"/>
<glyph glyph-name="y" horiz-adv-x="948" unicode="y" d="M16 766q-4 9 -4 18q0 10 6 18q10 17 33 17h185q23 0 34 -22l207 -463h2l205 463q7 14 17.5 18t31.5 4h164q25 0 35 -17q6 -8 6 -16q0 -10 -6 -20l-627 -1356q-12 -24 -35 -24h-176q-23 0 -34 16.5t-1 38.5l291 616z"/>
<glyph glyph-name="z" horiz-adv-x="749" unicode="z" d="M61 39v20l291 537v4h-233q-15 0 -26 12t-11 27v141q0 17 11 28t26 11h540h2q22 0 34 -17q6 -9 5 -18q0 -10 -6 -20l-297 -541v-6h221q17 0 28 -11t11 -28v-139q0 -16 -11 -27.5t-28 -11.5h-518q-15 0 -27 12t-12 27z"/>
<glyph glyph-name="braceleft" horiz-adv-x="806" unicode="{" d="M39 354v101q0 26 29 34q16 4 46 18.5t63.5 49t33.5 74.5v260q0 94 17.5 172.5t46.5 135t70 101t85.5 72t96 46t97.5 26.5t95 10h5q33 0 36 -35l8 -129q1 -16 -8 -25.5t-21 -11.5q-126 -27 -200 -119t-74 -243v-215q0 -61 -23 -113.5t-56.5 -84t-55 -47t-35.5 -21.5v-9 q26 -11 50.5 -27.5t54 -46t47.5 -77t18 -105.5v-219q0 -151 74 -241.5t200 -116.5q32 -9 29 -39l-8 -129q-2 -15 -13.5 -25t-24.5 -10h-3q-49 2 -95 10t-97.5 26t-96 45.5t-85.5 72t-70 100.5t-46.5 134.5t-17.5 172.5v252q0 61 -45.5 96t-95.5 43q-12 2 -21.5 12t-9.5 25z "/>
<glyph glyph-name="bar" horiz-adv-x="368" unicode="|" d="M133 -578v2096q0 17 11.5 27.5t27.5 10.5h27q15 0 26 -10.5t11 -27.5v-2096q0 -15 -12 -25.5t-27 -10.5h-25q-15 0 -27 10.5t-12 25.5z"/>
<glyph glyph-name="braceright" horiz-adv-x="806" unicode="}" d="M39 -471q-3 30 29 39q126 26 200 116.5t74 241.5v219q0 58 18 105.5t47.5 77t54 46t50.5 27.5v9q-14 6 -35.5 21.5t-55 47t-56.5 84t-23 113.5v215q0 151 -74 243t-200 119q-12 2 -21 11.5t-8 25.5l8 129q3 35 36 35h5q70 -3 134.5 -18t135 -54.5t121.5 -99.5t84 -160.5 t33 -230.5v-260q0 -40 33.5 -74.5t63.5 -49t46 -18.5q29 -8 29 -34v-101q0 -15 -9.5 -25t-21.5 -12q-50 -8 -95.5 -43t-45.5 -96v-252q0 -94 -17.5 -172.5t-46.5 -134.5t-70 -100.5t-85.5 -72t-96 -45.5t-97.5 -26t-95 -10h-3q-13 0 -24.5 10t-13.5 25z"/>
<glyph glyph-name="asciitilde" horiz-adv-x="1091" unicode="~" d="M56 516q0 11 7 21q6 8 17 21.5t45 48.5t68.5 61.5t83.5 48.5t94 22q41 0 83 -15t62 -27.5t62 -41.5q3 -2 15.5 -10.5t17 -11.5t17 -10.5t19 -10.5t18.5 -8.5t21 -7.5t20 -4t21 -2q82 0 152 106q12 15 29 15.5t30 -11.5l86 -90q11 -9 11.5 -17t0.5 -9q0 -13 -8 -23 q-6 -8 -16.5 -21.5t-43.5 -48.5t-67 -61.5t-82 -48t-92 -21.5q-16 0 -31 1.5t-30 5.5t-26.5 7t-26.5 10t-23 10.5t-24 13.5t-21 13t-22.5 14.5t-20.5 13.5q-28 20 -41.5 28.5t-40 18.5t-51.5 10q-83 0 -152 -105q-11 -15 -28 -16t-29 12q-57 57 -92 90q-12 13 -12 29z"/>
<glyph glyph-name="uni00A0" horiz-adv-x="452" unicode=" "/>
<glyph glyph-name="exclamdown" horiz-adv-x="544" unicode="¡" d="M121 -346l80 575q2 12 14 22.5t25 10.5h65q13 0 25 -10.5t14 -22.5l80 -571v-233q0 -15 -12 -27t-27 -12h-225q-15 0 -27 12t-12 27v229zM104 672q0 69 50 118.5t120 49.5q68 0 117 -49.5t49 -118.5t-49.5 -119.5t-116.5 -50.5q-70 0 -120 50.5t-50 119.5z"/>
<glyph glyph-name="cent" horiz-adv-x="843" unicode="¢" d="M281 410q0 -57 25 -104t69 -75l104 385q-83 -1 -140.5 -61t-57.5 -145zM39 410q0 118 61 217.5t161 156t214 56.5q24 0 64 -4l22 84q5 15 16 21t21 6q5 0 10 -1l25 -6q15 -3 22.5 -16.5t3.5 -30.5l-24 -86q78 -36 143 -113q11 -13 8 -30t-18 -27l-94 -90q-22 -19 -51 6 q-16 19 -45 37l-105 -387q33 0 59.5 6t48.5 20.5t31.5 22t30.5 27.5q25 25 51 6l88 -76q22 -18 22 -36q0 -10 -7 -21q-110 -172 -324 -172q-23 0 -59 4l-54 -197q-3 -15 -15.5 -21.5t-22.5 -6.5q-4 0 -9 1l-22 7q-15 3 -23.5 16.5t-5.5 28.5l53 196q-123 47 -199.5 155.5 t-76.5 246.5z"/>
<glyph glyph-name="sterling" horiz-adv-x="993" unicode="£" d="M86 635v27q0 15 11 26.5t26 11.5h63q-4 15 -18.5 69.5t-21.5 84t-14 77.5t-7 89q0 198 124 316t310 118q67 0 125 -14.5t105 -43t68 -44t52 -43.5q13 -10 13 -28q0 -15 -9 -26l-100 -120q-10 -14 -27 -15.5t-28 8.5q-12 11 -32 26.5t-72.5 42t-92.5 26.5 q-74 0 -127 -53.5t-53 -139.5q0 -60 36 -181.5t42 -148.5h237q17 0 28 -11.5t11 -26.5v-29q0 -15 -11 -26t-28 -11h-217q7 -43 7 -103q0 -33 -4 -106t-31 -160h401q15 0 26 -11t11 -28v-149q0 -15 -11 -27t-26 -12h-678q-15 0 -27 12t-12 27v37q91 173 91 363q0 77 -15 157 h-88q-15 0 -26 12t-11 27z"/>
<glyph glyph-name="currency" horiz-adv-x="933" unicode="¤" d="M360 680q0 -44 30.5 -74.5t74.5 -30.5q45 0 75.5 30.5t30.5 74.5q0 46 -30 76t-76 30q-45 0 -75 -30t-30 -76zM106 439q0 17 11 28l98 98q-25 54 -25 113q0 62 27 117l-98 98q-11 11 -11 28t11 27l82 80q11 10 28 10t27 -10l96 -96q54 26 115 26t115 -26l96 96 q10 10 26.5 10t28.5 -10l80 -82q11 -11 11.5 -26.5t-9.5 -26.5l-96 -96q27 -61 27 -120q0 -57 -25 -114l96 -96q11 -11 11 -27t-11 -28l-82 -80q-11 -11 -26.5 -11.5t-26.5 9.5l-98 98q-58 -28 -117 -28l-117 28l-98 -98q-10 -10 -27 -10t-28 10l-80 82q-11 10 -11 27z"/>
<glyph glyph-name="yen" horiz-adv-x="1296" unicode="¥" d="M46.5 1419.5q7.5 14.5 31.5 14.5h211q19 0 33 -19l327 -471l328 471q14 19 33 19h209q24 0 31.5 -14.5t7.5 -23.5q0 -11 -7 -22l-473 -682v-96h223q17 0 28 -11.5t11 -27.5v-29q0 -15 -11 -25.5t-28 -10.5h-223v-142h223q17 0 28 -11.5t11 -27.5v-28q0 -15 -11 -26 t-28 -11h-223v-207q0 -15 -12 -27t-27 -12h-188q-17 0 -28 11.5t-11 27.5v207h-227q-15 0 -26 12t-11 27v26q0 15 11 27t26 12h227v142h-227q-15 0 -26 11.5t-11 26.5v27q0 15 11 27t26 12h227v94l-467 684q-6 11 -6 21t7.5 24.5z"/>
<glyph glyph-name="brokenbar" horiz-adv-x="645" unicode="¦" d="M270 840v678q0 17 11.5 27.5t27.5 10.5h27q15 0 26 -10.5t11 -27.5v-678q0 -15 -12 -26t-27 -11h-25q-15 0 -27 11t-12 26zM270 100q0 17 11.5 28t27.5 11h27q15 0 26 -11t11 -28v-678q0 -15 -12 -25.5t-27 -10.5h-25q-15 0 -27 10.5t-12 25.5v678z"/>
<glyph glyph-name="section" horiz-adv-x="1048" unicode="§" d="M317 532q0 -33 13.5 -61t30.5 -47t57 -42.5t67.5 -37t86.5 -40.5q30 -14 46 -21q3 2 8.5 6t20 19t25 32t19.5 45.5t9 60.5q0 145 -309 240l-6.5 -6.5t-10 -9.5t-12 -13t-13 -17.5t-12 -20.5t-10.5 -25t-7 -29t-3 -33zM82 -289l63 109q17 29 40 29q15 0 32 -13 q1 0 33.5 -20.5t70 -41.5t92 -39t99.5 -18q70 0 122 36.5t52 103.5q0 43 -21 80t-59.5 66.5t-77 50.5t-88.5 42q-368 152 -368 418q0 155 147 279q-147 136 -147 290q0 69 25.5 133t76.5 118.5t138.5 87t199.5 32.5q70 0 138.5 -15.5t121 -40.5t81 -42t50.5 -33 q14 -8 19.5 -26.5t-4.5 -36.5l-84 -121q-15 -23 -35 -23q-15 0 -33 12q-155 103 -264 103q-82 0 -129 -39.5t-47 -91.5q0 -65 55.5 -116t175.5 -99q69 -27 119.5 -51.5t109.5 -63.5t96.5 -81.5t63 -103t25.5 -130.5q0 -86 -46 -159.5t-104 -125.5q150 -138 150 -299 q0 -75 -32 -144t-89.5 -121.5t-143 -84t-186.5 -31.5q-87 0 -165 18t-131.5 46.5t-82.5 48.5t-49 39q-12 12 -17 19.5t-5 18.5q0 14 12 31z"/>
<glyph glyph-name="dieresis" horiz-adv-x="847" unicode="¨" d="M512 1260q0 54 37.5 91.5t91.5 37.5t92.5 -37.5t38.5 -91.5t-38.5 -93t-92.5 -39t-91.5 39t-37.5 93zM100 1260q0 54 37.5 91.5t91.5 37.5t92.5 -37.5t38.5 -91.5t-38.5 -93t-92.5 -39t-91.5 39t-37.5 93z"/>
<glyph glyph-name="copyright" horiz-adv-x="1646" unicode="©" d="M457 713q0 161 112 273t271 112q129 0 229 -78q14 -12 15 -28.5t-11 -30.5l-69 -78q-8 -11 -24.5 -11.5t-27.5 7.5q-45 32 -110 32q-81 0 -135 -56.5t-54 -135.5q0 -82 54 -137.5t135 -55.5q58 0 108 33q12 9 27 8t24 -12l74 -82q11 -12 10.5 -28.5t-12.5 -28.5 q-102 -86 -233 -86q-158 0 -270.5 112.5t-112.5 270.5zM246 717q0 -156 77 -288.5t209.5 -210t288.5 -77.5q157 0 289.5 77.5t209.5 210t77 288.5q0 157 -77 289.5t-209.5 209t-289.5 76.5q-117 0 -223.5 -45.5t-183.5 -122t-122.5 -183.5t-45.5 -224zM86 717 q0 200 98.5 369.5t267.5 268.5t369 99q150 0 286.5 -58.5t235.5 -157.5t157.5 -235t58.5 -286q0 -120 -37.5 -232t-106 -202.5t-159 -158.5t-203 -105t-232.5 -37q-200 0 -369 98.5t-267.5 267.5t-98.5 369z"/>
<glyph glyph-name="ordfeminine" horiz-adv-x="636" unicode="ª" d="M211 1026q0 -34 21.5 -57t56.5 -23q34 0 64.5 22t39.5 50v67q-10 9 -38.5 16t-53.5 7q-38 0 -64 -23.5t-26 -58.5zM43 1024q0 84 65 138.5t177 54.5q28 0 55.5 -4.5t41.5 -8.5l13 -4q0 61 -17 86t-69 25q-50 0 -159 -25q-29 -6 -35 31l-13 67q-6 28 19 39q14 7 79 19 t128 12q131 0 182 -63.5t51 -200.5v-330q0 -12 -9 -20.5t-20 -8.5h-55q-17 0 -28 21q-2 7 -8.5 21.5t-8.5 21.5q-25 -23 -44 -37.5t-57.5 -28.5t-82.5 -14q-90 0 -147.5 57.5t-57.5 151.5z"/>
<glyph glyph-name="guillemotleft" horiz-adv-x="964" unicode="«" d="M463 397q-17 23 0 49l223 304q14 24 37 24h117q26 0 34 -19q3 -8 4 -16q0 -13 -8 -28l-139 -285l133 -301q11 -25 3 -43t-33 -19h-127q-18 0 -31 17zM53 397q-9 12 -9 24t9 25l223 304q14 24 37 24h117q26 0 34 -19q4 -8 4 -17q0 -13 -7 -27l-139 -285l133 -301 q11 -25 3 -43t-34 -19h-127q-18 0 -31 17z"/>
<glyph glyph-name="logicalnot" horiz-adv-x="1032" unicode="¬" d="M47 653v115q0 15 12 27t27 12h805q16 0 27.5 -12.5t11.5 -26.5v-463q0 -15 -12 -26t-27 -11h-115q-15 0 -27 11t-12 26v309h-651q-15 0 -27 12t-12 27z"/>
<glyph glyph-name="uni00AD" horiz-adv-x="710" unicode="­" d="M88 430v137q0 17 11 28t28 11h457q17 0 28 -11t11 -28v-137q0 -15 -11 -26t-28 -11h-457q-17 0 -28 11t-11 26z"/>
<glyph glyph-name="registered" horiz-adv-x="1646" unicode="®" d="M719 754h162q36 0 60 24t24 60q0 37 -23.5 60.5t-60.5 23.5h-162v-168zM547 383v672q0 16 11 27.5t28 11.5h317q101 0 176.5 -69.5t75.5 -184.5q0 -157 -145 -228l94 -213q9 -22 -2 -38.5t-33 -16.5h-111q-24 0 -36 29l-91 229h-106v-219q0 -16 -11 -27.5t-28 -11.5h-100 q-17 0 -28 11.5t-11 27.5zM246 717q0 -156 77 -288.5t209.5 -210t288.5 -77.5q157 0 289.5 77.5t209.5 210t77 288.5q0 157 -77 289.5t-209.5 209t-289.5 76.5q-117 0 -223.5 -45.5t-183.5 -122t-122.5 -183.5t-45.5 -224zM86 717q0 200 98.5 369.5t267.5 268.5t369 99 q150 0 286.5 -58.5t235.5 -157.5t157.5 -235t58.5 -286q0 -120 -37.5 -232t-106 -202.5t-159 -158.5t-203 -105t-232.5 -37q-200 0 -369 98.5t-267.5 267.5t-98.5 369z"/>
<glyph glyph-name="macron" horiz-adv-x="847" unicode="¯" d="M123 1204v70q0 17 11 28t28 11h524q17 0 28 -11t11 -28v-70q0 -15 -11 -26t-28 -11h-524q-17 0 -28 11t-11 26z"/>
<glyph glyph-name="degree" horiz-adv-x="634" unicode="°" d="M213 1178q0 -41 31.5 -73t72.5 -32q40 0 70.5 32t30.5 73q0 40 -30.5 70t-70.5 30q-41 0 -72.5 -30t-31.5 -70zM41 1178q0 116 80.5 196t195.5 80q114 0 195.5 -80.5t81.5 -195.5t-81.5 -196t-195.5 -81q-115 0 -195.5 80.5t-80.5 196.5z"/>
<glyph glyph-name="plusminus" horiz-adv-x="1146" unicode="±" d="M131 782v115q0 15 12 27t27 12h307v303q0 15 12 26t27 11h115q15 0 27 -11t12 -26v-303h307q15 0 26 -12t11 -27v-115q0 -15 -11 -27t-26 -12h-307v-211q0 -15 -12 -25.5t-27 -10.5h-115q-15 0 -27 10.5t-12 25.5v211h-307q-15 0 -27 12t-12 27zM131 135v115q0 15 12 27 t27 12h807q15 0 26 -12t11 -27v-115q0 -15 -11 -27t-26 -12h-807q-15 0 -27 12t-12 27z"/>
<glyph glyph-name="uni00B2" horiz-adv-x="567" unicode="²" d="M55 1051v34l226 258q51 57 51 103q0 31 -23 51.5t-59 20.5q-26 0 -51 -13t-39 -28q-19 -13 -33 6l-45 63q-10 11 -10 21.5t16 21.5q84 70 193 70q97 0 157 -52t60 -137q0 -84 -76 -176l-111 -131h164q8 0 13.5 -5.5t5.5 -12.5v-94q0 -19 -19 -19h-399q-21 0 -21 19z"/>
<glyph glyph-name="uni00B3" horiz-adv-x="542" unicode="³" d="M53 1116l45 60q13 19 35 4l5 -4q6 -3 14.5 -7.5t20 -9.5t26.5 -8.5t30 -3.5q40 0 63 17t23 46q0 30 -25 49t-71 19h-59q-31 0 -31 29v63q0 29 31 29h59q38 0 61 17.5t23 45.5t-22 45t-56 17q-43 0 -80 -33q-8 -6 -15 -5.5t-15 11.5l-49 59q-8 8 -8 19.5t10 17.5 q8 7 22 18t61.5 29.5t98.5 18.5q99 0 160 -46.5t61 -123.5q0 -51 -31.5 -88t-72.5 -55v-3q47 -18 84.5 -56.5t37.5 -98.5q0 -82 -68.5 -129t-170.5 -47q-120 0 -195 67q-9 9 -9 19q0 9 7 18z"/>
<glyph glyph-name="acute" horiz-adv-x="618" unicode="´" d="M94 1167q-4 8 -4 15q0 14 16 24l334 199q11 9 26 9q2 0 11.5 -1t16.5 -14l59 -105q7 -15 7 -26q0 -19 -19 -29l-359 -158q-13 -5 -24 -5q-20 0 -29 18z"/>
<glyph glyph-name="uni00B5" horiz-adv-x="1073" unicode="µ" d="M125 -575v1355q0 17 11.5 28t27.5 11h168q16 0 27.5 -11t11.5 -28v-407q3 -75 42.5 -117.5t106.5 -42.5q61 0 107.5 47.5t56.5 106.5v413q0 23 10 31t35 8h156q16 0 27.5 -11t11.5 -28v-741q0 -15 -12 -27t-27 -12h-76q-27 0 -39 31l-25 67q-2 -2 -15.5 -14.5 t-20.5 -18.5t-24 -18.5t-30.5 -20t-35 -17.5t-42.5 -15.5t-49 -9.5t-57 -4q-53 0 -100 12v-567q0 -15 -12 -27t-27 -12h-168q-15 0 -27 12t-12 27z"/>
<glyph glyph-name="paragraph" horiz-adv-x="1435" unicode="¶" d="M39 1006q0 176 115.5 302t281.5 126l934 -2q15 0 27 -12t12 -27v-95q0 -17 -11.5 -27.5t-27.5 -10.5h-160v-1835q0 -16 -11 -27.5t-28 -11.5h-110q-15 0 -27 12t-12 27v1835h-279v-1835q0 -15 -11.5 -27t-26.5 -12h-111q-15 0 -27 12t-12 27v1150h-90 q-175 0 -300.5 125.5t-125.5 305.5z"/>
<glyph glyph-name="periodcentered" horiz-adv-x="528" unicode="·" d="M80 524q0 78 54 133.5t128 55.5q78 0 133.5 -55.5t55.5 -133.5q0 -74 -55.5 -128t-133.5 -54q-74 0 -128 54t-54 128z"/>
<glyph glyph-name="cedilla" horiz-adv-x="505" unicode="¸" d="M78 -403l41 34q9 9 22 8t21 -10q21 -24 61 -24q30 0 51 22.5t21 53.5q0 39 -37 66.5t-113 33.5q-34 4 -34 37v182h135v-106q93 -12 145.5 -68t52.5 -143q0 -89 -63 -152t-154 -63q-45 0 -86.5 19.5t-68.5 51.5q-10 12 -10 25q0 19 16 33z"/>
<glyph glyph-name="uni00B9" horiz-adv-x="401" unicode="¹" d="M27 1520q0 11 14 22l152 96h104q7 0 12.5 -5t5.5 -13v-569q0 -8 -5.5 -13.5t-12.5 -5.5h-127q-9 0 -14.5 5.5t-5.5 13.5v395l-101 -8q-18 0 -18 18z"/>
<glyph glyph-name="ordmasculine" horiz-adv-x="618" unicode="º" d="M221 1130q0 -87 23.5 -133.5t66.5 -46.5q42 0 66 47t24 133q0 87 -24 134t-66 47q-43 0 -66.5 -47t-23.5 -134zM51 1130q0 154 67 239t193 85q125 0 190.5 -85t65.5 -239q0 -153 -66 -238t-190 -85q-126 0 -193 85t-67 238z"/>
<glyph glyph-name="guillemotright" horiz-adv-x="964" unicode="»" d="M498 755q8 19 34 19h117q23 0 37 -24l223 -304q9 -13 9 -25t-9 -24l-213 -317q-13 -17 -30 -17h-127q-25 1 -33 19t2 43l133 301l-139 285q-12 25 -4 44zM88 755q8 19 35 19h117q22 0 36 -24l224 -304q8 -13 8 -25t-8 -24l-213 -317q-13 -17 -31 -17h-127q-25 1 -33 19 t2 43l133 301l-139 285q-7 15 -7 27q-1 9 3 17z"/>
<glyph glyph-name="onequarter" horiz-adv-x="1359" unicode="¼" d="M868 238h152v170zM719 133v105l334 362q6 6 16 6h84q7 0 12.5 -5t5.5 -13v-348h82q7 0 13 -5.5t6 -11.5v-88q0 -7 -5.5 -12.5t-13.5 -5.5h-82v-99q0 -8 -5.5 -13t-12.5 -5h-115q-8 0 -14 5.5t-6 12.5v99h-281q-7 0 -12.5 5t-5.5 11zM182 55l703 1358q11 21 35 21h102 q23 0 31.5 -13.5t8.5 -23.5q0 -9 -5 -19l-707 -1358q-3 -7 -13.5 -13.5t-21.5 -6.5h-98q-23 0 -34 17.5t-1 37.5zM43 1315q0 11 14 22l152 97h104q7 0 13 -6t6 -13v-569q0 -8 -6 -13.5t-13 -5.5h-127q-9 0 -14.5 5.5t-5.5 13.5v395l-100 -8q-19 0 -19 18z"/>
<glyph glyph-name="onehalf" horiz-adv-x="1353" unicode="½" d="M801 18v35l225 258q51 57 51 103q0 31 -23 51t-59 20q-26 0 -51 -13t-39 -28q-19 -13 -33 7l-45 63q-10 11 -9.5 21.5t16.5 21.5q84 70 192 70q97 0 157 -52t60 -137q0 -84 -76 -176l-110 -131h164q7 0 12.5 -5.5t5.5 -12.5v-95q0 -18 -18 -18h-400q-20 0 -20 18zM182 55 l703 1358q11 21 35 21h102q23 0 31.5 -13.5t8.5 -23.5q0 -9 -5 -19l-707 -1358q-3 -7 -13.5 -13.5t-21.5 -6.5h-98q-23 0 -34 17.5t-1 37.5zM43 1315q0 11 14 22l152 97h104q7 0 13 -6t6 -13v-569q0 -8 -6 -13.5t-13 -5.5h-127q-9 0 -14.5 5.5t-5.5 13.5v395l-100 -8 q-19 0 -19 18z"/>
<glyph glyph-name="threequarters" horiz-adv-x="1435" unicode="¾" d="M944 238h152v170zM795 133v105l333 362q6 6 17 6h84q7 0 12.5 -5t5.5 -13v-348h82q7 0 13 -5.5t6 -11.5v-88q0 -7 -5.5 -12.5t-13.5 -5.5h-82v-99q0 -8 -5.5 -13t-12.5 -5h-115q-8 0 -14 5.5t-6 12.5v99h-281q-7 0 -12.5 5t-5.5 11zM258 55l703 1358q11 21 34 21h103 q23 0 31.5 -13.5t8.5 -23.5q0 -9 -5 -19l-707 -1358q-3 -7 -13.5 -13.5t-21.5 -6.5h-98q-23 0 -34 17.5t-1 37.5zM66 911l45 60q13 18 34 4l5 -3q6 -4 15 -9t20.5 -9.5t26.5 -8t30 -3.5q40 0 63 17.5t23 46.5q0 30 -25.5 48.5t-71.5 18.5h-59q-31 0 -31 29v63q0 29 31 29h59 q38 0 61 17.5t23 45.5t-21.5 45t-55.5 17q-43 0 -80 -33q-8 -6 -15.5 -5.5t-15.5 11.5l-49 60q-8 8 -8 19.5t10 17.5q8 7 22 18t61.5 29t98.5 18q99 0 160 -46.5t61 -123.5q0 -51 -31.5 -88t-72.5 -55v-2q47 -18 85 -57t38 -99q0 -82 -68.5 -129t-171.5 -47q-119 0 -194 67 q-9 9 -9 19q0 9 7 18z"/>
<glyph glyph-name="questiondown" horiz-adv-x="888" unicode="¿" d="M305 672q0 69 50.5 118.5t119.5 49.5t118.5 -49.5t49.5 -118.5t-49.5 -119.5t-118.5 -50.5t-119.5 50.5t-50.5 119.5zM39 -291q0 58 23 110t57.5 87.5t75 70.5t75 60.5t57.5 56t23 58.5v67q0 19 10.5 31t30.5 12h166q16 0 27.5 -11t11.5 -28v-86q0 -54 -29.5 -103 t-71 -85.5t-83.5 -71t-71.5 -73.5t-29.5 -78q0 -58 45 -98t119 -40q43 0 82 13.5t59.5 29t45.5 37t34 27.5q25 15 45 -2l97 -94q12 -11 12 -26q0 -17 -12 -28q-6 -7 -17 -19.5t-49 -43.5t-81 -54.5t-112.5 -43t-142.5 -19.5q-164 0 -280.5 98t-116.5 246z"/>
<glyph glyph-name="Agrave" d="M473 489h412l-205 451h-6zM447 1752q-4 15 6 34l57 106q7 13 16 13.5t10 0.5q16 0 27 -8l336 -200q9 -5 13 -15.5t-1 -23.5l-37 -72q-13 -30 -51 -14l-358 158q-14 6 -18 21zM0 53l637 1379q11 22 35 22h20q24 0 35 -22l631 -1379q4 -9 4 -18q0 -10 -8 -22.5t-31 -12.5 h-178q-23 0 -36 9.5t-24 31.5l-100 221h-612l-101 -221q-16 -41 -59 -41h-178q-23 0 -31 12.5t-8 22.5q0 9 4 18z" unicode="À"/>
<glyph glyph-name="Aacute" d="M473 489h412l-205 451h-6zM445.5 1682.5q4.5 10.5 13.5 15.5l336 200q16 10 29 10q15 0 24 -16l57 -106q10 -19 6 -34t-18 -21l-358 -158q-39 -16 -52 14l-37 72q-5 13 -0.5 23.5zM0 53l637 1379q11 22 35 22h20q24 0 35 -22l631 -1379q4 -9 4 -18q0 -10 -8 -22.5 t-31 -12.5h-178q-23 0 -36 9.5t-24 31.5l-100 221h-612l-101 -221q-16 -41 -59 -41h-178q-23 0 -31 12.5t-8 22.5q0 9 4 18z" unicode="Á"/>
<glyph glyph-name="Acircumflex" d="M473 489h412l-205 451h-6zM377 1672.5q4 10.5 14 17.5l266 206q10 8 21 8t22 -8l267 -206q10 -7 14 -17.5t-2 -21.5l-53 -76q-9 -13 -18.5 -14.5t-28.5 8.5l-199 125l-201 -125q-19 -10 -28.5 -8.5t-18.5 14.5l-53 76q-6 11 -2 21.5zM0 53l637 1379q11 22 35 22h20 q24 0 35 -22l631 -1379q4 -9 4 -18q0 -10 -8 -22.5t-31 -12.5h-178q-23 0 -36 9.5t-24 31.5l-100 221h-612l-101 -221q-16 -41 -59 -41h-178q-23 0 -31 12.5t-8 22.5q0 9 4 18z" unicode="Â"/>
<glyph glyph-name="Atilde" d="M473 489h412l-205 451h-6zM359 1681q-4 15 1 25q12 23 18 33.5t29 41.5t43.5 48.5t54 33t68.5 15.5q36 0 68 -17.5t52.5 -39t47 -39t52.5 -17.5q24 0 43 19t28.5 39t26 31t35.5 -5l57 -41q14 -10 14 -27q0 -15 -12 -36l-8 -13q-8 -14 -10.5 -18.5t-12 -19t-16 -21.5 t-18 -20t-21 -20.5t-23.5 -17t-27 -14.5t-29.5 -8.5t-33.5 -3.5q-36 0 -70 18t-56 39.5t-48.5 39.5t-48.5 18q-24 0 -43 -19t-27.5 -39.5t-24.5 -32.5t-36 3l-59 43q-10 7 -14 22zM0 53l637 1379q11 22 35 22h20q24 0 35 -22l631 -1379q4 -9 4 -18q0 -10 -8 -22.5t-31 -12.5 h-178q-23 0 -36 9.5t-24 31.5l-100 221h-612l-101 -221q-16 -41 -59 -41h-178q-23 0 -31 12.5t-8 22.5q0 9 4 18z" unicode="Ã"/>
<glyph glyph-name="Adieresis" d="M801 1718q0 54 37.5 91.5t91.5 37.5t92.5 -37.5t38.5 -91.5t-38.5 -92.5t-92.5 -38.5t-91.5 38.5t-37.5 92.5zM473 489h412l-205 451h-6zM295 1718q0 54 37.5 91.5t91.5 37.5t92.5 -37.5t38.5 -91.5t-38.5 -92.5t-92.5 -38.5t-91.5 38.5t-37.5 92.5zM0 53l637 1379 q11 22 35 22h20q24 0 35 -22l631 -1379q4 -9 4 -18q0 -10 -8 -22.5t-31 -12.5h-178q-23 0 -36 9.5t-24 31.5l-100 221h-612l-101 -221q-16 -41 -59 -41h-178q-23 0 -31 12.5t-8 22.5q0 9 4 18z" unicode="Ä"/>
<glyph glyph-name="Aring" d="M575 1776q0 -40 31.5 -71.5t71.5 -31.5q39 0 68.5 31.5t29.5 71.5t-29 69t-69 29t-71.5 -29.5t-31.5 -68.5zM473 489h412l-205 451h-6zM446 1776q0 97 67.5 164t164.5 67q96 0 163.5 -67.5t67.5 -163.5t-67.5 -164t-163.5 -68q-97 0 -164.5 67.5t-67.5 164.5zM0 53 l637 1379q11 22 35 22h20q24 0 35 -22l631 -1379q4 -9 4 -18q0 -10 -8 -22.5t-31 -12.5h-178q-23 0 -36 9.5t-24 31.5l-100 221h-612l-101 -221q-16 -41 -59 -41h-178q-23 0 -31 12.5t-8 22.5q0 9 4 18z" unicode="Å"/>
<glyph glyph-name="AE" horiz-adv-x="1843" unicode="Æ" d="M537 489h286v463zM-26 11.5q-5 11.5 -5 17.5q0 11 8 24l822 1317q2 3 7.5 11.5t7 11t6.5 9t7 8.5l7 7t8.5 6.5t9 4.5t10.5 3.5t12 1.5t15 1h809q17 0 28 -11.5t11 -27.5v-168q0 -16 -11 -27.5t-28 -11.5h-613v-336h512q15 0 27 -12t12 -27v-170q0 -17 -11.5 -28 t-27.5 -11h-512v-358h613q17 0 28 -11.5t11 -27.5v-168q0 -16 -11 -27.5t-28 -11.5h-836q-17 0 -28 11.5t-11 27.5v223h-430l-145 -231q-21 -31 -51 -31h-195q-23 0 -28 11.5z"/>
<glyph glyph-name="Ccedilla" horiz-adv-x="1404" unicode="Ç" d="M84 715q0 151 58.5 288t157 235.5t235.5 157t288 58.5q152 0 270.5 -47t225.5 -143q13 -12 13.5 -29t-11.5 -29l-125 -129q-10 -12 -24.5 -12t-26.5 12q-65 57 -147.5 89t-168.5 32q-128 0 -233.5 -65.5t-164 -174.5t-58.5 -237q0 -127 59 -235.5t165 -173t234 -64.5 q170 0 314 117q12 10 27 9.5t24 -9.5l127 -132q10 -10 10 -25q0 -18 -12 -30q-201 -195 -494 -198v-86q93 -12 146 -68t53 -143q0 -89 -63 -152t-154 -63q-45 0 -87 19.5t-69 51.5q-12 14 -10 30t16 28l41 34q9 9 22 8t21 -10q21 -24 62 -24q30 0 51 22.5t21 53.5 q0 39 -37 66.5t-113 33.5q-35 5 -35 37v174q-172 29 -310.5 131t-218 257.5t-79.5 334.5z"/>
<glyph glyph-name="Egrave" horiz-adv-x="1204" unicode="È" d="M422 1752q-4 15 6 34l57 106q7 13 16.5 13.5t10.5 0.5q16 0 27 -8l335 -200q9 -5 13.5 -15.5t-0.5 -23.5l-37 -72q-13 -30 -51 -14l-359 158q-14 6 -18 21zM186 39v1356q0 16 11 27.5t28 11.5h834q17 0 28 -11.5t11 -27.5v-168q0 -16 -11 -27.5t-28 -11.5h-606v-336h505 q15 0 27 -12t12 -27v-170q0 -17 -11.5 -28t-27.5 -11h-505v-358h606q17 0 28 -11.5t11 -27.5v-168q0 -16 -11 -27.5t-28 -11.5h-834q-17 0 -28 11.5t-11 27.5z"/>
<glyph glyph-name="Eacute" horiz-adv-x="1204" unicode="É" d="M423 1682.5q4 10.5 13 15.5l336 200q16 10 29 10q15 0 24 -16l58 -106q10 -19 5.5 -34t-18.5 -21l-358 -158q-38 -16 -51 14l-37 72q-5 13 -1 23.5zM186 39v1356q0 16 11 27.5t28 11.5h834q17 0 28 -11.5t11 -27.5v-168q0 -16 -11 -27.5t-28 -11.5h-606v-336h505 q15 0 27 -12t12 -27v-170q0 -17 -11.5 -28t-27.5 -11h-505v-358h606q17 0 28 -11.5t11 -27.5v-168q0 -16 -11 -27.5t-28 -11.5h-834q-17 0 -28 11.5t-11 27.5z"/>
<glyph glyph-name="Ecircumflex" horiz-adv-x="1204" unicode="Ê" d="M342 1672.5q4 10.5 14 17.5l267 206q10 8 21 8t22 -8l266 -206q10 -7 14 -17.5t-2 -21.5l-53 -76q-9 -13 -18.5 -14.5t-28.5 8.5l-199 125l-201 -125q-19 -10 -28.5 -8.5t-18.5 14.5l-53 76q-6 11 -2 21.5zM186 39v1356q0 16 11 27.5t28 11.5h834q17 0 28 -11.5t11 -27.5 v-168q0 -16 -11 -27.5t-28 -11.5h-606v-336h505q15 0 27 -12t12 -27v-170q0 -17 -11.5 -28t-27.5 -11h-505v-358h606q17 0 28 -11.5t11 -27.5v-168q0 -16 -11 -27.5t-28 -11.5h-834q-17 0 -28 11.5t-11 27.5z"/>
<glyph glyph-name="Edieresis" horiz-adv-x="1204" unicode="Ë" d="M776 1718q0 54 37.5 91.5t91.5 37.5t92.5 -37.5t38.5 -91.5t-38.5 -92.5t-92.5 -38.5t-91.5 38.5t-37.5 92.5zM270 1718q0 54 37.5 91.5t91.5 37.5t92.5 -37.5t38.5 -91.5t-38.5 -92.5t-92.5 -38.5t-91.5 38.5t-37.5 92.5zM186 39v1356q0 16 11 27.5t28 11.5h834 q17 0 28 -11.5t11 -27.5v-168q0 -16 -11 -27.5t-28 -11.5h-606v-336h505q15 0 27 -12t12 -27v-170q0 -17 -11.5 -28t-27.5 -11h-505v-358h606q17 0 28 -11.5t11 -27.5v-168q0 -16 -11 -27.5t-28 -11.5h-834q-17 0 -28 11.5t-11 27.5z"/>
<glyph glyph-name="Igrave" horiz-adv-x="641" unicode="Ì" d="M186 39v1356q0 15 12 27t27 12h191q15 0 27 -12t12 -27v-1356q0 -15 -12 -27t-27 -12h-191q-15 0 -27 12t-12 27zM87.5 1746.5q-2.5 9.5 -2.5 14.5q0 12 7 25l58 106q7 13 16 13.5t10 0.5q16 0 27 -8l336 -200q9 -5 12 -12.5t3 -12.5q0 -6 -3 -14l-37 -72q-8 -20 -28 -20 q-10 0 -23 6l-359 158q-14 6 -16.5 15.5z"/>
<glyph glyph-name="Iacute" horiz-adv-x="641" unicode="Í" d="M186 39v1356q0 15 12 27t27 12h191q15 0 27 -12t12 -27v-1356q0 -15 -12 -27t-27 -12h-191q-15 0 -27 12t-12 27zM88 1685.5q3 7.5 12 12.5l336 200q16 10 29 10q15 0 24 -16l58 -106q7 -14 7 -25q0 -5 -2.5 -14.5t-16.5 -15.5l-359 -158q-13 -6 -23 -6q-19 0 -28 20 l-37 72q-3 7 -3 14q0 5 3 12.5z"/>
<glyph glyph-name="Icircumflex" horiz-adv-x="641" unicode="Î" d="M186 39v1356q0 15 12 27t27 12h191q15 0 27 -12t12 -27v-1356q0 -15 -12 -27t-27 -12h-191q-15 0 -27 12t-12 27zM16 1675.5q3 7.5 13 14.5l266 206q10 8 21 8t22 -8l266 -206q10 -7 13 -14.5t3 -11.5q0 -6 -4 -13l-53 -76q-9 -13 -14.5 -14t-6.5 -1q-9 0 -26 9l-199 125 l-200 -125q-17 -9 -26 -9q-1 0 -6.5 1t-14.5 14l-54 76q-3 6 -3 12q0 5 3 12.5z"/>
<glyph glyph-name="Idieresis" horiz-adv-x="641" unicode="Ï" d="M442 1718q0 54 37.5 91.5t91.5 37.5t92.5 -37.5t38.5 -91.5t-38.5 -92.5t-92.5 -38.5t-91.5 38.5t-37.5 92.5zM186 39v1356q0 15 12 27t27 12h191q15 0 27 -12t12 -27v-1356q0 -15 -12 -27t-27 -12h-191q-15 0 -27 12t-12 27zM-63 1718q0 54 37.5 91.5t91.5 37.5 t92.5 -37.5t38.5 -91.5t-38.5 -92.5t-92.5 -38.5t-91.5 38.5t-37.5 92.5z"/>
<glyph glyph-name="Eth" horiz-adv-x="1521" unicode="Ð" d="M461 250h233q199 0 330 134t131 335q0 200 -131 333.5t-330 133.5h-233v-424h338q17 0 28 -11.5t11 -27.5v-29q0 -15 -11 -26t-28 -11h-338v-407zM100 696v27q0 15 11 27t26 12h60v633q0 15 10.5 27t25.5 12h486q145 0 278.5 -57t230 -153t153.5 -228t57 -277 q0 -117 -36.5 -227t-103 -198t-155 -154.5t-198 -103t-226.5 -36.5h-486q-15 0 -25.5 12t-10.5 27v618h-60q-15 0 -26 12t-11 27z"/>
<glyph glyph-name="Ntilde" horiz-adv-x="1583" unicode="Ñ" d="M471.5 1681q-3.5 15 1.5 25q12 23 18 33.5t29 41.5t43.5 48.5t54 33t68.5 15.5q36 0 68 -17.5t52 -39t46.5 -39t52.5 -17.5q24 0 43 19t28.5 39t26 31t35.5 -5l58 -41q14 -10 14 -27q0 -15 -12 -36l-8 -13q-8 -14 -10.5 -18.5t-12 -19t-16 -21.5t-18 -20t-21 -20.5 t-23.5 -17t-27 -14.5t-29.5 -8.5t-33.5 -3.5q-36 0 -70 18t-56 39.5t-48.5 39.5t-48.5 18q-24 0 -43 -19t-27.5 -39.5t-24.5 -32.5t-36 3l-60 43q-10 7 -13.5 22zM186 39v1378q0 15 12 26t27 11h51l852 -905h2v846q0 16 11 27.5t28 11.5h189q15 0 27 -12t12 -27v-1379 q0 -15 -12 -25.5t-27 -10.5h-49l-856 940h-2v-881q0 -16 -11 -27.5t-28 -11.5h-187q-15 0 -27 12t-12 27z"/>
<glyph glyph-name="Ograve" horiz-adv-x="1638" unicode="Ò" d="M592 1752q-4 15 6 34l57 106q7 13 16.5 13.5t10.5 0.5q16 0 27 -8l335 -200q9 -5 13.5 -15.5t-0.5 -23.5l-37 -72q-13 -30 -51 -14l-359 158q-14 6 -18 21zM350 715q0 -193 138 -331t331 -138q127 0 235.5 63t172 171t63.5 235t-63.5 236t-172 173t-235.5 64t-235 -64 t-171 -173t-63 -236zM84 715q0 101 26 197t73 177t114.5 149t148.5 115.5t176.5 74t196.5 26.5q151 0 287.5 -58t235 -157t156.5 -236t58 -288t-58 -287.5t-156.5 -234.5t-235 -155.5t-287.5 -57.5t-287.5 57.5t-234.5 155.5t-155.5 234.5t-57.5 287.5z"/>
<glyph glyph-name="Oacute" horiz-adv-x="1638" unicode="Ó" d="M589 1682.5q4 10.5 13 15.5l336 200q16 10 29 10q15 0 24 -16l58 -106q10 -19 5.5 -34t-18.5 -21l-358 -158q-38 -16 -51 14l-37 72q-5 13 -1 23.5zM350 715q0 -193 138 -331t331 -138q127 0 235.5 63t172 171t63.5 235t-63.5 236t-172 173t-235.5 64t-235 -64t-171 -173 t-63 -236zM84 715q0 101 26 197t73 177t114.5 149t148.5 115.5t176.5 74t196.5 26.5q151 0 287.5 -58t235 -157t156.5 -236t58 -288t-58 -287.5t-156.5 -234.5t-235 -155.5t-287.5 -57.5t-287.5 57.5t-234.5 155.5t-155.5 234.5t-57.5 287.5z"/>
<glyph glyph-name="Ocircumflex" horiz-adv-x="1638" unicode="Ô" d="M516 1672.5q4 10.5 14 17.5l267 206q10 8 21 8t22 -8l266 -206q10 -7 14 -17.5t-2 -21.5l-53 -76q-9 -13 -18.5 -14.5t-28.5 8.5l-199 125l-201 -125q-19 -10 -28.5 -8.5t-18.5 14.5l-53 76q-6 11 -2 21.5zM350 715q0 -193 138 -331t331 -138q127 0 235.5 63t172 171 t63.5 235t-63.5 236t-172 173t-235.5 64t-235 -64t-171 -173t-63 -236zM84 715q0 101 26 197t73 177t114.5 149t148.5 115.5t176.5 74t196.5 26.5q151 0 287.5 -58t235 -157t156.5 -236t58 -288t-58 -287.5t-156.5 -234.5t-235 -155.5t-287.5 -57.5t-287.5 57.5 t-234.5 155.5t-155.5 234.5t-57.5 287.5z"/>
<glyph glyph-name="Otilde" horiz-adv-x="1638" unicode="Õ" d="M502.5 1681q-3.5 15 1.5 25q12 23 18 33.5t29 41.5t43.5 48.5t54 33t68.5 15.5q36 0 68 -17.5t52 -39t46.5 -39t52.5 -17.5q24 0 43 19t28.5 39t26 31t35.5 -5l57 -41q14 -10 14 -27q0 -15 -12 -36q-1 -1 -8 -13.5t-10.5 -18t-12.5 -19t-15 -21.5t-17.5 -20.5t-21 -20 t-23 -17t-27 -14.5t-30 -8.5t-33.5 -3.5q-36 0 -70 18t-56 39.5t-48.5 39.5t-48.5 18q-24 0 -43 -19t-28 -39.5t-25 -32.5t-36 3l-59 43q-10 7 -13.5 22zM350 715q0 -193 138 -331t331 -138q127 0 235.5 63t172 171t63.5 235t-63.5 236t-172 173t-235.5 64t-235 -64 t-171 -173t-63 -236zM84 715q0 101 26 197t73 177t114.5 149t148.5 115.5t176.5 74t196.5 26.5q151 0 287.5 -58t235 -157t156.5 -236t58 -288t-58 -287.5t-156.5 -234.5t-235 -155.5t-287.5 -57.5t-287.5 57.5t-234.5 155.5t-155.5 234.5t-57.5 287.5z"/>
<glyph glyph-name="Odieresis" horiz-adv-x="1638" unicode="Ö" d="M942 1718q0 54 37.5 91.5t91.5 37.5t92.5 -37.5t38.5 -91.5t-38.5 -92.5t-92.5 -38.5t-91.5 38.5t-37.5 92.5zM436 1718q0 54 37.5 91.5t91.5 37.5t92.5 -37.5t38.5 -91.5t-38.5 -92.5t-92.5 -38.5t-91.5 38.5t-37.5 92.5zM350 715q0 -193 138 -331t331 -138 q127 0 235.5 63t172 171t63.5 235t-63.5 236t-172 173t-235.5 64t-235 -64t-171 -173t-63 -236zM84 715q0 101 26 197t73 177t114.5 149t148.5 115.5t176.5 74t196.5 26.5q151 0 287.5 -58t235 -157t156.5 -236t58 -288t-58 -287.5t-156.5 -234.5t-235 -155.5t-287.5 -57.5 t-287.5 57.5t-234.5 155.5t-155.5 234.5t-57.5 287.5z"/>
<glyph glyph-name="multiply" horiz-adv-x="950" unicode="×" d="M112 467q0 17 11 27l217 217l-217 217q-11 10 -11 27t11 28l80 82q11 11 28 11t27 -11l217 -217l217 219q10 10 25 10l1 -1q16 0 27 -11l82 -82q12 -12 12 -28q0 -15 -10 -25l-217 -219l217 -217q10 -11 10 -27q0 -18 -12 -29l-82 -80q-11 -12 -27 -12h-1q-15 0 -25 10 l-217 219l-217 -217q-10 -10 -26 -10t-27 10l-82 82q-11 10 -11 27z"/>
<glyph glyph-name="Oslash" horiz-adv-x="1636" unicode="Ø" d="M526 348q130 -102 293 -102q193 0 332 139t139 332q0 168 -104 291zM350 715q0 -160 103 -291l661 659q-137 105 -295 105q-127 0 -235 -64t-171 -173t-63 -236zM84 715q0 101 26 197t73 177t114.5 149t148.5 115.5t176.5 74t196.5 26.5q135 0 260 -47.5t224 -132.5 l139 137q10 11 26 11t27 -11l21 -20q10 -11 10 -26.5t-10 -27.5l-140 -139q85 -99 132.5 -222.5t47.5 -258.5q0 -151 -58 -287.5t-156.5 -235t-235 -156.5t-287.5 -58q-283 0 -483 178l-133 -133q-11 -10 -26.5 -9.5t-26.5 11.5l-21 20q-11 11 -11.5 26.5t9.5 26.5l133 131 q-176 205 -176 484z"/>
<glyph glyph-name="Ugrave" horiz-adv-x="1476" unicode="Ù" d="M504 1752q-4 15 6 34l57 106q7 13 16.5 13.5t10.5 0.5q16 0 27 -8l335 -200q9 -5 13.5 -15.5t-0.5 -23.5l-37 -72q-13 -30 -51 -14l-359 158q-14 6 -18 21zM168 543v852q0 15 12 27t27 12h194q17 0 28 -11.5t11 -27.5v-838q0 -133 83 -222t214 -89t215 89t84 220v840 q0 16 11 27.5t28 11.5h195q15 0 27 -12t12 -27v-852q0 -115 -44 -219t-120 -179.5t-182.5 -120t-225.5 -44.5q-158 0 -289 75.5t-205.5 204.5t-74.5 283z"/>
<glyph glyph-name="Uacute" horiz-adv-x="1476" unicode="Ú" d="M509 1682.5q4 10.5 13 15.5l336 200q16 10 29 10q15 0 24 -16l58 -106q10 -19 5.5 -34t-18.5 -21l-358 -158q-38 -16 -51 14l-37 72q-5 13 -1 23.5zM168 543v852q0 15 12 27t27 12h194q17 0 28 -11.5t11 -27.5v-838q0 -133 83 -222t214 -89t215 89t84 220v840 q0 16 11 27.5t28 11.5h195q15 0 27 -12t12 -27v-852q0 -115 -44 -219t-120 -179.5t-182.5 -120t-225.5 -44.5q-158 0 -289 75.5t-205.5 204.5t-74.5 283z"/>
<glyph glyph-name="Ucircumflex" horiz-adv-x="1476" unicode="Û" d="M436.5 1672.5q4.5 10.5 14.5 17.5l266 206q10 8 21 8t22 -8l266 -206q10 -7 14 -17.5t-2 -21.5l-53 -76q-9 -13 -18.5 -14.5t-28.5 8.5l-199 125l-200 -125q-19 -10 -28.5 -8.5t-18.5 14.5l-54 76q-6 11 -1.5 21.5zM168 543v852q0 15 12 27t27 12h194q17 0 28 -11.5 t11 -27.5v-838q0 -133 83 -222t214 -89t215 89t84 220v840q0 16 11 27.5t28 11.5h195q15 0 27 -12t12 -27v-852q0 -115 -44 -219t-120 -179.5t-182.5 -120t-225.5 -44.5q-158 0 -289 75.5t-205.5 204.5t-74.5 283z"/>
<glyph glyph-name="Udieresis" horiz-adv-x="1476" unicode="Ü" d="M860 1718q0 54 37.5 91.5t91.5 37.5t92.5 -37.5t38.5 -91.5t-38.5 -92.5t-92.5 -38.5t-91.5 38.5t-37.5 92.5zM354 1718q0 54 37.5 91.5t91.5 37.5t92.5 -37.5t38.5 -91.5t-38.5 -92.5t-92.5 -38.5t-91.5 38.5t-37.5 92.5zM168 543v852q0 15 12 27t27 12h194 q17 0 28 -11.5t11 -27.5v-838q0 -133 83 -222t214 -89t215 89t84 220v840q0 16 11 27.5t28 11.5h195q15 0 27 -12t12 -27v-852q0 -115 -44 -219t-120 -179.5t-182.5 -120t-225.5 -44.5q-158 0 -289 75.5t-205.5 204.5t-74.5 283z"/>
<glyph glyph-name="Yacute" horiz-adv-x="1193" unicode="Ý" d="M364 1682.5q4 10.5 13 15.5l336 200q16 10 29 10q15 0 24 -16l57 -106q10 -19 6 -34t-18 -21l-358 -158q-39 -16 -52 14l-36 72q-5 13 -1 23.5zM-4.5 1419.5q7.5 14.5 31.5 14.5h209q18 0 32 -19l328 -471l328 471q14 19 32 19h211q24 0 31.5 -14.5t7.5 -24.5 q0 -11 -6 -21l-473 -682v-653q0 -15 -12 -27t-27 -12h-188q-17 0 -28 11.5t-11 27.5v651l-467 684q-6 11 -6 21t7.5 24.5z"/>
<glyph glyph-name="Thorn" horiz-adv-x="1210" unicode="Þ" d="M453 510h237q87 0 149 61.5t62 151.5q0 84 -62 141.5t-149 57.5h-237v-412zM186 39v1356q0 16 11 27.5t28 11.5h189q15 0 27 -12t12 -27v-221h254h4q122 0 226.5 -60.5t166 -165.5t61.5 -227q0 -125 -61.5 -231t-166.5 -168t-228 -62h-256v-221q0 -15 -12 -27t-27 -12 h-189q-17 0 -28 11.5t-11 27.5z"/>
<glyph glyph-name="germandbls" horiz-adv-x="1058" unicode="ß" d="M123 39v805q0 300 129.5 455t355.5 155q65 0 125 -19.5t109.5 -57t79.5 -101t30 -143.5q0 -62 -25 -127.5t-55.5 -110.5t-55.5 -94.5t-25 -83.5q0 -24 21.5 -56t52 -68.5t61 -79t52 -100t21.5 -118.5q0 -81 -29 -143.5t-78 -99t-107 -54.5t-121 -18q-18 0 -27.5 0.5 t-26.5 4t-26 12.5t-11 23l-18 138q-2 15 8.5 27.5t26.5 11.5h12q54 0 97.5 25.5t43.5 78.5q0 36 -22 74t-53.5 71.5t-62.5 68.5t-53 78t-22 87q0 47 26 108.5t57 112t57 112t26 109.5q0 49 -32 80t-80 31q-39 0 -74 -20t-66.5 -63t-50 -122.5t-18.5 -187.5v-801 q0 -15 -12 -27t-27 -12h-174q-15 0 -27 12t-12 27z"/>
<glyph glyph-name="agrave" horiz-adv-x="872" unicode="à" d="M289 260q0 -46 29.5 -76t76.5 -30q45 0 88 28t54 51v113q-56 25 -115 25q-60 0 -96.5 -30.5t-36.5 -80.5zM238 1294l57 105q7 13 16.5 14t11.5 1q14 0 25 -9l336 -199q10 -5 13.5 -16t-1.5 -23l-37 -73q-13 -29 -51 -13l-358 158q-20 10 -20 28q0 12 8 27zM63 260 q0 112 88 185t240 73q36 0 73.5 -5.5t57.5 -10.5l19 -6v6q0 72 -24.5 103.5t-82.5 31.5q-54 0 -122.5 -10t-106.5 -21q-7 -2 -14 -2q-28 0 -33 39l-19 107q-1 7 -1 13q0 28 30 38q12 5 49 13t103.5 17t125.5 9q94 0 157 -23.5t97.5 -72t48 -110.5t13.5 -151v-444 q0 -15 -12 -27t-27 -12h-74q-22 0 -35 29l-24 55q-114 -104 -250 -104q-124 0 -200.5 75.5t-76.5 204.5z"/>
<glyph glyph-name="aacute" horiz-adv-x="872" unicode="á" d="M289 260q0 -46 29.5 -76t76.5 -30q45 0 88 28t54 51v113q-56 25 -115 25q-60 0 -96.5 -30.5t-36.5 -80.5zM231 1167q-11 23 13 39l334 199q11 9 25 9q2 0 11.5 -1t16.5 -14l59 -105q18 -40 -12 -55l-359 -158q-38 -15 -53 13zM63 260q0 112 88 185t240 73q36 0 73.5 -5.5 t57.5 -10.5l19 -6v6q0 72 -24.5 103.5t-82.5 31.5q-54 0 -122.5 -10t-106.5 -21q-7 -2 -14 -2q-28 0 -33 39l-19 107q-1 7 -1 13q0 28 30 38q12 5 49 13t103.5 17t125.5 9q94 0 157 -23.5t97.5 -72t48 -110.5t13.5 -151v-444q0 -15 -12 -27t-27 -12h-74q-22 0 -35 29l-24 55 q-114 -104 -250 -104q-124 0 -200.5 75.5t-76.5 204.5z"/>
<glyph glyph-name="acircumflex" horiz-adv-x="872" unicode="â" d="M289 260q0 -46 29.5 -76t76.5 -30q45 0 88 28t54 51v113q-56 25 -115 25q-60 0 -96.5 -30.5t-36.5 -80.5zM137.5 1180.5q4.5 10.5 14.5 17.5l266 207q10 9 21 9t22 -9l266 -207q10 -7 14 -17.5t-2 -21.5l-53 -76q-9 -13 -18.5 -14.5t-28.5 8.5l-199 125l-200 -125 q-19 -10 -28.5 -8.5t-18.5 14.5l-54 76q-6 11 -1.5 21.5zM63 260q0 112 88 185t240 73q36 0 73.5 -5.5t57.5 -10.5l19 -6v6q0 72 -24.5 103.5t-82.5 31.5q-54 0 -122.5 -10t-106.5 -21q-7 -2 -14 -2q-28 0 -33 39l-19 107q-1 7 -1 13q0 28 30 38q12 5 49 13t103.5 17 t125.5 9q94 0 157 -23.5t97.5 -72t48 -110.5t13.5 -151v-444q0 -15 -12 -27t-27 -12h-74q-22 0 -35 29l-24 55q-114 -104 -250 -104q-124 0 -200.5 75.5t-76.5 204.5z"/>
<glyph glyph-name="atilde" horiz-adv-x="872" unicode="ã" d="M289 260q0 -46 29.5 -76t76.5 -30q45 0 88 28t54 51v113q-56 25 -115 25q-60 0 -96.5 -30.5t-36.5 -80.5zM125.5 1216q-3.5 15 1.5 25q12 23 18 33.5t29 41.5t43.5 48.5t54 33t68.5 15.5q36 0 68 -17.5t52 -39t46.5 -39t52.5 -17.5q24 0 43 19t28.5 39t26 31t35.5 -5 l58 -41q14 -10 14 -27q0 -15 -12 -36l-8 -14q-8 -13 -10.5 -17.5t-12 -19t-16 -21.5t-18 -20t-21 -20.5t-23.5 -17t-27 -14.5t-29.5 -8.5t-33.5 -3.5q-36 0 -70 18t-56 39.5t-48.5 39.5t-48.5 18q-24 0 -43 -19t-27.5 -39.5t-24.5 -32.5t-36 3l-60 43q-10 7 -13.5 22z M63 260q0 112 88 185t240 73q36 0 73.5 -5.5t57.5 -10.5l19 -6v6q0 72 -24.5 103.5t-82.5 31.5q-54 0 -122.5 -10t-106.5 -21q-7 -2 -14 -2q-28 0 -33 39l-19 107q-1 7 -1 13q0 28 30 38q12 5 49 13t103.5 17t125.5 9q94 0 157 -23.5t97.5 -72t48 -110.5t13.5 -151v-444 q0 -15 -12 -27t-27 -12h-74q-22 0 -35 29l-24 55q-114 -104 -250 -104q-124 0 -200.5 75.5t-76.5 204.5z"/>
<glyph glyph-name="adieresis" horiz-adv-x="872" unicode="ä" d="M524 1260q0 54 37.5 91.5t91.5 37.5t92.5 -37.5t38.5 -91.5t-38.5 -93t-92.5 -39t-91.5 39t-37.5 93zM289 260q0 -46 29.5 -76t76.5 -30q45 0 88 28t54 51v113q-56 25 -115 25q-60 0 -96.5 -30.5t-36.5 -80.5zM113 1260q0 54 37.5 91.5t91.5 37.5t92.5 -37.5t38.5 -91.5 t-38.5 -93t-92.5 -39t-91.5 39t-37.5 93zM63 260q0 112 88 185t240 73q36 0 73.5 -5.5t57.5 -10.5l19 -6v6q0 72 -24.5 103.5t-82.5 31.5q-54 0 -122.5 -10t-106.5 -21q-7 -2 -14 -2q-28 0 -33 39l-19 107q-1 7 -1 13q0 28 30 38q12 5 49 13t103.5 17t125.5 9 q94 0 157 -23.5t97.5 -72t48 -110.5t13.5 -151v-444q0 -15 -12 -27t-27 -12h-74q-22 0 -35 29l-24 55q-114 -104 -250 -104q-124 0 -200.5 75.5t-76.5 204.5z"/>
<glyph glyph-name="aring" horiz-adv-x="872" unicode="å" d="M348 1223q0 -40 31.5 -71.5t71.5 -31.5q39 0 68.5 31.5t29.5 71.5t-29 69t-69 29t-71.5 -29.5t-31.5 -68.5zM289 260q0 -46 29.5 -76t76.5 -30q45 0 88 28t54 51v113q-56 25 -115 25q-60 0 -96.5 -30.5t-36.5 -80.5zM219 1223q0 97 67.5 164t164.5 67q96 0 163.5 -67.5 t67.5 -163.5q0 -97 -68 -164.5t-163 -67.5q-97 0 -164.5 67.5t-67.5 164.5zM63 260q0 112 88 185t240 73q36 0 73.5 -5.5t57.5 -10.5l19 -6v6q0 72 -24.5 103.5t-82.5 31.5q-54 0 -122.5 -10t-106.5 -21q-7 -2 -14 -2q-28 0 -33 39l-19 107q-1 7 -1 13q0 28 30 38 q12 5 49 13t103.5 17t125.5 9q94 0 157 -23.5t97.5 -72t48 -110.5t13.5 -151v-444q0 -15 -12 -27t-27 -12h-74q-22 0 -35 29l-24 55q-114 -104 -250 -104q-124 0 -200.5 75.5t-76.5 204.5z"/>
<glyph glyph-name="ae" horiz-adv-x="1372" unicode="æ" d="M776 514h307q-3 58 -46.5 97.5t-102.5 39.5q-61 0 -105.5 -39t-52.5 -98zM287 266q0 -49 33.5 -79.5t80.5 -30.5q25 0 48.5 9t38.5 21.5t26.5 25t17.5 21.5l5 9v106q-55 27 -127 27q-51 0 -87 -30.5t-36 -78.5zM61 260q0 113 86.5 185.5t233.5 72.5q37 0 76 -4t59 -8 l21 -4q-3 83 -25.5 116t-87.5 33q-94 0 -223 -33q-15 -2 -29.5 8t-17.5 25l-19 111q-1 14 9 26t24 15q151 37 278 37q182 0 248 -84q108 84 246 84q160 0 271.5 -107.5t111.5 -273.5q0 -20 -1 -31.5t-4.5 -27.5t-13 -23.5t-24.5 -7.5h-522q8 -70 60.5 -125.5t133.5 -55.5 q84 0 162 54q35 23 53 0l82 -97q24 -32 -2 -53q-121 -112 -305 -112q-195 0 -307 133q-37 -47 -113.5 -90t-177.5 -43q-127 0 -205 76t-78 204z"/>
<glyph glyph-name="ccedilla" horiz-adv-x="876" unicode="ç" d="M61 410q0 118 61.5 217.5t161.5 156t214 56.5q182 0 303 -146q11 -13 8 -30t-18 -27l-95 -90q-22 -19 -51 6q-58 65 -141 65t-142 -61t-59 -147q0 -88 58 -148.5t141 -60.5q38 0 70 12t48.5 25t38.5 34l7 7q25 25 51 6l88 -76q22 -18 22 -35q0 -11 -8 -22 q-112 -169 -315 -172v-84q93 -12 145.5 -68t52.5 -143q0 -89 -63 -152t-154 -63q-45 0 -86.5 19.5t-68.5 51.5q-12 14 -10 30t16 28l41 34q9 9 22 8t21 -10q21 -24 61 -24q30 0 51 22.5t21 53.5q0 39 -37 66.5t-113 33.5q-34 4 -34 37v180q-134 39 -221 151t-87 259z"/>
<glyph glyph-name="egrave" horiz-adv-x="911" unicode="è" d="M313 512h310q-5 57 -48.5 98t-101.5 41q-61 0 -106.5 -40t-53.5 -99zM248 1294l57 105q7 13 16.5 14t11.5 1q14 0 25 -9l336 -199q10 -5 14 -16t-1 -23l-37 -73q-13 -29 -52 -13l-358 158q-20 10 -20 28q0 12 8 27zM61 410q0 115 53 213t149.5 157.5t215.5 59.5 q160 0 271.5 -108.5t111.5 -272.5q0 -28 -4 -56q-1 -15 -13 -24.5t-26 -9.5h-524q5 -69 59 -124t138 -55q88 0 159 52q35 21 54 0l83 -97q11 -11 11.5 -25.5t-13.5 -27.5q-121 -112 -305 -112q-182 0 -301 125t-119 305z"/>
<glyph glyph-name="eacute" horiz-adv-x="911" unicode="é" d="M313 512h310q-5 57 -48.5 98t-101.5 41q-61 0 -106.5 -40t-53.5 -99zM240 1167q-12 23 12 39l334 199q11 9 25 9q2 0 11.5 -1t16.5 -14l59 -105q18 -40 -12 -55l-358 -158q-38 -15 -54 13zM61 410q0 115 53 213t149.5 157.5t215.5 59.5q160 0 271.5 -108.5t111.5 -272.5 q0 -28 -4 -56q-1 -15 -13 -24.5t-26 -9.5h-524q5 -69 59 -124t138 -55q88 0 159 52q35 21 54 0l83 -97q11 -11 11.5 -25.5t-13.5 -27.5q-121 -112 -305 -112q-182 0 -301 125t-119 305z"/>
<glyph glyph-name="ecircumflex" horiz-adv-x="911" unicode="ê" d="M313 512h310q-5 57 -48.5 98t-101.5 41q-61 0 -106.5 -40t-53.5 -99zM172 1180.5q4 10.5 14 17.5l267 207q10 9 21 9t22 -9l266 -207q10 -7 14 -17.5t-2 -21.5l-53 -76q-9 -13 -18.5 -14.5t-28.5 8.5l-199 125l-201 -125q-19 -10 -28.5 -8.5t-18.5 14.5l-53 76 q-6 11 -2 21.5zM61 410q0 115 53 213t149.5 157.5t215.5 59.5q160 0 271.5 -108.5t111.5 -272.5q0 -28 -4 -56q-1 -15 -13 -24.5t-26 -9.5h-524q5 -69 59 -124t138 -55q88 0 159 52q35 21 54 0l83 -97q11 -11 11.5 -25.5t-13.5 -27.5q-121 -112 -305 -112q-182 0 -301 125 t-119 305z"/>
<glyph glyph-name="edieresis" horiz-adv-x="911" unicode="ë" d="M551 1260q0 54 37.5 91.5t91.5 37.5t92.5 -37.5t38.5 -91.5t-38.5 -93t-92.5 -39t-91.5 39t-37.5 93zM313 512h310q-5 57 -48.5 98t-101.5 41q-61 0 -106.5 -40t-53.5 -99zM139 1260q0 54 37.5 91.5t91.5 37.5t92.5 -37.5t38.5 -91.5t-38.5 -93t-92.5 -39t-91.5 39 t-37.5 93zM61 410q0 115 53 213t149.5 157.5t215.5 59.5q160 0 271.5 -108.5t111.5 -272.5q0 -28 -4 -56q-1 -15 -13 -24.5t-26 -9.5h-524q5 -69 59 -124t138 -55q88 0 159 52q35 21 54 0l83 -97q11 -11 11.5 -25.5t-13.5 -27.5q-121 -112 -305 -112q-182 0 -301 125 t-119 305z"/>
<glyph glyph-name="igrave" horiz-adv-x="493" unicode="ì" d="M123 39v741q0 17 11.5 28t27.5 11h170q16 0 27.5 -11t11.5 -28v-741q0 -15 -12 -27t-27 -12h-170q-15 0 -27 12t-12 27zM13 1255q-3 9 -3 14q0 11 6 25l58 105q7 13 16.5 14t11.5 1q14 0 25 -9l336 -199q10 -5 12.5 -13t2.5 -12q0 -7 -3 -14l-37 -73q-8 -19 -27 -19 q-10 0 -24 6l-358 158q-13 7 -16 16z"/>
<glyph glyph-name="iacute" horiz-adv-x="493" unicode="í" d="M123 39v741q0 17 11.5 28t27.5 11h170q16 0 27.5 -11t11.5 -28v-741q0 -15 -12 -27t-27 -12h-170q-15 0 -27 12t-12 27zM10 1167q-3 7 -3 14q0 14 16 25l333 199q11 9 26 9q2 0 11.5 -1t16.5 -14l59 -105q7 -15 7 -26q0 -19 -19 -29l-359 -158q-13 -5 -24 -5 q-20 0 -29 18z"/>
<glyph glyph-name="icircumflex" horiz-adv-x="493" unicode="î" d="M123 39v741q0 17 11.5 28t27.5 11h170q16 0 27.5 -11t11.5 -28v-741q0 -15 -12 -27t-27 -12h-170q-15 0 -27 12t-12 27zM-58 1183.5q3 7.5 13 14.5l266 207q10 9 21 9t22 -9l266 -207q10 -7 13 -14.5t3 -12.5q0 -6 -3 -12l-54 -76q-9 -13 -14.5 -14t-6.5 -1q-9 0 -26 9 l-198 125l-201 -125q-17 -9 -26 -9q-1 0 -6.5 1t-14.5 14l-53 76q-4 7 -4 13q0 4 3 11.5z"/>
<glyph glyph-name="idieresis" horiz-adv-x="493" unicode="ï" d="M322 1260q0 54 37.5 91.5t91.5 37.5t92.5 -37.5t38.5 -91.5t-38.5 -93t-92.5 -39t-91.5 39t-37.5 93zM123 39v741q0 17 11.5 28t27.5 11h170q16 0 27.5 -11t11.5 -28v-741q0 -15 -12 -27t-27 -12h-170q-15 0 -27 12t-12 27zM-90 1260q0 54 37.5 91.5t91.5 37.5 t92.5 -37.5t38.5 -91.5t-38.5 -93t-92.5 -39t-91.5 39t-37.5 93z"/>
<glyph glyph-name="eth" horiz-adv-x="1081" unicode="ð" d="M291 453q0 -97 68.5 -168.5t164.5 -71.5q48 0 88.5 18t68 48t46.5 69t28 81t9 85q-21 67 -83.5 122.5t-154.5 55.5q-98 0 -166.5 -70t-68.5 -169zM59 449q0 85 24 158t64.5 125t94 89t113.5 54.5t122 17.5q65 0 133 -19t101 -38q-42 145 -215 270l-166 -96 q-14 -7 -28.5 -3.5t-22.5 15.5l-15 27q-8 12 -4.5 28t16.5 23l119 67q-71 40 -135 62q-41 13 -41 40q0 9 4 19l47 121q9 32 38 32q9 0 20 -3q161 -66 280 -146l142 82q15 7 30 2.5t23 -18.5l14 -23q8 -13 4.5 -29.5t-16.5 -23.5l-107 -61q139 -118 225.5 -286t86.5 -390 q0 -117 -31.5 -218.5t-91 -179t-154 -122.5t-211.5 -45q-189 0 -326 138t-137 331z"/>
<glyph glyph-name="ntilde" horiz-adv-x="1062" unicode="ñ" d="M230 1216q-4 15 1 25q12 23 18 33.5t29 41.5t43.5 48.5t54 33t68.5 15.5q36 0 68 -17.5t52.5 -39t47 -39t52.5 -17.5q24 0 43 19t28.5 39t26 31t35.5 -5l57 -41q14 -10 14 -27q0 -15 -12 -36l-8 -14q-8 -13 -10.5 -17.5t-12 -19t-16 -21.5t-18 -20t-21 -20.5t-23.5 -17 t-27 -14.5t-29.5 -8.5t-33.5 -3.5q-36 0 -70 18t-56 39.5t-48.5 39.5t-48.5 18q-24 0 -43 -19t-27.5 -39.5t-24.5 -32.5t-36 3l-59 43q-10 7 -14 22zM123 39v741q0 17 11.5 28t27.5 11h78q24 0 34 -24l29 -76q16 17 37.5 34t58 38.5t87.5 35t106 13.5q94 0 166 -33.5 t114 -91.5t63 -129t21 -154v-393q0 -15 -11.5 -27t-26.5 -12h-168q-17 0 -28 11.5t-11 27.5v405q0 80 -40.5 127t-113.5 47q-72 0 -123 -40t-69 -89v-450q0 -22 -11.5 -30.5t-40.5 -8.5h-151q-15 0 -27 12t-12 27z"/>
<glyph glyph-name="ograve" horiz-adv-x="958" unicode="ò" d="M283 412q0 -88 56.5 -149.5t139.5 -61.5q82 0 139.5 61.5t57.5 149.5q0 86 -57.5 146t-139.5 60q-83 0 -139.5 -59.5t-56.5 -146.5zM256 1294l57 105q7 13 16.5 14t11.5 1q14 0 26 -9l335 -199q10 -5 14 -16t-1 -23l-37 -73q-13 -29 -51 -13l-359 158q-20 10 -20 28 q0 12 8 27zM59 412q0 114 56.5 212.5t153.5 157t210 58.5t210 -58.5t153.5 -157t56.5 -212.5q0 -177 -123.5 -304.5t-296.5 -127.5t-296.5 127.5t-123.5 304.5z"/>
<glyph glyph-name="oacute" horiz-adv-x="958" unicode="ó" d="M283 412q0 -88 56.5 -149.5t139.5 -61.5q82 0 139.5 61.5t57.5 149.5q0 86 -57.5 146t-139.5 60q-83 0 -139.5 -59.5t-56.5 -146.5zM246 1167q-12 23 12 39l334 199q11 9 25 9q2 0 11.5 -1t16.5 -14l60 -105q8 -21 4 -35t-17 -20l-358 -158q-38 -15 -53 13zM59 412 q0 114 56.5 212.5t153.5 157t210 58.5t210 -58.5t153.5 -157t56.5 -212.5q0 -177 -123.5 -304.5t-296.5 -127.5t-296.5 127.5t-123.5 304.5z"/>
<glyph glyph-name="ocircumflex" horiz-adv-x="958" unicode="ô" d="M283 412q0 -88 56.5 -149.5t139.5 -61.5q82 0 139.5 61.5t57.5 149.5q0 86 -57.5 146t-139.5 60q-83 0 -139.5 -59.5t-56.5 -146.5zM174 1180.5q4 10.5 14 17.5l267 207q10 9 21 9t22 -9l266 -207q10 -7 14 -17.5t-2 -21.5l-53 -76q-9 -13 -18.5 -14.5t-28.5 8.5 l-199 125l-201 -125q-19 -10 -28.5 -8.5t-18.5 14.5l-53 76q-6 11 -2 21.5zM59 412q0 114 56.5 212.5t153.5 157t210 58.5t210 -58.5t153.5 -157t56.5 -212.5q0 -177 -123.5 -304.5t-296.5 -127.5t-296.5 127.5t-123.5 304.5z"/>
<glyph glyph-name="otilde" horiz-adv-x="958" unicode="õ" d="M283 412q0 -88 56.5 -149.5t139.5 -61.5q82 0 139.5 61.5t57.5 149.5q0 86 -57.5 146t-139.5 60q-83 0 -139.5 -59.5t-56.5 -146.5zM158.5 1216q-3.5 15 1.5 25q12 23 18 33.5t29 41.5t43.5 48.5t54 33t68.5 15.5q36 0 68 -17.5t52 -39t46.5 -39t52.5 -17.5q24 0 43 19 t28.5 39t26 31t35.5 -5l57 -41q14 -10 14 -27q0 -15 -12 -36q-1 -1 -8 -13.5t-10.5 -18t-12.5 -19t-15 -21.5t-17.5 -20.5t-21 -20t-23 -17t-27 -14.5t-30 -8.5t-33.5 -3.5q-36 0 -70 18t-56 39.5t-49 39.5t-49 18q-24 0 -43 -19t-27.5 -39.5t-24.5 -32.5t-36 3l-59 43 q-10 7 -13.5 22zM59 412q0 114 56.5 212.5t153.5 157t210 58.5t210 -58.5t153.5 -157t56.5 -212.5q0 -177 -123.5 -304.5t-296.5 -127.5t-296.5 127.5t-123.5 304.5z"/>
<glyph glyph-name="odieresis" horiz-adv-x="958" unicode="ö" d="M553 1260q0 54 37.5 91.5t91.5 37.5t92.5 -37.5t38.5 -91.5t-38.5 -93t-92.5 -39t-91.5 39t-37.5 93zM283 412q0 -88 56.5 -149.5t139.5 -61.5q82 0 139.5 61.5t57.5 149.5q0 86 -57.5 146t-139.5 60q-83 0 -139.5 -59.5t-56.5 -146.5zM141 1260q0 54 37.5 91.5 t91.5 37.5t92.5 -37.5t38.5 -91.5t-38.5 -93t-92.5 -39t-91.5 39t-37.5 93zM59 412q0 114 56.5 212.5t153.5 157t210 58.5t210 -58.5t153.5 -157t56.5 -212.5q0 -177 -123.5 -304.5t-296.5 -127.5t-296.5 127.5t-123.5 304.5z"/>
<glyph glyph-name="divide" horiz-adv-x="1034" unicode="÷" d="M371 1106q0 58 41.5 99.5t99.5 41.5t99.5 -41.5t41.5 -99.5q0 -57 -41.5 -99t-99.5 -42t-99.5 42t-41.5 99zM371 328q0 58 40.5 98.5t98.5 40.5q59 0 100 -40.5t41 -98.5q0 -59 -41.5 -100.5t-99.5 -41.5t-98.5 41.5t-40.5 100.5zM76 651v115q0 15 12 27t27 12h807 q15 0 25.5 -12t10.5 -27v-115q0 -15 -10.5 -27t-25.5 -12h-807q-15 0 -27 12t-12 27z"/>
<glyph glyph-name="oslash" horiz-adv-x="958" unicode="ø" d="M379 229q45 -28 102 -28q81 0 138 62.5t57 150.5q0 48 -23 96zM285 414q0 -57 22 -103l275 277q-43 30 -101 30q-83 0 -139.5 -59t-56.5 -145zM61 414q0 114 56.5 212t153.5 156t210 58q141 0 258 -95l54 54q11 12 26.5 11.5t26.5 -11.5l20 -21q12 -10 12 -25.5 t-12 -27.5l-53 -53q86 -117 86 -258q0 -116 -56 -216t-152.5 -159t-209.5 -59q-144 0 -260 92l-43 -45q-10 -11 -27.5 -10.5t-27.5 12.5l-19 20q-11 11 -11.5 26.5t9.5 26.5l45 45q-86 117 -86 267z"/>
<glyph glyph-name="ugrave" horiz-adv-x="1030" unicode="ù" d="M293 1294l57 105q7 13 16.5 14t11.5 1q14 0 25 -9l336 -199q10 -5 14 -16t-1 -23l-37 -73q-13 -29 -51 -13l-359 158q-20 10 -20 28q0 12 8 27zM109 383v397q0 17 11.5 28t26.5 11h168q16 0 27.5 -11t11.5 -28v-403q0 -82 40 -129t110 -47q61 0 107.5 47t56.5 106v426 q0 23 10 31t35 8h155q16 0 27.5 -11t11.5 -28v-741q0 -15 -12 -27t-27 -12h-75q-27 0 -39 31l-25 67q-2 -2 -15.5 -14.5t-20.5 -18.5t-24 -18.5t-30.5 -20t-35 -17.5t-42.5 -15.5t-49 -9.5t-57 -4q-92 0 -160.5 33t-108 90.5t-58.5 127.5t-19 152z"/>
<glyph glyph-name="uacute" horiz-adv-x="1030" unicode="ú" d="M285 1167q-12 23 12 39l334 199q11 9 25 9q2 0 11.5 -1t16.5 -14l59 -105q18 -40 -12 -55l-358 -158q-38 -15 -54 13zM109 383v397q0 17 11.5 28t26.5 11h168q16 0 27.5 -11t11.5 -28v-403q0 -82 40 -129t110 -47q61 0 107.5 47t56.5 106v426q0 23 10 31t35 8h155 q16 0 27.5 -11t11.5 -28v-741q0 -15 -12 -27t-27 -12h-75q-27 0 -39 31l-25 67q-2 -2 -15.5 -14.5t-20.5 -18.5t-24 -18.5t-30.5 -20t-35 -17.5t-42.5 -15.5t-49 -9.5t-57 -4q-92 0 -160.5 33t-108 90.5t-58.5 127.5t-19 152z"/>
<glyph glyph-name="ucircumflex" horiz-adv-x="1030" unicode="û" d="M209 1180.5q4 10.5 14 17.5l266 207q10 9 21 9t22 -9l267 -207q10 -7 14 -17.5t-2 -21.5l-53 -76q-9 -13 -18.5 -14.5t-28.5 8.5l-199 125l-201 -125q-19 -10 -28.5 -8.5t-18.5 14.5l-53 76q-6 11 -2 21.5zM109 383v397q0 17 11.5 28t26.5 11h168q16 0 27.5 -11t11.5 -28 v-403q0 -82 40 -129t110 -47q61 0 107.5 47t56.5 106v426q0 23 10 31t35 8h155q16 0 27.5 -11t11.5 -28v-741q0 -15 -12 -27t-27 -12h-75q-27 0 -39 31l-25 67q-2 -2 -15.5 -14.5t-20.5 -18.5t-24 -18.5t-30.5 -20t-35 -17.5t-42.5 -15.5t-49 -9.5t-57 -4q-92 0 -160.5 33 t-108 90.5t-58.5 127.5t-19 152z"/>
<glyph glyph-name="udieresis" horiz-adv-x="1030" unicode="ü" d="M602 1260q0 54 37.5 91.5t91.5 37.5t92.5 -37.5t38.5 -91.5t-38.5 -93t-92.5 -39t-91.5 39t-37.5 93zM190 1260q0 54 37.5 91.5t91.5 37.5t93 -37.5t39 -91.5t-39 -93t-93 -39t-91.5 39t-37.5 93zM109 383v397q0 17 11.5 28t26.5 11h168q16 0 27.5 -11t11.5 -28v-403 q0 -82 40 -129t110 -47q61 0 107.5 47t56.5 106v426q0 23 10 31t35 8h155q16 0 27.5 -11t11.5 -28v-741q0 -15 -12 -27t-27 -12h-75q-27 0 -39 31l-25 67q-2 -2 -15.5 -14.5t-20.5 -18.5t-24 -18.5t-30.5 -20t-35 -17.5t-42.5 -15.5t-49 -9.5t-57 -4q-92 0 -160.5 33 t-108 90.5t-58.5 127.5t-19 152z"/>
<glyph glyph-name="yacute" horiz-adv-x="948" unicode="ý" d="M248 1167q-12 23 12 39l334 199q11 9 25 9q2 0 11.5 -1t16.5 -14l60 -105q8 -21 4 -35t-17 -20l-358 -158q-38 -15 -53 13zM16 766q-4 9 -4 18q0 10 8 22.5t31 12.5h185q23 0 34 -22l207 -463h2l205 463q7 14 17.5 18t31.5 4h164q25 0 33 -12.5t8 -20.5q0 -9 -6 -20 l-627 -1356q-12 -24 -35 -24h-176q-23 0 -34 16.5t-1 38.5l291 616z"/>
<glyph glyph-name="thorn" horiz-adv-x="1024" unicode="þ" d="M375 258q17 -21 57.5 -38t93.5 -17q86 0 142.5 59.5t56.5 147.5q0 87 -54.5 147.5t-140.5 60.5q-63 0 -105 -26t-50 -51v-283zM123 -578v1973q0 15 12 27t27 12h174q15 0 27 -12t12 -27v-615q96 58 192 58q167 0 281.5 -125.5t114.5 -302.5q0 -182 -121 -306t-295 -124 q-79 0 -172 45v-603q0 -15 -12 -26.5t-27 -11.5h-174q-15 0 -27 11.5t-12 26.5z"/>
<glyph glyph-name="OE" horiz-adv-x="1996" unicode="Œ" d="M350 715q0 -127 63 -236t171 -173t235 -64q94 0 160 26v895q-82 29 -160 29q-127 0 -235 -65t-171 -175t-63 -237zM84 715q0 101 26 197t73 177t114.5 149t148.5 115.5t176.5 74t196.5 26.5q49 0 99 -5t75 -10l25 -5h833q17 0 28 -11.5t11 -27.5v-168q0 -16 -11 -27.5 t-28 -11.5h-606v-336h506q15 0 27 -12t12 -27v-170q0 -17 -11.5 -28t-27.5 -11h-506v-358h606q17 0 28 -11.5t11 -27.5v-168q0 -16 -11 -27.5t-28 -11.5h-833q-115 -20 -199 -20q-151 0 -287.5 57.5t-234.5 155.5t-155.5 234.5t-57.5 287.5z"/>
<glyph glyph-name="oe" horiz-adv-x="1499" unicode="œ" d="M903 512h307q-3 58 -46.5 97.5t-102.5 39.5q-61 0 -105.5 -39t-52.5 -98zM283 414q0 -88 56.5 -150.5t139.5 -62.5t140 62.5t57 150.5q0 86 -57 145t-140 59t-139.5 -59t-56.5 -145zM59 414q0 114 56.5 212t153.5 156t210 58q84 0 160 -34.5t133 -94.5q116 129 295 129 q159 0 271 -108t112 -273q0 -28 -4 -56q-1 -15 -13 -24.5t-26 -9.5h-522q8 -70 60.5 -125.5t133.5 -55.5q84 0 162 54q35 23 53 0l82 -97q24 -32 -2 -53q-53 -50 -131.5 -81t-173.5 -31q-178 0 -297 129q-56 -61 -132 -95t-161 -34q-173 0 -296.5 128.5t-123.5 305.5z"/>
<glyph glyph-name="Ydieresis" horiz-adv-x="1193" unicode="Ÿ" d="M719 1718q0 54 37.5 91.5t91.5 37.5t92.5 -37.5t38.5 -91.5t-38.5 -92.5t-92.5 -38.5t-91.5 38.5t-37.5 92.5zM213 1718q0 54 37.5 91.5t91.5 37.5t92.5 -37.5t38.5 -91.5t-38.5 -92.5t-92.5 -38.5t-91.5 38.5t-37.5 92.5zM-4.5 1419.5q7.5 14.5 31.5 14.5h209 q18 0 32 -19l328 -471l328 471q14 19 32 19h211q24 0 31.5 -14.5t7.5 -24.5q0 -11 -6 -21l-473 -682v-653q0 -15 -12 -27t-27 -12h-188q-17 0 -28 11.5t-11 27.5v651l-467 684q-6 11 -6 21t7.5 24.5z"/>
<glyph glyph-name="circumflex" horiz-adv-x="763" unicode="ˆ" d="M75 1183.5q3 7.5 13 14.5l266 207q10 9 21 9t22 -9l267 -207q10 -7 13 -14.5t3 -11.5q0 -6 -4 -13l-53 -76q-17 -23 -48 -6l-198 125l-201 -125q-17 -9 -26 -9q-1 0 -6.5 1t-14.5 14l-53 76q-4 7 -4 13q0 4 3 11.5z"/>
<glyph glyph-name="tilde" horiz-adv-x="778" unicode="˜" d="M71.5 1211.5q-2.5 10.5 -2.5 16.5q0 8 3 13q12 23 18 33.5t29 41.5t43.5 48.5t54 33t68.5 15.5q36 0 68 -17.5t52 -39t46.5 -39t52.5 -17.5q24 0 43 19t28.5 39t26 31t35.5 -5l57 -41q14 -10 14 -27q0 -15 -12 -36q-1 -1 -8 -13.5t-10.5 -18t-12.5 -19t-15 -21.5 t-17.5 -20.5t-21 -20t-23 -17t-27 -14.5t-30 -8.5t-33.5 -3.5q-36 0 -70 18t-56 39.5t-49 39.5t-49 18q-24 0 -43 -19t-27.5 -39.5t-24.5 -32.5t-36 3l-59 43q-10 7 -12.5 17.5z"/>
<glyph glyph-name="uni2002" horiz-adv-x="1003" unicode=" "/>
<glyph glyph-name="uni2003" horiz-adv-x="2007" unicode=" "/>
<glyph glyph-name="uni2009" horiz-adv-x="401" unicode=" "/>
<glyph glyph-name="endash" horiz-adv-x="1103" unicode="–" d="M109 467v76q0 17 10.5 28t27.5 11h809q17 0 28 -11t11 -28v-76q0 -15 -11 -26t-28 -11h-809q-17 0 -27.5 11t-10.5 26z"/>
<glyph glyph-name="emdash" horiz-adv-x="1554" unicode="—" d="M109 467v76q0 17 10.5 28t27.5 11h1260q17 0 28 -11t11 -28v-76q0 -15 -11 -26t-28 -11h-1260q-17 0 -27.5 11t-10.5 26z"/>
<glyph glyph-name="quoteleft" horiz-adv-x="405" unicode="‘" d="M49 1069q0 208 184 371q13 10 24 10q12 0 22 -12l30 -31q9 -10 7.5 -23t-13.5 -22q-62 -54 -92 -100q-46 -72 -47 -150q1 0 9.5 2.5t23.5 5t30 2.5q56 0 97 -40t41 -97q0 -56 -43 -96.5t-105 -40.5q-66 0 -117 53t-51 168z"/>
<glyph glyph-name="quotesinglbase" horiz-adv-x="466" unicode="‚" d="M76 117q0 56 42.5 96.5t104.5 40.5q30 0 58 -11.5t54 -35.5t42 -69t16 -105q0 -208 -184 -371q-13 -10 -24 -10q-12 0 -23 12l-31 31q-9 11 -7 23.5t13 21.5q13 9 31 26.5t44.5 49.5t44.5 78.5t19 95.5l-4 -1q-3 -1 -9 -2.5t-13 -3t-17 -2.5t-20 -1q-56 0 -96.5 40 t-40.5 97z"/>
<glyph glyph-name="quotedblleft" horiz-adv-x="802" unicode="“" d="M442 1071q0 207 185 371q13 10 24 10q12 0 23 -12l31 -29q9 -11 6.5 -24.5t-13.5 -22.5q-137 -107 -139 -250l3 1l10 2.5t13.5 3t17.5 2.5t20 1q56 0 96.5 -39.5t40.5 -95.5q0 -57 -42.5 -97t-105.5 -40q-67 0 -118.5 52.5t-51.5 166.5zM49 1071q0 208 184 371 q13 10 24 10q12 0 22 -12l30 -29q9 -10 7.5 -24t-13.5 -23q-137 -107 -139 -250q1 0 9.5 2.5t23.5 5t30 2.5q56 0 97 -39.5t41 -95.5q0 -57 -42.5 -97t-105.5 -40q-30 0 -58 11t-53.5 35t-41 68.5t-15.5 104.5z"/>
<glyph glyph-name="quotedblright" horiz-adv-x="796" unicode="”" d="M436 1317q0 57 42.5 97t105.5 40q67 0 118.5 -52.5t51.5 -166.5q0 -207 -185 -371q-13 -10 -24 -10q-12 0 -23 12l-30 29q-9 11 -7 24.5t13 22.5q13 9 31 26t44.5 49t44.5 78.5t19 96.5l-3 -1l-10 -2.5t-13.5 -3t-17.5 -2.5t-20 -1q-56 0 -96.5 39.5t-40.5 95.5zM43 1317 q0 58 41.5 97.5t103.5 39.5q67 0 118.5 -52.5t51.5 -166.5q0 -208 -184 -371q-12 -9 -24 -9t-23 11l-29 29q-10 11 -8.5 24.5t12.5 22.5q14 10 31.5 26.5t45 48.5t45.5 78.5t18 96.5l-4 -1q-3 -1 -9 -2.5t-13.5 -3t-17 -2.5t-18.5 -1q-57 0 -97 39t-40 96z"/>
<glyph glyph-name="ellipsis" horiz-adv-x="1368" unicode="…" d="M977 127q0 61 42.5 104t104.5 43t105 -43t43 -104q0 -60 -43.5 -103.5t-104.5 -43.5t-104 43.5t-43 103.5zM541 127q0 61 42.5 104t102.5 43q62 0 106 -43t44 -104q0 -60 -44.5 -103.5t-105.5 -43.5q-60 0 -102.5 43.5t-42.5 103.5zM96 127q0 61 43 104t103 43 q62 0 105.5 -43t43.5 -104q0 -60 -44 -103.5t-105 -43.5q-60 0 -103 43.5t-43 103.5z"/>
<glyph glyph-name="guilsinglleft" horiz-adv-x="555" unicode="‹" d="M53 397q-9 12 -9 24t9 25l223 304q14 24 37 24h117q26 0 34 -19q4 -8 4 -17q0 -13 -7 -27l-139 -285l133 -301q11 -25 3 -43t-34 -19h-127q-18 0 -31 17z"/>
<glyph glyph-name="guilsinglright" horiz-adv-x="555" unicode="›" d="M88 755q8 19 35 19h117q22 0 36 -24l224 -304q8 -13 8 -25t-8 -24l-213 -317q-13 -17 -31 -17h-127q-25 1 -33 19t2 43l133 301l-139 285q-7 15 -7 27q-1 9 3 17z"/>
<glyph glyph-name="Euro" horiz-adv-x="1470" unicode="€" d="M41 551v27q0 15 11 26.5t26 11.5h80q-6 50 -6 99q0 29 2 43h-76q-15 0 -26 12t-11 27v26q0 15 11 27t26 12h88q34 168 137 302.5t257.5 212t330.5 77.5q151 0 269.5 -47t225.5 -143q13 -12 14 -29t-11 -29l-123 -127q-10 -12 -27 -12t-29 12q-131 119 -313 119 q-157 0 -275.5 -94t-160.5 -242h477q17 0 28 -11.5t11 -27.5v-30q0 -15 -11 -26t-28 -11h-498v-35q0 -57 11 -105h405q17 0 28 -11.5t11 -26.5v-29q0 -15 -11 -26t-28 -11h-369q55 -119 165 -191.5t247 -72.5q169 0 313 117q12 10 27.5 9.5t24.5 -9.5l127 -132 q10 -10 10 -25q0 -18 -12 -30q-204 -198 -498 -198q-251 0 -447.5 149t-263.5 383h-102q-15 0 -26 12t-11 27z"/>
<glyph glyph-name="trademark" horiz-adv-x="1476" unicode="™" d="M653 836l107 577q4 31 39 31h8q26 0 35 -23l178 -379l182 379q10 23 35 23h8q15 0 26 -9.5t13 -21.5l109 -579q1 -4 1 -8q0 -14 -10.5 -26t-29.5 -12h-80q-13 0 -24.5 10.5t-14.5 24.5l-45 256l-131 -278q-8 -19 -33 -19h-12q-24 0 -35 21l-125 276l-49 -258 q-1 -12 -14 -22.5t-25 -10.5h-74q-20 0 -31 14.5t-8 33.5zM88 1321v74q0 15 12 27t27 12h420q17 0 28 -11.5t11 -27.5v-74q0 -17 -11 -28t-28 -11h-131v-455q0 -15 -12 -27t-27 -12h-80q-17 0 -28 11.5t-11 27.5v455h-131q-16 0 -27.5 11t-11.5 28z"/>
</font>
</defs>
</svg>
