<?xml version="1.0" encoding="utf-8"?>
<!-- Generator: Adobe Illustrator 16.0.0, SVG Export Plug-In . SVG Version: 6.00 Build 0)  -->
<!DOCTYPE svg PUBLIC "-//W3C//DTD SVG 1.1//EN" "http://www.w3.org/Graphics/SVG/1.1/DTD/svg11.dtd">
<svg version="1.1" id="Layer_1" xmlns="http://www.w3.org/2000/svg" xmlns:xlink="http://www.w3.org/1999/xlink" x="0px" y="0px"
	 width="100px" height="100px" viewBox="0 0 100 100" enable-background="new 0 0 100 100" xml:space="preserve">
<g>
	<path fill="#FFFFFF" d="M45.3,36.001c0,1.118,0.781,1.899,1.9,1.899c1.119,0,1.9-0.781,1.9-1.899c0-1.119-0.781-1.9-1.9-1.9
		C46.081,34.101,45.3,34.882,45.3,36.001z"/>
	<path fill="#FFFFFF" d="M45.3,27.601c0,1.118,0.781,1.899,1.9,1.899c1.119,0,1.9-0.781,1.9-1.899c0-1.119-0.781-1.9-1.9-1.9
		C46.081,25.7,45.3,26.481,45.3,27.601z"/>
	<path fill="#FFFFFF" d="M51.9,48.601c0-1.119-0.781-1.9-1.9-1.9s-1.9,0.781-1.9,1.9s0.781,1.9,1.9,1.9S51.9,49.72,51.9,48.601z"/>
	<path fill="#FFFFFF" d="M50,21.5c-1.119,0-1.9,0.781-1.9,1.9c0,1.119,0.781,1.9,1.9,1.9s1.9-0.781,1.9-1.9
		C51.9,22.281,51.119,21.5,50,21.5z"/>
	<path fill="#FFFFFF" d="M52.8,50.9c-1.118,0-1.899,0.781-1.899,1.898c0,1.119,0.781,1.9,1.899,1.9s1.899-0.781,1.899-1.9
		C54.699,51.682,53.918,50.9,52.8,50.9z"/>
	<path fill="#FFFFFF" d="M45.3,44.4c0,1.118,0.781,1.899,1.9,1.899c1.119,0,1.9-0.781,1.9-1.899c0-1.118-0.781-1.899-1.9-1.899
		C46.081,42.501,45.3,43.282,45.3,44.4z"/>
	<path fill="#FFFFFF" d="M54.699,36.001c0-1.119-0.781-1.9-1.899-1.9s-1.899,0.781-1.899,1.9c0,1.118,0.781,1.899,1.899,1.899
		S54.699,37.119,54.699,36.001z"/>
	<path fill="#FFFFFF" d="M48.1,40.2c0,1.119,0.781,1.9,1.9,1.9s1.9-0.781,1.9-1.9c0-1.118-0.781-1.899-1.9-1.899
		S48.1,39.082,48.1,40.2z"/>
	<path fill="#FFFFFF" d="M54.699,27.601c0-1.119-0.781-1.9-1.899-1.9s-1.899,0.781-1.899,1.9c0,1.118,0.781,1.899,1.899,1.899
		S54.699,28.719,54.699,27.601z"/>
	<path fill="#FFFFFF" d="M51.9,31.801c0-1.119-0.781-1.9-1.9-1.9s-1.9,0.781-1.9,1.9c0,1.118,0.781,1.899,1.9,1.899
		S51.9,32.919,51.9,31.801z"/>
	<path fill="#FFFFFF" d="M47.2,50.9c-1.119,0-1.9,0.781-1.9,1.898c0,1.119,0.781,1.9,1.9,1.9c1.119,0,1.9-0.781,1.9-1.9
		C49.1,51.682,48.319,50.9,47.2,50.9z"/>
	<path fill="#FFFFFF" d="M52.8,46.3c1.118,0,1.899-0.781,1.899-1.899c0-1.118-0.781-1.899-1.899-1.899S50.9,43.282,50.9,44.4
		C50.9,45.518,51.682,46.3,52.8,46.3z"/>
	<path fill="#FFFFFF" d="M55.6,46.7c-1.119,0-1.899,0.781-1.899,1.9c0,1.119,0.78,1.9,1.899,1.9s1.9-0.781,1.9-1.9
		C57.5,47.481,56.719,46.7,55.6,46.7z"/>
	<path fill="#FFFFFF" d="M44.4,42.101c1.119,0,1.9-0.781,1.9-1.9c0-1.118-0.781-1.899-1.9-1.899s-1.9,0.781-1.9,1.899
		C42.5,41.319,43.281,42.101,44.4,42.101z"/>
	<path fill="#FFFFFF" d="M44.4,16.9c1.119,0,1.9-0.781,1.9-1.9c0-1.118-0.781-1.899-1.9-1.899S42.5,13.882,42.5,15
		C42.5,16.119,43.281,16.9,44.4,16.9z"/>
	<path fill="#FFFFFF" d="M44.4,25.301c1.119,0,1.9-0.781,1.9-1.9c0-1.119-0.781-1.9-1.9-1.9s-1.9,0.781-1.9,1.9
		C42.5,24.52,43.281,25.301,44.4,25.301z"/>
	<path fill="#FFFFFF" d="M44.4,50.501c1.119,0,1.9-0.781,1.9-1.9c0-1.119-0.781-1.9-1.9-1.9s-1.9,0.781-1.9,1.9
		C42.5,49.72,43.281,50.501,44.4,50.501z"/>
	<path fill="#FFFFFF" d="M44.4,33.7c1.119,0,1.9-0.781,1.9-1.899c0-1.119-0.781-1.9-1.9-1.9s-1.9,0.781-1.9,1.9
		C42.5,32.919,43.281,33.7,44.4,33.7z"/>
	<path fill="#FFFFFF" d="M50,61.7c7.995,0,14.5-6.505,14.5-14.5v-28c0-7.995-6.505-14.5-14.5-14.5s-14.5,6.505-14.5,14.5v28
		C35.5,55.195,42.005,61.7,50,61.7z M50,8.5c5.9,0,10.699,4.801,10.699,10.7v28C60.699,53.1,55.9,57.9,50,57.9
		c-5.9,0-10.7-4.801-10.7-10.7v-28C39.3,13.301,44.1,8.5,50,8.5z"/>
	<path fill="#FFFFFF" d="M75.699,47.2v-8.399c0-1.819-1.48-3.3-3.299-3.3H69.6c-1.119,0-1.899,0.781-1.899,1.899
		c0,1.119,0.78,1.9,1.899,1.9H71.9v7.9C71.9,59.275,62.076,69.1,50,69.1S28.1,59.275,28.1,47.2v-7.899h2.3
		c1.119,0,1.9-0.781,1.9-1.9c0-1.118-0.781-1.899-1.9-1.899h-2.8c-1.819,0-3.3,1.48-3.3,3.3V47.2c0,11.678,8.219,22.142,19.6,25.032
		v5.269H30.4c-3.363,0-6.1,2.735-6.1,6.101V93.4c0,1.119,0.781,1.899,1.9,1.899h47.6c1.118,0,1.899-0.78,1.899-1.899v-9.799
		c0-3.363-2.736-6.101-6.1-6.101H56.1v-5.269C67.48,69.342,75.699,58.878,75.699,47.2z M47.7,77.501v-4.672
		C48.432,72.9,49.227,72.9,50,72.9c0.805,0,1.52,0,2.3-0.076v4.677H47.7z M28.1,83.602c0-1.27,1.032-2.302,2.3-2.302h39.2
		c1.27,0,2.301,1.032,2.301,2.302v7.899H28.1V83.602z"/>
	<path fill="#FFFFFF" d="M55.6,21.5c-1.119,0-1.899,0.781-1.899,1.9c0,1.119,0.78,1.9,1.899,1.9s1.9-0.781,1.9-1.9
		C57.5,22.281,56.719,21.5,55.6,21.5z"/>
	<path fill="#FFFFFF" d="M55.6,16.9c1.119,0,1.9-0.781,1.9-1.9c0-1.118-0.781-1.899-1.9-1.899S53.7,13.882,53.7,15
		C53.699,16.119,54.48,16.9,55.6,16.9z"/>
	<path fill="#FFFFFF" d="M55.6,38.301c-1.119,0-1.899,0.781-1.899,1.899c0,1.119,0.78,1.9,1.899,1.9s1.9-0.781,1.9-1.9
		C57.5,39.082,56.719,38.301,55.6,38.301z"/>
	<path fill="#FFFFFF" d="M45.3,19.2c0,1.119,0.781,1.9,1.9,1.9c1.119,0,1.9-0.781,1.9-1.9c0-1.118-0.781-1.899-1.9-1.899
		C46.081,17.301,45.3,18.082,45.3,19.2z"/>
	<path fill="#FFFFFF" d="M55.6,29.9c-1.119,0-1.899,0.781-1.899,1.9c0,1.118,0.78,1.899,1.899,1.899s1.9-0.781,1.9-1.899
		C57.5,30.682,56.719,29.9,55.6,29.9z"/>
	<path fill="#FFFFFF" d="M50.9,19.2c0,1.119,0.781,1.9,1.898,1.9c1.118,0,1.899-0.781,1.899-1.9c0-1.118-0.781-1.899-1.899-1.899
		C51.682,17.301,50.9,18.082,50.9,19.2z"/>
	<path fill="#FFFFFF" d="M50,16.9c1.119,0,1.9-0.781,1.9-1.9c0-1.118-0.781-1.899-1.9-1.899S48.1,13.882,48.1,15
		C48.1,16.119,48.881,16.9,50,16.9z"/>
</g>
</svg>
